{
  "asset": {
    "version": "2.0"
  },
  "bufferViews": [
    {
      "buffer": 0,
      "byteLength": 1560,
      "byteOffset": 0
    },
    {
      "buffer": 0,
      "byteLength": 1040,
      "byteOffset": 1560
    },
    {
      "buffer": 0,
      "byteLength": 520,
      "byteStride": 4,
      "byteOffset": 2600
    },
    {
      "buffer": 0,
      "byteOffset": 3120,
      "byteStride": 4,
      "byteLength": 520
    },
    {
      "buffer": 0,
      "byteOffset": 3640,
      "byteStride": 4,
      "byteLength": 520
    },
    {
      "buffer": 0,
      "byteLength": 480,
      "byteOffset": 4160
    },
    {
      "buffer": 0,
      "byteLength": 192,
      "byteOffset": 4640
    },
    {
      "buffer": 0,
      "byteLength": 1316,
      "byteOffset": 4832
    },
    {
      "buffer": 0,
      "byteOffset": 6148,
      "byteLength": 320
    }
  ],
  "accessors": [
    {
      "bufferView": 0,
      "type": "VEC3",
      "componentType": 5126,
      "count": 130,
      "min": [
        -28,
        3.876403331756592,
        17
      ],
      "max": [
        -12,
        44,
        21
      ]
    },
    {
      "bufferView": 1,
      "type": "VEC2",
      "componentType": 5126,
      "count": 130
    },
    {
      "bufferView": 2,
      "type": "VEC3",
      "componentType": 5121,
      "normalized": true,
      "count": 130
    },
    {
      "bufferView": 3,
      "type": "VEC4",
      "componentType": 5121,
      "count": 130
    },
    {
      "bufferView": 4,
      "type": "VEC4",
      "componentType": 5121,
      "normalized": true,
      "count": 130
    },
    {
      "bufferView": 5,
      "type": "SCALAR",
      "byteOffset": 0,
      "componentType": 5123,
      "count": 6
    },
    {
      "bufferView": 5,
      "type": "SCALAR",
      "byteOffset": 12,
      "componentType": 5123,
      "count": 6
    },
    {
      "bufferView": 5,
      "type": "SCALAR",
      "byteOffset": 24,
      "componentType": 5123,
      "count": 174
    },
    {
      "bufferView": 5,
      "type": "SCALAR",
      "byteOffset": 372,
      "componentType": 5123,
      "count": 12
    },
    {
      "bufferView": 5,
      "type": "SCALAR",
      "byteOffset": 396,
      "componentType": 5123,
      "count": 42
    },
    {
      "bufferView": 6,
      "type": "MAT4",
      "componentType": 5126,
      "count": 3
    },
    {
      "bufferView": 8,
      "type": "SCALAR",
      "componentType": 5126,
      "byteOffset": 0,
      "count": 1,
      "min": [
        0
      ],
      "max": [
        0
      ]
    },
    {
      "bufferView": 7,
      "type": "VEC3",
      "componentType": 5126,
      "byteOffset": 0,
      "count": 1
    },
    {
      "bufferView": 7,
      "type": "VEC3",
      "componentType": 5126,
      "byteOffset": 12,
      "count": 1
    },
    {
      "bufferView": 7,
      "type": "VEC3",
      "componentType": 5126,
      "byteOffset": 24,
      "count": 1
    },
    {
      "bufferView": 8,
      "type": "SCALAR",
      "componentType": 5126,
      "byteOffset": 0,
      "count": 80,
      "min": [
        0
      ],
      "max": [
        1.3166667222976685
      ]
    },
    {
      "bufferView": 7,
      "type": "VEC4",
      "componentType": 5126,
      "byteOffset": 36,
      "count": 80
    }
  ],
  "extensionsUsed": [
    "FB_ngon_encoding",
    "KHR_materials_unlit"
  ],
  "meshes": [
    {
      "primitives": [
        {
          "attributes": {
            "POSITION": 0,
            "TEXCOORD_0": 1,
            "COLOR_0": 2,
            "JOINTS_0": 3,
            "WEIGHTS_0": 4
          },
          "material": 1,
          "indices": 5,
          "extensions": {
            "FB_ngon_encoding": {}
          }
        },
        {
          "attributes": {
            "POSITION": 0,
            "TEXCOORD_0": 1,
            "COLOR_0": 2,
            "JOINTS_0": 3,
            "WEIGHTS_0": 4
          },
          "material": 2,
          "indices": 6,
          "extensions": {
            "FB_ngon_encoding": {}
          }
        },
        {
          "attributes": {
            "POSITION": 0,
            "TEXCOORD_0": 1,
            "COLOR_0": 2,
            "JOINTS_0": 3,
            "WEIGHTS_0": 4
          },
          "material": 0,
          "indices": 7,
          "extensions": {
            "FB_ngon_encoding": {}
          }
        },
        {
          "attributes": {
            "POSITION": 0,
            "TEXCOORD_0": 1,
            "COLOR_0": 2,
            "JOINTS_0": 3,
            "WEIGHTS_0": 4
          },
          "material": 0,
          "indices": 8,
          "extensions": {
            "FB_ngon_encoding": {}
          }
        },
        {
          "attributes": {
            "POSITION": 0,
            "TEXCOORD_0": 1,
            "COLOR_0": 2,
            "JOINTS_0": 3,
            "WEIGHTS_0": 4
          },
          "material": 3,
          "indices": 9,
          "extensions": {
            "FB_ngon_encoding": {}
          }
        }
      ],
      "name": "t7_o17"
    }
  ],
  "nodes": [
    {
      "children": [
        1,
        2
      ],
      "name": "polySurface9",
      "translation": [
        0,
        22.10791015625,
        20
      ]
    },
    {
      "name": "polySurface11",
      "translation": [
        0,
        -22.10791015625,
        -20
      ]
    },
    {
      "name": "polySurface12",
      "translation": [
        -20,
        -2.60791015625,
        -20
      ],
      "rotation": [
        0,
        0,
        -0.3420246540891228,
        0.9396909789900168
      ]
    },
    {
      "mesh": 0,
      "skin": 0,
      "name": "t7_o17",
      "children": [
        0
      ]
    }
  ],
  "skins": [
    {
      "skeleton": 0,
      "joints": [
        0,
        1,
        2
      ],
      "inverseBindMatrices": 10
    }
  ],
  "scenes": [
    {
      "nodes": [
        3
      ],
      "name": "t7_o17"
    }
  ],
  "scene": 0,
  "animations": [
    {
      "name": "t7_o17",
      "samplers": [
        {
          "input": 11,
          "output": 12
        },
        {
          "input": 11,
          "output": 13
        },
        {
          "input": 11,
          "output": 14
        },
        {
          "input": 15,
          "output": 16
        }
      ],
      "channels": [
        {
          "target": {
            "node": 0,
            "path": "translation"
          },
          "sampler": 0
        },
        {
          "target": {
            "node": 1,
            "path": "translation"
          },
          "sampler": 1
        },
        {
          "target": {
            "node": 2,
            "path": "translation"
          },
          "sampler": 2
        },
        {
          "target": {
            "node": 2,
            "path": "rotation"
          },
          "sampler": 3
        }
      ]
    }
  ],
  "samplers": [
    {
      "wrapS": 10497,
      "wrapT": 10497,
      "magFilter": 9728,
      "minFilter": 9728
    }
  ],
  "images": [
    {
      "uri": "tokei_01.png"
    },
    {
      "uri": "tokei_02.png"
    },
    {
      "uri": "tokei_03.png"
    },
    {
      "uri": "tokei_04.png"
    }
  ],
  "textures": [
    {
      "source": 0,
      "sampler": 0
    },
    {
      "source": 1,
      "sampler": 0
    },
    {
      "source": 2,
      "sampler": 0
    },
    {
      "source": 3,
      "sampler": 0
    }
  ],
  "materials": [
    {
      "name": "tokei_01",
      "pbrMetallicRoughness": {
        "baseColorTexture": {
          "index": 0
        },
        "metallicFactor": 0
      },
      "extensions": {
        "KHR_materials_unlit": {}
      }
    },
    {
      "name": "tokei_02",
      "pbrMetallicRoughness": {
        "baseColorTexture": {
          "index": 1
        },
        "metallicFactor": 0
      },
      "extensions": {
        "KHR_materials_unlit": {}
      },
      "alphaMode": "MASK"
    },
    {
      "name": "tokei_03",
      "pbrMetallicRoughness": {
        "baseColorTexture": {
          "index": 2
        },
        "metallicFactor": 0
      },
      "extensions": {
        "KHR_materials_unlit": {}
      },
      "alphaMode": "MASK"
    },
    {
      "name": "tokei_04",
      "pbrMetallicRoughness": {
        "baseColorTexture": {
          "index": 3
        },
        "metallicFactor": 0
      },
      "extensions": {
        "KHR_materials_unlit": {}
      }
    }
  ],
  "buffers": [
    {
      "byteLength": 6468,
      "uri": "t7_o17.bin"
    }
  ]
}