{
  "asset": {
    "version": "2.0"
  },
  "bufferViews": [
    {
      "buffer": 0,
      "byteLength": 6912,
      "byteOffset": 0
    },
    {
      "buffer": 0,
      "byteLength": 4608,
      "byteOffset": 6912
    },
    {
      "buffer": 0,
      "byteLength": 2304,
      "byteStride": 4,
      "byteOffset": 11520
    },
    {
      "buffer": 0,
      "byteLength": 6912,
      "byteOffset": 13824
    },
    {
      "buffer": 0,
      "byteOffset": 20736,
      "byteStride": 4,
      "byteLength": 2304
    },
    {
      "buffer": 0,
      "byteOffset": 23040,
      "byteStride": 4,
      "byteLength": 2304
    },
    {
      "buffer": 0,
      "byteLength": 1728,
      "byteOffset": 25344
    },
    {
      "buffer": 0,
      "byteLength": 64,
      "byteOffset": 27072
    }
  ],
  "accessors": [
    {
      "bufferView": 0,
      "type": "VEC3",
      "componentType": 5126,
      "count": 576,
      "min": [
        -260,
        0,
        -257.921875
      ],
      "max": [
        260,
        43.5625,
        256
      ]
    },
    {
      "bufferView": 1,
      "type": "VEC2",
      "componentType": 5126,
      "count": 576
    },
    {
      "bufferView": 2,
      "type": "VEC3",
      "componentType": 5121,
      "normalized": true,
      "count": 576
    },
    {
      "bufferView": 3,
      "type": "VEC3",
      "componentType": 5126,
      "count": 576
    },
    {
      "bufferView": 4,
      "type": "VEC4",
      "componentType": 5121,
      "count": 576
    },
    {
      "bufferView": 5,
      "type": "VEC4",
      "componentType": 5121,
      "normalized": true,
      "count": 576
    },
    {
      "bufferView": 6,
      "type": "SCALAR",
      "byteOffset": 0,
      "componentType": 5123,
      "count": 96
    },
    {
      "bufferView": 6,
      "type": "SCALAR",
      "byteOffset": 192,
      "componentType": 5123,
      "count": 384
    },
    {
      "bufferView": 6,
      "type": "SCALAR",
      "byteOffset": 960,
      "componentType": 5123,
      "count": 384
    },
    {
      "bufferView": 7,
      "type": "MAT4",
      "componentType": 5126,
      "count": 1
    }
  ],
  "extensionsUsed": [
    "FB_ngon_encoding",
    "KHR_materials_unlit"
  ],
  "meshes": [
    {
      "primitives": [
        {
          "attributes": {
            "POSITION": 0,
            "TEXCOORD_0": 1,
            "COLOR_0": 2,
            "NORMAL": 3,
            "JOINTS_0": 4,
            "WEIGHTS_0": 5
          },
          "material": 2,
          "indices": 6,
          "extensions": {
            "FB_ngon_encoding": {}
          }
        },
        {
          "attributes": {
            "POSITION": 0,
            "TEXCOORD_0": 1,
            "COLOR_0": 2,
            "NORMAL": 3,
            "JOINTS_0": 4,
            "WEIGHTS_0": 5
          },
          "material": 0,
          "indices": 7,
          "extensions": {
            "FB_ngon_encoding": {}
          }
        },
        {
          "attributes": {
            "POSITION": 0,
            "TEXCOORD_0": 1,
            "COLOR_0": 2,
            "NORMAL": 3,
            "JOINTS_0": 4,
            "WEIGHTS_0": 5
          },
          "material": 1,
          "indices": 8,
          "extensions": {
            "FB_ngon_encoding": {}
          }
        }
      ],
      "name": "ro_tree4c"
    }
  ],
  "nodes": [
    {
      "name": "polySurface2"
    },
    {
      "mesh": 0,
      "skin": 0,
      "name": "ro_tree4c",
      "children": [
        0
      ]
    }
  ],
  "skins": [
    {
      "skeleton": 0,
      "joints": [
        0
      ],
      "inverseBindMatrices": 9
    }
  ],
  "scenes": [
    {
      "nodes": [
        1
      ],
      "name": "ro_tree4c"
    }
  ],
  "scene": 0,
  "samplers": [
    {
      "wrapS": 10497,
      "wrapT": 10497,
      "magFilter": 9728,
      "minFilter": 9728
    }
  ],
  "images": [
    {
      "uri": "conttree3_2.png"
    },
    {
      "uri": "tree3_02.png"
    },
    {
      "uri": "tshadow.png"
    }
  ],
  "textures": [
    {
      "source": 0,
      "sampler": 0
    },
    {
      "source": 1,
      "sampler": 0
    },
    {
      "source": 2,
      "sampler": 0
    }
  ],
  "materials": [
    {
      "name": "conttree3_2_lm1",
      "pbrMetallicRoughness": {
        "baseColorTexture": {
          "index": 0
        },
        "metallicFactor": 0
      },
      "extensions": {
        "KHR_materials_unlit": {}
      },
      "alphaMode": "MASK"
    },
    {
      "name": "tree3_02_lm1",
      "pbrMetallicRoughness": {
        "baseColorTexture": {
          "index": 1
        },
        "metallicFactor": 0
      },
      "extensions": {
        "KHR_materials_unlit": {}
      },
      "alphaMode": "MASK"
    },
    {
      "name": "tshadow_lm11",
      "pbrMetallicRoughness": {
        "baseColorTexture": {
          "index": 2
        },
        "metallicFactor": 0
      },
      "extensions": {
        "KHR_materials_unlit": {}
      }
    }
  ],
  "buffers": [
    {
      "byteLength": 27136,
      "uri": "ro_tree4c.bin"
    }
  ]
}