{
  "asset": {
    "version": "2.0"
  },
  "bufferViews": [
    {
      "buffer": 0,
      "byteLength": 504,
      "byteOffset": 0
    },
    {
      "buffer": 0,
      "byteLength": 336,
      "byteOffset": 504
    },
    {
      "buffer": 0,
      "byteLength": 168,
      "byteStride": 4,
      "byteOffset": 840
    },
    {
      "buffer": 0,
      "byteLength": 504,
      "byteOffset": 1008
    },
    {
      "buffer": 0,
      "byteOffset": 1512,
      "byteStride": 4,
      "byteLength": 168
    },
    {
      "buffer": 0,
      "byteOffset": 1680,
      "byteStride": 4,
      "byteLength": 168
    },
    {
      "buffer": 0,
      "byteLength": 108,
      "byteOffset": 1848
    },
    {
      "buffer": 0,
      "byteLength": 64,
      "byteOffset": 1956
    },
    {
      "buffer": 0,
      "byteLength": 480,
      "byteOffset": 2020
    },
    {
      "buffer": 0,
      "byteOffset": 2500,
      "byteLength": 120
    }
  ],
  "accessors": [
    {
      "bufferView": 0,
      "type": "VEC3",
      "componentType": 5126,
      "count": 42,
      "min": [
        -2.517578125,
        -2.517578125,
        -2.394287109375
      ],
      "max": [
        2.036865234375,
        4.051513671875,
        2.394287109375
      ]
    },
    {
      "bufferView": 1,
      "type": "VEC2",
      "componentType": 5126,
      "count": 42
    },
    {
      "bufferView": 2,
      "type": "VEC3",
      "componentType": 5121,
      "normalized": true,
      "count": 42
    },
    {
      "bufferView": 3,
      "type": "VEC3",
      "componentType": 5126,
      "count": 42
    },
    {
      "bufferView": 4,
      "type": "VEC4",
      "componentType": 5121,
      "count": 42
    },
    {
      "bufferView": 5,
      "type": "VEC4",
      "componentType": 5121,
      "normalized": true,
      "count": 42
    },
    {
      "bufferView": 6,
      "type": "SCALAR",
      "byteOffset": 0,
      "componentType": 5123,
      "count": 54
    },
    {
      "bufferView": 7,
      "type": "MAT4",
      "componentType": 5126,
      "count": 1
    },
    {
      "bufferView": 9,
      "type": "SCALAR",
      "componentType": 5126,
      "byteOffset": 0,
      "count": 30,
      "min": [
        0
      ],
      "max": [
        0.4833333492279053
      ]
    },
    {
      "bufferView": 8,
      "type": "VEC4",
      "componentType": 5126,
      "byteOffset": 0,
      "count": 30
    }
  ],
  "extensionsUsed": [
    "FB_ngon_encoding",
    "KHR_materials_unlit"
  ],
  "meshes": [
    {
      "primitives": [
        {
          "attributes": {
            "POSITION": 0,
            "TEXCOORD_0": 1,
            "COLOR_0": 2,
            "NORMAL": 3,
            "JOINTS_0": 4,
            "WEIGHTS_0": 5
          },
          "material": 0,
          "indices": 6,
          "extensions": {
            "FB_ngon_encoding": {}
          }
        }
      ],
      "name": "g_egg_cursor3"
    }
  ],
  "nodes": [
    {
      "name": "polySurface1"
    },
    {
      "mesh": 0,
      "skin": 0,
      "name": "g_egg_cursor3",
      "children": [
        0
      ]
    }
  ],
  "skins": [
    {
      "skeleton": 0,
      "joints": [
        0
      ],
      "inverseBindMatrices": 7
    }
  ],
  "scenes": [
    {
      "nodes": [
        1
      ],
      "name": "g_egg_cursor3"
    }
  ],
  "scene": 0,
  "animations": [
    {
      "name": "g_egg_cursor3",
      "samplers": [
        {
          "input": 8,
          "output": 9
        }
      ],
      "channels": [
        {
          "target": {
            "node": 0,
            "path": "rotation"
          },
          "sampler": 0
        }
      ]
    }
  ],
  "samplers": [
    {
      "wrapS": 10497,
      "wrapT": 10497,
      "magFilter": 9728,
      "minFilter": 9728
    }
  ],
  "images": [
    {
      "uri": "cursor_col.png"
    }
  ],
  "textures": [
    {
      "source": 0,
      "sampler": 0
    }
  ],
  "materials": [
    {
      "name": "cursor_col_lm1",
      "pbrMetallicRoughness": {
        "baseColorTexture": {
          "index": 0
        },
        "metallicFactor": 0
      },
      "extensions": {
        "KHR_materials_unlit": {}
      }
    }
  ],
  "buffers": [
    {
      "byteLength": 2620,
      "uri": "g_egg_cursor3.bin"
    }
  ]
}