{
  "asset": {
    "version": "2.0"
  },
  "bufferViews": [
    {
      "buffer": 0,
      "byteLength": 4392,
      "byteOffset": 0
    },
    {
      "buffer": 0,
      "byteLength": 2928,
      "byteOffset": 4392
    },
    {
      "buffer": 0,
      "byteLength": 1464,
      "byteStride": 4,
      "byteOffset": 7320
    },
    {
      "buffer": 0,
      "byteOffset": 8784,
      "byteStride": 4,
      "byteLength": 1464
    },
    {
      "buffer": 0,
      "byteOffset": 10248,
      "byteStride": 4,
      "byteLength": 1464
    },
    {
      "buffer": 0,
      "byteLength": 1248,
      "byteOffset": 11712
    },
    {
      "buffer": 0,
      "byteLength": 64,
      "byteOffset": 12960
    }
  ],
  "accessors": [
    {
      "bufferView": 0,
      "type": "VEC3",
      "componentType": 5126,
      "count": 366,
      "min": [
        -240,
        -2,
        -214
      ],
      "max": [
        64,
        46,
        -48
      ]
    },
    {
      "bufferView": 1,
      "type": "VEC2",
      "componentType": 5126,
      "count": 366
    },
    {
      "bufferView": 2,
      "type": "VEC3",
      "componentType": 5121,
      "normalized": true,
      "count": 366
    },
    {
      "bufferView": 3,
      "type": "VEC4",
      "componentType": 5121,
      "count": 366
    },
    {
      "bufferView": 4,
      "type": "VEC4",
      "componentType": 5121,
      "normalized": true,
      "count": 366
    },
    {
      "bufferView": 5,
      "type": "SCALAR",
      "byteOffset": 0,
      "componentType": 5123,
      "count": 12
    },
    {
      "bufferView": 5,
      "type": "SCALAR",
      "byteOffset": 24,
      "componentType": 5123,
      "count": 72
    },
    {
      "bufferView": 5,
      "type": "SCALAR",
      "byteOffset": 168,
      "componentType": 5123,
      "count": 105
    },
    {
      "bufferView": 5,
      "type": "SCALAR",
      "byteOffset": 378,
      "componentType": 5123,
      "count": 195
    },
    {
      "bufferView": 5,
      "type": "SCALAR",
      "byteOffset": 768,
      "componentType": 5123,
      "count": 240
    },
    {
      "bufferView": 6,
      "type": "MAT4",
      "componentType": 5126,
      "count": 1
    }
  ],
  "extensionsUsed": [
    "FB_ngon_encoding",
    "KHR_materials_unlit"
  ],
  "meshes": [
    {
      "primitives": [
        {
          "attributes": {
            "POSITION": 0,
            "TEXCOORD_0": 1,
            "COLOR_0": 2,
            "JOINTS_0": 3,
            "WEIGHTS_0": 4
          },
          "material": 0,
          "indices": 5,
          "extensions": {
            "FB_ngon_encoding": {}
          }
        },
        {
          "attributes": {
            "POSITION": 0,
            "TEXCOORD_0": 1,
            "COLOR_0": 2,
            "JOINTS_0": 3,
            "WEIGHTS_0": 4
          },
          "material": 3,
          "indices": 6,
          "extensions": {
            "FB_ngon_encoding": {}
          }
        },
        {
          "attributes": {
            "POSITION": 0,
            "TEXCOORD_0": 1,
            "COLOR_0": 2,
            "JOINTS_0": 3,
            "WEIGHTS_0": 4
          },
          "material": 1,
          "indices": 7,
          "extensions": {
            "FB_ngon_encoding": {}
          }
        },
        {
          "attributes": {
            "POSITION": 0,
            "TEXCOORD_0": 1,
            "COLOR_0": 2,
            "JOINTS_0": 3,
            "WEIGHTS_0": 4
          },
          "material": 2,
          "indices": 8,
          "extensions": {
            "FB_ngon_encoding": {}
          }
        },
        {
          "attributes": {
            "POSITION": 0,
            "TEXCOORD_0": 1,
            "COLOR_0": 2,
            "JOINTS_0": 3,
            "WEIGHTS_0": 4
          },
          "material": 4,
          "indices": 9,
          "extensions": {
            "FB_ngon_encoding": {}
          }
        }
      ],
      "name": "m_comp01_00_00c"
    }
  ],
  "nodes": [
    {
      "name": "polySurface6"
    },
    {
      "mesh": 0,
      "skin": 0,
      "name": "m_comp01_00_00c",
      "children": [
        0
      ]
    }
  ],
  "skins": [
    {
      "skeleton": 0,
      "joints": [
        0
      ],
      "inverseBindMatrices": 10
    }
  ],
  "scenes": [
    {
      "nodes": [
        1
      ],
      "name": "m_comp01_00_00c"
    }
  ],
  "scene": 0,
  "samplers": [
    {
      "wrapS": 10497,
      "wrapT": 10497,
      "magFilter": 9728,
      "minFilter": 9728
    }
  ],
  "images": [
    {
      "uri": "m_comp_01.png"
    },
    {
      "uri": "m_comp_02.png"
    },
    {
      "uri": "m_comp_03.png"
    },
    {
      "uri": "m_comp_04.png"
    }
  ],
  "textures": [
    {
      "source": 0,
      "sampler": 0
    },
    {
      "source": 1,
      "sampler": 0
    },
    {
      "source": 2,
      "sampler": 0
    },
    {
      "source": 3,
      "sampler": 0
    }
  ],
  "materials": [
    {
      "name": "lm1",
      "extensions": {
        "KHR_materials_unlit": {}
      }
    },
    {
      "name": "m_comp_01_lm1",
      "pbrMetallicRoughness": {
        "baseColorTexture": {
          "index": 0
        },
        "metallicFactor": 0
      },
      "extensions": {
        "KHR_materials_unlit": {}
      }
    },
    {
      "name": "m_comp_02_lm1",
      "pbrMetallicRoughness": {
        "baseColorTexture": {
          "index": 1
        },
        "metallicFactor": 0
      },
      "extensions": {
        "KHR_materials_unlit": {}
      }
    },
    {
      "name": "m_comp_03_lm1",
      "pbrMetallicRoughness": {
        "baseColorTexture": {
          "index": 2
        },
        "metallicFactor": 0
      },
      "extensions": {
        "KHR_materials_unlit": {}
      }
    },
    {
      "name": "m_comp_04_lm1",
      "pbrMetallicRoughness": {
        "baseColorTexture": {
          "index": 3
        },
        "metallicFactor": 0
      },
      "extensions": {
        "KHR_materials_unlit": {}
      }
    }
  ],
  "buffers": [
    {
      "byteLength": 13024,
      "uri": "m_comp01_00_00c.bin"
    }
  ]
}