{
  "asset": {
    "version": "2.0"
  },
  "bufferViews": [
    {
      "buffer": 0,
      "byteLength": 360,
      "byteOffset": 0
    },
    {
      "buffer": 0,
      "byteLength": 120,
      "byteStride": 4,
      "byteOffset": 360
    },
    {
      "buffer": 0,
      "byteLength": 360,
      "byteOffset": 480
    },
    {
      "buffer": 0,
      "byteOffset": 840,
      "byteStride": 4,
      "byteLength": 120
    },
    {
      "buffer": 0,
      "byteOffset": 960,
      "byteStride": 4,
      "byteLength": 120
    },
    {
      "buffer": 0,
      "byteLength": 108,
      "byteOffset": 1080
    },
    {
      "buffer": 0,
      "byteLength": 64,
      "byteOffset": 1188
    }
  ],
  "accessors": [
    {
      "bufferView": 0,
      "type": "VEC3",
      "componentType": 5126,
      "count": 30,
      "min": [
        -8,
        1.5,
        -8
      ],
      "max": [
        8,
        65,
        8
      ]
    },
    {
      "bufferView": 1,
      "type": "VEC3",
      "componentType": 5121,
      "normalized": true,
      "count": 30
    },
    {
      "bufferView": 2,
      "type": "VEC3",
      "componentType": 5126,
      "count": 30
    },
    {
      "bufferView": 3,
      "type": "VEC4",
      "componentType": 5121,
      "count": 30
    },
    {
      "bufferView": 4,
      "type": "VEC4",
      "componentType": 5121,
      "normalized": true,
      "count": 30
    },
    {
      "bufferView": 5,
      "type": "SCALAR",
      "byteOffset": 0,
      "componentType": 5123,
      "count": 24
    },
    {
      "bufferView": 5,
      "type": "SCALAR",
      "byteOffset": 48,
      "componentType": 5123,
      "count": 30
    },
    {
      "bufferView": 6,
      "type": "MAT4",
      "componentType": 5126,
      "count": 1
    }
  ],
  "extensionsUsed": [
    "FB_ngon_encoding",
    "KHR_materials_unlit"
  ],
  "meshes": [
    {
      "primitives": [
        {
          "attributes": {
            "POSITION": 0,
            "COLOR_0": 1,
            "NORMAL": 2,
            "JOINTS_0": 3,
            "WEIGHTS_0": 4
          },
          "material": 0,
          "indices": 5,
          "extensions": {
            "FB_ngon_encoding": {}
          }
        },
        {
          "attributes": {
            "POSITION": 0,
            "COLOR_0": 1,
            "NORMAL": 2,
            "JOINTS_0": 3,
            "WEIGHTS_0": 4
          },
          "material": 1,
          "indices": 6,
          "extensions": {
            "FB_ngon_encoding": {}
          }
        }
      ],
      "name": "c2_o03"
    }
  ],
  "nodes": [
    {
      "name": "c2_o03",
      "translation": [
        0,
        3,
        0
      ]
    },
    {
      "mesh": 0,
      "skin": 0,
      "name": "c2_o03",
      "children": [
        0
      ]
    }
  ],
  "skins": [
    {
      "skeleton": 0,
      "joints": [
        0
      ],
      "inverseBindMatrices": 7
    }
  ],
  "scenes": [
    {
      "nodes": [
        1
      ],
      "name": "c2_o03"
    }
  ],
  "scene": 0,
  "materials": [
    {
      "name": "house",
      "extensions": {
        "KHR_materials_unlit": {}
      }
    },
    {
      "name": "light",
      "extensions": {
        "KHR_materials_unlit": {}
      }
    }
  ],
  "buffers": [
    {
      "byteLength": 1252,
      "uri": "c2_o03.bin"
    }
  ]
}