{
  "asset": {
    "version": "2.0"
  },
  "bufferViews": [
    {
      "buffer": 0,
      "byteLength": 8064,
      "byteOffset": 0
    },
    {
      "buffer": 0,
      "byteLength": 5376,
      "byteOffset": 8064
    },
    {
      "buffer": 0,
      "byteLength": 2688,
      "byteStride": 4,
      "byteOffset": 13440
    },
    {
      "buffer": 0,
      "byteOffset": 16128,
      "byteStride": 4,
      "byteLength": 2688
    },
    {
      "buffer": 0,
      "byteOffset": 18816,
      "byteStride": 4,
      "byteLength": 2688
    },
    {
      "buffer": 0,
      "byteLength": 2316,
      "byteOffset": 21504
    },
    {
      "buffer": 0,
      "byteLength": 192,
      "byteOffset": 23820
    }
  ],
  "accessors": [
    {
      "bufferView": 0,
      "type": "VEC3",
      "componentType": 5126,
      "count": 672,
      "min": [
        -240,
        -2,
        -214
      ],
      "max": [
        320,
        46,
        112
      ]
    },
    {
      "bufferView": 1,
      "type": "VEC2",
      "componentType": 5126,
      "count": 672
    },
    {
      "bufferView": 2,
      "type": "VEC3",
      "componentType": 5121,
      "normalized": true,
      "count": 672
    },
    {
      "bufferView": 3,
      "type": "VEC4",
      "componentType": 5121,
      "count": 672
    },
    {
      "bufferView": 4,
      "type": "VEC4",
      "componentType": 5121,
      "normalized": true,
      "count": 672
    },
    {
      "bufferView": 5,
      "type": "SCALAR",
      "byteOffset": 0,
      "componentType": 5123,
      "count": 48
    },
    {
      "bufferView": 5,
      "type": "SCALAR",
      "byteOffset": 96,
      "componentType": 5123,
      "count": 48
    },
    {
      "bufferView": 5,
      "type": "SCALAR",
      "byteOffset": 192,
      "componentType": 5123,
      "count": 18
    },
    {
      "bufferView": 5,
      "type": "SCALAR",
      "byteOffset": 228,
      "componentType": 5123,
      "count": 18
    },
    {
      "bufferView": 5,
      "type": "SCALAR",
      "byteOffset": 264,
      "componentType": 5123,
      "count": 162
    },
    {
      "bufferView": 5,
      "type": "SCALAR",
      "byteOffset": 588,
      "componentType": 5123,
      "count": 387
    },
    {
      "bufferView": 5,
      "type": "SCALAR",
      "byteOffset": 1362,
      "componentType": 5123,
      "count": 477
    },
    {
      "bufferView": 6,
      "type": "MAT4",
      "componentType": 5126,
      "count": 3
    }
  ],
  "extensionsUsed": [
    "FB_ngon_encoding",
    "KHR_materials_unlit"
  ],
  "meshes": [
    {
      "primitives": [
        {
          "attributes": {
            "POSITION": 0,
            "TEXCOORD_0": 1,
            "COLOR_0": 2,
            "JOINTS_0": 3,
            "WEIGHTS_0": 4
          },
          "material": 0,
          "indices": 5,
          "extensions": {
            "FB_ngon_encoding": {}
          }
        },
        {
          "attributes": {
            "POSITION": 0,
            "TEXCOORD_0": 1,
            "COLOR_0": 2,
            "JOINTS_0": 3,
            "WEIGHTS_0": 4
          },
          "material": 1,
          "indices": 6,
          "extensions": {
            "FB_ngon_encoding": {}
          }
        },
        {
          "attributes": {
            "POSITION": 0,
            "TEXCOORD_0": 1,
            "COLOR_0": 2,
            "JOINTS_0": 3,
            "WEIGHTS_0": 4
          },
          "material": 4,
          "indices": 7,
          "extensions": {
            "FB_ngon_encoding": {}
          }
        },
        {
          "attributes": {
            "POSITION": 0,
            "TEXCOORD_0": 1,
            "COLOR_0": 2,
            "JOINTS_0": 3,
            "WEIGHTS_0": 4
          },
          "material": 6,
          "indices": 8,
          "extensions": {
            "FB_ngon_encoding": {}
          }
        },
        {
          "attributes": {
            "POSITION": 0,
            "TEXCOORD_0": 1,
            "COLOR_0": 2,
            "JOINTS_0": 3,
            "WEIGHTS_0": 4
          },
          "material": 2,
          "indices": 9,
          "extensions": {
            "FB_ngon_encoding": {}
          }
        },
        {
          "attributes": {
            "POSITION": 0,
            "TEXCOORD_0": 1,
            "COLOR_0": 2,
            "JOINTS_0": 3,
            "WEIGHTS_0": 4
          },
          "material": 3,
          "indices": 10,
          "extensions": {
            "FB_ngon_encoding": {}
          }
        },
        {
          "attributes": {
            "POSITION": 0,
            "TEXCOORD_0": 1,
            "COLOR_0": 2,
            "JOINTS_0": 3,
            "WEIGHTS_0": 4
          },
          "material": 5,
          "indices": 11,
          "extensions": {
            "FB_ngon_encoding": {}
          }
        }
      ],
      "name": "m_dun2602_00_00c"
    }
  ],
  "nodes": [
    {
      "children": [
        1,
        2
      ],
      "name": "world_root"
    },
    {
      "name": "isu:polySurface6"
    },
    {
      "name": "polySurface1"
    },
    {
      "mesh": 0,
      "skin": 0,
      "name": "m_dun2602_00_00c",
      "children": [
        0
      ]
    }
  ],
  "skins": [
    {
      "skeleton": 0,
      "joints": [
        0,
        1,
        2
      ],
      "inverseBindMatrices": 12
    }
  ],
  "scenes": [
    {
      "nodes": [
        3
      ],
      "name": "m_dun2602_00_00c"
    }
  ],
  "scene": 0,
  "samplers": [
    {
      "wrapS": 10497,
      "wrapT": 10497,
      "magFilter": 9728,
      "minFilter": 9728
    }
  ],
  "images": [
    {
      "uri": "ch_g.png"
    },
    {
      "uri": "m_dun06_kage.png"
    },
    {
      "uri": "m_dun26_38.png"
    },
    {
      "uri": "m_dun26_37.png"
    },
    {
      "uri": "m_dun26_16.png"
    },
    {
      "uri": "azt_win02.png"
    }
  ],
  "textures": [
    {
      "source": 0,
      "sampler": 0
    },
    {
      "source": 1,
      "sampler": 0
    },
    {
      "source": 2,
      "sampler": 0
    },
    {
      "source": 3,
      "sampler": 0
    },
    {
      "source": 4,
      "sampler": 0
    },
    {
      "source": 5,
      "sampler": 0
    }
  ],
  "materials": [
    {
      "name": "isu:lambert10",
      "pbrMetallicRoughness": {
        "baseColorTexture": {
          "index": 0
        },
        "metallicFactor": 0
      },
      "extensions": {
        "KHR_materials_unlit": {}
      },
      "alphaMode": "MASK"
    },
    {
      "name": "isu:lambert9",
      "pbrMetallicRoughness": {
        "baseColorTexture": {
          "index": 1
        },
        "metallicFactor": 0,
        "baseColorFactor": [
          1,
          1,
          1,
          0.4193548262119293
        ]
      },
      "extensions": {
        "KHR_materials_unlit": {}
      },
      "alphaMode": "BLEND"
    },
    {
      "name": "lm1",
      "extensions": {
        "KHR_materials_unlit": {}
      }
    },
    {
      "name": "m_dun26_01_lm1",
      "pbrMetallicRoughness": {
        "baseColorTexture": {
          "index": 2
        },
        "metallicFactor": 0
      },
      "extensions": {
        "KHR_materials_unlit": {}
      }
    },
    {
      "name": "m_dun26_02_lm1",
      "pbrMetallicRoughness": {
        "baseColorTexture": {
          "index": 3
        },
        "metallicFactor": 0
      },
      "extensions": {
        "KHR_materials_unlit": {}
      }
    },
    {
      "name": "m_dun26_04_lm1",
      "pbrMetallicRoughness": {
        "baseColorTexture": {
          "index": 4
        },
        "metallicFactor": 0
      },
      "extensions": {
        "KHR_materials_unlit": {}
      }
    },
    {
      "name": "m_dun26_09_lm1",
      "pbrMetallicRoughness": {
        "baseColorTexture": {
          "index": 5
        },
        "metallicFactor": 0
      },
      "extensions": {
        "KHR_materials_unlit": {}
      },
      "alphaMode": "MASK"
    }
  ],
  "buffers": [
    {
      "byteLength": 24012,
      "uri": "m_dun2602_00_00c.bin"
    }
  ]
}