{
  "asset": {
    "version": "2.0"
  },
  "bufferViews": [
    {
      "buffer": 0,
      "byteLength": 5472,
      "byteOffset": 0
    },
    {
      "buffer": 0,
      "byteLength": 3648,
      "byteOffset": 5472
    },
    {
      "buffer": 0,
      "byteLength": 1824,
      "byteStride": 4,
      "byteOffset": 9120
    },
    {
      "buffer": 0,
      "byteOffset": 10944,
      "byteStride": 4,
      "byteLength": 1824
    },
    {
      "buffer": 0,
      "byteOffset": 12768,
      "byteStride": 4,
      "byteLength": 1824
    },
    {
      "buffer": 0,
      "byteLength": 2112,
      "byteOffset": 14592
    },
    {
      "buffer": 0,
      "byteLength": 64,
      "byteOffset": 16704
    }
  ],
  "accessors": [
    {
      "bufferView": 0,
      "type": "VEC3",
      "componentType": 5126,
      "count": 456,
      "min": [
        -7.17041015625,
        0.20166015625,
        -7.17041015625
      ],
      "max": [
        7.17041015625,
        16.26416015625,
        7.17041015625
      ]
    },
    {
      "bufferView": 1,
      "type": "VEC2",
      "componentType": 5126,
      "count": 456
    },
    {
      "bufferView": 2,
      "type": "VEC3",
      "componentType": 5121,
      "normalized": true,
      "count": 456
    },
    {
      "bufferView": 3,
      "type": "VEC4",
      "componentType": 5121,
      "count": 456
    },
    {
      "bufferView": 4,
      "type": "VEC4",
      "componentType": 5121,
      "normalized": true,
      "count": 456
    },
    {
      "bufferView": 5,
      "type": "SCALAR",
      "byteOffset": 0,
      "componentType": 5123,
      "count": 372
    },
    {
      "bufferView": 5,
      "type": "SCALAR",
      "byteOffset": 744,
      "componentType": 5123,
      "count": 684
    },
    {
      "bufferView": 6,
      "type": "MAT4",
      "componentType": 5126,
      "count": 1
    }
  ],
  "extensionsUsed": [
    "FB_ngon_encoding",
    "KHR_materials_unlit"
  ],
  "meshes": [
    {
      "primitives": [
        {
          "attributes": {
            "POSITION": 0,
            "TEXCOORD_0": 1,
            "COLOR_0": 2,
            "JOINTS_0": 3,
            "WEIGHTS_0": 4
          },
          "material": 1,
          "indices": 5,
          "extensions": {
            "FB_ngon_encoding": {}
          }
        },
        {
          "attributes": {
            "POSITION": 0,
            "TEXCOORD_0": 1,
            "COLOR_0": 2,
            "JOINTS_0": 3,
            "WEIGHTS_0": 4
          },
          "material": 0,
          "indices": 6,
          "extensions": {
            "FB_ngon_encoding": {}
          }
        }
      ],
      "name": "g_egg"
    }
  ],
  "nodes": [
    {
      "name": "pSphere1",
      "translation": [
        0,
        8.23291015625,
        0
      ]
    },
    {
      "mesh": 0,
      "skin": 0,
      "name": "g_egg",
      "children": [
        0
      ]
    }
  ],
  "skins": [
    {
      "skeleton": 0,
      "joints": [
        0
      ],
      "inverseBindMatrices": 7
    }
  ],
  "scenes": [
    {
      "nodes": [
        1
      ],
      "name": "g_egg"
    }
  ],
  "scene": 0,
  "samplers": [
    {
      "wrapS": 10497,
      "wrapT": 10497,
      "magFilter": 9728,
      "minFilter": 9728
    }
  ],
  "images": [
    {
      "uri": "egg01.png"
    },
    {
      "uri": "egg02.png"
    }
  ],
  "textures": [
    {
      "source": 0,
      "sampler": 0
    },
    {
      "source": 1,
      "sampler": 0
    }
  ],
  "materials": [
    {
      "name": "file5Material",
      "pbrMetallicRoughness": {
        "baseColorTexture": {
          "index": 0
        },
        "metallicFactor": 0
      },
      "extensions": {
        "KHR_materials_unlit": {}
      }
    },
    {
      "name": "file6Material",
      "pbrMetallicRoughness": {
        "baseColorTexture": {
          "index": 1
        },
        "metallicFactor": 0
      },
      "extensions": {
        "KHR_materials_unlit": {}
      }
    }
  ],
  "buffers": [
    {
      "byteLength": 16768,
      "uri": "g_egg.bin"
    }
  ]
}