{
  "asset": {
    "version": "2.0"
  },
  "bufferViews": [
    {
      "buffer": 0,
      "byteLength": 9960,
      "byteOffset": 0
    },
    {
      "buffer": 0,
      "byteLength": 6640,
      "byteOffset": 9960
    },
    {
      "buffer": 0,
      "byteLength": 3320,
      "byteStride": 4,
      "byteOffset": 16600
    },
    {
      "buffer": 0,
      "byteLength": 9960,
      "byteOffset": 19920
    },
    {
      "buffer": 0,
      "byteOffset": 29880,
      "byteStride": 4,
      "byteLength": 3320
    },
    {
      "buffer": 0,
      "byteOffset": 33200,
      "byteStride": 4,
      "byteLength": 3320
    },
    {
      "buffer": 0,
      "byteLength": 4560,
      "byteOffset": 36520
    },
    {
      "buffer": 0,
      "byteLength": 64,
      "byteOffset": 41080
    }
  ],
  "accessors": [
    {
      "bufferView": 0,
      "type": "VEC3",
      "componentType": 5126,
      "count": 830,
      "min": [
        -39.870849609375,
        -39.870849609375,
        -39.870849609375
      ],
      "max": [
        39.870849609375,
        39.870849609375,
        39.870849609375
      ]
    },
    {
      "bufferView": 1,
      "type": "VEC2",
      "componentType": 5126,
      "count": 830
    },
    {
      "bufferView": 2,
      "type": "VEC3",
      "componentType": 5121,
      "normalized": true,
      "count": 830
    },
    {
      "bufferView": 3,
      "type": "VEC3",
      "componentType": 5126,
      "count": 830
    },
    {
      "bufferView": 4,
      "type": "VEC4",
      "componentType": 5121,
      "count": 830
    },
    {
      "bufferView": 5,
      "type": "VEC4",
      "componentType": 5121,
      "normalized": true,
      "count": 830
    },
    {
      "bufferView": 6,
      "type": "SCALAR",
      "byteOffset": 0,
      "componentType": 5123,
      "count": 2280
    },
    {
      "bufferView": 7,
      "type": "MAT4",
      "componentType": 5126,
      "count": 1
    }
  ],
  "extensionsUsed": [
    "FB_ngon_encoding",
    "KHR_materials_unlit"
  ],
  "meshes": [
    {
      "primitives": [
        {
          "attributes": {
            "POSITION": 0,
            "TEXCOORD_0": 1,
            "COLOR_0": 2,
            "NORMAL": 3,
            "JOINTS_0": 4,
            "WEIGHTS_0": 5
          },
          "material": 0,
          "indices": 6,
          "extensions": {
            "FB_ngon_encoding": {}
          }
        }
      ],
      "name": "wifi_earth"
    }
  ],
  "nodes": [
    {
      "name": "pSphere1",
      "scale": [
        39.870849609375,
        39.870849609375,
        39.870849609375
      ]
    },
    {
      "mesh": 0,
      "skin": 0,
      "name": "wifi_earth",
      "children": [
        0
      ]
    }
  ],
  "skins": [
    {
      "skeleton": 0,
      "joints": [
        0
      ],
      "inverseBindMatrices": 7
    }
  ],
  "scenes": [
    {
      "nodes": [
        1
      ],
      "name": "wifi_earth"
    }
  ],
  "scene": 0,
  "samplers": [
    {
      "wrapS": 10497,
      "wrapT": 10497,
      "magFilter": 9728,
      "minFilter": 9728
    }
  ],
  "images": [
    {
      "uri": "earth.png"
    }
  ],
  "textures": [
    {
      "source": 0,
      "sampler": 0
    }
  ],
  "materials": [
    {
      "name": "lambert2",
      "pbrMetallicRoughness": {
        "baseColorTexture": {
          "index": 0
        },
        "metallicFactor": 0
      },
      "extensions": {
        "KHR_materials_unlit": {}
      }
    }
  ],
  "buffers": [
    {
      "byteLength": 41144,
      "uri": "wifi_earth.bin"
    }
  ]
}