{
  "asset": {
    "version": "2.0"
  },
  "bufferViews": [
    {
      "buffer": 0,
      "byteLength": 8328,
      "byteOffset": 0
    },
    {
      "buffer": 0,
      "byteLength": 5552,
      "byteOffset": 8328
    },
    {
      "buffer": 0,
      "byteLength": 2776,
      "byteStride": 4,
      "byteOffset": 13880
    },
    {
      "buffer": 0,
      "byteLength": 8328,
      "byteOffset": 16656
    },
    {
      "buffer": 0,
      "byteOffset": 24984,
      "byteStride": 4,
      "byteLength": 2776
    },
    {
      "buffer": 0,
      "byteOffset": 27760,
      "byteStride": 4,
      "byteLength": 2776
    },
    {
      "buffer": 0,
      "byteLength": 1788,
      "byteOffset": 30536
    },
    {
      "buffer": 0,
      "byteLength": 256,
      "byteOffset": 32324
    }
  ],
  "accessors": [
    {
      "bufferView": 0,
      "type": "VEC3",
      "componentType": 5126,
      "count": 694,
      "min": [
        -73,
        19.08203125,
        -40
      ],
      "max": [
        87.9765625,
        87.09375,
        40
      ]
    },
    {
      "bufferView": 1,
      "type": "VEC2",
      "componentType": 5126,
      "count": 694
    },
    {
      "bufferView": 2,
      "type": "VEC3",
      "componentType": 5121,
      "normalized": true,
      "count": 694
    },
    {
      "bufferView": 3,
      "type": "VEC3",
      "componentType": 5126,
      "count": 694
    },
    {
      "bufferView": 4,
      "type": "VEC4",
      "componentType": 5121,
      "count": 694
    },
    {
      "bufferView": 5,
      "type": "VEC4",
      "componentType": 5121,
      "normalized": true,
      "count": 694
    },
    {
      "bufferView": 6,
      "type": "SCALAR",
      "byteOffset": 0,
      "componentType": 5123,
      "count": 84
    },
    {
      "bufferView": 6,
      "type": "SCALAR",
      "byteOffset": 168,
      "componentType": 5123,
      "count": 84
    },
    {
      "bufferView": 6,
      "type": "SCALAR",
      "byteOffset": 336,
      "componentType": 5123,
      "count": 207
    },
    {
      "bufferView": 6,
      "type": "SCALAR",
      "byteOffset": 750,
      "componentType": 5123,
      "count": 24
    },
    {
      "bufferView": 6,
      "type": "SCALAR",
      "byteOffset": 798,
      "componentType": 5123,
      "count": 36
    },
    {
      "bufferView": 6,
      "type": "SCALAR",
      "byteOffset": 870,
      "componentType": 5123,
      "count": 162
    },
    {
      "bufferView": 6,
      "type": "SCALAR",
      "byteOffset": 1194,
      "componentType": 5123,
      "count": 138
    },
    {
      "bufferView": 6,
      "type": "SCALAR",
      "byteOffset": 1470,
      "componentType": 5123,
      "count": 159
    },
    {
      "bufferView": 7,
      "type": "MAT4",
      "componentType": 5126,
      "count": 4
    }
  ],
  "extensionsUsed": [
    "FB_ngon_encoding",
    "KHR_materials_unlit"
  ],
  "meshes": [
    {
      "primitives": [
        {
          "attributes": {
            "POSITION": 0,
            "TEXCOORD_0": 1,
            "COLOR_0": 2,
            "NORMAL": 3,
            "JOINTS_0": 4,
            "WEIGHTS_0": 5
          },
          "material": 2,
          "indices": 6,
          "extensions": {
            "FB_ngon_encoding": {}
          }
        },
        {
          "attributes": {
            "POSITION": 0,
            "TEXCOORD_0": 1,
            "COLOR_0": 2,
            "NORMAL": 3,
            "JOINTS_0": 4,
            "WEIGHTS_0": 5
          },
          "material": 4,
          "indices": 7,
          "extensions": {
            "FB_ngon_encoding": {}
          }
        },
        {
          "attributes": {
            "POSITION": 0,
            "TEXCOORD_0": 1,
            "COLOR_0": 2,
            "NORMAL": 3,
            "JOINTS_0": 4,
            "WEIGHTS_0": 5
          },
          "material": 0,
          "indices": 8,
          "extensions": {
            "FB_ngon_encoding": {}
          }
        },
        {
          "attributes": {
            "POSITION": 0,
            "TEXCOORD_0": 1,
            "COLOR_0": 2,
            "NORMAL": 3,
            "JOINTS_0": 4,
            "WEIGHTS_0": 5
          },
          "material": 1,
          "indices": 9,
          "extensions": {
            "FB_ngon_encoding": {}
          }
        },
        {
          "attributes": {
            "POSITION": 0,
            "TEXCOORD_0": 1,
            "COLOR_0": 2,
            "NORMAL": 3,
            "JOINTS_0": 4,
            "WEIGHTS_0": 5
          },
          "material": 0,
          "indices": 10,
          "extensions": {
            "FB_ngon_encoding": {}
          }
        },
        {
          "attributes": {
            "POSITION": 0,
            "TEXCOORD_0": 1,
            "COLOR_0": 2,
            "NORMAL": 3,
            "JOINTS_0": 4,
            "WEIGHTS_0": 5
          },
          "material": 4,
          "indices": 11,
          "extensions": {
            "FB_ngon_encoding": {}
          }
        },
        {
          "attributes": {
            "POSITION": 0,
            "TEXCOORD_0": 1,
            "COLOR_0": 2,
            "NORMAL": 3,
            "JOINTS_0": 4,
            "WEIGHTS_0": 5
          },
          "material": 1,
          "indices": 12,
          "extensions": {
            "FB_ngon_encoding": {}
          }
        },
        {
          "attributes": {
            "POSITION": 0,
            "TEXCOORD_0": 1,
            "COLOR_0": 2,
            "NORMAL": 3,
            "JOINTS_0": 4,
            "WEIGHTS_0": 5
          },
          "material": 3,
          "indices": 13,
          "extensions": {
            "FB_ngon_encoding": {}
          }
        }
      ],
      "name": "kart_pocha_1"
    }
  ],
  "nodes": [
    {
      "children": [
        1,
        2,
        3
      ],
      "name": "polySurface89"
    },
    {
      "name": "polySurface85",
      "translation": [
        59,
        32,
        0
      ]
    },
    {
      "name": "polySurface88",
      "translation": [
        15,
        40,
        0
      ]
    },
    {
      "name": "polySurface91",
      "translation": [
        -30,
        41,
        0
      ]
    },
    {
      "mesh": 0,
      "skin": 0,
      "name": "kart_pocha_1",
      "children": [
        0
      ]
    }
  ],
  "skins": [
    {
      "skeleton": 0,
      "joints": [
        0,
        1,
        2,
        3
      ],
      "inverseBindMatrices": 14
    }
  ],
  "scenes": [
    {
      "nodes": [
        4
      ],
      "name": "kart_pocha_1"
    }
  ],
  "scene": 0,
  "samplers": [
    {
      "wrapS": 10497,
      "wrapT": 10497,
      "magFilter": 9728,
      "minFilter": 9728
    }
  ],
  "images": [
    {
      "uri": "kart_pocha3.png"
    },
    {
      "uri": "kart_pocha2.png"
    },
    {
      "uri": "kart_pocha1.png"
    },
    {
      "uri": "kart_pocha4.png"
    }
  ],
  "textures": [
    {
      "source": 0,
      "sampler": 0
    },
    {
      "source": 1,
      "sampler": 0
    },
    {
      "source": 2,
      "sampler": 0
    },
    {
      "source": 3,
      "sampler": 0
    }
  ],
  "materials": [
    {
      "name": "file1Material",
      "pbrMetallicRoughness": {
        "baseColorTexture": {
          "index": 0
        },
        "metallicFactor": 0
      },
      "extensions": {
        "KHR_materials_unlit": {}
      }
    },
    {
      "name": "file3Material",
      "pbrMetallicRoughness": {
        "baseColorTexture": {
          "index": 1
        },
        "metallicFactor": 0
      },
      "extensions": {
        "KHR_materials_unlit": {}
      },
      "alphaMode": "MASK"
    },
    {
      "name": "lambert2",
      "pbrMetallicRoughness": {
        "baseColorTexture": {
          "index": 2
        },
        "metallicFactor": 0
      },
      "extensions": {
        "KHR_materials_unlit": {}
      },
      "alphaMode": "BLEND"
    },
    {
      "name": "lambert3",
      "pbrMetallicRoughness": {
        "baseColorTexture": {
          "index": 2
        },
        "metallicFactor": 0
      },
      "extensions": {
        "KHR_materials_unlit": {}
      },
      "alphaMode": "BLEND"
    },
    {
      "name": "lambert4",
      "pbrMetallicRoughness": {
        "baseColorTexture": {
          "index": 3
        },
        "metallicFactor": 0
      },
      "extensions": {
        "KHR_materials_unlit": {}
      }
    }
  ],
  "buffers": [
    {
      "byteLength": 32580,
      "uri": "kart_pocha_1.bin"
    }
  ]
}