{
  "asset": {
    "version": "2.0"
  },
  "bufferViews": [
    {
      "buffer": 0,
      "byteLength": 6624,
      "byteOffset": 0
    },
    {
      "buffer": 0,
      "byteLength": 4416,
      "byteOffset": 6624
    },
    {
      "buffer": 0,
      "byteLength": 2208,
      "byteStride": 4,
      "byteOffset": 11040
    },
    {
      "buffer": 0,
      "byteLength": 6624,
      "byteOffset": 13248
    },
    {
      "buffer": 0,
      "byteOffset": 19872,
      "byteStride": 4,
      "byteLength": 2208
    },
    {
      "buffer": 0,
      "byteOffset": 22080,
      "byteStride": 4,
      "byteLength": 2208
    },
    {
      "buffer": 0,
      "byteLength": 1644,
      "byteOffset": 24288
    },
    {
      "buffer": 0,
      "byteLength": 64,
      "byteOffset": 25932
    }
  ],
  "accessors": [
    {
      "bufferView": 0,
      "type": "VEC3",
      "componentType": 5126,
      "count": 552,
      "min": [
        -40,
        1,
        -29.33203125
      ],
      "max": [
        40,
        123.66796875,
        29.33203125
      ]
    },
    {
      "bufferView": 1,
      "type": "VEC2",
      "componentType": 5126,
      "count": 552
    },
    {
      "bufferView": 2,
      "type": "VEC3",
      "componentType": 5121,
      "normalized": true,
      "count": 552
    },
    {
      "bufferView": 3,
      "type": "VEC3",
      "componentType": 5126,
      "count": 552
    },
    {
      "bufferView": 4,
      "type": "VEC4",
      "componentType": 5121,
      "count": 552
    },
    {
      "bufferView": 5,
      "type": "VEC4",
      "componentType": 5121,
      "normalized": true,
      "count": 552
    },
    {
      "bufferView": 6,
      "type": "SCALAR",
      "byteOffset": 0,
      "componentType": 5123,
      "count": 6
    },
    {
      "bufferView": 6,
      "type": "SCALAR",
      "byteOffset": 12,
      "componentType": 5123,
      "count": 816
    },
    {
      "bufferView": 7,
      "type": "MAT4",
      "componentType": 5126,
      "count": 1
    }
  ],
  "extensionsUsed": [
    "FB_ngon_encoding",
    "KHR_materials_unlit"
  ],
  "meshes": [
    {
      "primitives": [
        {
          "attributes": {
            "POSITION": 0,
            "TEXCOORD_0": 1,
            "COLOR_0": 2,
            "NORMAL": 3,
            "JOINTS_0": 4,
            "WEIGHTS_0": 5
          },
          "material": 0,
          "indices": 6,
          "extensions": {
            "FB_ngon_encoding": {}
          }
        },
        {
          "attributes": {
            "POSITION": 0,
            "TEXCOORD_0": 1,
            "COLOR_0": 2,
            "NORMAL": 3,
            "JOINTS_0": 4,
            "WEIGHTS_0": 5
          },
          "material": 1,
          "indices": 7,
          "extensions": {
            "FB_ngon_encoding": {}
          }
        }
      ],
      "name": "c1_b02b"
    }
  ],
  "nodes": [
    {
      "name": "polySurface58"
    },
    {
      "mesh": 0,
      "skin": 0,
      "name": "c1_b02b",
      "children": [
        0
      ]
    }
  ],
  "skins": [
    {
      "skeleton": 0,
      "joints": [
        0
      ],
      "inverseBindMatrices": 8
    }
  ],
  "scenes": [
    {
      "nodes": [
        1
      ],
      "name": "c1_b02b"
    }
  ],
  "scene": 0,
  "samplers": [
    {
      "wrapS": 10497,
      "wrapT": 10497,
      "magFilter": 9728,
      "minFilter": 9728
    }
  ],
  "images": [
    {
      "uri": "c1_b02_1.png"
    }
  ],
  "textures": [
    {
      "source": 0,
      "sampler": 0
    }
  ],
  "materials": [
    {
      "name": "Light",
      "extensions": {
        "KHR_materials_unlit": {}
      }
    },
    {
      "name": "c1_b02_1",
      "pbrMetallicRoughness": {
        "baseColorTexture": {
          "index": 0
        },
        "metallicFactor": 0
      },
      "extensions": {
        "KHR_materials_unlit": {}
      },
      "alphaMode": "MASK"
    }
  ],
  "buffers": [
    {
      "byteLength": 25996,
      "uri": "c1_b02b.bin"
    }
  ]
}