{
  "asset": {
    "version": "2.0"
  },
  "bufferViews": [
    {
      "buffer": 0,
      "byteLength": 6288,
      "byteOffset": 0
    },
    {
      "buffer": 0,
      "byteLength": 4192,
      "byteOffset": 6288
    },
    {
      "buffer": 0,
      "byteLength": 2096,
      "byteStride": 4,
      "byteOffset": 10480
    },
    {
      "buffer": 0,
      "byteLength": 6288,
      "byteOffset": 12576
    },
    {
      "buffer": 0,
      "byteOffset": 18864,
      "byteStride": 4,
      "byteLength": 2096
    },
    {
      "buffer": 0,
      "byteOffset": 20960,
      "byteStride": 4,
      "byteLength": 2096
    },
    {
      "buffer": 0,
      "byteLength": 1548,
      "byteOffset": 23056
    },
    {
      "buffer": 0,
      "byteLength": 128,
      "byteOffset": 24604
    },
    {
      "buffer": 0,
      "byteLength": 4812,
      "byteOffset": 24732
    },
    {
      "buffer": 0,
      "byteOffset": 29544,
      "byteLength": 1200
    }
  ],
  "accessors": [
    {
      "bufferView": 0,
      "type": "VEC3",
      "componentType": 5126,
      "count": 524,
      "min": [
        -57.4921875,
        1,
        -65.44921875
      ],
      "max": [
        57.4921875,
        125,
        55.44921875
      ]
    },
    {
      "bufferView": 1,
      "type": "VEC2",
      "componentType": 5126,
      "count": 524
    },
    {
      "bufferView": 2,
      "type": "VEC3",
      "componentType": 5121,
      "normalized": true,
      "count": 524
    },
    {
      "bufferView": 3,
      "type": "VEC3",
      "componentType": 5126,
      "count": 524
    },
    {
      "bufferView": 4,
      "type": "VEC4",
      "componentType": 5121,
      "count": 524
    },
    {
      "bufferView": 5,
      "type": "VEC4",
      "componentType": 5121,
      "normalized": true,
      "count": 524
    },
    {
      "bufferView": 6,
      "type": "SCALAR",
      "byteOffset": 0,
      "componentType": 5123,
      "count": 18
    },
    {
      "bufferView": 6,
      "type": "SCALAR",
      "byteOffset": 36,
      "componentType": 5123,
      "count": 24
    },
    {
      "bufferView": 6,
      "type": "SCALAR",
      "byteOffset": 84,
      "componentType": 5123,
      "count": 282
    },
    {
      "bufferView": 6,
      "type": "SCALAR",
      "byteOffset": 648,
      "componentType": 5123,
      "count": 306
    },
    {
      "bufferView": 6,
      "type": "SCALAR",
      "byteOffset": 1260,
      "componentType": 5123,
      "count": 144
    },
    {
      "bufferView": 7,
      "type": "MAT4",
      "componentType": 5126,
      "count": 2
    },
    {
      "bufferView": 9,
      "type": "SCALAR",
      "componentType": 5126,
      "byteOffset": 0,
      "count": 1,
      "min": [
        0
      ],
      "max": [
        0
      ]
    },
    {
      "bufferView": 8,
      "type": "VEC3",
      "componentType": 5126,
      "byteOffset": 0,
      "count": 1
    },
    {
      "bufferView": 9,
      "type": "SCALAR",
      "componentType": 5126,
      "byteOffset": 0,
      "count": 300,
      "min": [
        0
      ],
      "max": [
        4.983333587646484
      ]
    },
    {
      "bufferView": 8,
      "type": "VEC4",
      "componentType": 5126,
      "byteOffset": 12,
      "count": 300
    }
  ],
  "extensionsUsed": [
    "FB_ngon_encoding",
    "KHR_materials_unlit"
  ],
  "meshes": [
    {
      "primitives": [
        {
          "attributes": {
            "POSITION": 0,
            "TEXCOORD_0": 1,
            "COLOR_0": 2,
            "NORMAL": 3,
            "JOINTS_0": 4,
            "WEIGHTS_0": 5
          },
          "material": 3,
          "indices": 6,
          "extensions": {
            "FB_ngon_encoding": {}
          }
        },
        {
          "attributes": {
            "POSITION": 0,
            "TEXCOORD_0": 1,
            "COLOR_0": 2,
            "NORMAL": 3,
            "JOINTS_0": 4,
            "WEIGHTS_0": 5
          },
          "material": 2,
          "indices": 7,
          "extensions": {
            "FB_ngon_encoding": {}
          }
        },
        {
          "attributes": {
            "POSITION": 0,
            "TEXCOORD_0": 1,
            "COLOR_0": 2,
            "NORMAL": 3,
            "JOINTS_0": 4,
            "WEIGHTS_0": 5
          },
          "material": 0,
          "indices": 8,
          "extensions": {
            "FB_ngon_encoding": {}
          }
        },
        {
          "attributes": {
            "POSITION": 0,
            "TEXCOORD_0": 1,
            "COLOR_0": 2,
            "NORMAL": 3,
            "JOINTS_0": 4,
            "WEIGHTS_0": 5
          },
          "material": 1,
          "indices": 9,
          "extensions": {
            "FB_ngon_encoding": {}
          }
        },
        {
          "attributes": {
            "POSITION": 0,
            "TEXCOORD_0": 1,
            "COLOR_0": 2,
            "NORMAL": 3,
            "JOINTS_0": 4,
            "WEIGHTS_0": 5
          },
          "material": 4,
          "indices": 10,
          "extensions": {
            "FB_ngon_encoding": {}
          }
        }
      ],
      "name": "c4_s04"
    }
  ],
  "nodes": [
    {
      "children": [
        1
      ],
      "name": "c4_s04"
    },
    {
      "name": "c4_s04_",
      "translation": [
        0,
        90,
        -5
      ]
    },
    {
      "mesh": 0,
      "skin": 0,
      "name": "c4_s04",
      "children": [
        0
      ]
    }
  ],
  "skins": [
    {
      "skeleton": 0,
      "joints": [
        0,
        1
      ],
      "inverseBindMatrices": 11
    }
  ],
  "scenes": [
    {
      "nodes": [
        2
      ],
      "name": "c4_s04"
    }
  ],
  "scene": 0,
  "animations": [
    {
      "name": "c4_s04",
      "samplers": [
        {
          "input": 12,
          "output": 13
        },
        {
          "input": 14,
          "output": 15
        }
      ],
      "channels": [
        {
          "target": {
            "node": 1,
            "path": "translation"
          },
          "sampler": 0
        },
        {
          "target": {
            "node": 1,
            "path": "rotation"
          },
          "sampler": 1
        }
      ]
    }
  ],
  "samplers": [
    {
      "wrapS": 10497,
      "wrapT": 10497,
      "magFilter": 9728,
      "minFilter": 9728
    }
  ],
  "images": [
    {
      "uri": "c4_s04_a.png"
    },
    {
      "uri": "c4_s04_b.png"
    },
    {
      "uri": "h_kage.png"
    },
    {
      "uri": "h_mado.png"
    }
  ],
  "textures": [
    {
      "source": 0,
      "sampler": 0
    },
    {
      "source": 1,
      "sampler": 0
    },
    {
      "source": 2,
      "sampler": 0
    },
    {
      "source": 3,
      "sampler": 0
    }
  ],
  "materials": [
    {
      "name": "c4_s04_a_lm1",
      "pbrMetallicRoughness": {
        "baseColorTexture": {
          "index": 0
        },
        "metallicFactor": 0
      },
      "extensions": {
        "KHR_materials_unlit": {}
      }
    },
    {
      "name": "c4_s04_b_lm1",
      "pbrMetallicRoughness": {
        "baseColorTexture": {
          "index": 1
        },
        "metallicFactor": 0
      },
      "extensions": {
        "KHR_materials_unlit": {}
      },
      "alphaMode": "MASK"
    },
    {
      "name": "h_kage_lm1",
      "pbrMetallicRoughness": {
        "baseColorTexture": {
          "index": 2
        },
        "metallicFactor": 0,
        "baseColorFactor": [
          1,
          1,
          1,
          0.29032257199287417
        ]
      },
      "extensions": {
        "KHR_materials_unlit": {}
      },
      "alphaMode": "BLEND"
    },
    {
      "name": "h_mado_lm1",
      "pbrMetallicRoughness": {
        "baseColorTexture": {
          "index": 3
        },
        "metallicFactor": 0
      },
      "extensions": {
        "KHR_materials_unlit": {}
      }
    },
    {
      "name": "lambert6",
      "pbrMetallicRoughness": {
        "baseColorTexture": {
          "index": 1
        },
        "metallicFactor": 0
      },
      "extensions": {
        "KHR_materials_unlit": {}
      },
      "alphaMode": "MASK"
    }
  ],
  "buffers": [
    {
      "byteLength": 30744,
      "uri": "c4_s04.bin"
    }
  ]
}