{
  "asset": {
    "version": "2.0"
  },
  "bufferViews": [
    {
      "buffer": 0,
      "byteLength": 1188,
      "byteOffset": 0
    },
    {
      "buffer": 0,
      "byteLength": 792,
      "byteOffset": 1188
    },
    {
      "buffer": 0,
      "byteLength": 396,
      "byteStride": 4,
      "byteOffset": 1980
    },
    {
      "buffer": 0,
      "byteLength": 1188,
      "byteOffset": 2376
    },
    {
      "buffer": 0,
      "byteOffset": 3564,
      "byteStride": 4,
      "byteLength": 396
    },
    {
      "buffer": 0,
      "byteOffset": 3960,
      "byteStride": 4,
      "byteLength": 396
    },
    {
      "buffer": 0,
      "byteLength": 342,
      "byteOffset": 4356
    },
    {
      "buffer": 0,
      "byteLength": 64,
      "byteOffset": 4700
    }
  ],
  "accessors": [
    {
      "bufferView": 0,
      "type": "VEC3",
      "componentType": 5126,
      "count": 99,
      "min": [
        -63.265625,
        1,
        -25.5703125
      ],
      "max": [
        66,
        84.859375,
        55
      ]
    },
    {
      "bufferView": 1,
      "type": "VEC2",
      "componentType": 5126,
      "count": 99
    },
    {
      "bufferView": 2,
      "type": "VEC3",
      "componentType": 5121,
      "normalized": true,
      "count": 99
    },
    {
      "bufferView": 3,
      "type": "VEC3",
      "componentType": 5126,
      "count": 99
    },
    {
      "bufferView": 4,
      "type": "VEC4",
      "componentType": 5121,
      "count": 99
    },
    {
      "bufferView": 5,
      "type": "VEC4",
      "componentType": 5121,
      "normalized": true,
      "count": 99
    },
    {
      "bufferView": 6,
      "type": "SCALAR",
      "byteOffset": 0,
      "componentType": 5123,
      "count": 39
    },
    {
      "bufferView": 6,
      "type": "SCALAR",
      "byteOffset": 78,
      "componentType": 5123,
      "count": 132
    },
    {
      "bufferView": 7,
      "type": "MAT4",
      "componentType": 5126,
      "count": 1
    }
  ],
  "extensionsUsed": [
    "FB_ngon_encoding",
    "KHR_materials_unlit"
  ],
  "meshes": [
    {
      "primitives": [
        {
          "attributes": {
            "POSITION": 0,
            "TEXCOORD_0": 1,
            "COLOR_0": 2,
            "NORMAL": 3,
            "JOINTS_0": 4,
            "WEIGHTS_0": 5
          },
          "material": 1,
          "indices": 6,
          "extensions": {
            "FB_ngon_encoding": {}
          }
        },
        {
          "attributes": {
            "POSITION": 0,
            "TEXCOORD_0": 1,
            "COLOR_0": 2,
            "NORMAL": 3,
            "JOINTS_0": 4,
            "WEIGHTS_0": 5
          },
          "material": 0,
          "indices": 7,
          "extensions": {
            "FB_ngon_encoding": {}
          }
        }
      ],
      "name": "c3_o02"
    }
  ],
  "nodes": [
    {
      "name": "pSphere1"
    },
    {
      "mesh": 0,
      "skin": 0,
      "name": "c3_o02",
      "children": [
        0
      ]
    }
  ],
  "skins": [
    {
      "skeleton": 0,
      "joints": [
        0
      ],
      "inverseBindMatrices": 8
    }
  ],
  "scenes": [
    {
      "nodes": [
        1
      ],
      "name": "c3_o02"
    }
  ],
  "scene": 0,
  "samplers": [
    {
      "wrapS": 10497,
      "wrapT": 10497,
      "magFilter": 9728,
      "minFilter": 9728
    }
  ],
  "images": [
    {
      "uri": "c3_o02.png"
    },
    {
      "uri": "h_kage.png"
    }
  ],
  "textures": [
    {
      "source": 0,
      "sampler": 0
    },
    {
      "source": 1,
      "sampler": 0
    }
  ],
  "materials": [
    {
      "name": "c3_o02",
      "pbrMetallicRoughness": {
        "baseColorTexture": {
          "index": 0
        },
        "metallicFactor": 0
      },
      "extensions": {
        "KHR_materials_unlit": {}
      }
    },
    {
      "name": "h_kage",
      "pbrMetallicRoughness": {
        "baseColorTexture": {
          "index": 1
        },
        "metallicFactor": 0,
        "baseColorFactor": [
          1,
          1,
          1,
          0.29032257199287417
        ]
      },
      "extensions": {
        "KHR_materials_unlit": {}
      },
      "alphaMode": "BLEND"
    }
  ],
  "buffers": [
    {
      "byteLength": 4764,
      "uri": "c3_o02.bin"
    }
  ]
}