{
  "asset": {
    "version": "2.0"
  },
  "bufferViews": [
    {
      "buffer": 0,
      "byteLength": 7092,
      "byteOffset": 0
    },
    {
      "buffer": 0,
      "byteLength": 4728,
      "byteOffset": 7092
    },
    {
      "buffer": 0,
      "byteLength": 2364,
      "byteStride": 4,
      "byteOffset": 11820
    },
    {
      "buffer": 0,
      "byteOffset": 14184,
      "byteStride": 4,
      "byteLength": 2364
    },
    {
      "buffer": 0,
      "byteOffset": 16548,
      "byteStride": 4,
      "byteLength": 2364
    },
    {
      "buffer": 0,
      "byteLength": 2598,
      "byteOffset": 18912
    },
    {
      "buffer": 0,
      "byteLength": 64,
      "byteOffset": 21512
    }
  ],
  "accessors": [
    {
      "bufferView": 0,
      "type": "VEC3",
      "componentType": 5126,
      "count": 591,
      "min": [
        -240,
        -2,
        -214
      ],
      "max": [
        80,
        46,
        16
      ]
    },
    {
      "bufferView": 1,
      "type": "VEC2",
      "componentType": 5126,
      "count": 591
    },
    {
      "bufferView": 2,
      "type": "VEC3",
      "componentType": 5121,
      "normalized": true,
      "count": 591
    },
    {
      "bufferView": 3,
      "type": "VEC4",
      "componentType": 5121,
      "count": 591
    },
    {
      "bufferView": 4,
      "type": "VEC4",
      "componentType": 5121,
      "normalized": true,
      "count": 591
    },
    {
      "bufferView": 5,
      "type": "SCALAR",
      "byteOffset": 0,
      "componentType": 5123,
      "count": 18
    },
    {
      "bufferView": 5,
      "type": "SCALAR",
      "byteOffset": 36,
      "componentType": 5123,
      "count": 84
    },
    {
      "bufferView": 5,
      "type": "SCALAR",
      "byteOffset": 204,
      "componentType": 5123,
      "count": 75
    },
    {
      "bufferView": 5,
      "type": "SCALAR",
      "byteOffset": 354,
      "componentType": 5123,
      "count": 183
    },
    {
      "bufferView": 5,
      "type": "SCALAR",
      "byteOffset": 720,
      "componentType": 5123,
      "count": 408
    },
    {
      "bufferView": 5,
      "type": "SCALAR",
      "byteOffset": 1536,
      "componentType": 5123,
      "count": 531
    },
    {
      "bufferView": 6,
      "type": "MAT4",
      "componentType": 5126,
      "count": 1
    }
  ],
  "extensionsUsed": [
    "FB_ngon_encoding",
    "KHR_materials_unlit"
  ],
  "meshes": [
    {
      "primitives": [
        {
          "attributes": {
            "POSITION": 0,
            "TEXCOORD_0": 1,
            "COLOR_0": 2,
            "JOINTS_0": 3,
            "WEIGHTS_0": 4
          },
          "material": 5,
          "indices": 5,
          "extensions": {
            "FB_ngon_encoding": {}
          }
        },
        {
          "attributes": {
            "POSITION": 0,
            "TEXCOORD_0": 1,
            "COLOR_0": 2,
            "JOINTS_0": 3,
            "WEIGHTS_0": 4
          },
          "material": 0,
          "indices": 6,
          "extensions": {
            "FB_ngon_encoding": {}
          }
        },
        {
          "attributes": {
            "POSITION": 0,
            "TEXCOORD_0": 1,
            "COLOR_0": 2,
            "JOINTS_0": 3,
            "WEIGHTS_0": 4
          },
          "material": 1,
          "indices": 7,
          "extensions": {
            "FB_ngon_encoding": {}
          }
        },
        {
          "attributes": {
            "POSITION": 0,
            "TEXCOORD_0": 1,
            "COLOR_0": 2,
            "JOINTS_0": 3,
            "WEIGHTS_0": 4
          },
          "material": 2,
          "indices": 8,
          "extensions": {
            "FB_ngon_encoding": {}
          }
        },
        {
          "attributes": {
            "POSITION": 0,
            "TEXCOORD_0": 1,
            "COLOR_0": 2,
            "JOINTS_0": 3,
            "WEIGHTS_0": 4
          },
          "material": 3,
          "indices": 9,
          "extensions": {
            "FB_ngon_encoding": {}
          }
        },
        {
          "attributes": {
            "POSITION": 0,
            "TEXCOORD_0": 1,
            "COLOR_0": 2,
            "JOINTS_0": 3,
            "WEIGHTS_0": 4
          },
          "material": 4,
          "indices": 10,
          "extensions": {
            "FB_ngon_encoding": {}
          }
        }
      ],
      "name": "m_tv04_00_00c"
    }
  ],
  "nodes": [
    {
      "name": "polySurface36"
    },
    {
      "mesh": 0,
      "skin": 0,
      "name": "m_tv04_00_00c",
      "children": [
        0
      ]
    }
  ],
  "skins": [
    {
      "skeleton": 0,
      "joints": [
        0
      ],
      "inverseBindMatrices": 11
    }
  ],
  "scenes": [
    {
      "nodes": [
        1
      ],
      "name": "m_tv04_00_00c"
    }
  ],
  "scene": 0,
  "samplers": [
    {
      "wrapS": 10497,
      "wrapT": 10497,
      "magFilter": 9728,
      "minFilter": 9728
    }
  ],
  "images": [
    {
      "uri": "ele_b01.png"
    },
    {
      "uri": "tv_01.png"
    },
    {
      "uri": "tv_05.png"
    },
    {
      "uri": "tv_07.png"
    },
    {
      "uri": "tv_15.png"
    }
  ],
  "textures": [
    {
      "source": 0,
      "sampler": 0
    },
    {
      "source": 1,
      "sampler": 0
    },
    {
      "source": 2,
      "sampler": 0
    },
    {
      "source": 3,
      "sampler": 0
    },
    {
      "source": 4,
      "sampler": 0
    }
  ],
  "materials": [
    {
      "name": "ele_b01_lm15",
      "pbrMetallicRoughness": {
        "baseColorTexture": {
          "index": 0
        },
        "metallicFactor": 0
      },
      "extensions": {
        "KHR_materials_unlit": {}
      }
    },
    {
      "name": "lambert1",
      "extensions": {
        "KHR_materials_unlit": {}
      }
    },
    {
      "name": "tv_01_lm7",
      "pbrMetallicRoughness": {
        "baseColorTexture": {
          "index": 1
        },
        "metallicFactor": 0
      },
      "extensions": {
        "KHR_materials_unlit": {}
      }
    },
    {
      "name": "tv_05_lm8",
      "pbrMetallicRoughness": {
        "baseColorTexture": {
          "index": 2
        },
        "metallicFactor": 0
      },
      "extensions": {
        "KHR_materials_unlit": {}
      }
    },
    {
      "name": "tv_07_lm7",
      "pbrMetallicRoughness": {
        "baseColorTexture": {
          "index": 3
        },
        "metallicFactor": 0
      },
      "extensions": {
        "KHR_materials_unlit": {}
      }
    },
    {
      "name": "tv_15_lm1",
      "pbrMetallicRoughness": {
        "baseColorTexture": {
          "index": 4
        },
        "metallicFactor": 0
      },
      "extensions": {
        "KHR_materials_unlit": {}
      },
      "alphaMode": "MASK"
    }
  ],
  "buffers": [
    {
      "byteLength": 21576,
      "uri": "m_tv04_00_00c.bin"
    }
  ]
}