{
  "asset": {
    "version": "2.0"
  },
  "bufferViews": [
    {
      "buffer": 0,
      "byteLength": 1296,
      "byteOffset": 0
    },
    {
      "buffer": 0,
      "byteLength": 864,
      "byteOffset": 1296
    },
    {
      "buffer": 0,
      "byteLength": 432,
      "byteStride": 4,
      "byteOffset": 2160
    },
    {
      "buffer": 0,
      "byteOffset": 2592,
      "byteStride": 4,
      "byteLength": 432
    },
    {
      "buffer": 0,
      "byteOffset": 3024,
      "byteStride": 4,
      "byteLength": 432
    },
    {
      "buffer": 0,
      "byteLength": 336,
      "byteOffset": 3456
    },
    {
      "buffer": 0,
      "byteLength": 256,
      "byteOffset": 3792
    },
    {
      "buffer": 0,
      "byteLength": 732,
      "byteOffset": 4048
    },
    {
      "buffer": 0,
      "byteOffset": 4780,
      "byteLength": 60
    }
  ],
  "accessors": [
    {
      "bufferView": 0,
      "type": "VEC3",
      "componentType": 5126,
      "count": 108,
      "min": [
        -3.842562675476074,
        -4.963177680969238,
        -3.7856979370117189
      ],
      "max": [
        19.84256362915039,
        45.813297271728519,
        19.78569793701172
      ]
    },
    {
      "bufferView": 1,
      "type": "VEC2",
      "componentType": 5126,
      "count": 108
    },
    {
      "bufferView": 2,
      "type": "VEC3",
      "componentType": 5121,
      "normalized": true,
      "count": 108
    },
    {
      "bufferView": 3,
      "type": "VEC4",
      "componentType": 5121,
      "count": 108
    },
    {
      "bufferView": 4,
      "type": "VEC4",
      "componentType": 5121,
      "normalized": true,
      "count": 108
    },
    {
      "bufferView": 5,
      "type": "SCALAR",
      "byteOffset": 0,
      "componentType": 5123,
      "count": 72
    },
    {
      "bufferView": 5,
      "type": "SCALAR",
      "byteOffset": 144,
      "componentType": 5123,
      "count": 24
    },
    {
      "bufferView": 5,
      "type": "SCALAR",
      "byteOffset": 192,
      "componentType": 5123,
      "count": 72
    },
    {
      "bufferView": 6,
      "type": "MAT4",
      "componentType": 5126,
      "count": 4
    },
    {
      "bufferView": 8,
      "type": "SCALAR",
      "componentType": 5126,
      "byteOffset": 0,
      "count": 1,
      "min": [
        0
      ],
      "max": [
        0
      ]
    },
    {
      "bufferView": 7,
      "type": "VEC3",
      "componentType": 5126,
      "byteOffset": 0,
      "count": 1
    },
    {
      "bufferView": 8,
      "type": "SCALAR",
      "componentType": 5126,
      "byteOffset": 0,
      "count": 15,
      "min": [
        0
      ],
      "max": [
        0.23333334922790528
      ]
    },
    {
      "bufferView": 7,
      "type": "VEC3",
      "componentType": 5126,
      "byteOffset": 12,
      "count": 15
    },
    {
      "bufferView": 7,
      "type": "VEC3",
      "componentType": 5126,
      "byteOffset": 192,
      "count": 15
    },
    {
      "bufferView": 7,
      "type": "VEC3",
      "componentType": 5126,
      "byteOffset": 372,
      "count": 15
    },
    {
      "bufferView": 7,
      "type": "VEC3",
      "componentType": 5126,
      "byteOffset": 552,
      "count": 15
    }
  ],
  "extensionsUsed": [
    "FB_ngon_encoding",
    "KHR_materials_unlit"
  ],
  "meshes": [
    {
      "primitives": [
        {
          "attributes": {
            "POSITION": 0,
            "TEXCOORD_0": 1,
            "COLOR_0": 2,
            "JOINTS_0": 3,
            "WEIGHTS_0": 4
          },
          "material": 0,
          "indices": 5,
          "extensions": {
            "FB_ngon_encoding": {}
          }
        },
        {
          "attributes": {
            "POSITION": 0,
            "TEXCOORD_0": 1,
            "COLOR_0": 2,
            "JOINTS_0": 3,
            "WEIGHTS_0": 4
          },
          "material": 0,
          "indices": 6,
          "extensions": {
            "FB_ngon_encoding": {}
          }
        },
        {
          "attributes": {
            "POSITION": 0,
            "TEXCOORD_0": 1,
            "COLOR_0": 2,
            "JOINTS_0": 3,
            "WEIGHTS_0": 4
          },
          "material": 0,
          "indices": 7,
          "extensions": {
            "FB_ngon_encoding": {}
          }
        }
      ],
      "name": "wifi_hanabi1"
    }
  ],
  "nodes": [
    {
      "children": [
        1,
        2,
        3
      ],
      "name": "hanabi2:group1",
      "translation": [
        8,
        -4,
        8
      ]
    },
    {
      "name": "hanabi2:f1",
      "scale": [
        0.456787109375,
        0.958740234375,
        0.52490234375
      ]
    },
    {
      "name": "hanabi2:f2",
      "scale": [
        0.705078125,
        1.494384765625,
        0.73486328125
      ]
    },
    {
      "name": "hanabi2:f3",
      "scale": [
        0.39404296875,
        0.584228515625,
        0.2822265625
      ]
    },
    {
      "mesh": 0,
      "skin": 0,
      "name": "wifi_hanabi1",
      "children": [
        0
      ]
    }
  ],
  "skins": [
    {
      "skeleton": 0,
      "joints": [
        0,
        1,
        2,
        3
      ],
      "inverseBindMatrices": 8
    }
  ],
  "scenes": [
    {
      "nodes": [
        4
      ],
      "name": "wifi_hanabi1"
    }
  ],
  "scene": 0,
  "animations": [
    {
      "name": "wifi_hanabi1",
      "samplers": [
        {
          "input": 9,
          "output": 10
        },
        {
          "input": 11,
          "output": 12
        },
        {
          "input": 11,
          "output": 13
        },
        {
          "input": 11,
          "output": 14
        },
        {
          "input": 11,
          "output": 15
        }
      ],
      "channels": [
        {
          "target": {
            "node": 0,
            "path": "translation"
          },
          "sampler": 0
        },
        {
          "target": {
            "node": 1,
            "path": "scale"
          },
          "sampler": 1
        },
        {
          "target": {
            "node": 2,
            "path": "scale"
          },
          "sampler": 2
        },
        {
          "target": {
            "node": 3,
            "path": "translation"
          },
          "sampler": 3
        },
        {
          "target": {
            "node": 3,
            "path": "scale"
          },
          "sampler": 4
        }
      ]
    }
  ],
  "samplers": [
    {
      "wrapS": 10497,
      "wrapT": 10497,
      "magFilter": 9728,
      "minFilter": 9728
    }
  ],
  "images": [
    {
      "uri": "wifi_hanabi5_1.png"
    }
  ],
  "textures": [
    {
      "source": 0,
      "sampler": 0
    }
  ],
  "materials": [
    {
      "name": "hanabi2:main1",
      "pbrMetallicRoughness": {
        "baseColorTexture": {
          "index": 0
        },
        "metallicFactor": 0
      },
      "extensions": {
        "KHR_materials_unlit": {}
      },
      "alphaMode": "MASK",
      "doubleSided": true
    }
  ],
  "buffers": [
    {
      "byteLength": 4840,
      "uri": "wifi_hanabi1.bin"
    }
  ]
}