{
  "asset": {
    "version": "2.0"
  },
  "bufferViews": [
    {
      "buffer": 0,
      "byteLength": 1344,
      "byteOffset": 0
    },
    {
      "buffer": 0,
      "byteLength": 896,
      "byteOffset": 1344
    },
    {
      "buffer": 0,
      "byteLength": 448,
      "byteStride": 4,
      "byteOffset": 2240
    },
    {
      "buffer": 0,
      "byteLength": 1344,
      "byteOffset": 2688
    },
    {
      "buffer": 0,
      "byteOffset": 4032,
      "byteStride": 4,
      "byteLength": 448
    },
    {
      "buffer": 0,
      "byteOffset": 4480,
      "byteStride": 4,
      "byteLength": 448
    },
    {
      "buffer": 0,
      "byteLength": 288,
      "byteOffset": 4928
    },
    {
      "buffer": 0,
      "byteLength": 320,
      "byteOffset": 5216
    },
    {
      "buffer": 0,
      "byteLength": 432,
      "byteOffset": 5536
    },
    {
      "buffer": 0,
      "byteOffset": 5968,
      "byteLength": 124
    }
  ],
  "accessors": [
    {
      "bufferView": 0,
      "type": "VEC3",
      "componentType": 5126,
      "count": 112,
      "min": [
        -34.1171875,
        16.041336059570314,
        -34.1171875
      ],
      "max": [
        34.1171875,
        52.60652542114258,
        34.1171875
      ]
    },
    {
      "bufferView": 1,
      "type": "VEC2",
      "componentType": 5126,
      "count": 112
    },
    {
      "bufferView": 2,
      "type": "VEC3",
      "componentType": 5121,
      "normalized": true,
      "count": 112
    },
    {
      "bufferView": 3,
      "type": "VEC3",
      "componentType": 5126,
      "count": 112
    },
    {
      "bufferView": 4,
      "type": "VEC4",
      "componentType": 5121,
      "count": 112
    },
    {
      "bufferView": 5,
      "type": "VEC4",
      "componentType": 5121,
      "normalized": true,
      "count": 112
    },
    {
      "bufferView": 6,
      "type": "SCALAR",
      "byteOffset": 0,
      "componentType": 5123,
      "count": 36
    },
    {
      "bufferView": 6,
      "type": "SCALAR",
      "byteOffset": 72,
      "componentType": 5123,
      "count": 36
    },
    {
      "bufferView": 6,
      "type": "SCALAR",
      "byteOffset": 144,
      "componentType": 5123,
      "count": 36
    },
    {
      "bufferView": 6,
      "type": "SCALAR",
      "byteOffset": 216,
      "componentType": 5123,
      "count": 36
    },
    {
      "bufferView": 7,
      "type": "MAT4",
      "componentType": 5126,
      "count": 5
    },
    {
      "bufferView": 9,
      "type": "SCALAR",
      "componentType": 5126,
      "byteOffset": 0,
      "count": 1,
      "min": [
        0
      ],
      "max": [
        0
      ]
    },
    {
      "bufferView": 8,
      "type": "VEC3",
      "componentType": 5126,
      "byteOffset": 0,
      "count": 1
    },
    {
      "bufferView": 9,
      "type": "SCALAR",
      "componentType": 5126,
      "byteOffset": 0,
      "count": 31,
      "min": [
        0
      ],
      "max": [
        0.5
      ]
    },
    {
      "bufferView": 8,
      "type": "VEC3",
      "componentType": 5126,
      "byteOffset": 12,
      "count": 31
    },
    {
      "bufferView": 8,
      "type": "VEC3",
      "componentType": 5126,
      "byteOffset": 384,
      "count": 1
    },
    {
      "bufferView": 8,
      "type": "VEC3",
      "componentType": 5126,
      "byteOffset": 396,
      "count": 1
    },
    {
      "bufferView": 8,
      "type": "VEC3",
      "componentType": 5126,
      "byteOffset": 408,
      "count": 1
    },
    {
      "bufferView": 8,
      "type": "VEC3",
      "componentType": 5126,
      "byteOffset": 420,
      "count": 1
    }
  ],
  "extensionsUsed": [
    "FB_ngon_encoding",
    "KHR_materials_unlit"
  ],
  "meshes": [
    {
      "primitives": [
        {
          "attributes": {
            "POSITION": 0,
            "TEXCOORD_0": 1,
            "COLOR_0": 2,
            "NORMAL": 3,
            "JOINTS_0": 4,
            "WEIGHTS_0": 5
          },
          "material": 0,
          "indices": 6,
          "extensions": {
            "FB_ngon_encoding": {}
          }
        },
        {
          "attributes": {
            "POSITION": 0,
            "TEXCOORD_0": 1,
            "COLOR_0": 2,
            "NORMAL": 3,
            "JOINTS_0": 4,
            "WEIGHTS_0": 5
          },
          "material": 0,
          "indices": 7,
          "extensions": {
            "FB_ngon_encoding": {}
          }
        },
        {
          "attributes": {
            "POSITION": 0,
            "TEXCOORD_0": 1,
            "COLOR_0": 2,
            "NORMAL": 3,
            "JOINTS_0": 4,
            "WEIGHTS_0": 5
          },
          "material": 0,
          "indices": 8,
          "extensions": {
            "FB_ngon_encoding": {}
          }
        },
        {
          "attributes": {
            "POSITION": 0,
            "TEXCOORD_0": 1,
            "COLOR_0": 2,
            "NORMAL": 3,
            "JOINTS_0": 4,
            "WEIGHTS_0": 5
          },
          "material": 0,
          "indices": 9,
          "extensions": {
            "FB_ngon_encoding": {}
          }
        }
      ],
      "name": "d33_land_tree"
    }
  ],
  "nodes": [
    {
      "children": [
        1,
        2,
        3,
        4
      ],
      "name": "group1",
      "translation": [
        0,
        16,
        0
      ],
      "scale": [
        1,
        0.2939453125,
        1
      ]
    },
    {
      "name": "polySurface58",
      "translation": [
        16,
        0,
        -16
      ]
    },
    {
      "name": "polySurface59",
      "translation": [
        16,
        0,
        16
      ]
    },
    {
      "name": "polySurface60",
      "translation": [
        -16,
        0,
        16
      ]
    },
    {
      "name": "polySurface61",
      "translation": [
        -16,
        0,
        -16
      ]
    },
    {
      "mesh": 0,
      "skin": 0,
      "name": "d33_land_tree",
      "children": [
        0
      ]
    }
  ],
  "skins": [
    {
      "skeleton": 0,
      "joints": [
        0,
        1,
        2,
        3,
        4
      ],
      "inverseBindMatrices": 10
    }
  ],
  "scenes": [
    {
      "nodes": [
        5
      ],
      "name": "d33_land_tree"
    }
  ],
  "scene": 0,
  "animations": [
    {
      "name": "d33_land_tree",
      "samplers": [
        {
          "input": 11,
          "output": 12
        },
        {
          "input": 13,
          "output": 14
        },
        {
          "input": 11,
          "output": 15
        },
        {
          "input": 11,
          "output": 16
        },
        {
          "input": 11,
          "output": 17
        },
        {
          "input": 11,
          "output": 18
        }
      ],
      "channels": [
        {
          "target": {
            "node": 0,
            "path": "translation"
          },
          "sampler": 0
        },
        {
          "target": {
            "node": 0,
            "path": "scale"
          },
          "sampler": 1
        },
        {
          "target": {
            "node": 1,
            "path": "translation"
          },
          "sampler": 2
        },
        {
          "target": {
            "node": 2,
            "path": "translation"
          },
          "sampler": 3
        },
        {
          "target": {
            "node": 3,
            "path": "translation"
          },
          "sampler": 4
        },
        {
          "target": {
            "node": 4,
            "path": "translation"
          },
          "sampler": 5
        }
      ]
    }
  ],
  "samplers": [
    {
      "wrapS": 10497,
      "wrapT": 10497,
      "magFilter": 9728,
      "minFilter": 9728
    }
  ],
  "images": [
    {
      "uri": "tree_sbt01.png"
    }
  ],
  "textures": [
    {
      "source": 0,
      "sampler": 0
    }
  ],
  "materials": [
    {
      "name": "tree_sbt01_lm3",
      "pbrMetallicRoughness": {
        "baseColorTexture": {
          "index": 0
        },
        "metallicFactor": 0
      },
      "extensions": {
        "KHR_materials_unlit": {}
      },
      "alphaMode": "BLEND",
      "doubleSided": true
    }
  ],
  "buffers": [
    {
      "byteLength": 6092,
      "uri": "d33_land_tree.bin"
    }
  ]
}