{
  "asset": {
    "version": "2.0"
  },
  "bufferViews": [
    {
      "buffer": 0,
      "byteLength": 22176,
      "byteOffset": 0
    },
    {
      "buffer": 0,
      "byteLength": 14784,
      "byteOffset": 22176
    },
    {
      "buffer": 0,
      "byteLength": 7392,
      "byteStride": 4,
      "byteOffset": 36960
    },
    {
      "buffer": 0,
      "byteOffset": 44352,
      "byteStride": 4,
      "byteLength": 7392
    },
    {
      "buffer": 0,
      "byteOffset": 51744,
      "byteStride": 4,
      "byteLength": 7392
    },
    {
      "buffer": 0,
      "byteLength": 7764,
      "byteOffset": 59136
    },
    {
      "buffer": 0,
      "byteLength": 64,
      "byteOffset": 66900
    }
  ],
  "accessors": [
    {
      "bufferView": 0,
      "type": "VEC3",
      "componentType": 5126,
      "count": 1848,
      "min": [
        -304,
        0,
        -304
      ],
      "max": [
        32,
        96,
        32
      ]
    },
    {
      "bufferView": 1,
      "type": "VEC2",
      "componentType": 5126,
      "count": 1848
    },
    {
      "bufferView": 2,
      "type": "VEC3",
      "componentType": 5121,
      "normalized": true,
      "count": 1848
    },
    {
      "bufferView": 3,
      "type": "VEC4",
      "componentType": 5121,
      "count": 1848
    },
    {
      "bufferView": 4,
      "type": "VEC4",
      "componentType": 5121,
      "normalized": true,
      "count": 1848
    },
    {
      "bufferView": 5,
      "type": "SCALAR",
      "byteOffset": 0,
      "componentType": 5123,
      "count": 36
    },
    {
      "bufferView": 5,
      "type": "SCALAR",
      "byteOffset": 72,
      "componentType": 5123,
      "count": 42
    },
    {
      "bufferView": 5,
      "type": "SCALAR",
      "byteOffset": 156,
      "componentType": 5123,
      "count": 42
    },
    {
      "bufferView": 5,
      "type": "SCALAR",
      "byteOffset": 240,
      "componentType": 5123,
      "count": 33
    },
    {
      "bufferView": 5,
      "type": "SCALAR",
      "byteOffset": 306,
      "componentType": 5123,
      "count": 54
    },
    {
      "bufferView": 5,
      "type": "SCALAR",
      "byteOffset": 414,
      "componentType": 5123,
      "count": 33
    },
    {
      "bufferView": 5,
      "type": "SCALAR",
      "byteOffset": 480,
      "componentType": 5123,
      "count": 180
    },
    {
      "bufferView": 5,
      "type": "SCALAR",
      "byteOffset": 840,
      "componentType": 5123,
      "count": 162
    },
    {
      "bufferView": 5,
      "type": "SCALAR",
      "byteOffset": 1164,
      "componentType": 5123,
      "count": 201
    },
    {
      "bufferView": 5,
      "type": "SCALAR",
      "byteOffset": 1566,
      "componentType": 5123,
      "count": 234
    },
    {
      "bufferView": 5,
      "type": "SCALAR",
      "byteOffset": 2034,
      "componentType": 5123,
      "count": 288
    },
    {
      "bufferView": 5,
      "type": "SCALAR",
      "byteOffset": 2610,
      "componentType": 5123,
      "count": 342
    },
    {
      "bufferView": 5,
      "type": "SCALAR",
      "byteOffset": 3294,
      "componentType": 5123,
      "count": 369
    },
    {
      "bufferView": 5,
      "type": "SCALAR",
      "byteOffset": 4032,
      "componentType": 5123,
      "count": 666
    },
    {
      "bufferView": 5,
      "type": "SCALAR",
      "byteOffset": 5364,
      "componentType": 5123,
      "count": 1200
    },
    {
      "bufferView": 6,
      "type": "MAT4",
      "componentType": 5126,
      "count": 1
    }
  ],
  "extensionsUsed": [
    "FB_ngon_encoding",
    "KHR_materials_unlit"
  ],
  "meshes": [
    {
      "primitives": [
        {
          "attributes": {
            "POSITION": 0,
            "TEXCOORD_0": 1,
            "COLOR_0": 2,
            "JOINTS_0": 3,
            "WEIGHTS_0": 4
          },
          "material": 14,
          "indices": 5,
          "extensions": {
            "FB_ngon_encoding": {}
          }
        },
        {
          "attributes": {
            "POSITION": 0,
            "TEXCOORD_0": 1,
            "COLOR_0": 2,
            "JOINTS_0": 3,
            "WEIGHTS_0": 4
          },
          "material": 12,
          "indices": 6,
          "extensions": {
            "FB_ngon_encoding": {}
          }
        },
        {
          "attributes": {
            "POSITION": 0,
            "TEXCOORD_0": 1,
            "COLOR_0": 2,
            "JOINTS_0": 3,
            "WEIGHTS_0": 4
          },
          "material": 13,
          "indices": 7,
          "extensions": {
            "FB_ngon_encoding": {}
          }
        },
        {
          "attributes": {
            "POSITION": 0,
            "TEXCOORD_0": 1,
            "COLOR_0": 2,
            "JOINTS_0": 3,
            "WEIGHTS_0": 4
          },
          "material": 1,
          "indices": 8,
          "extensions": {
            "FB_ngon_encoding": {}
          }
        },
        {
          "attributes": {
            "POSITION": 0,
            "TEXCOORD_0": 1,
            "COLOR_0": 2,
            "JOINTS_0": 3,
            "WEIGHTS_0": 4
          },
          "material": 0,
          "indices": 9,
          "extensions": {
            "FB_ngon_encoding": {}
          }
        },
        {
          "attributes": {
            "POSITION": 0,
            "TEXCOORD_0": 1,
            "COLOR_0": 2,
            "JOINTS_0": 3,
            "WEIGHTS_0": 4
          },
          "material": 2,
          "indices": 10,
          "extensions": {
            "FB_ngon_encoding": {}
          }
        },
        {
          "attributes": {
            "POSITION": 0,
            "TEXCOORD_0": 1,
            "COLOR_0": 2,
            "JOINTS_0": 3,
            "WEIGHTS_0": 4
          },
          "material": 8,
          "indices": 11,
          "extensions": {
            "FB_ngon_encoding": {}
          }
        },
        {
          "attributes": {
            "POSITION": 0,
            "TEXCOORD_0": 1,
            "COLOR_0": 2,
            "JOINTS_0": 3,
            "WEIGHTS_0": 4
          },
          "material": 7,
          "indices": 12,
          "extensions": {
            "FB_ngon_encoding": {}
          }
        },
        {
          "attributes": {
            "POSITION": 0,
            "TEXCOORD_0": 1,
            "COLOR_0": 2,
            "JOINTS_0": 3,
            "WEIGHTS_0": 4
          },
          "material": 4,
          "indices": 13,
          "extensions": {
            "FB_ngon_encoding": {}
          }
        },
        {
          "attributes": {
            "POSITION": 0,
            "TEXCOORD_0": 1,
            "COLOR_0": 2,
            "JOINTS_0": 3,
            "WEIGHTS_0": 4
          },
          "material": 9,
          "indices": 14,
          "extensions": {
            "FB_ngon_encoding": {}
          }
        },
        {
          "attributes": {
            "POSITION": 0,
            "TEXCOORD_0": 1,
            "COLOR_0": 2,
            "JOINTS_0": 3,
            "WEIGHTS_0": 4
          },
          "material": 10,
          "indices": 15,
          "extensions": {
            "FB_ngon_encoding": {}
          }
        },
        {
          "attributes": {
            "POSITION": 0,
            "TEXCOORD_0": 1,
            "COLOR_0": 2,
            "JOINTS_0": 3,
            "WEIGHTS_0": 4
          },
          "material": 11,
          "indices": 16,
          "extensions": {
            "FB_ngon_encoding": {}
          }
        },
        {
          "attributes": {
            "POSITION": 0,
            "TEXCOORD_0": 1,
            "COLOR_0": 2,
            "JOINTS_0": 3,
            "WEIGHTS_0": 4
          },
          "material": 3,
          "indices": 17,
          "extensions": {
            "FB_ngon_encoding": {}
          }
        },
        {
          "attributes": {
            "POSITION": 0,
            "TEXCOORD_0": 1,
            "COLOR_0": 2,
            "JOINTS_0": 3,
            "WEIGHTS_0": 4
          },
          "material": 6,
          "indices": 18,
          "extensions": {
            "FB_ngon_encoding": {}
          }
        },
        {
          "attributes": {
            "POSITION": 0,
            "TEXCOORD_0": 1,
            "COLOR_0": 2,
            "JOINTS_0": 3,
            "WEIGHTS_0": 4
          },
          "material": 5,
          "indices": 19,
          "extensions": {
            "FB_ngon_encoding": {}
          }
        }
      ],
      "name": "m_dun3502_00_00c"
    }
  ],
  "nodes": [
    {
      "name": "polySurface3"
    },
    {
      "mesh": 0,
      "skin": 0,
      "name": "m_dun3502_00_00c",
      "children": [
        0
      ]
    }
  ],
  "skins": [
    {
      "skeleton": 0,
      "joints": [
        0
      ],
      "inverseBindMatrices": 20
    }
  ],
  "scenes": [
    {
      "nodes": [
        1
      ],
      "name": "m_dun3502_00_00c"
    }
  ],
  "scene": 0,
  "samplers": [
    {
      "wrapS": 10497,
      "wrapT": 10497,
      "magFilter": 9728,
      "minFilter": 9728
    }
  ],
  "images": [
    {
      "uri": "dun_dhole.png"
    },
    {
      "uri": "dun_ent.png"
    },
    {
      "uri": "dun_floor2.png"
    },
    {
      "uri": "dun_floor.png"
    },
    {
      "uri": "dun_wall_c.png"
    },
    {
      "uri": "dun_wall_n.png"
    },
    {
      "uri": "dun_wallsp1_01.png"
    },
    {
      "uri": "dun_wallsp1_c.png"
    },
    {
      "uri": "dun_wallsp1_02.png"
    },
    {
      "uri": "dun_wallsp1_03.png"
    },
    {
      "uri": "dun_wallsp1_04.png"
    },
    {
      "uri": "dun_wallsp1_05.png"
    },
    {
      "uri": "yuka_red_1.png"
    },
    {
      "uri": "pikar_1.png"
    },
    {
      "uri": "fuchi.png"
    }
  ],
  "textures": [
    {
      "source": 0,
      "sampler": 0
    },
    {
      "source": 1,
      "sampler": 0
    },
    {
      "source": 2,
      "sampler": 0
    },
    {
      "source": 3,
      "sampler": 0
    },
    {
      "source": 4,
      "sampler": 0
    },
    {
      "source": 5,
      "sampler": 0
    },
    {
      "source": 6,
      "sampler": 0
    },
    {
      "source": 7,
      "sampler": 0
    },
    {
      "source": 8,
      "sampler": 0
    },
    {
      "source": 9,
      "sampler": 0
    },
    {
      "source": 10,
      "sampler": 0
    },
    {
      "source": 11,
      "sampler": 0
    },
    {
      "source": 12,
      "sampler": 0
    },
    {
      "source": 13,
      "sampler": 0
    },
    {
      "source": 14,
      "sampler": 0
    }
  ],
  "materials": [
    {
      "name": "dun_dhole_lm16",
      "pbrMetallicRoughness": {
        "baseColorTexture": {
          "index": 0
        },
        "metallicFactor": 0
      },
      "extensions": {
        "KHR_materials_unlit": {}
      },
      "alphaMode": "MASK"
    },
    {
      "name": "dun_ent_lm15",
      "pbrMetallicRoughness": {
        "baseColorTexture": {
          "index": 1
        },
        "metallicFactor": 0
      },
      "extensions": {
        "KHR_materials_unlit": {}
      }
    },
    {
      "name": "dun_floor2_lm20",
      "pbrMetallicRoughness": {
        "baseColorTexture": {
          "index": 2
        },
        "metallicFactor": 0
      },
      "extensions": {
        "KHR_materials_unlit": {}
      }
    },
    {
      "name": "dun_floor_lm26",
      "pbrMetallicRoughness": {
        "baseColorTexture": {
          "index": 3
        },
        "metallicFactor": 0
      },
      "extensions": {
        "KHR_materials_unlit": {}
      }
    },
    {
      "name": "dun_wall_c_lm21",
      "pbrMetallicRoughness": {
        "baseColorTexture": {
          "index": 4
        },
        "metallicFactor": 0
      },
      "extensions": {
        "KHR_materials_unlit": {}
      },
      "alphaMode": "MASK"
    },
    {
      "name": "dun_wall_n_lm24",
      "pbrMetallicRoughness": {
        "baseColorTexture": {
          "index": 5
        },
        "metallicFactor": 0
      },
      "extensions": {
        "KHR_materials_unlit": {}
      }
    },
    {
      "name": "file1Material",
      "pbrMetallicRoughness": {
        "baseColorTexture": {
          "index": 6
        },
        "metallicFactor": 0
      },
      "extensions": {
        "KHR_materials_unlit": {}
      }
    },
    {
      "name": "file2Material",
      "pbrMetallicRoughness": {
        "baseColorTexture": {
          "index": 7
        },
        "metallicFactor": 0
      },
      "extensions": {
        "KHR_materials_unlit": {}
      }
    },
    {
      "name": "file3Material",
      "pbrMetallicRoughness": {
        "baseColorTexture": {
          "index": 8
        },
        "metallicFactor": 0
      },
      "extensions": {
        "KHR_materials_unlit": {}
      }
    },
    {
      "name": "file4Material",
      "pbrMetallicRoughness": {
        "baseColorTexture": {
          "index": 9
        },
        "metallicFactor": 0
      },
      "extensions": {
        "KHR_materials_unlit": {}
      }
    },
    {
      "name": "file5Material",
      "pbrMetallicRoughness": {
        "baseColorTexture": {
          "index": 10
        },
        "metallicFactor": 0
      },
      "extensions": {
        "KHR_materials_unlit": {}
      }
    },
    {
      "name": "file6Material",
      "pbrMetallicRoughness": {
        "baseColorTexture": {
          "index": 11
        },
        "metallicFactor": 0
      },
      "extensions": {
        "KHR_materials_unlit": {}
      }
    },
    {
      "name": "lambert33",
      "pbrMetallicRoughness": {
        "baseColorTexture": {
          "index": 12
        },
        "metallicFactor": 0
      },
      "extensions": {
        "KHR_materials_unlit": {}
      },
      "alphaMode": "BLEND"
    },
    {
      "name": "lambert36",
      "pbrMetallicRoughness": {
        "baseColorTexture": {
          "index": 13
        },
        "metallicFactor": 0
      },
      "extensions": {
        "KHR_materials_unlit": {}
      },
      "alphaMode": "BLEND"
    },
    {
      "name": "lambert37",
      "pbrMetallicRoughness": {
        "baseColorTexture": {
          "index": 14
        },
        "metallicFactor": 0
      },
      "extensions": {
        "KHR_materials_unlit": {}
      }
    }
  ],
  "buffers": [
    {
      "byteLength": 66964,
      "uri": "m_dun3502_00_00c.bin"
    }
  ]
}