{
  "asset": {
    "version": "2.0"
  },
  "bufferViews": [
    {
      "buffer": 0,
      "byteLength": 96,
      "byteOffset": 0
    },
    {
      "buffer": 0,
      "byteLength": 64,
      "byteOffset": 96
    },
    {
      "buffer": 0,
      "byteLength": 32,
      "byteStride": 4,
      "byteOffset": 160
    },
    {
      "buffer": 0,
      "byteLength": 96,
      "byteOffset": 192
    },
    {
      "buffer": 0,
      "byteOffset": 288,
      "byteStride": 4,
      "byteLength": 32
    },
    {
      "buffer": 0,
      "byteOffset": 320,
      "byteStride": 4,
      "byteLength": 32
    },
    {
      "buffer": 0,
      "byteLength": 24,
      "byteOffset": 352
    },
    {
      "buffer": 0,
      "byteLength": 192,
      "byteOffset": 376
    }
  ],
  "accessors": [
    {
      "bufferView": 0,
      "type": "VEC3",
      "componentType": 5126,
      "count": 8,
      "min": [
        -19.979293823242189,
        31.18586540222168,
        2.215142250061035
      ],
      "max": [
        51.97929382324219,
        53.783607482910159,
        24.814884185791017
      ]
    },
    {
      "bufferView": 1,
      "type": "VEC2",
      "componentType": 5126,
      "count": 8
    },
    {
      "bufferView": 2,
      "type": "VEC3",
      "componentType": 5121,
      "normalized": true,
      "count": 8
    },
    {
      "bufferView": 3,
      "type": "VEC3",
      "componentType": 5126,
      "count": 8
    },
    {
      "bufferView": 4,
      "type": "VEC4",
      "componentType": 5121,
      "count": 8
    },
    {
      "bufferView": 5,
      "type": "VEC4",
      "componentType": 5121,
      "normalized": true,
      "count": 8
    },
    {
      "bufferView": 6,
      "type": "SCALAR",
      "byteOffset": 0,
      "componentType": 5123,
      "count": 6
    },
    {
      "bufferView": 6,
      "type": "SCALAR",
      "byteOffset": 12,
      "componentType": 5123,
      "count": 6
    },
    {
      "bufferView": 7,
      "type": "MAT4",
      "componentType": 5126,
      "count": 3
    }
  ],
  "extensionsUsed": [
    "FB_ngon_encoding",
    "KHR_materials_unlit"
  ],
  "meshes": [
    {
      "primitives": [
        {
          "attributes": {
            "POSITION": 0,
            "TEXCOORD_0": 1,
            "COLOR_0": 2,
            "NORMAL": 3,
            "JOINTS_0": 4,
            "WEIGHTS_0": 5
          },
          "material": 0,
          "indices": 6,
          "extensions": {
            "FB_ngon_encoding": {}
          }
        },
        {
          "attributes": {
            "POSITION": 0,
            "TEXCOORD_0": 1,
            "COLOR_0": 2,
            "NORMAL": 3,
            "JOINTS_0": 4,
            "WEIGHTS_0": 5
          },
          "material": 0,
          "indices": 7,
          "extensions": {
            "FB_ngon_encoding": {}
          }
        }
      ],
      "name": "wifi_ohanabi4"
    }
  ],
  "nodes": [
    {
      "children": [
        1,
        2
      ],
      "name": "world_root"
    },
    {
      "name": "pPlane11",
      "translation": [
        0,
        39.65673828125,
        16.34326171875
      ],
      "rotation": [
        0.3826629925879859,
        0,
        0,
        0.9238879986792808
      ],
      "scale": [
        1.027099609375,
        1.027099609375,
        1.027099609375
      ]
    },
    {
      "name": "pPlane8",
      "translation": [
        32,
        39.65673828125,
        16.34326171875
      ],
      "rotation": [
        0.3826629925879859,
        0,
        0,
        0.9238879986792808
      ],
      "scale": [
        1.027099609375,
        1.027099609375,
        1.027099609375
      ]
    },
    {
      "mesh": 0,
      "skin": 0,
      "name": "wifi_ohanabi4",
      "children": [
        0
      ]
    }
  ],
  "skins": [
    {
      "skeleton": 0,
      "joints": [
        0,
        1,
        2
      ],
      "inverseBindMatrices": 8
    }
  ],
  "scenes": [
    {
      "nodes": [
        3
      ],
      "name": "wifi_ohanabi4"
    }
  ],
  "scene": 0,
  "samplers": [
    {
      "wrapS": 10497,
      "wrapT": 10497,
      "magFilter": 9728,
      "minFilter": 9728
    }
  ],
  "images": [
    {
      "uri": "obje_hanabi4_0.png"
    }
  ],
  "textures": [
    {
      "source": 0,
      "sampler": 0
    }
  ],
  "materials": [
    {
      "name": "hanabi",
      "pbrMetallicRoughness": {
        "baseColorTexture": {
          "index": 0
        },
        "metallicFactor": 0
      },
      "extensions": {
        "KHR_materials_unlit": {}
      },
      "alphaMode": "MASK"
    }
  ],
  "buffers": [
    {
      "byteLength": 568,
      "uri": "wifi_ohanabi4.bin"
    }
  ]
}