{
  "asset": {
    "version": "2.0"
  },
  "bufferViews": [
    {
      "buffer": 0,
      "byteLength": 9324,
      "byteOffset": 0
    },
    {
      "buffer": 0,
      "byteLength": 6216,
      "byteOffset": 9324
    },
    {
      "buffer": 0,
      "byteLength": 3108,
      "byteStride": 4,
      "byteOffset": 15540
    },
    {
      "buffer": 0,
      "byteOffset": 18648,
      "byteStride": 4,
      "byteLength": 3108
    },
    {
      "buffer": 0,
      "byteOffset": 21756,
      "byteStride": 4,
      "byteLength": 3108
    },
    {
      "buffer": 0,
      "byteLength": 2934,
      "byteOffset": 24864
    },
    {
      "buffer": 0,
      "byteLength": 64,
      "byteOffset": 27800
    }
  ],
  "accessors": [
    {
      "bufferView": 0,
      "type": "VEC3",
      "componentType": 5126,
      "count": 777,
      "min": [
        -262.8125,
        -2.734375,
        -226
      ],
      "max": [
        18.859375,
        48,
        -53
      ]
    },
    {
      "bufferView": 1,
      "type": "VEC2",
      "componentType": 5126,
      "count": 777
    },
    {
      "bufferView": 2,
      "type": "VEC3",
      "componentType": 5121,
      "normalized": true,
      "count": 777
    },
    {
      "bufferView": 3,
      "type": "VEC4",
      "componentType": 5121,
      "count": 777
    },
    {
      "bufferView": 4,
      "type": "VEC4",
      "componentType": 5121,
      "normalized": true,
      "count": 777
    },
    {
      "bufferView": 5,
      "type": "SCALAR",
      "byteOffset": 0,
      "componentType": 5123,
      "count": 72
    },
    {
      "bufferView": 5,
      "type": "SCALAR",
      "byteOffset": 144,
      "componentType": 5123,
      "count": 72
    },
    {
      "bufferView": 5,
      "type": "SCALAR",
      "byteOffset": 288,
      "componentType": 5123,
      "count": 54
    },
    {
      "bufferView": 5,
      "type": "SCALAR",
      "byteOffset": 396,
      "componentType": 5123,
      "count": 99
    },
    {
      "bufferView": 5,
      "type": "SCALAR",
      "byteOffset": 594,
      "componentType": 5123,
      "count": 138
    },
    {
      "bufferView": 5,
      "type": "SCALAR",
      "byteOffset": 870,
      "componentType": 5123,
      "count": 120
    },
    {
      "bufferView": 5,
      "type": "SCALAR",
      "byteOffset": 1110,
      "componentType": 5123,
      "count": 198
    },
    {
      "bufferView": 5,
      "type": "SCALAR",
      "byteOffset": 1506,
      "componentType": 5123,
      "count": 384
    },
    {
      "bufferView": 5,
      "type": "SCALAR",
      "byteOffset": 2274,
      "componentType": 5123,
      "count": 330
    },
    {
      "bufferView": 6,
      "type": "MAT4",
      "componentType": 5126,
      "count": 1
    }
  ],
  "extensionsUsed": [
    "FB_ngon_encoding",
    "KHR_materials_unlit"
  ],
  "meshes": [
    {
      "primitives": [
        {
          "attributes": {
            "POSITION": 0,
            "TEXCOORD_0": 1,
            "COLOR_0": 2,
            "JOINTS_0": 3,
            "WEIGHTS_0": 4
          },
          "material": 4,
          "indices": 5,
          "extensions": {
            "FB_ngon_encoding": {}
          }
        },
        {
          "attributes": {
            "POSITION": 0,
            "TEXCOORD_0": 1,
            "COLOR_0": 2,
            "JOINTS_0": 3,
            "WEIGHTS_0": 4
          },
          "material": 5,
          "indices": 6,
          "extensions": {
            "FB_ngon_encoding": {}
          }
        },
        {
          "attributes": {
            "POSITION": 0,
            "TEXCOORD_0": 1,
            "COLOR_0": 2,
            "JOINTS_0": 3,
            "WEIGHTS_0": 4
          },
          "material": 0,
          "indices": 7,
          "extensions": {
            "FB_ngon_encoding": {}
          }
        },
        {
          "attributes": {
            "POSITION": 0,
            "TEXCOORD_0": 1,
            "COLOR_0": 2,
            "JOINTS_0": 3,
            "WEIGHTS_0": 4
          },
          "material": 2,
          "indices": 8,
          "extensions": {
            "FB_ngon_encoding": {}
          }
        },
        {
          "attributes": {
            "POSITION": 0,
            "TEXCOORD_0": 1,
            "COLOR_0": 2,
            "JOINTS_0": 3,
            "WEIGHTS_0": 4
          },
          "material": 8,
          "indices": 9,
          "extensions": {
            "FB_ngon_encoding": {}
          }
        },
        {
          "attributes": {
            "POSITION": 0,
            "TEXCOORD_0": 1,
            "COLOR_0": 2,
            "JOINTS_0": 3,
            "WEIGHTS_0": 4
          },
          "material": 3,
          "indices": 10,
          "extensions": {
            "FB_ngon_encoding": {}
          }
        },
        {
          "attributes": {
            "POSITION": 0,
            "TEXCOORD_0": 1,
            "COLOR_0": 2,
            "JOINTS_0": 3,
            "WEIGHTS_0": 4
          },
          "material": 6,
          "indices": 11,
          "extensions": {
            "FB_ngon_encoding": {}
          }
        },
        {
          "attributes": {
            "POSITION": 0,
            "TEXCOORD_0": 1,
            "COLOR_0": 2,
            "JOINTS_0": 3,
            "WEIGHTS_0": 4
          },
          "material": 7,
          "indices": 12,
          "extensions": {
            "FB_ngon_encoding": {}
          }
        },
        {
          "attributes": {
            "POSITION": 0,
            "TEXCOORD_0": 1,
            "COLOR_0": 2,
            "JOINTS_0": 3,
            "WEIGHTS_0": 4
          },
          "material": 1,
          "indices": 13,
          "extensions": {
            "FB_ngon_encoding": {}
          }
        }
      ],
      "name": "m_siten02_00_00c"
    }
  ],
  "nodes": [
    {
      "name": "polySurface15"
    },
    {
      "mesh": 0,
      "skin": 0,
      "name": "m_siten02_00_00c",
      "children": [
        0
      ]
    }
  ],
  "skins": [
    {
      "skeleton": 0,
      "joints": [
        0
      ],
      "inverseBindMatrices": 14
    }
  ],
  "scenes": [
    {
      "nodes": [
        1
      ],
      "name": "m_siten02_00_00c"
    }
  ],
  "scene": 0,
  "samplers": [
    {
      "wrapS": 10497,
      "wrapT": 10497,
      "magFilter": 9728,
      "minFilter": 9728
    },
    {
      "wrapS": 10497,
      "wrapT": 33071,
      "magFilter": 9728,
      "minFilter": 9728
    }
  ],
  "images": [
    {
      "uri": "m_4ten_kage.png"
    },
    {
      "uri": "m_4ten_b02.png"
    },
    {
      "uri": "m_4ten_2a2.png"
    },
    {
      "uri": "m_4ten_2a.png"
    },
    {
      "uri": "m_4ten_2b.png"
    },
    {
      "uri": "m_4ten_2c.png"
    },
    {
      "uri": "m_4ten_b.png"
    },
    {
      "uri": "m_4ten_sen.png"
    },
    {
      "uri": "m_4ten_top.png"
    }
  ],
  "textures": [
    {
      "source": 0,
      "sampler": 0
    },
    {
      "source": 1,
      "sampler": 1
    },
    {
      "source": 2,
      "sampler": 0
    },
    {
      "source": 3,
      "sampler": 0
    },
    {
      "source": 4,
      "sampler": 0
    },
    {
      "source": 5,
      "sampler": 0
    },
    {
      "source": 6,
      "sampler": 1
    },
    {
      "source": 7,
      "sampler": 0
    },
    {
      "source": 8,
      "sampler": 0
    }
  ],
  "materials": [
    {
      "name": "lambert10",
      "pbrMetallicRoughness": {
        "baseColorTexture": {
          "index": 0
        },
        "metallicFactor": 0,
        "baseColorFactor": [
          1,
          1,
          1,
          0.09677419066429138
        ]
      },
      "extensions": {
        "KHR_materials_unlit": {}
      },
      "alphaMode": "BLEND"
    },
    {
      "name": "lambert8",
      "pbrMetallicRoughness": {
        "baseColorTexture": {
          "index": 1
        },
        "metallicFactor": 0
      },
      "extensions": {
        "KHR_materials_unlit": {}
      }
    },
    {
      "name": "lambert9",
      "pbrMetallicRoughness": {
        "baseColorTexture": {
          "index": 2
        },
        "metallicFactor": 0
      },
      "extensions": {
        "KHR_materials_unlit": {}
      }
    },
    {
      "name": "m_4ten_2a_lm2",
      "pbrMetallicRoughness": {
        "baseColorTexture": {
          "index": 3
        },
        "metallicFactor": 0
      },
      "extensions": {
        "KHR_materials_unlit": {}
      }
    },
    {
      "name": "m_4ten_2b_lm2",
      "pbrMetallicRoughness": {
        "baseColorTexture": {
          "index": 4
        },
        "metallicFactor": 0
      },
      "extensions": {
        "KHR_materials_unlit": {}
      }
    },
    {
      "name": "m_4ten_2c_lm2",
      "pbrMetallicRoughness": {
        "baseColorTexture": {
          "index": 5
        },
        "metallicFactor": 0
      },
      "extensions": {
        "KHR_materials_unlit": {}
      }
    },
    {
      "name": "m_4ten_b_lm2",
      "pbrMetallicRoughness": {
        "baseColorTexture": {
          "index": 6
        },
        "metallicFactor": 0
      },
      "extensions": {
        "KHR_materials_unlit": {}
      }
    },
    {
      "name": "m_4ten_sen_lm2",
      "pbrMetallicRoughness": {
        "baseColorTexture": {
          "index": 7
        },
        "metallicFactor": 0
      },
      "extensions": {
        "KHR_materials_unlit": {}
      }
    },
    {
      "name": "m_4ten_top_lm2",
      "pbrMetallicRoughness": {
        "baseColorTexture": {
          "index": 8
        },
        "metallicFactor": 0
      },
      "extensions": {
        "KHR_materials_unlit": {}
      }
    }
  ],
  "buffers": [
    {
      "byteLength": 27864,
      "uri": "m_siten02_00_00c.bin"
    }
  ]
}