{
  "asset": {
    "version": "2.0"
  },
  "bufferViews": [
    {
      "buffer": 0,
      "byteLength": 3936,
      "byteOffset": 0
    },
    {
      "buffer": 0,
      "byteLength": 2624,
      "byteOffset": 3936
    },
    {
      "buffer": 0,
      "byteLength": 1312,
      "byteStride": 4,
      "byteOffset": 6560
    },
    {
      "buffer": 0,
      "byteLength": 3936,
      "byteOffset": 7872
    },
    {
      "buffer": 0,
      "byteOffset": 11808,
      "byteStride": 4,
      "byteLength": 1312
    },
    {
      "buffer": 0,
      "byteOffset": 13120,
      "byteStride": 4,
      "byteLength": 1312
    },
    {
      "buffer": 0,
      "byteLength": 1632,
      "byteOffset": 14432
    },
    {
      "buffer": 0,
      "byteLength": 256,
      "byteOffset": 16064
    },
    {
      "buffer": 0,
      "byteLength": 3212,
      "byteOffset": 16320
    },
    {
      "buffer": 0,
      "byteOffset": 19532,
      "byteLength": 292
    }
  ],
  "accessors": [
    {
      "bufferView": 0,
      "type": "VEC3",
      "componentType": 5126,
      "count": 328,
      "min": [
        -9.50732421875,
        -11,
        -9.56982421875
      ],
      "max": [
        9.50732421875,
        10.75390625,
        9.56982421875
      ]
    },
    {
      "bufferView": 1,
      "type": "VEC2",
      "componentType": 5126,
      "count": 328
    },
    {
      "bufferView": 2,
      "type": "VEC3",
      "componentType": 5121,
      "normalized": true,
      "count": 328
    },
    {
      "bufferView": 3,
      "type": "VEC3",
      "componentType": 5126,
      "count": 328
    },
    {
      "bufferView": 4,
      "type": "VEC4",
      "componentType": 5121,
      "count": 328
    },
    {
      "bufferView": 5,
      "type": "VEC4",
      "componentType": 5121,
      "normalized": true,
      "count": 328
    },
    {
      "bufferView": 6,
      "type": "SCALAR",
      "byteOffset": 0,
      "componentType": 5123,
      "count": 6
    },
    {
      "bufferView": 6,
      "type": "SCALAR",
      "byteOffset": 12,
      "componentType": 5123,
      "count": 792
    },
    {
      "bufferView": 6,
      "type": "SCALAR",
      "byteOffset": 1596,
      "componentType": 5123,
      "count": 18
    },
    {
      "bufferView": 7,
      "type": "MAT4",
      "componentType": 5126,
      "count": 4
    },
    {
      "bufferView": 9,
      "type": "SCALAR",
      "componentType": 5126,
      "byteOffset": 0,
      "count": 73,
      "min": [
        0
      ],
      "max": [
        1.2000000476837159
      ]
    },
    {
      "bufferView": 8,
      "type": "VEC3",
      "componentType": 5126,
      "byteOffset": 0,
      "count": 73
    },
    {
      "bufferView": 8,
      "type": "VEC4",
      "componentType": 5126,
      "byteOffset": 876,
      "count": 73
    },
    {
      "bufferView": 8,
      "type": "VEC4",
      "componentType": 5126,
      "byteOffset": 2044,
      "count": 73
    }
  ],
  "extensionsUsed": [
    "FB_ngon_encoding",
    "KHR_materials_unlit"
  ],
  "meshes": [
    {
      "primitives": [
        {
          "attributes": {
            "POSITION": 0,
            "TEXCOORD_0": 1,
            "COLOR_0": 2,
            "NORMAL": 3,
            "JOINTS_0": 4,
            "WEIGHTS_0": 5
          },
          "material": 0,
          "indices": 6,
          "extensions": {
            "FB_ngon_encoding": {}
          }
        },
        {
          "attributes": {
            "POSITION": 0,
            "TEXCOORD_0": 1,
            "COLOR_0": 2,
            "NORMAL": 3,
            "JOINTS_0": 4,
            "WEIGHTS_0": 5
          },
          "material": 1,
          "indices": 7,
          "extensions": {
            "FB_ngon_encoding": {}
          }
        },
        {
          "attributes": {
            "POSITION": 0,
            "TEXCOORD_0": 1,
            "COLOR_0": 2,
            "NORMAL": 3,
            "JOINTS_0": 4,
            "WEIGHTS_0": 5
          },
          "material": 2,
          "indices": 8,
          "extensions": {
            "FB_ngon_encoding": {}
          }
        }
      ],
      "name": "psel_mb_b"
    }
  ],
  "nodes": [
    {
      "children": [
        1,
        2,
        3
      ],
      "name": "mb_null_b"
    },
    {
      "name": "mb_kage_b"
    },
    {
      "name": "psel_mb_b"
    },
    {
      "name": "psel_mb_b_"
    },
    {
      "mesh": 0,
      "skin": 0,
      "name": "psel_mb_b",
      "children": [
        0
      ]
    }
  ],
  "skins": [
    {
      "skeleton": 0,
      "joints": [
        0,
        1,
        2,
        3
      ],
      "inverseBindMatrices": 9
    }
  ],
  "scenes": [
    {
      "nodes": [
        4
      ],
      "name": "psel_mb_b"
    }
  ],
  "scene": 0,
  "animations": [
    {
      "name": "psel_mb_b",
      "samplers": [
        {
          "input": 10,
          "output": 11
        },
        {
          "input": 10,
          "output": 12
        },
        {
          "input": 10,
          "output": 13
        }
      ],
      "channels": [
        {
          "target": {
            "node": 0,
            "path": "translation"
          },
          "sampler": 0
        },
        {
          "target": {
            "node": 2,
            "path": "rotation"
          },
          "sampler": 1
        },
        {
          "target": {
            "node": 3,
            "path": "rotation"
          },
          "sampler": 2
        }
      ]
    }
  ],
  "samplers": [
    {
      "wrapS": 10497,
      "wrapT": 10497,
      "magFilter": 9728,
      "minFilter": 9728
    }
  ],
  "images": [
    {
      "uri": "mb_kage.png"
    },
    {
      "uri": "op_mb.png"
    },
    {
      "uri": "op_mb_a.png"
    }
  ],
  "textures": [
    {
      "source": 0,
      "sampler": 0
    },
    {
      "source": 1,
      "sampler": 0
    },
    {
      "source": 2,
      "sampler": 0
    }
  ],
  "materials": [
    {
      "name": "mb_kage",
      "pbrMetallicRoughness": {
        "baseColorTexture": {
          "index": 0
        },
        "metallicFactor": 0,
        "baseColorFactor": [
          1,
          1,
          1,
          0.5161290168762207
        ]
      },
      "extensions": {
        "KHR_materials_unlit": {}
      },
      "alphaMode": "BLEND"
    },
    {
      "name": "op_mb",
      "pbrMetallicRoughness": {
        "baseColorTexture": {
          "index": 1
        },
        "metallicFactor": 0
      },
      "extensions": {
        "KHR_materials_unlit": {}
      }
    },
    {
      "name": "op_mb_a",
      "pbrMetallicRoughness": {
        "baseColorTexture": {
          "index": 2
        },
        "metallicFactor": 0
      },
      "extensions": {
        "KHR_materials_unlit": {}
      },
      "alphaMode": "MASK"
    }
  ],
  "buffers": [
    {
      "byteLength": 19824,
      "uri": "psel_mb_b.bin"
    }
  ]
}