{
  "asset": {
    "version": "2.0"
  },
  "bufferViews": [
    {
      "buffer": 0,
      "byteLength": 3024,
      "byteOffset": 0
    },
    {
      "buffer": 0,
      "byteLength": 2016,
      "byteOffset": 3024
    },
    {
      "buffer": 0,
      "byteLength": 1008,
      "byteStride": 4,
      "byteOffset": 5040
    },
    {
      "buffer": 0,
      "byteOffset": 6048,
      "byteStride": 4,
      "byteLength": 1008
    },
    {
      "buffer": 0,
      "byteOffset": 7056,
      "byteStride": 4,
      "byteLength": 1008
    },
    {
      "buffer": 0,
      "byteLength": 936,
      "byteOffset": 8064
    },
    {
      "buffer": 0,
      "byteLength": 64,
      "byteOffset": 9000
    }
  ],
  "accessors": [
    {
      "bufferView": 0,
      "type": "VEC3",
      "componentType": 5126,
      "count": 252,
      "min": [
        -240,
        -2,
        -214
      ],
      "max": [
        64,
        46,
        -48
      ]
    },
    {
      "bufferView": 1,
      "type": "VEC2",
      "componentType": 5126,
      "count": 252
    },
    {
      "bufferView": 2,
      "type": "VEC3",
      "componentType": 5121,
      "normalized": true,
      "count": 252
    },
    {
      "bufferView": 3,
      "type": "VEC4",
      "componentType": 5121,
      "count": 252
    },
    {
      "bufferView": 4,
      "type": "VEC4",
      "componentType": 5121,
      "normalized": true,
      "count": 252
    },
    {
      "bufferView": 5,
      "type": "SCALAR",
      "byteOffset": 0,
      "componentType": 5123,
      "count": 30
    },
    {
      "bufferView": 5,
      "type": "SCALAR",
      "byteOffset": 60,
      "componentType": 5123,
      "count": 171
    },
    {
      "bufferView": 5,
      "type": "SCALAR",
      "byteOffset": 402,
      "componentType": 5123,
      "count": 267
    },
    {
      "bufferView": 6,
      "type": "MAT4",
      "componentType": 5126,
      "count": 1
    }
  ],
  "extensionsUsed": [
    "FB_ngon_encoding",
    "KHR_materials_unlit"
  ],
  "meshes": [
    {
      "primitives": [
        {
          "attributes": {
            "POSITION": 0,
            "TEXCOORD_0": 1,
            "COLOR_0": 2,
            "JOINTS_0": 3,
            "WEIGHTS_0": 4
          },
          "material": 0,
          "indices": 5,
          "extensions": {
            "FB_ngon_encoding": {}
          }
        },
        {
          "attributes": {
            "POSITION": 0,
            "TEXCOORD_0": 1,
            "COLOR_0": 2,
            "JOINTS_0": 3,
            "WEIGHTS_0": 4
          },
          "material": 1,
          "indices": 6,
          "extensions": {
            "FB_ngon_encoding": {}
          }
        },
        {
          "attributes": {
            "POSITION": 0,
            "TEXCOORD_0": 1,
            "COLOR_0": 2,
            "JOINTS_0": 3,
            "WEIGHTS_0": 4
          },
          "material": 2,
          "indices": 7,
          "extensions": {
            "FB_ngon_encoding": {}
          }
        }
      ],
      "name": "m_comp02_00_00c"
    }
  ],
  "nodes": [
    {
      "name": "pCube2"
    },
    {
      "mesh": 0,
      "skin": 0,
      "name": "m_comp02_00_00c",
      "children": [
        0
      ]
    }
  ],
  "skins": [
    {
      "skeleton": 0,
      "joints": [
        0
      ],
      "inverseBindMatrices": 8
    }
  ],
  "scenes": [
    {
      "nodes": [
        1
      ],
      "name": "m_comp02_00_00c"
    }
  ],
  "scene": 0,
  "samplers": [
    {
      "wrapS": 10497,
      "wrapT": 10497,
      "magFilter": 9728,
      "minFilter": 9728
    }
  ],
  "images": [
    {
      "uri": "m_comp_01.png"
    },
    {
      "uri": "m_comp_02.png"
    }
  ],
  "textures": [
    {
      "source": 0,
      "sampler": 0
    },
    {
      "source": 1,
      "sampler": 0
    }
  ],
  "materials": [
    {
      "name": "lm8",
      "extensions": {
        "KHR_materials_unlit": {}
      }
    },
    {
      "name": "m_comp_01_lm8",
      "pbrMetallicRoughness": {
        "baseColorTexture": {
          "index": 0
        },
        "metallicFactor": 0
      },
      "extensions": {
        "KHR_materials_unlit": {}
      }
    },
    {
      "name": "m_comp_02_lm8",
      "pbrMetallicRoughness": {
        "baseColorTexture": {
          "index": 1
        },
        "metallicFactor": 0
      },
      "extensions": {
        "KHR_materials_unlit": {}
      }
    }
  ],
  "buffers": [
    {
      "byteLength": 9064,
      "uri": "m_comp02_00_00c.bin"
    }
  ]
}