{
  "asset": {
    "version": "2.0"
  },
  "bufferViews": [
    {
      "buffer": 0,
      "byteLength": 46800,
      "byteOffset": 0
    },
    {
      "buffer": 0,
      "byteLength": 31200,
      "byteOffset": 46800
    },
    {
      "buffer": 0,
      "byteLength": 15600,
      "byteStride": 4,
      "byteOffset": 78000
    },
    {
      "buffer": 0,
      "byteLength": 46800,
      "byteOffset": 93600
    },
    {
      "buffer": 0,
      "byteOffset": 140400,
      "byteStride": 4,
      "byteLength": 15600
    },
    {
      "buffer": 0,
      "byteOffset": 156000,
      "byteStride": 4,
      "byteLength": 15600
    },
    {
      "buffer": 0,
      "byteLength": 13200,
      "byteOffset": 171600
    },
    {
      "buffer": 0,
      "byteLength": 384,
      "byteOffset": 184800
    }
  ],
  "accessors": [
    {
      "bufferView": 0,
      "type": "VEC3",
      "componentType": 5126,
      "count": 3900,
      "min": [
        252,
        72,
        -1297.9375
      ],
      "max": [
        768,
        144,
        -768
      ]
    },
    {
      "bufferView": 1,
      "type": "VEC2",
      "componentType": 5126,
      "count": 3900
    },
    {
      "bufferView": 2,
      "type": "VEC3",
      "componentType": 5121,
      "normalized": true,
      "count": 3900
    },
    {
      "bufferView": 3,
      "type": "VEC3",
      "componentType": 5126,
      "count": 3900
    },
    {
      "bufferView": 4,
      "type": "VEC4",
      "componentType": 5121,
      "count": 3900
    },
    {
      "bufferView": 5,
      "type": "VEC4",
      "componentType": 5121,
      "normalized": true,
      "count": 3900
    },
    {
      "bufferView": 6,
      "type": "SCALAR",
      "byteOffset": 0,
      "componentType": 5123,
      "count": 12
    },
    {
      "bufferView": 6,
      "type": "SCALAR",
      "byteOffset": 24,
      "componentType": 5123,
      "count": 18
    },
    {
      "bufferView": 6,
      "type": "SCALAR",
      "byteOffset": 60,
      "componentType": 5123,
      "count": 18
    },
    {
      "bufferView": 6,
      "type": "SCALAR",
      "byteOffset": 96,
      "componentType": 5123,
      "count": 18
    },
    {
      "bufferView": 6,
      "type": "SCALAR",
      "byteOffset": 132,
      "componentType": 5123,
      "count": 24
    },
    {
      "bufferView": 6,
      "type": "SCALAR",
      "byteOffset": 180,
      "componentType": 5123,
      "count": 36
    },
    {
      "bufferView": 6,
      "type": "SCALAR",
      "byteOffset": 252,
      "componentType": 5123,
      "count": 42
    },
    {
      "bufferView": 6,
      "type": "SCALAR",
      "byteOffset": 336,
      "componentType": 5123,
      "count": 48
    },
    {
      "bufferView": 6,
      "type": "SCALAR",
      "byteOffset": 432,
      "componentType": 5123,
      "count": 78
    },
    {
      "bufferView": 6,
      "type": "SCALAR",
      "byteOffset": 588,
      "componentType": 5123,
      "count": 84
    },
    {
      "bufferView": 6,
      "type": "SCALAR",
      "byteOffset": 756,
      "componentType": 5123,
      "count": 150
    },
    {
      "bufferView": 6,
      "type": "SCALAR",
      "byteOffset": 1056,
      "componentType": 5123,
      "count": 135
    },
    {
      "bufferView": 6,
      "type": "SCALAR",
      "byteOffset": 1326,
      "componentType": 5123,
      "count": 282
    },
    {
      "bufferView": 6,
      "type": "SCALAR",
      "byteOffset": 1890,
      "componentType": 5123,
      "count": 357
    },
    {
      "bufferView": 6,
      "type": "SCALAR",
      "byteOffset": 2604,
      "componentType": 5123,
      "count": 279
    },
    {
      "bufferView": 6,
      "type": "SCALAR",
      "byteOffset": 3162,
      "componentType": 5123,
      "count": 648
    },
    {
      "bufferView": 6,
      "type": "SCALAR",
      "byteOffset": 4458,
      "componentType": 5123,
      "count": 1206
    },
    {
      "bufferView": 6,
      "type": "SCALAR",
      "byteOffset": 6870,
      "componentType": 5123,
      "count": 3027
    },
    {
      "bufferView": 6,
      "type": "SCALAR",
      "byteOffset": 12924,
      "componentType": 5123,
      "count": 12
    },
    {
      "bufferView": 6,
      "type": "SCALAR",
      "byteOffset": 12948,
      "componentType": 5123,
      "count": 102
    },
    {
      "bufferView": 6,
      "type": "SCALAR",
      "byteOffset": 13152,
      "componentType": 5123,
      "count": 6
    },
    {
      "bufferView": 6,
      "type": "SCALAR",
      "byteOffset": 13164,
      "componentType": 5123,
      "count": 6
    },
    {
      "bufferView": 6,
      "type": "SCALAR",
      "byteOffset": 13176,
      "componentType": 5123,
      "count": 6
    },
    {
      "bufferView": 6,
      "type": "SCALAR",
      "byteOffset": 13188,
      "componentType": 5123,
      "count": 6
    },
    {
      "bufferView": 7,
      "type": "MAT4",
      "componentType": 5126,
      "count": 6
    }
  ],
  "extensionsUsed": [
    "FB_ngon_encoding",
    "KHR_materials_unlit"
  ],
  "meshes": [
    {
      "primitives": [
        {
          "attributes": {
            "POSITION": 0,
            "TEXCOORD_0": 1,
            "COLOR_0": 2,
            "NORMAL": 3,
            "JOINTS_0": 4,
            "WEIGHTS_0": 5
          },
          "material": 16,
          "indices": 6,
          "extensions": {
            "FB_ngon_encoding": {}
          }
        },
        {
          "attributes": {
            "POSITION": 0,
            "TEXCOORD_0": 1,
            "COLOR_0": 2,
            "NORMAL": 3,
            "JOINTS_0": 4,
            "WEIGHTS_0": 5
          },
          "material": 7,
          "indices": 7,
          "extensions": {
            "FB_ngon_encoding": {}
          }
        },
        {
          "attributes": {
            "POSITION": 0,
            "TEXCOORD_0": 1,
            "COLOR_0": 2,
            "NORMAL": 3,
            "JOINTS_0": 4,
            "WEIGHTS_0": 5
          },
          "material": 10,
          "indices": 8,
          "extensions": {
            "FB_ngon_encoding": {}
          }
        },
        {
          "attributes": {
            "POSITION": 0,
            "TEXCOORD_0": 1,
            "COLOR_0": 2,
            "NORMAL": 3,
            "JOINTS_0": 4,
            "WEIGHTS_0": 5
          },
          "material": 13,
          "indices": 9,
          "extensions": {
            "FB_ngon_encoding": {}
          }
        },
        {
          "attributes": {
            "POSITION": 0,
            "TEXCOORD_0": 1,
            "COLOR_0": 2,
            "NORMAL": 3,
            "JOINTS_0": 4,
            "WEIGHTS_0": 5
          },
          "material": 6,
          "indices": 10,
          "extensions": {
            "FB_ngon_encoding": {}
          }
        },
        {
          "attributes": {
            "POSITION": 0,
            "TEXCOORD_0": 1,
            "COLOR_0": 2,
            "NORMAL": 3,
            "JOINTS_0": 4,
            "WEIGHTS_0": 5
          },
          "material": 2,
          "indices": 11,
          "extensions": {
            "FB_ngon_encoding": {}
          }
        },
        {
          "attributes": {
            "POSITION": 0,
            "TEXCOORD_0": 1,
            "COLOR_0": 2,
            "NORMAL": 3,
            "JOINTS_0": 4,
            "WEIGHTS_0": 5
          },
          "material": 0,
          "indices": 12,
          "extensions": {
            "FB_ngon_encoding": {}
          }
        },
        {
          "attributes": {
            "POSITION": 0,
            "TEXCOORD_0": 1,
            "COLOR_0": 2,
            "NORMAL": 3,
            "JOINTS_0": 4,
            "WEIGHTS_0": 5
          },
          "material": 21,
          "indices": 13,
          "extensions": {
            "FB_ngon_encoding": {}
          }
        },
        {
          "attributes": {
            "POSITION": 0,
            "TEXCOORD_0": 1,
            "COLOR_0": 2,
            "NORMAL": 3,
            "JOINTS_0": 4,
            "WEIGHTS_0": 5
          },
          "material": 19,
          "indices": 14,
          "extensions": {
            "FB_ngon_encoding": {}
          }
        },
        {
          "attributes": {
            "POSITION": 0,
            "TEXCOORD_0": 1,
            "COLOR_0": 2,
            "NORMAL": 3,
            "JOINTS_0": 4,
            "WEIGHTS_0": 5
          },
          "material": 1,
          "indices": 15,
          "extensions": {
            "FB_ngon_encoding": {}
          }
        },
        {
          "attributes": {
            "POSITION": 0,
            "TEXCOORD_0": 1,
            "COLOR_0": 2,
            "NORMAL": 3,
            "JOINTS_0": 4,
            "WEIGHTS_0": 5
          },
          "material": 17,
          "indices": 16,
          "extensions": {
            "FB_ngon_encoding": {}
          }
        },
        {
          "attributes": {
            "POSITION": 0,
            "TEXCOORD_0": 1,
            "COLOR_0": 2,
            "NORMAL": 3,
            "JOINTS_0": 4,
            "WEIGHTS_0": 5
          },
          "material": 22,
          "indices": 17,
          "extensions": {
            "FB_ngon_encoding": {}
          }
        },
        {
          "attributes": {
            "POSITION": 0,
            "TEXCOORD_0": 1,
            "COLOR_0": 2,
            "NORMAL": 3,
            "JOINTS_0": 4,
            "WEIGHTS_0": 5
          },
          "material": 11,
          "indices": 18,
          "extensions": {
            "FB_ngon_encoding": {}
          }
        },
        {
          "attributes": {
            "POSITION": 0,
            "TEXCOORD_0": 1,
            "COLOR_0": 2,
            "NORMAL": 3,
            "JOINTS_0": 4,
            "WEIGHTS_0": 5
          },
          "material": 12,
          "indices": 19,
          "extensions": {
            "FB_ngon_encoding": {}
          }
        },
        {
          "attributes": {
            "POSITION": 0,
            "TEXCOORD_0": 1,
            "COLOR_0": 2,
            "NORMAL": 3,
            "JOINTS_0": 4,
            "WEIGHTS_0": 5
          },
          "material": 4,
          "indices": 20,
          "extensions": {
            "FB_ngon_encoding": {}
          }
        },
        {
          "attributes": {
            "POSITION": 0,
            "TEXCOORD_0": 1,
            "COLOR_0": 2,
            "NORMAL": 3,
            "JOINTS_0": 4,
            "WEIGHTS_0": 5
          },
          "material": 20,
          "indices": 21,
          "extensions": {
            "FB_ngon_encoding": {}
          }
        },
        {
          "attributes": {
            "POSITION": 0,
            "TEXCOORD_0": 1,
            "COLOR_0": 2,
            "NORMAL": 3,
            "JOINTS_0": 4,
            "WEIGHTS_0": 5
          },
          "material": 18,
          "indices": 22,
          "extensions": {
            "FB_ngon_encoding": {}
          }
        },
        {
          "attributes": {
            "POSITION": 0,
            "TEXCOORD_0": 1,
            "COLOR_0": 2,
            "NORMAL": 3,
            "JOINTS_0": 4,
            "WEIGHTS_0": 5
          },
          "material": 5,
          "indices": 23,
          "extensions": {
            "FB_ngon_encoding": {}
          }
        },
        {
          "attributes": {
            "POSITION": 0,
            "TEXCOORD_0": 1,
            "COLOR_0": 2,
            "NORMAL": 3,
            "JOINTS_0": 4,
            "WEIGHTS_0": 5
          },
          "material": 14,
          "indices": 24,
          "extensions": {
            "FB_ngon_encoding": {}
          }
        },
        {
          "attributes": {
            "POSITION": 0,
            "TEXCOORD_0": 1,
            "COLOR_0": 2,
            "NORMAL": 3,
            "JOINTS_0": 4,
            "WEIGHTS_0": 5
          },
          "material": 15,
          "indices": 25,
          "extensions": {
            "FB_ngon_encoding": {}
          }
        },
        {
          "attributes": {
            "POSITION": 0,
            "TEXCOORD_0": 1,
            "COLOR_0": 2,
            "NORMAL": 3,
            "JOINTS_0": 4,
            "WEIGHTS_0": 5
          },
          "material": 9,
          "indices": 26,
          "extensions": {
            "FB_ngon_encoding": {}
          }
        },
        {
          "attributes": {
            "POSITION": 0,
            "TEXCOORD_0": 1,
            "COLOR_0": 2,
            "NORMAL": 3,
            "JOINTS_0": 4,
            "WEIGHTS_0": 5
          },
          "material": 3,
          "indices": 27,
          "extensions": {
            "FB_ngon_encoding": {}
          }
        },
        {
          "attributes": {
            "POSITION": 0,
            "TEXCOORD_0": 1,
            "COLOR_0": 2,
            "NORMAL": 3,
            "JOINTS_0": 4,
            "WEIGHTS_0": 5
          },
          "material": 23,
          "indices": 28,
          "extensions": {
            "FB_ngon_encoding": {}
          }
        },
        {
          "attributes": {
            "POSITION": 0,
            "TEXCOORD_0": 1,
            "COLOR_0": 2,
            "NORMAL": 3,
            "JOINTS_0": 4,
            "WEIGHTS_0": 5
          },
          "material": 8,
          "indices": 29,
          "extensions": {
            "FB_ngon_encoding": {}
          }
        }
      ],
      "name": "titlemap06_19"
    }
  ],
  "nodes": [
    {
      "children": [
        1,
        2,
        3,
        4,
        5
      ],
      "name": "world_root"
    },
    {
      "name": "map1"
    },
    {
      "name": "map2",
      "translation": [
        672,
        80,
        -1192
      ]
    },
    {
      "name": "map3",
      "translation": [
        488,
        112,
        -1128
      ]
    },
    {
      "name": "map4",
      "translation": [
        680,
        80,
        -920
      ]
    },
    {
      "name": "map5",
      "translation": [
        552,
        96,
        -872
      ]
    },
    {
      "mesh": 0,
      "skin": 0,
      "name": "titlemap06_19",
      "children": [
        0
      ]
    }
  ],
  "skins": [
    {
      "skeleton": 0,
      "joints": [
        0,
        1,
        2,
        3,
        4,
        5
      ],
      "inverseBindMatrices": 30
    }
  ],
  "scenes": [
    {
      "nodes": [
        6
      ],
      "name": "titlemap06_19"
    }
  ],
  "scene": 0,
  "samplers": [
    {
      "wrapS": 10497,
      "wrapT": 10497,
      "magFilter": 9728,
      "minFilter": 9728
    }
  ],
  "images": [
    {
      "uri": "allpeak.png"
    },
    {
      "uri": "board_ef.png"
    },
    {
      "uri": "bridge.png"
    },
    {
      "uri": "campboy_13.png"
    },
    {
      "uri": "criff.png"
    },
    {
      "uri": "criffp.png"
    },
    {
      "uri": "enccliff.png"
    },
    {
      "uri": "h_kage.png"
    },
    {
      "uri": "man1_13.png"
    },
    {
      "uri": "mount_5.png"
    },
    {
      "uri": "nectgr.png"
    },
    {
      "uri": "newstep.png"
    },
    {
      "uri": "ngrass.png"
    },
    {
      "uri": "nhana.png"
    },
    {
      "uri": "nsand.png"
    },
    {
      "uri": "nsandp.png"
    },
    {
      "uri": "plant2.png"
    },
    {
      "uri": "sea.png"
    },
    {
      "uri": "seaside3.png"
    },
    {
      "uri": "shadowchip.png"
    },
    {
      "uri": "tree01.png"
    },
    {
      "uri": "tshadow.png"
    },
    {
      "uri": "wcliff.png"
    },
    {
      "uri": "woman1_9.png"
    }
  ],
  "textures": [
    {
      "source": 0,
      "sampler": 0
    },
    {
      "source": 1,
      "sampler": 0
    },
    {
      "source": 2,
      "sampler": 0
    },
    {
      "source": 3,
      "sampler": 0
    },
    {
      "source": 4,
      "sampler": 0
    },
    {
      "source": 5,
      "sampler": 0
    },
    {
      "source": 6,
      "sampler": 0
    },
    {
      "source": 7,
      "sampler": 0
    },
    {
      "source": 8,
      "sampler": 0
    },
    {
      "source": 9,
      "sampler": 0
    },
    {
      "source": 10,
      "sampler": 0
    },
    {
      "source": 11,
      "sampler": 0
    },
    {
      "source": 12,
      "sampler": 0
    },
    {
      "source": 13,
      "sampler": 0
    },
    {
      "source": 14,
      "sampler": 0
    },
    {
      "source": 15,
      "sampler": 0
    },
    {
      "source": 16,
      "sampler": 0
    },
    {
      "source": 17,
      "sampler": 0
    },
    {
      "source": 18,
      "sampler": 0
    },
    {
      "source": 19,
      "sampler": 0
    },
    {
      "source": 20,
      "sampler": 0
    },
    {
      "source": 21,
      "sampler": 0
    },
    {
      "source": 22,
      "sampler": 0
    },
    {
      "source": 23,
      "sampler": 0
    }
  ],
  "materials": [
    {
      "name": "allpeak_lm3",
      "pbrMetallicRoughness": {
        "baseColorTexture": {
          "index": 0
        },
        "metallicFactor": 0
      },
      "extensions": {
        "KHR_materials_unlit": {}
      },
      "alphaMode": "MASK"
    },
    {
      "name": "board_ef_lm3",
      "pbrMetallicRoughness": {
        "baseColorTexture": {
          "index": 1
        },
        "metallicFactor": 0
      },
      "extensions": {
        "KHR_materials_unlit": {}
      }
    },
    {
      "name": "bridge_lm4",
      "pbrMetallicRoughness": {
        "baseColorTexture": {
          "index": 2
        },
        "metallicFactor": 0
      },
      "extensions": {
        "KHR_materials_unlit": {}
      },
      "alphaMode": "MASK"
    },
    {
      "name": "campboy_lm1",
      "pbrMetallicRoughness": {
        "baseColorTexture": {
          "index": 3
        },
        "metallicFactor": 0
      },
      "extensions": {
        "KHR_materials_unlit": {}
      },
      "alphaMode": "MASK"
    },
    {
      "name": "criff_lm3",
      "pbrMetallicRoughness": {
        "baseColorTexture": {
          "index": 4
        },
        "metallicFactor": 0
      },
      "extensions": {
        "KHR_materials_unlit": {}
      }
    },
    {
      "name": "criffp_lm3",
      "pbrMetallicRoughness": {
        "baseColorTexture": {
          "index": 5
        },
        "metallicFactor": 0
      },
      "extensions": {
        "KHR_materials_unlit": {}
      }
    },
    {
      "name": "enccliff_lm4",
      "pbrMetallicRoughness": {
        "baseColorTexture": {
          "index": 6
        },
        "metallicFactor": 0
      },
      "extensions": {
        "KHR_materials_unlit": {}
      }
    },
    {
      "name": "h_kage_lm16",
      "pbrMetallicRoughness": {
        "baseColorTexture": {
          "index": 7
        },
        "metallicFactor": 0,
        "baseColorFactor": [
          1,
          1,
          1,
          0.29032257199287417
        ]
      },
      "extensions": {
        "KHR_materials_unlit": {}
      },
      "alphaMode": "BLEND"
    },
    {
      "name": "man1_lm1",
      "pbrMetallicRoughness": {
        "baseColorTexture": {
          "index": 8
        },
        "metallicFactor": 0
      },
      "extensions": {
        "KHR_materials_unlit": {}
      },
      "alphaMode": "MASK"
    },
    {
      "name": "mount_lm1",
      "pbrMetallicRoughness": {
        "baseColorTexture": {
          "index": 9
        },
        "metallicFactor": 0
      },
      "extensions": {
        "KHR_materials_unlit": {}
      },
      "alphaMode": "MASK"
    },
    {
      "name": "nectgr_lm3",
      "pbrMetallicRoughness": {
        "baseColorTexture": {
          "index": 10
        },
        "metallicFactor": 0
      },
      "extensions": {
        "KHR_materials_unlit": {}
      },
      "alphaMode": "MASK"
    },
    {
      "name": "newstep_lm3",
      "pbrMetallicRoughness": {
        "baseColorTexture": {
          "index": 11
        },
        "metallicFactor": 0
      },
      "extensions": {
        "KHR_materials_unlit": {}
      }
    },
    {
      "name": "ngrass_lm61",
      "pbrMetallicRoughness": {
        "baseColorTexture": {
          "index": 12
        },
        "metallicFactor": 0
      },
      "extensions": {
        "KHR_materials_unlit": {}
      }
    },
    {
      "name": "nhana_lm3",
      "pbrMetallicRoughness": {
        "baseColorTexture": {
          "index": 13
        },
        "metallicFactor": 0
      },
      "extensions": {
        "KHR_materials_unlit": {}
      }
    },
    {
      "name": "nsand_lm72",
      "pbrMetallicRoughness": {
        "baseColorTexture": {
          "index": 14
        },
        "metallicFactor": 0
      },
      "extensions": {
        "KHR_materials_unlit": {}
      },
      "alphaMode": "MASK"
    },
    {
      "name": "nsandp_lm90",
      "pbrMetallicRoughness": {
        "baseColorTexture": {
          "index": 15
        },
        "metallicFactor": 0
      },
      "extensions": {
        "KHR_materials_unlit": {}
      }
    },
    {
      "name": "plant2_lm52",
      "pbrMetallicRoughness": {
        "baseColorTexture": {
          "index": 16
        },
        "metallicFactor": 0
      },
      "extensions": {
        "KHR_materials_unlit": {}
      },
      "alphaMode": "MASK"
    },
    {
      "name": "sea_lm5",
      "pbrMetallicRoughness": {
        "baseColorTexture": {
          "index": 17
        },
        "metallicFactor": 0
      },
      "extensions": {
        "KHR_materials_unlit": {}
      }
    },
    {
      "name": "seaside3_lm5",
      "pbrMetallicRoughness": {
        "baseColorTexture": {
          "index": 18
        },
        "metallicFactor": 0
      },
      "extensions": {
        "KHR_materials_unlit": {}
      },
      "alphaMode": "MASK"
    },
    {
      "name": "shadowchip_lm4",
      "pbrMetallicRoughness": {
        "baseColorTexture": {
          "index": 19
        },
        "metallicFactor": 0,
        "baseColorFactor": [
          1,
          1,
          1,
          0.3870967626571655
        ]
      },
      "extensions": {
        "KHR_materials_unlit": {}
      },
      "alphaMode": "BLEND"
    },
    {
      "name": "tree01_lm69",
      "pbrMetallicRoughness": {
        "baseColorTexture": {
          "index": 20
        },
        "metallicFactor": 0
      },
      "extensions": {
        "KHR_materials_unlit": {}
      },
      "alphaMode": "MASK"
    },
    {
      "name": "tshadow_lm27",
      "pbrMetallicRoughness": {
        "baseColorTexture": {
          "index": 21
        },
        "metallicFactor": 0
      },
      "extensions": {
        "KHR_materials_unlit": {}
      }
    },
    {
      "name": "wcliff_lm5",
      "pbrMetallicRoughness": {
        "baseColorTexture": {
          "index": 22
        },
        "metallicFactor": 0
      },
      "extensions": {
        "KHR_materials_unlit": {}
      }
    },
    {
      "name": "woman1_lm1",
      "pbrMetallicRoughness": {
        "baseColorTexture": {
          "index": 23
        },
        "metallicFactor": 0
      },
      "extensions": {
        "KHR_materials_unlit": {}
      },
      "alphaMode": "MASK"
    }
  ],
  "buffers": [
    {
      "byteLength": 185184,
      "uri": "titlemap06_19.bin"
    }
  ]
}