{
  "asset": {
    "version": "2.0"
  },
  "bufferViews": [
    {
      "buffer": 0,
      "byteLength": 576,
      "byteOffset": 0
    },
    {
      "buffer": 0,
      "byteLength": 384,
      "byteOffset": 576
    },
    {
      "buffer": 0,
      "byteLength": 192,
      "byteStride": 4,
      "byteOffset": 960
    },
    {
      "buffer": 0,
      "byteLength": 576,
      "byteOffset": 1152
    },
    {
      "buffer": 0,
      "byteOffset": 1728,
      "byteStride": 4,
      "byteLength": 192
    },
    {
      "buffer": 0,
      "byteOffset": 1920,
      "byteStride": 4,
      "byteLength": 192
    },
    {
      "buffer": 0,
      "byteLength": 216,
      "byteOffset": 2112
    },
    {
      "buffer": 0,
      "byteLength": 64,
      "byteOffset": 2328
    },
    {
      "buffer": 0,
      "byteLength": 3640,
      "byteOffset": 2392
    },
    {
      "buffer": 0,
      "byteOffset": 6032,
      "byteLength": 604
    }
  ],
  "accessors": [
    {
      "bufferView": 0,
      "type": "VEC3",
      "componentType": 5126,
      "count": 48,
      "min": [
        -52.96935272216797,
        26.619293212890626,
        9.311315536499024
      ],
      "max": [
        52.96935272216797,
        43.11930465698242,
        37.88630676269531
      ]
    },
    {
      "bufferView": 1,
      "type": "VEC2",
      "componentType": 5126,
      "count": 48
    },
    {
      "bufferView": 2,
      "type": "VEC3",
      "componentType": 5121,
      "normalized": true,
      "count": 48
    },
    {
      "bufferView": 3,
      "type": "VEC3",
      "componentType": 5126,
      "count": 48
    },
    {
      "bufferView": 4,
      "type": "VEC4",
      "componentType": 5121,
      "count": 48
    },
    {
      "bufferView": 5,
      "type": "VEC4",
      "componentType": 5121,
      "normalized": true,
      "count": 48
    },
    {
      "bufferView": 6,
      "type": "SCALAR",
      "byteOffset": 0,
      "componentType": 5123,
      "count": 108
    },
    {
      "bufferView": 7,
      "type": "MAT4",
      "componentType": 5126,
      "count": 1
    },
    {
      "bufferView": 9,
      "type": "SCALAR",
      "componentType": 5126,
      "byteOffset": 0,
      "count": 151,
      "min": [
        0
      ],
      "max": [
        2.500000238418579
      ]
    },
    {
      "bufferView": 8,
      "type": "VEC3",
      "componentType": 5126,
      "byteOffset": 0,
      "count": 151
    },
    {
      "bufferView": 9,
      "type": "SCALAR",
      "componentType": 5126,
      "byteOffset": 0,
      "count": 1,
      "min": [
        0
      ],
      "max": [
        0
      ]
    },
    {
      "bufferView": 8,
      "type": "VEC4",
      "componentType": 5126,
      "byteOffset": 1812,
      "count": 1
    },
    {
      "bufferView": 8,
      "type": "VEC3",
      "componentType": 5126,
      "byteOffset": 1828,
      "count": 151
    }
  ],
  "extensionsUsed": [
    "FB_ngon_encoding",
    "KHR_materials_unlit"
  ],
  "meshes": [
    {
      "primitives": [
        {
          "attributes": {
            "POSITION": 0,
            "TEXCOORD_0": 1,
            "COLOR_0": 2,
            "NORMAL": 3,
            "JOINTS_0": 4,
            "WEIGHTS_0": 5
          },
          "material": 0,
          "indices": 6,
          "extensions": {
            "FB_ngon_encoding": {}
          }
        }
      ],
      "name": "g_demo_tama"
    }
  ],
  "nodes": [
    {
      "name": "pSphere1",
      "translation": [
        0,
        -1.5,
        2.59814453125
      ],
      "rotation": [
        -0.49997462181977156,
        0,
        0,
        0.8660400553878421
      ],
      "scale": [
        0.699951171875,
        0.2099609375,
        0.699951171875
      ]
    },
    {
      "mesh": 0,
      "skin": 0,
      "name": "g_demo_tama",
      "children": [
        0
      ]
    }
  ],
  "skins": [
    {
      "skeleton": 0,
      "joints": [
        0
      ],
      "inverseBindMatrices": 7
    }
  ],
  "scenes": [
    {
      "nodes": [
        1
      ],
      "name": "g_demo_tama"
    }
  ],
  "scene": 0,
  "animations": [
    {
      "name": "g_demo_tama",
      "samplers": [
        {
          "input": 8,
          "output": 9
        },
        {
          "input": 10,
          "output": 11
        },
        {
          "input": 8,
          "output": 12
        }
      ],
      "channels": [
        {
          "target": {
            "node": 0,
            "path": "translation"
          },
          "sampler": 0
        },
        {
          "target": {
            "node": 0,
            "path": "rotation"
          },
          "sampler": 1
        },
        {
          "target": {
            "node": 0,
            "path": "scale"
          },
          "sampler": 2
        }
      ]
    }
  ],
  "samplers": [
    {
      "wrapS": 10497,
      "wrapT": 10497,
      "magFilter": 9728,
      "minFilter": 9728
    }
  ],
  "images": [
    {
      "uri": "g_demo_hamon2.png"
    }
  ],
  "textures": [
    {
      "source": 0,
      "sampler": 0
    }
  ],
  "materials": [
    {
      "name": "lambert18",
      "pbrMetallicRoughness": {
        "baseColorTexture": {
          "index": 0
        },
        "metallicFactor": 0
      },
      "extensions": {
        "KHR_materials_unlit": {}
      },
      "alphaMode": "BLEND"
    }
  ],
  "buffers": [
    {
      "byteLength": 6636,
      "uri": "g_demo_tama.bin"
    }
  ]
}