{
  "asset": {
    "version": "2.0"
  },
  "bufferViews": [
    {
      "buffer": 0,
      "byteLength": 72,
      "byteOffset": 0
    },
    {
      "buffer": 0,
      "byteLength": 48,
      "byteOffset": 72
    },
    {
      "buffer": 0,
      "byteLength": 24,
      "byteStride": 4,
      "byteOffset": 120
    },
    {
      "buffer": 0,
      "byteOffset": 144,
      "byteStride": 4,
      "byteLength": 24
    },
    {
      "buffer": 0,
      "byteOffset": 168,
      "byteStride": 4,
      "byteLength": 24
    },
    {
      "buffer": 0,
      "byteLength": 24,
      "byteOffset": 192
    },
    {
      "buffer": 0,
      "byteLength": 64,
      "byteOffset": 216
    }
  ],
  "accessors": [
    {
      "bufferView": 0,
      "type": "VEC3",
      "componentType": 5126,
      "count": 6,
      "min": [
        -7,
        0,
        -12
      ],
      "max": [
        7,
        0,
        16
      ]
    },
    {
      "bufferView": 1,
      "type": "VEC2",
      "componentType": 5126,
      "count": 6
    },
    {
      "bufferView": 2,
      "type": "VEC3",
      "componentType": 5121,
      "normalized": true,
      "count": 6
    },
    {
      "bufferView": 3,
      "type": "VEC4",
      "componentType": 5121,
      "count": 6
    },
    {
      "bufferView": 4,
      "type": "VEC4",
      "componentType": 5121,
      "normalized": true,
      "count": 6
    },
    {
      "bufferView": 5,
      "type": "SCALAR",
      "byteOffset": 0,
      "componentType": 5123,
      "count": 12
    },
    {
      "bufferView": 6,
      "type": "MAT4",
      "componentType": 5126,
      "count": 1
    }
  ],
  "extensionsUsed": [
    "FB_ngon_encoding",
    "KHR_materials_unlit"
  ],
  "meshes": [
    {
      "primitives": [
        {
          "attributes": {
            "POSITION": 0,
            "TEXCOORD_0": 1,
            "COLOR_0": 2,
            "JOINTS_0": 3,
            "WEIGHTS_0": 4
          },
          "material": 0,
          "indices": 5,
          "extensions": {
            "FB_ngon_encoding": {}
          }
        }
      ],
      "name": "d_mat04"
    }
  ],
  "nodes": [
    {
      "name": "d_mat04"
    },
    {
      "mesh": 0,
      "skin": 0,
      "name": "d_mat04",
      "children": [
        0
      ]
    }
  ],
  "skins": [
    {
      "skeleton": 0,
      "joints": [
        0
      ],
      "inverseBindMatrices": 6
    }
  ],
  "scenes": [
    {
      "nodes": [
        1
      ],
      "name": "d_mat04"
    }
  ],
  "scene": 0,
  "samplers": [
    {
      "wrapS": 10497,
      "wrapT": 10497,
      "magFilter": 9728,
      "minFilter": 9728
    }
  ],
  "images": [
    {
      "uri": "d_mat04.png"
    }
  ],
  "textures": [
    {
      "source": 0,
      "sampler": 0
    }
  ],
  "materials": [
    {
      "name": "d_mat04_mat",
      "pbrMetallicRoughness": {
        "baseColorTexture": {
          "index": 0
        },
        "metallicFactor": 0
      },
      "extensions": {
        "KHR_materials_unlit": {}
      }
    }
  ],
  "buffers": [
    {
      "byteLength": 280,
      "uri": "d_mat04.bin"
    }
  ]
}