{
  "asset": {
    "version": "2.0"
  },
  "bufferViews": [
    {
      "buffer": 0,
      "byteLength": 23976,
      "byteOffset": 0
    },
    {
      "buffer": 0,
      "byteLength": 15984,
      "byteOffset": 23976
    },
    {
      "buffer": 0,
      "byteLength": 7992,
      "byteStride": 4,
      "byteOffset": 39960
    },
    {
      "buffer": 0,
      "byteLength": 23976,
      "byteOffset": 47952
    },
    {
      "buffer": 0,
      "byteOffset": 71928,
      "byteStride": 4,
      "byteLength": 7992
    },
    {
      "buffer": 0,
      "byteOffset": 79920,
      "byteStride": 4,
      "byteLength": 7992
    },
    {
      "buffer": 0,
      "byteLength": 6840,
      "byteOffset": 87912
    },
    {
      "buffer": 0,
      "byteLength": 64,
      "byteOffset": 94752
    }
  ],
  "accessors": [
    {
      "bufferView": 0,
      "type": "VEC3",
      "componentType": 5126,
      "count": 1998,
      "min": [
        -260,
        8,
        -257.921875
      ],
      "max": [
        260,
        58.3125,
        272
      ]
    },
    {
      "bufferView": 1,
      "type": "VEC2",
      "componentType": 5126,
      "count": 1998
    },
    {
      "bufferView": 2,
      "type": "VEC3",
      "componentType": 5121,
      "normalized": true,
      "count": 1998
    },
    {
      "bufferView": 3,
      "type": "VEC3",
      "componentType": 5126,
      "count": 1998
    },
    {
      "bufferView": 4,
      "type": "VEC4",
      "componentType": 5121,
      "count": 1998
    },
    {
      "bufferView": 5,
      "type": "VEC4",
      "componentType": 5121,
      "normalized": true,
      "count": 1998
    },
    {
      "bufferView": 6,
      "type": "SCALAR",
      "byteOffset": 0,
      "componentType": 5123,
      "count": 6
    },
    {
      "bufferView": 6,
      "type": "SCALAR",
      "byteOffset": 12,
      "componentType": 5123,
      "count": 6
    },
    {
      "bufferView": 6,
      "type": "SCALAR",
      "byteOffset": 24,
      "componentType": 5123,
      "count": 6
    },
    {
      "bufferView": 6,
      "type": "SCALAR",
      "byteOffset": 36,
      "componentType": 5123,
      "count": 12
    },
    {
      "bufferView": 6,
      "type": "SCALAR",
      "byteOffset": 60,
      "componentType": 5123,
      "count": 24
    },
    {
      "bufferView": 6,
      "type": "SCALAR",
      "byteOffset": 108,
      "componentType": 5123,
      "count": 24
    },
    {
      "bufferView": 6,
      "type": "SCALAR",
      "byteOffset": 156,
      "componentType": 5123,
      "count": 24
    },
    {
      "bufferView": 6,
      "type": "SCALAR",
      "byteOffset": 204,
      "componentType": 5123,
      "count": 30
    },
    {
      "bufferView": 6,
      "type": "SCALAR",
      "byteOffset": 264,
      "componentType": 5123,
      "count": 36
    },
    {
      "bufferView": 6,
      "type": "SCALAR",
      "byteOffset": 336,
      "componentType": 5123,
      "count": 54
    },
    {
      "bufferView": 6,
      "type": "SCALAR",
      "byteOffset": 444,
      "componentType": 5123,
      "count": 54
    },
    {
      "bufferView": 6,
      "type": "SCALAR",
      "byteOffset": 552,
      "componentType": 5123,
      "count": 66
    },
    {
      "bufferView": 6,
      "type": "SCALAR",
      "byteOffset": 684,
      "componentType": 5123,
      "count": 78
    },
    {
      "bufferView": 6,
      "type": "SCALAR",
      "byteOffset": 840,
      "componentType": 5123,
      "count": 90
    },
    {
      "bufferView": 6,
      "type": "SCALAR",
      "byteOffset": 1020,
      "componentType": 5123,
      "count": 114
    },
    {
      "bufferView": 6,
      "type": "SCALAR",
      "byteOffset": 1248,
      "componentType": 5123,
      "count": 132
    },
    {
      "bufferView": 6,
      "type": "SCALAR",
      "byteOffset": 1512,
      "componentType": 5123,
      "count": 144
    },
    {
      "bufferView": 6,
      "type": "SCALAR",
      "byteOffset": 1800,
      "componentType": 5123,
      "count": 192
    },
    {
      "bufferView": 6,
      "type": "SCALAR",
      "byteOffset": 2184,
      "componentType": 5123,
      "count": 204
    },
    {
      "bufferView": 6,
      "type": "SCALAR",
      "byteOffset": 2592,
      "componentType": 5123,
      "count": 360
    },
    {
      "bufferView": 6,
      "type": "SCALAR",
      "byteOffset": 3312,
      "componentType": 5123,
      "count": 480
    },
    {
      "bufferView": 6,
      "type": "SCALAR",
      "byteOffset": 4272,
      "componentType": 5123,
      "count": 600
    },
    {
      "bufferView": 6,
      "type": "SCALAR",
      "byteOffset": 5472,
      "componentType": 5123,
      "count": 684
    },
    {
      "bufferView": 7,
      "type": "MAT4",
      "componentType": 5126,
      "count": 1
    }
  ],
  "extensionsUsed": [
    "FB_ngon_encoding",
    "KHR_materials_unlit"
  ],
  "meshes": [
    {
      "primitives": [
        {
          "attributes": {
            "POSITION": 0,
            "TEXCOORD_0": 1,
            "COLOR_0": 2,
            "NORMAL": 3,
            "JOINTS_0": 4,
            "WEIGHTS_0": 5
          },
          "material": 0,
          "indices": 6,
          "extensions": {
            "FB_ngon_encoding": {}
          }
        },
        {
          "attributes": {
            "POSITION": 0,
            "TEXCOORD_0": 1,
            "COLOR_0": 2,
            "NORMAL": 3,
            "JOINTS_0": 4,
            "WEIGHTS_0": 5
          },
          "material": 2,
          "indices": 7,
          "extensions": {
            "FB_ngon_encoding": {}
          }
        },
        {
          "attributes": {
            "POSITION": 0,
            "TEXCOORD_0": 1,
            "COLOR_0": 2,
            "NORMAL": 3,
            "JOINTS_0": 4,
            "WEIGHTS_0": 5
          },
          "material": 6,
          "indices": 8,
          "extensions": {
            "FB_ngon_encoding": {}
          }
        },
        {
          "attributes": {
            "POSITION": 0,
            "TEXCOORD_0": 1,
            "COLOR_0": 2,
            "NORMAL": 3,
            "JOINTS_0": 4,
            "WEIGHTS_0": 5
          },
          "material": 1,
          "indices": 9,
          "extensions": {
            "FB_ngon_encoding": {}
          }
        },
        {
          "attributes": {
            "POSITION": 0,
            "TEXCOORD_0": 1,
            "COLOR_0": 2,
            "NORMAL": 3,
            "JOINTS_0": 4,
            "WEIGHTS_0": 5
          },
          "material": 3,
          "indices": 10,
          "extensions": {
            "FB_ngon_encoding": {}
          }
        },
        {
          "attributes": {
            "POSITION": 0,
            "TEXCOORD_0": 1,
            "COLOR_0": 2,
            "NORMAL": 3,
            "JOINTS_0": 4,
            "WEIGHTS_0": 5
          },
          "material": 5,
          "indices": 11,
          "extensions": {
            "FB_ngon_encoding": {}
          }
        },
        {
          "attributes": {
            "POSITION": 0,
            "TEXCOORD_0": 1,
            "COLOR_0": 2,
            "NORMAL": 3,
            "JOINTS_0": 4,
            "WEIGHTS_0": 5
          },
          "material": 7,
          "indices": 12,
          "extensions": {
            "FB_ngon_encoding": {}
          }
        },
        {
          "attributes": {
            "POSITION": 0,
            "TEXCOORD_0": 1,
            "COLOR_0": 2,
            "NORMAL": 3,
            "JOINTS_0": 4,
            "WEIGHTS_0": 5
          },
          "material": 10,
          "indices": 13,
          "extensions": {
            "FB_ngon_encoding": {}
          }
        },
        {
          "attributes": {
            "POSITION": 0,
            "TEXCOORD_0": 1,
            "COLOR_0": 2,
            "NORMAL": 3,
            "JOINTS_0": 4,
            "WEIGHTS_0": 5
          },
          "material": 12,
          "indices": 14,
          "extensions": {
            "FB_ngon_encoding": {}
          }
        },
        {
          "attributes": {
            "POSITION": 0,
            "TEXCOORD_0": 1,
            "COLOR_0": 2,
            "NORMAL": 3,
            "JOINTS_0": 4,
            "WEIGHTS_0": 5
          },
          "material": 8,
          "indices": 15,
          "extensions": {
            "FB_ngon_encoding": {}
          }
        },
        {
          "attributes": {
            "POSITION": 0,
            "TEXCOORD_0": 1,
            "COLOR_0": 2,
            "NORMAL": 3,
            "JOINTS_0": 4,
            "WEIGHTS_0": 5
          },
          "material": 22,
          "indices": 16,
          "extensions": {
            "FB_ngon_encoding": {}
          }
        },
        {
          "attributes": {
            "POSITION": 0,
            "TEXCOORD_0": 1,
            "COLOR_0": 2,
            "NORMAL": 3,
            "JOINTS_0": 4,
            "WEIGHTS_0": 5
          },
          "material": 13,
          "indices": 17,
          "extensions": {
            "FB_ngon_encoding": {}
          }
        },
        {
          "attributes": {
            "POSITION": 0,
            "TEXCOORD_0": 1,
            "COLOR_0": 2,
            "NORMAL": 3,
            "JOINTS_0": 4,
            "WEIGHTS_0": 5
          },
          "material": 9,
          "indices": 18,
          "extensions": {
            "FB_ngon_encoding": {}
          }
        },
        {
          "attributes": {
            "POSITION": 0,
            "TEXCOORD_0": 1,
            "COLOR_0": 2,
            "NORMAL": 3,
            "JOINTS_0": 4,
            "WEIGHTS_0": 5
          },
          "material": 11,
          "indices": 19,
          "extensions": {
            "FB_ngon_encoding": {}
          }
        },
        {
          "attributes": {
            "POSITION": 0,
            "TEXCOORD_0": 1,
            "COLOR_0": 2,
            "NORMAL": 3,
            "JOINTS_0": 4,
            "WEIGHTS_0": 5
          },
          "material": 18,
          "indices": 20,
          "extensions": {
            "FB_ngon_encoding": {}
          }
        },
        {
          "attributes": {
            "POSITION": 0,
            "TEXCOORD_0": 1,
            "COLOR_0": 2,
            "NORMAL": 3,
            "JOINTS_0": 4,
            "WEIGHTS_0": 5
          },
          "material": 4,
          "indices": 21,
          "extensions": {
            "FB_ngon_encoding": {}
          }
        },
        {
          "attributes": {
            "POSITION": 0,
            "TEXCOORD_0": 1,
            "COLOR_0": 2,
            "NORMAL": 3,
            "JOINTS_0": 4,
            "WEIGHTS_0": 5
          },
          "material": 16,
          "indices": 22,
          "extensions": {
            "FB_ngon_encoding": {}
          }
        },
        {
          "attributes": {
            "POSITION": 0,
            "TEXCOORD_0": 1,
            "COLOR_0": 2,
            "NORMAL": 3,
            "JOINTS_0": 4,
            "WEIGHTS_0": 5
          },
          "material": 14,
          "indices": 23,
          "extensions": {
            "FB_ngon_encoding": {}
          }
        },
        {
          "attributes": {
            "POSITION": 0,
            "TEXCOORD_0": 1,
            "COLOR_0": 2,
            "NORMAL": 3,
            "JOINTS_0": 4,
            "WEIGHTS_0": 5
          },
          "material": 19,
          "indices": 24,
          "extensions": {
            "FB_ngon_encoding": {}
          }
        },
        {
          "attributes": {
            "POSITION": 0,
            "TEXCOORD_0": 1,
            "COLOR_0": 2,
            "NORMAL": 3,
            "JOINTS_0": 4,
            "WEIGHTS_0": 5
          },
          "material": 17,
          "indices": 25,
          "extensions": {
            "FB_ngon_encoding": {}
          }
        },
        {
          "attributes": {
            "POSITION": 0,
            "TEXCOORD_0": 1,
            "COLOR_0": 2,
            "NORMAL": 3,
            "JOINTS_0": 4,
            "WEIGHTS_0": 5
          },
          "material": 15,
          "indices": 26,
          "extensions": {
            "FB_ngon_encoding": {}
          }
        },
        {
          "attributes": {
            "POSITION": 0,
            "TEXCOORD_0": 1,
            "COLOR_0": 2,
            "NORMAL": 3,
            "JOINTS_0": 4,
            "WEIGHTS_0": 5
          },
          "material": 21,
          "indices": 27,
          "extensions": {
            "FB_ngon_encoding": {}
          }
        },
        {
          "attributes": {
            "POSITION": 0,
            "TEXCOORD_0": 1,
            "COLOR_0": 2,
            "NORMAL": 3,
            "JOINTS_0": 4,
            "WEIGHTS_0": 5
          },
          "material": 20,
          "indices": 28,
          "extensions": {
            "FB_ngon_encoding": {}
          }
        }
      ],
      "name": "map01_22c"
    }
  ],
  "nodes": [
    {
      "name": "polySurface1"
    },
    {
      "mesh": 0,
      "skin": 0,
      "name": "map01_22c",
      "children": [
        0
      ]
    }
  ],
  "skins": [
    {
      "skeleton": 0,
      "joints": [
        0
      ],
      "inverseBindMatrices": 29
    }
  ],
  "scenes": [
    {
      "nodes": [
        1
      ],
      "name": "map01_22c"
    }
  ],
  "scene": 0,
  "samplers": [
    {
      "wrapS": 10497,
      "wrapT": 10497,
      "magFilter": 9728,
      "minFilter": 9728
    },
    {
      "wrapS": 33071,
      "wrapT": 33071,
      "magFilter": 9728,
      "minFilter": 9728
    },
    {
      "wrapS": 33071,
      "wrapT": 10497,
      "magFilter": 9728,
      "minFilter": 9728
    },
    {
      "wrapS": 10497,
      "wrapT": 33071,
      "magFilter": 9728,
      "minFilter": 9728
    }
  ],
  "images": [
    {
      "uri": "c02_base_d.png"
    },
    {
      "uri": "c02_base_k2.png"
    },
    {
      "uri": "c02_base_k.png"
    },
    {
      "uri": "c02_base_l.png"
    },
    {
      "uri": "c02_base.png"
    },
    {
      "uri": "c02_base_r.png"
    },
    {
      "uri": "c02_base_u.png"
    },
    {
      "uri": "c02_road_d.png"
    },
    {
      "uri": "c02_road_k2.png"
    },
    {
      "uri": "c02_road_k.png"
    },
    {
      "uri": "c02_road_l.png"
    },
    {
      "uri": "c02_road.png"
    },
    {
      "uri": "c02_road_r.png"
    },
    {
      "uri": "c02_road_u.png"
    },
    {
      "uri": "c2_light_a.png"
    },
    {
      "uri": "c2_light_b.png"
    },
    {
      "uri": "c2_rale_a.png"
    },
    {
      "uri": "c2_rale_b.png"
    },
    {
      "uri": "imped.png"
    },
    {
      "uri": "sea.png"
    },
    {
      "uri": "seaside3.png"
    },
    {
      "uri": "tree01.png"
    },
    {
      "uri": "tshadow.png"
    }
  ],
  "textures": [
    {
      "source": 0,
      "sampler": 0
    },
    {
      "source": 1,
      "sampler": 1
    },
    {
      "source": 2,
      "sampler": 1
    },
    {
      "source": 3,
      "sampler": 2
    },
    {
      "source": 4,
      "sampler": 0
    },
    {
      "source": 5,
      "sampler": 2
    },
    {
      "source": 6,
      "sampler": 3
    },
    {
      "source": 7,
      "sampler": 3
    },
    {
      "source": 8,
      "sampler": 0
    },
    {
      "source": 9,
      "sampler": 1
    },
    {
      "source": 10,
      "sampler": 2
    },
    {
      "source": 11,
      "sampler": 0
    },
    {
      "source": 12,
      "sampler": 2
    },
    {
      "source": 13,
      "sampler": 3
    },
    {
      "source": 14,
      "sampler": 0
    },
    {
      "source": 15,
      "sampler": 0
    },
    {
      "source": 16,
      "sampler": 2
    },
    {
      "source": 17,
      "sampler": 2
    },
    {
      "source": 18,
      "sampler": 0
    },
    {
      "source": 19,
      "sampler": 0
    },
    {
      "source": 20,
      "sampler": 0
    },
    {
      "source": 21,
      "sampler": 0
    },
    {
      "source": 22,
      "sampler": 0
    }
  ],
  "materials": [
    {
      "name": "c02_base_d_lm3",
      "pbrMetallicRoughness": {
        "baseColorTexture": {
          "index": 0
        },
        "metallicFactor": 0
      },
      "extensions": {
        "KHR_materials_unlit": {}
      }
    },
    {
      "name": "c02_base_k2_lm3",
      "pbrMetallicRoughness": {
        "baseColorTexture": {
          "index": 1
        },
        "metallicFactor": 0
      },
      "extensions": {
        "KHR_materials_unlit": {}
      }
    },
    {
      "name": "c02_base_k_lm3",
      "pbrMetallicRoughness": {
        "baseColorTexture": {
          "index": 2
        },
        "metallicFactor": 0
      },
      "extensions": {
        "KHR_materials_unlit": {}
      }
    },
    {
      "name": "c02_base_l_lm3",
      "pbrMetallicRoughness": {
        "baseColorTexture": {
          "index": 3
        },
        "metallicFactor": 0
      },
      "extensions": {
        "KHR_materials_unlit": {}
      }
    },
    {
      "name": "c02_base_lm3",
      "pbrMetallicRoughness": {
        "baseColorTexture": {
          "index": 4
        },
        "metallicFactor": 0
      },
      "extensions": {
        "KHR_materials_unlit": {}
      }
    },
    {
      "name": "c02_base_r_lm3",
      "pbrMetallicRoughness": {
        "baseColorTexture": {
          "index": 5
        },
        "metallicFactor": 0
      },
      "extensions": {
        "KHR_materials_unlit": {}
      }
    },
    {
      "name": "c02_base_u_lm3",
      "pbrMetallicRoughness": {
        "baseColorTexture": {
          "index": 6
        },
        "metallicFactor": 0
      },
      "extensions": {
        "KHR_materials_unlit": {}
      }
    },
    {
      "name": "c02_road_d_lm4",
      "pbrMetallicRoughness": {
        "baseColorTexture": {
          "index": 7
        },
        "metallicFactor": 0
      },
      "extensions": {
        "KHR_materials_unlit": {}
      }
    },
    {
      "name": "c02_road_k2_lm4",
      "pbrMetallicRoughness": {
        "baseColorTexture": {
          "index": 8
        },
        "metallicFactor": 0
      },
      "extensions": {
        "KHR_materials_unlit": {}
      }
    },
    {
      "name": "c02_road_k_lm4",
      "pbrMetallicRoughness": {
        "baseColorTexture": {
          "index": 9
        },
        "metallicFactor": 0
      },
      "extensions": {
        "KHR_materials_unlit": {}
      }
    },
    {
      "name": "c02_road_l_lm4",
      "pbrMetallicRoughness": {
        "baseColorTexture": {
          "index": 10
        },
        "metallicFactor": 0
      },
      "extensions": {
        "KHR_materials_unlit": {}
      }
    },
    {
      "name": "c02_road_lm4",
      "pbrMetallicRoughness": {
        "baseColorTexture": {
          "index": 11
        },
        "metallicFactor": 0
      },
      "extensions": {
        "KHR_materials_unlit": {}
      }
    },
    {
      "name": "c02_road_r_lm4",
      "pbrMetallicRoughness": {
        "baseColorTexture": {
          "index": 12
        },
        "metallicFactor": 0
      },
      "extensions": {
        "KHR_materials_unlit": {}
      }
    },
    {
      "name": "c02_road_u_lm4",
      "pbrMetallicRoughness": {
        "baseColorTexture": {
          "index": 13
        },
        "metallicFactor": 0
      },
      "extensions": {
        "KHR_materials_unlit": {}
      }
    },
    {
      "name": "c2_light_a_lm4",
      "pbrMetallicRoughness": {
        "baseColorTexture": {
          "index": 14
        },
        "metallicFactor": 0
      },
      "extensions": {
        "KHR_materials_unlit": {}
      }
    },
    {
      "name": "c2_light_b_lm4",
      "pbrMetallicRoughness": {
        "baseColorTexture": {
          "index": 15
        },
        "metallicFactor": 0
      },
      "extensions": {
        "KHR_materials_unlit": {}
      }
    },
    {
      "name": "c2_rale_a_lm4",
      "pbrMetallicRoughness": {
        "baseColorTexture": {
          "index": 16
        },
        "metallicFactor": 0
      },
      "extensions": {
        "KHR_materials_unlit": {}
      }
    },
    {
      "name": "c2_rale_b_lm4",
      "pbrMetallicRoughness": {
        "baseColorTexture": {
          "index": 17
        },
        "metallicFactor": 0
      },
      "extensions": {
        "KHR_materials_unlit": {}
      }
    },
    {
      "name": "imped_lm42",
      "pbrMetallicRoughness": {
        "baseColorTexture": {
          "index": 18
        },
        "metallicFactor": 0
      },
      "extensions": {
        "KHR_materials_unlit": {}
      },
      "alphaMode": "MASK"
    },
    {
      "name": "sea_lm37",
      "pbrMetallicRoughness": {
        "baseColorTexture": {
          "index": 19
        },
        "metallicFactor": 0
      },
      "extensions": {
        "KHR_materials_unlit": {}
      }
    },
    {
      "name": "seaside3_lm47",
      "pbrMetallicRoughness": {
        "baseColorTexture": {
          "index": 20
        },
        "metallicFactor": 0
      },
      "extensions": {
        "KHR_materials_unlit": {}
      },
      "alphaMode": "MASK"
    },
    {
      "name": "tree01_lm40",
      "pbrMetallicRoughness": {
        "baseColorTexture": {
          "index": 21
        },
        "metallicFactor": 0
      },
      "extensions": {
        "KHR_materials_unlit": {}
      },
      "alphaMode": "MASK"
    },
    {
      "name": "tshadow_lm4",
      "pbrMetallicRoughness": {
        "baseColorTexture": {
          "index": 22
        },
        "metallicFactor": 0
      },
      "extensions": {
        "KHR_materials_unlit": {}
      }
    }
  ],
  "buffers": [
    {
      "byteLength": 94816,
      "uri": "map01_22c.bin"
    }
  ]
}