{
  "asset": {
    "version": "2.0"
  },
  "bufferViews": [
    {
      "buffer": 0,
      "byteLength": 25980,
      "byteOffset": 0
    },
    {
      "buffer": 0,
      "byteLength": 17320,
      "byteOffset": 25980
    },
    {
      "buffer": 0,
      "byteLength": 8660,
      "byteStride": 4,
      "byteOffset": 43300
    },
    {
      "buffer": 0,
      "byteLength": 25980,
      "byteOffset": 51960
    },
    {
      "buffer": 0,
      "byteOffset": 77940,
      "byteStride": 4,
      "byteLength": 8660
    },
    {
      "buffer": 0,
      "byteOffset": 86600,
      "byteStride": 4,
      "byteLength": 8660
    },
    {
      "buffer": 0,
      "byteLength": 7230,
      "byteOffset": 95260
    },
    {
      "buffer": 0,
      "byteLength": 64,
      "byteOffset": 102492
    }
  ],
  "accessors": [
    {
      "bufferView": 0,
      "type": "VEC3",
      "componentType": 5126,
      "count": 2165,
      "min": [
        -256,
        0,
        -264
      ],
      "max": [
        320,
        91.65625,
        288
      ]
    },
    {
      "bufferView": 1,
      "type": "VEC2",
      "componentType": 5126,
      "count": 2165
    },
    {
      "bufferView": 2,
      "type": "VEC3",
      "componentType": 5121,
      "normalized": true,
      "count": 2165
    },
    {
      "bufferView": 3,
      "type": "VEC3",
      "componentType": 5126,
      "count": 2165
    },
    {
      "bufferView": 4,
      "type": "VEC4",
      "componentType": 5121,
      "count": 2165
    },
    {
      "bufferView": 5,
      "type": "VEC4",
      "componentType": 5121,
      "normalized": true,
      "count": 2165
    },
    {
      "bufferView": 6,
      "type": "SCALAR",
      "byteOffset": 0,
      "componentType": 5123,
      "count": 6
    },
    {
      "bufferView": 6,
      "type": "SCALAR",
      "byteOffset": 12,
      "componentType": 5123,
      "count": 6
    },
    {
      "bufferView": 6,
      "type": "SCALAR",
      "byteOffset": 24,
      "componentType": 5123,
      "count": 6
    },
    {
      "bufferView": 6,
      "type": "SCALAR",
      "byteOffset": 36,
      "componentType": 5123,
      "count": 6
    },
    {
      "bufferView": 6,
      "type": "SCALAR",
      "byteOffset": 48,
      "componentType": 5123,
      "count": 6
    },
    {
      "bufferView": 6,
      "type": "SCALAR",
      "byteOffset": 60,
      "componentType": 5123,
      "count": 6
    },
    {
      "bufferView": 6,
      "type": "SCALAR",
      "byteOffset": 72,
      "componentType": 5123,
      "count": 6
    },
    {
      "bufferView": 6,
      "type": "SCALAR",
      "byteOffset": 84,
      "componentType": 5123,
      "count": 12
    },
    {
      "bufferView": 6,
      "type": "SCALAR",
      "byteOffset": 108,
      "componentType": 5123,
      "count": 12
    },
    {
      "bufferView": 6,
      "type": "SCALAR",
      "byteOffset": 132,
      "componentType": 5123,
      "count": 12
    },
    {
      "bufferView": 6,
      "type": "SCALAR",
      "byteOffset": 156,
      "componentType": 5123,
      "count": 24
    },
    {
      "bufferView": 6,
      "type": "SCALAR",
      "byteOffset": 204,
      "componentType": 5123,
      "count": 42
    },
    {
      "bufferView": 6,
      "type": "SCALAR",
      "byteOffset": 288,
      "componentType": 5123,
      "count": 48
    },
    {
      "bufferView": 6,
      "type": "SCALAR",
      "byteOffset": 384,
      "componentType": 5123,
      "count": 45
    },
    {
      "bufferView": 6,
      "type": "SCALAR",
      "byteOffset": 474,
      "componentType": 5123,
      "count": 108
    },
    {
      "bufferView": 6,
      "type": "SCALAR",
      "byteOffset": 690,
      "componentType": 5123,
      "count": 108
    },
    {
      "bufferView": 6,
      "type": "SCALAR",
      "byteOffset": 906,
      "componentType": 5123,
      "count": 186
    },
    {
      "bufferView": 6,
      "type": "SCALAR",
      "byteOffset": 1278,
      "componentType": 5123,
      "count": 108
    },
    {
      "bufferView": 6,
      "type": "SCALAR",
      "byteOffset": 1494,
      "componentType": 5123,
      "count": 216
    },
    {
      "bufferView": 6,
      "type": "SCALAR",
      "byteOffset": 1926,
      "componentType": 5123,
      "count": 384
    },
    {
      "bufferView": 6,
      "type": "SCALAR",
      "byteOffset": 2694,
      "componentType": 5123,
      "count": 522
    },
    {
      "bufferView": 6,
      "type": "SCALAR",
      "byteOffset": 3738,
      "componentType": 5123,
      "count": 624
    },
    {
      "bufferView": 6,
      "type": "SCALAR",
      "byteOffset": 4986,
      "componentType": 5123,
      "count": 1122
    },
    {
      "bufferView": 7,
      "type": "MAT4",
      "componentType": 5126,
      "count": 1
    }
  ],
  "extensionsUsed": [
    "FB_ngon_encoding",
    "KHR_materials_unlit"
  ],
  "meshes": [
    {
      "primitives": [
        {
          "attributes": {
            "POSITION": 0,
            "TEXCOORD_0": 1,
            "COLOR_0": 2,
            "NORMAL": 3,
            "JOINTS_0": 4,
            "WEIGHTS_0": 5
          },
          "material": 0,
          "indices": 6,
          "extensions": {
            "FB_ngon_encoding": {}
          }
        },
        {
          "attributes": {
            "POSITION": 0,
            "TEXCOORD_0": 1,
            "COLOR_0": 2,
            "NORMAL": 3,
            "JOINTS_0": 4,
            "WEIGHTS_0": 5
          },
          "material": 2,
          "indices": 7,
          "extensions": {
            "FB_ngon_encoding": {}
          }
        },
        {
          "attributes": {
            "POSITION": 0,
            "TEXCOORD_0": 1,
            "COLOR_0": 2,
            "NORMAL": 3,
            "JOINTS_0": 4,
            "WEIGHTS_0": 5
          },
          "material": 5,
          "indices": 8,
          "extensions": {
            "FB_ngon_encoding": {}
          }
        },
        {
          "attributes": {
            "POSITION": 0,
            "TEXCOORD_0": 1,
            "COLOR_0": 2,
            "NORMAL": 3,
            "JOINTS_0": 4,
            "WEIGHTS_0": 5
          },
          "material": 12,
          "indices": 9,
          "extensions": {
            "FB_ngon_encoding": {}
          }
        },
        {
          "attributes": {
            "POSITION": 0,
            "TEXCOORD_0": 1,
            "COLOR_0": 2,
            "NORMAL": 3,
            "JOINTS_0": 4,
            "WEIGHTS_0": 5
          },
          "material": 13,
          "indices": 10,
          "extensions": {
            "FB_ngon_encoding": {}
          }
        },
        {
          "attributes": {
            "POSITION": 0,
            "TEXCOORD_0": 1,
            "COLOR_0": 2,
            "NORMAL": 3,
            "JOINTS_0": 4,
            "WEIGHTS_0": 5
          },
          "material": 14,
          "indices": 11,
          "extensions": {
            "FB_ngon_encoding": {}
          }
        },
        {
          "attributes": {
            "POSITION": 0,
            "TEXCOORD_0": 1,
            "COLOR_0": 2,
            "NORMAL": 3,
            "JOINTS_0": 4,
            "WEIGHTS_0": 5
          },
          "material": 15,
          "indices": 12,
          "extensions": {
            "FB_ngon_encoding": {}
          }
        },
        {
          "attributes": {
            "POSITION": 0,
            "TEXCOORD_0": 1,
            "COLOR_0": 2,
            "NORMAL": 3,
            "JOINTS_0": 4,
            "WEIGHTS_0": 5
          },
          "material": 4,
          "indices": 13,
          "extensions": {
            "FB_ngon_encoding": {}
          }
        },
        {
          "attributes": {
            "POSITION": 0,
            "TEXCOORD_0": 1,
            "COLOR_0": 2,
            "NORMAL": 3,
            "JOINTS_0": 4,
            "WEIGHTS_0": 5
          },
          "material": 6,
          "indices": 14,
          "extensions": {
            "FB_ngon_encoding": {}
          }
        },
        {
          "attributes": {
            "POSITION": 0,
            "TEXCOORD_0": 1,
            "COLOR_0": 2,
            "NORMAL": 3,
            "JOINTS_0": 4,
            "WEIGHTS_0": 5
          },
          "material": 11,
          "indices": 15,
          "extensions": {
            "FB_ngon_encoding": {}
          }
        },
        {
          "attributes": {
            "POSITION": 0,
            "TEXCOORD_0": 1,
            "COLOR_0": 2,
            "NORMAL": 3,
            "JOINTS_0": 4,
            "WEIGHTS_0": 5
          },
          "material": 1,
          "indices": 16,
          "extensions": {
            "FB_ngon_encoding": {}
          }
        },
        {
          "attributes": {
            "POSITION": 0,
            "TEXCOORD_0": 1,
            "COLOR_0": 2,
            "NORMAL": 3,
            "JOINTS_0": 4,
            "WEIGHTS_0": 5
          },
          "material": 22,
          "indices": 17,
          "extensions": {
            "FB_ngon_encoding": {}
          }
        },
        {
          "attributes": {
            "POSITION": 0,
            "TEXCOORD_0": 1,
            "COLOR_0": 2,
            "NORMAL": 3,
            "JOINTS_0": 4,
            "WEIGHTS_0": 5
          },
          "material": 7,
          "indices": 18,
          "extensions": {
            "FB_ngon_encoding": {}
          }
        },
        {
          "attributes": {
            "POSITION": 0,
            "TEXCOORD_0": 1,
            "COLOR_0": 2,
            "NORMAL": 3,
            "JOINTS_0": 4,
            "WEIGHTS_0": 5
          },
          "material": 18,
          "indices": 19,
          "extensions": {
            "FB_ngon_encoding": {}
          }
        },
        {
          "attributes": {
            "POSITION": 0,
            "TEXCOORD_0": 1,
            "COLOR_0": 2,
            "NORMAL": 3,
            "JOINTS_0": 4,
            "WEIGHTS_0": 5
          },
          "material": 16,
          "indices": 20,
          "extensions": {
            "FB_ngon_encoding": {}
          }
        },
        {
          "attributes": {
            "POSITION": 0,
            "TEXCOORD_0": 1,
            "COLOR_0": 2,
            "NORMAL": 3,
            "JOINTS_0": 4,
            "WEIGHTS_0": 5
          },
          "material": 19,
          "indices": 21,
          "extensions": {
            "FB_ngon_encoding": {}
          }
        },
        {
          "attributes": {
            "POSITION": 0,
            "TEXCOORD_0": 1,
            "COLOR_0": 2,
            "NORMAL": 3,
            "JOINTS_0": 4,
            "WEIGHTS_0": 5
          },
          "material": 3,
          "indices": 22,
          "extensions": {
            "FB_ngon_encoding": {}
          }
        },
        {
          "attributes": {
            "POSITION": 0,
            "TEXCOORD_0": 1,
            "COLOR_0": 2,
            "NORMAL": 3,
            "JOINTS_0": 4,
            "WEIGHTS_0": 5
          },
          "material": 8,
          "indices": 23,
          "extensions": {
            "FB_ngon_encoding": {}
          }
        },
        {
          "attributes": {
            "POSITION": 0,
            "TEXCOORD_0": 1,
            "COLOR_0": 2,
            "NORMAL": 3,
            "JOINTS_0": 4,
            "WEIGHTS_0": 5
          },
          "material": 20,
          "indices": 24,
          "extensions": {
            "FB_ngon_encoding": {}
          }
        },
        {
          "attributes": {
            "POSITION": 0,
            "TEXCOORD_0": 1,
            "COLOR_0": 2,
            "NORMAL": 3,
            "JOINTS_0": 4,
            "WEIGHTS_0": 5
          },
          "material": 17,
          "indices": 25,
          "extensions": {
            "FB_ngon_encoding": {}
          }
        },
        {
          "attributes": {
            "POSITION": 0,
            "TEXCOORD_0": 1,
            "COLOR_0": 2,
            "NORMAL": 3,
            "JOINTS_0": 4,
            "WEIGHTS_0": 5
          },
          "material": 10,
          "indices": 26,
          "extensions": {
            "FB_ngon_encoding": {}
          }
        },
        {
          "attributes": {
            "POSITION": 0,
            "TEXCOORD_0": 1,
            "COLOR_0": 2,
            "NORMAL": 3,
            "JOINTS_0": 4,
            "WEIGHTS_0": 5
          },
          "material": 21,
          "indices": 27,
          "extensions": {
            "FB_ngon_encoding": {}
          }
        },
        {
          "attributes": {
            "POSITION": 0,
            "TEXCOORD_0": 1,
            "COLOR_0": 2,
            "NORMAL": 3,
            "JOINTS_0": 4,
            "WEIGHTS_0": 5
          },
          "material": 9,
          "indices": 28,
          "extensions": {
            "FB_ngon_encoding": {}
          }
        }
      ],
      "name": "map22_18c"
    }
  ],
  "nodes": [
    {
      "name": "polySurface6"
    },
    {
      "mesh": 0,
      "skin": 0,
      "name": "map22_18c",
      "children": [
        0
      ]
    }
  ],
  "skins": [
    {
      "skeleton": 0,
      "joints": [
        0
      ],
      "inverseBindMatrices": 29
    }
  ],
  "scenes": [
    {
      "nodes": [
        1
      ],
      "name": "map22_18c"
    }
  ],
  "scene": 0,
  "samplers": [
    {
      "wrapS": 10497,
      "wrapT": 10497,
      "magFilter": 9728,
      "minFilter": 9728
    },
    {
      "wrapS": 33071,
      "wrapT": 33071,
      "magFilter": 9728,
      "minFilter": 9728
    },
    {
      "wrapS": 33071,
      "wrapT": 10497,
      "magFilter": 9728,
      "minFilter": 9728
    },
    {
      "wrapS": 10497,
      "wrapT": 33071,
      "magFilter": 9728,
      "minFilter": 9728
    }
  ],
  "images": [
    {
      "uri": "c07_base_d.png"
    },
    {
      "uri": "c07_base_k2.png"
    },
    {
      "uri": "c07_base_l.png"
    },
    {
      "uri": "c07_base.png"
    },
    {
      "uri": "c07_base_r.png"
    },
    {
      "uri": "c07_base_u.png"
    },
    {
      "uri": "c07_base_x2.png"
    },
    {
      "uri": "c07_base_x.png"
    },
    {
      "uri": "c07_criff.png"
    },
    {
      "uri": "c07_criffp2.png"
    },
    {
      "uri": "c07_criffp.png"
    },
    {
      "uri": "c07_road_k.png"
    },
    {
      "uri": "c07_road_l.png"
    },
    {
      "uri": "c07_road.png"
    },
    {
      "uri": "c07_road_r.png"
    },
    {
      "uri": "c07_road_u.png"
    },
    {
      "uri": "imped.png"
    },
    {
      "uri": "newstep.png"
    },
    {
      "uri": "ngrass.png"
    },
    {
      "uri": "sea.png"
    },
    {
      "uri": "seaside3.png"
    },
    {
      "uri": "tree2_01.png"
    },
    {
      "uri": "tshadow.png"
    }
  ],
  "textures": [
    {
      "source": 0,
      "sampler": 0
    },
    {
      "source": 1,
      "sampler": 1
    },
    {
      "source": 2,
      "sampler": 2
    },
    {
      "source": 3,
      "sampler": 0
    },
    {
      "source": 4,
      "sampler": 2
    },
    {
      "source": 5,
      "sampler": 3
    },
    {
      "source": 6,
      "sampler": 0
    },
    {
      "source": 7,
      "sampler": 0
    },
    {
      "source": 8,
      "sampler": 0
    },
    {
      "source": 9,
      "sampler": 0
    },
    {
      "source": 10,
      "sampler": 0
    },
    {
      "source": 11,
      "sampler": 1
    },
    {
      "source": 12,
      "sampler": 2
    },
    {
      "source": 13,
      "sampler": 0
    },
    {
      "source": 14,
      "sampler": 2
    },
    {
      "source": 15,
      "sampler": 3
    },
    {
      "source": 16,
      "sampler": 0
    },
    {
      "source": 17,
      "sampler": 0
    },
    {
      "source": 18,
      "sampler": 0
    },
    {
      "source": 19,
      "sampler": 0
    },
    {
      "source": 20,
      "sampler": 0
    },
    {
      "source": 21,
      "sampler": 0
    },
    {
      "source": 22,
      "sampler": 0
    }
  ],
  "materials": [
    {
      "name": "c07_base_d_lm7",
      "pbrMetallicRoughness": {
        "baseColorTexture": {
          "index": 0
        },
        "metallicFactor": 0
      },
      "extensions": {
        "KHR_materials_unlit": {}
      },
      "alphaMode": "MASK"
    },
    {
      "name": "c07_base_k2_lm7",
      "pbrMetallicRoughness": {
        "baseColorTexture": {
          "index": 1
        },
        "metallicFactor": 0
      },
      "extensions": {
        "KHR_materials_unlit": {}
      },
      "alphaMode": "MASK"
    },
    {
      "name": "c07_base_l_lm7",
      "pbrMetallicRoughness": {
        "baseColorTexture": {
          "index": 2
        },
        "metallicFactor": 0
      },
      "extensions": {
        "KHR_materials_unlit": {}
      },
      "alphaMode": "MASK"
    },
    {
      "name": "c07_base_lm13",
      "pbrMetallicRoughness": {
        "baseColorTexture": {
          "index": 3
        },
        "metallicFactor": 0
      },
      "extensions": {
        "KHR_materials_unlit": {}
      },
      "alphaMode": "MASK"
    },
    {
      "name": "c07_base_r_lm4",
      "pbrMetallicRoughness": {
        "baseColorTexture": {
          "index": 4
        },
        "metallicFactor": 0
      },
      "extensions": {
        "KHR_materials_unlit": {}
      },
      "alphaMode": "MASK"
    },
    {
      "name": "c07_base_u_lm7",
      "pbrMetallicRoughness": {
        "baseColorTexture": {
          "index": 5
        },
        "metallicFactor": 0
      },
      "extensions": {
        "KHR_materials_unlit": {}
      },
      "alphaMode": "MASK"
    },
    {
      "name": "c07_base_x2_lm4",
      "pbrMetallicRoughness": {
        "baseColorTexture": {
          "index": 6
        },
        "metallicFactor": 0
      },
      "extensions": {
        "KHR_materials_unlit": {}
      }
    },
    {
      "name": "c07_base_x_lm4",
      "pbrMetallicRoughness": {
        "baseColorTexture": {
          "index": 7
        },
        "metallicFactor": 0
      },
      "extensions": {
        "KHR_materials_unlit": {}
      }
    },
    {
      "name": "c07_criff_lm2",
      "pbrMetallicRoughness": {
        "baseColorTexture": {
          "index": 8
        },
        "metallicFactor": 0
      },
      "extensions": {
        "KHR_materials_unlit": {}
      },
      "alphaMode": "MASK"
    },
    {
      "name": "c07_criffp2_lm3",
      "pbrMetallicRoughness": {
        "baseColorTexture": {
          "index": 9
        },
        "metallicFactor": 0
      },
      "extensions": {
        "KHR_materials_unlit": {}
      },
      "alphaMode": "MASK"
    },
    {
      "name": "c07_criffp_lm3",
      "pbrMetallicRoughness": {
        "baseColorTexture": {
          "index": 10
        },
        "metallicFactor": 0
      },
      "extensions": {
        "KHR_materials_unlit": {}
      },
      "alphaMode": "MASK"
    },
    {
      "name": "c07_road_k_lm7",
      "pbrMetallicRoughness": {
        "baseColorTexture": {
          "index": 11
        },
        "metallicFactor": 0
      },
      "extensions": {
        "KHR_materials_unlit": {}
      },
      "alphaMode": "MASK"
    },
    {
      "name": "c07_road_l_lm7",
      "pbrMetallicRoughness": {
        "baseColorTexture": {
          "index": 12
        },
        "metallicFactor": 0
      },
      "extensions": {
        "KHR_materials_unlit": {}
      },
      "alphaMode": "MASK"
    },
    {
      "name": "c07_road_lm1",
      "pbrMetallicRoughness": {
        "baseColorTexture": {
          "index": 13
        },
        "metallicFactor": 0
      },
      "extensions": {
        "KHR_materials_unlit": {}
      },
      "alphaMode": "MASK"
    },
    {
      "name": "c07_road_r_lm7",
      "pbrMetallicRoughness": {
        "baseColorTexture": {
          "index": 14
        },
        "metallicFactor": 0
      },
      "extensions": {
        "KHR_materials_unlit": {}
      },
      "alphaMode": "MASK"
    },
    {
      "name": "c07_road_u_lm7",
      "pbrMetallicRoughness": {
        "baseColorTexture": {
          "index": 15
        },
        "metallicFactor": 0
      },
      "extensions": {
        "KHR_materials_unlit": {}
      },
      "alphaMode": "MASK"
    },
    {
      "name": "imped_lm60",
      "pbrMetallicRoughness": {
        "baseColorTexture": {
          "index": 16
        },
        "metallicFactor": 0
      },
      "extensions": {
        "KHR_materials_unlit": {}
      },
      "alphaMode": "MASK"
    },
    {
      "name": "newstep_lm39",
      "pbrMetallicRoughness": {
        "baseColorTexture": {
          "index": 17
        },
        "metallicFactor": 0
      },
      "extensions": {
        "KHR_materials_unlit": {}
      }
    },
    {
      "name": "ngrass_lm48",
      "pbrMetallicRoughness": {
        "baseColorTexture": {
          "index": 18
        },
        "metallicFactor": 0
      },
      "extensions": {
        "KHR_materials_unlit": {}
      }
    },
    {
      "name": "sea_lm54",
      "pbrMetallicRoughness": {
        "baseColorTexture": {
          "index": 19
        },
        "metallicFactor": 0
      },
      "extensions": {
        "KHR_materials_unlit": {}
      }
    },
    {
      "name": "seaside3_lm64",
      "pbrMetallicRoughness": {
        "baseColorTexture": {
          "index": 20
        },
        "metallicFactor": 0
      },
      "extensions": {
        "KHR_materials_unlit": {}
      },
      "alphaMode": "MASK"
    },
    {
      "name": "tree2_01_lm19",
      "pbrMetallicRoughness": {
        "baseColorTexture": {
          "index": 21
        },
        "metallicFactor": 0
      },
      "extensions": {
        "KHR_materials_unlit": {}
      },
      "alphaMode": "MASK"
    },
    {
      "name": "tshadow_lm21",
      "pbrMetallicRoughness": {
        "baseColorTexture": {
          "index": 22
        },
        "metallicFactor": 0
      },
      "extensions": {
        "KHR_materials_unlit": {}
      }
    }
  ],
  "buffers": [
    {
      "byteLength": 102556,
      "uri": "map22_18c.bin"
    }
  ]
}