{
  "asset": {
    "version": "2.0"
  },
  "bufferViews": [
    {
      "buffer": 0,
      "byteLength": 1056,
      "byteOffset": 0
    },
    {
      "buffer": 0,
      "byteLength": 704,
      "byteOffset": 1056
    },
    {
      "buffer": 0,
      "byteLength": 352,
      "byteStride": 4,
      "byteOffset": 1760
    },
    {
      "buffer": 0,
      "byteOffset": 2112,
      "byteStride": 4,
      "byteLength": 352
    },
    {
      "buffer": 0,
      "byteOffset": 2464,
      "byteStride": 4,
      "byteLength": 352
    },
    {
      "buffer": 0,
      "byteLength": 228,
      "byteOffset": 2816
    },
    {
      "buffer": 0,
      "byteLength": 64,
      "byteOffset": 3044
    }
  ],
  "accessors": [
    {
      "bufferView": 0,
      "type": "VEC3",
      "componentType": 5126,
      "count": 88,
      "min": [
        -12.8408203125,
        6.3916015625,
        -14.2353515625
      ],
      "max": [
        12.8408203125,
        16.8486328125,
        10.5703125
      ]
    },
    {
      "bufferView": 1,
      "type": "VEC2",
      "componentType": 5126,
      "count": 88
    },
    {
      "bufferView": 2,
      "type": "VEC3",
      "componentType": 5121,
      "normalized": true,
      "count": 88
    },
    {
      "bufferView": 3,
      "type": "VEC4",
      "componentType": 5121,
      "count": 88
    },
    {
      "bufferView": 4,
      "type": "VEC4",
      "componentType": 5121,
      "normalized": true,
      "count": 88
    },
    {
      "bufferView": 5,
      "type": "SCALAR",
      "byteOffset": 0,
      "componentType": 5123,
      "count": 114
    },
    {
      "bufferView": 6,
      "type": "MAT4",
      "componentType": 5126,
      "count": 1
    }
  ],
  "extensionsUsed": [
    "FB_ngon_encoding",
    "KHR_materials_unlit"
  ],
  "meshes": [
    {
      "primitives": [
        {
          "attributes": {
            "POSITION": 0,
            "TEXCOORD_0": 1,
            "COLOR_0": 2,
            "JOINTS_0": 3,
            "WEIGHTS_0": 4
          },
          "material": 0,
          "indices": 5,
          "extensions": {
            "FB_ngon_encoding": {}
          }
        }
      ],
      "name": "ug_troph_20"
    }
  ],
  "nodes": [
    {
      "name": "a"
    },
    {
      "mesh": 0,
      "skin": 0,
      "name": "ug_troph_20",
      "children": [
        0
      ]
    }
  ],
  "skins": [
    {
      "skeleton": 0,
      "joints": [
        0
      ],
      "inverseBindMatrices": 6
    }
  ],
  "scenes": [
    {
      "nodes": [
        1
      ],
      "name": "ug_troph_20"
    }
  ],
  "scene": 0,
  "samplers": [
    {
      "wrapS": 10497,
      "wrapT": 10497,
      "magFilter": 9728,
      "minFilter": 9728
    }
  ],
  "images": [
    {
      "uri": "rbc.png"
    }
  ],
  "textures": [
    {
      "source": 0,
      "sampler": 0
    }
  ],
  "materials": [
    {
      "name": "rbc_lm2",
      "pbrMetallicRoughness": {
        "baseColorTexture": {
          "index": 0
        },
        "metallicFactor": 0,
        "baseColorFactor": [
          1,
          1,
          1,
          0.8709677457809448
        ]
      },
      "extensions": {
        "KHR_materials_unlit": {}
      },
      "alphaMode": "BLEND",
      "doubleSided": true
    }
  ],
  "buffers": [
    {
      "byteLength": 3108,
      "uri": "ug_troph_20.bin"
    }
  ]
}