{
  "asset": {
    "version": "2.0"
  },
  "bufferViews": [
    {
      "buffer": 0,
      "byteLength": 3792,
      "byteOffset": 0
    },
    {
      "buffer": 0,
      "byteLength": 2528,
      "byteOffset": 3792
    },
    {
      "buffer": 0,
      "byteLength": 1264,
      "byteStride": 4,
      "byteOffset": 6320
    },
    {
      "buffer": 0,
      "byteOffset": 7584,
      "byteStride": 4,
      "byteLength": 1264
    },
    {
      "buffer": 0,
      "byteOffset": 8848,
      "byteStride": 4,
      "byteLength": 1264
    },
    {
      "buffer": 0,
      "byteLength": 1284,
      "byteOffset": 10112
    },
    {
      "buffer": 0,
      "byteLength": 64,
      "byteOffset": 11396
    }
  ],
  "accessors": [
    {
      "bufferView": 0,
      "type": "VEC3",
      "componentType": 5126,
      "count": 316,
      "min": [
        -246,
        -2,
        -222
      ],
      "max": [
        -154,
        46,
        -144
      ]
    },
    {
      "bufferView": 1,
      "type": "VEC2",
      "componentType": 5126,
      "count": 316
    },
    {
      "bufferView": 2,
      "type": "VEC3",
      "componentType": 5121,
      "normalized": true,
      "count": 316
    },
    {
      "bufferView": 3,
      "type": "VEC4",
      "componentType": 5121,
      "count": 316
    },
    {
      "bufferView": 4,
      "type": "VEC4",
      "componentType": 5121,
      "normalized": true,
      "count": 316
    },
    {
      "bufferView": 5,
      "type": "SCALAR",
      "byteOffset": 0,
      "componentType": 5123,
      "count": 18
    },
    {
      "bufferView": 5,
      "type": "SCALAR",
      "byteOffset": 36,
      "componentType": 5123,
      "count": 24
    },
    {
      "bufferView": 5,
      "type": "SCALAR",
      "byteOffset": 84,
      "componentType": 5123,
      "count": 48
    },
    {
      "bufferView": 5,
      "type": "SCALAR",
      "byteOffset": 180,
      "componentType": 5123,
      "count": 60
    },
    {
      "bufferView": 5,
      "type": "SCALAR",
      "byteOffset": 300,
      "componentType": 5123,
      "count": 66
    },
    {
      "bufferView": 5,
      "type": "SCALAR",
      "byteOffset": 432,
      "componentType": 5123,
      "count": 426
    },
    {
      "bufferView": 6,
      "type": "MAT4",
      "componentType": 5126,
      "count": 1
    }
  ],
  "extensionsUsed": [
    "FB_ngon_encoding",
    "KHR_materials_unlit"
  ],
  "meshes": [
    {
      "primitives": [
        {
          "attributes": {
            "POSITION": 0,
            "TEXCOORD_0": 1,
            "COLOR_0": 2,
            "JOINTS_0": 3,
            "WEIGHTS_0": 4
          },
          "material": 4,
          "indices": 5,
          "extensions": {
            "FB_ngon_encoding": {}
          }
        },
        {
          "attributes": {
            "POSITION": 0,
            "TEXCOORD_0": 1,
            "COLOR_0": 2,
            "JOINTS_0": 3,
            "WEIGHTS_0": 4
          },
          "material": 1,
          "indices": 6,
          "extensions": {
            "FB_ngon_encoding": {}
          }
        },
        {
          "attributes": {
            "POSITION": 0,
            "TEXCOORD_0": 1,
            "COLOR_0": 2,
            "JOINTS_0": 3,
            "WEIGHTS_0": 4
          },
          "material": 5,
          "indices": 7,
          "extensions": {
            "FB_ngon_encoding": {}
          }
        },
        {
          "attributes": {
            "POSITION": 0,
            "TEXCOORD_0": 1,
            "COLOR_0": 2,
            "JOINTS_0": 3,
            "WEIGHTS_0": 4
          },
          "material": 2,
          "indices": 8,
          "extensions": {
            "FB_ngon_encoding": {}
          }
        },
        {
          "attributes": {
            "POSITION": 0,
            "TEXCOORD_0": 1,
            "COLOR_0": 2,
            "JOINTS_0": 3,
            "WEIGHTS_0": 4
          },
          "material": 0,
          "indices": 9,
          "extensions": {
            "FB_ngon_encoding": {}
          }
        },
        {
          "attributes": {
            "POSITION": 0,
            "TEXCOORD_0": 1,
            "COLOR_0": 2,
            "JOINTS_0": 3,
            "WEIGHTS_0": 4
          },
          "material": 3,
          "indices": 10,
          "extensions": {
            "FB_ngon_encoding": {}
          }
        }
      ],
      "name": "m_ev01_00_00c"
    }
  ],
  "nodes": [
    {
      "name": "polySurface1"
    },
    {
      "mesh": 0,
      "skin": 0,
      "name": "m_ev01_00_00c",
      "children": [
        0
      ]
    }
  ],
  "skins": [
    {
      "skeleton": 0,
      "joints": [
        0
      ],
      "inverseBindMatrices": 11
    }
  ],
  "scenes": [
    {
      "nodes": [
        1
      ],
      "name": "m_ev01_00_00c"
    }
  ],
  "scene": 0,
  "samplers": [
    {
      "wrapS": 10497,
      "wrapT": 10497,
      "magFilter": 9728,
      "minFilter": 9728
    },
    {
      "wrapS": 33071,
      "wrapT": 33071,
      "magFilter": 9728,
      "minFilter": 9728
    },
    {
      "wrapS": 10497,
      "wrapT": 33071,
      "magFilter": 9728,
      "minFilter": 9728
    }
  ],
  "images": [
    {
      "uri": "elev_a.png"
    },
    {
      "uri": "elev_b.png"
    },
    {
      "uri": "elev_c.png"
    },
    {
      "uri": "elev_d.png"
    },
    {
      "uri": "elev_e.png"
    },
    {
      "uri": "elev_f.png"
    }
  ],
  "textures": [
    {
      "source": 0,
      "sampler": 0
    },
    {
      "source": 1,
      "sampler": 1
    },
    {
      "source": 2,
      "sampler": 0
    },
    {
      "source": 3,
      "sampler": 2
    },
    {
      "source": 4,
      "sampler": 0
    },
    {
      "source": 5,
      "sampler": 0
    }
  ],
  "materials": [
    {
      "name": "elev_a",
      "pbrMetallicRoughness": {
        "baseColorTexture": {
          "index": 0
        },
        "metallicFactor": 0
      },
      "extensions": {
        "KHR_materials_unlit": {}
      }
    },
    {
      "name": "elev_b",
      "pbrMetallicRoughness": {
        "baseColorTexture": {
          "index": 1
        },
        "metallicFactor": 0
      },
      "extensions": {
        "KHR_materials_unlit": {}
      }
    },
    {
      "name": "elev_c",
      "pbrMetallicRoughness": {
        "baseColorTexture": {
          "index": 2
        },
        "metallicFactor": 0
      },
      "extensions": {
        "KHR_materials_unlit": {}
      }
    },
    {
      "name": "elev_d",
      "pbrMetallicRoughness": {
        "baseColorTexture": {
          "index": 3
        },
        "metallicFactor": 0
      },
      "extensions": {
        "KHR_materials_unlit": {}
      }
    },
    {
      "name": "elev_e",
      "pbrMetallicRoughness": {
        "baseColorTexture": {
          "index": 4
        },
        "metallicFactor": 0
      },
      "extensions": {
        "KHR_materials_unlit": {}
      },
      "alphaMode": "BLEND"
    },
    {
      "name": "elev_f",
      "pbrMetallicRoughness": {
        "baseColorTexture": {
          "index": 5
        },
        "metallicFactor": 0
      },
      "extensions": {
        "KHR_materials_unlit": {}
      }
    }
  ],
  "buffers": [
    {
      "byteLength": 11460,
      "uri": "m_ev01_00_00c.bin"
    }
  ]
}