{
  "asset": {
    "version": "2.0"
  },
  "bufferViews": [
    {
      "buffer": 0,
      "byteLength": 48,
      "byteOffset": 0
    },
    {
      "buffer": 0,
      "byteLength": 32,
      "byteOffset": 48
    },
    {
      "buffer": 0,
      "byteLength": 16,
      "byteStride": 4,
      "byteOffset": 80
    },
    {
      "buffer": 0,
      "byteOffset": 96,
      "byteStride": 4,
      "byteLength": 16
    },
    {
      "buffer": 0,
      "byteOffset": 112,
      "byteStride": 4,
      "byteLength": 16
    },
    {
      "buffer": 0,
      "byteLength": 12,
      "byteOffset": 128
    },
    {
      "buffer": 0,
      "byteLength": 64,
      "byteOffset": 140
    },
    {
      "buffer": 0,
      "byteLength": 1988,
      "byteOffset": 204
    },
    {
      "buffer": 0,
      "byteOffset": 2192,
      "byteLength": 284
    }
  ],
  "accessors": [
    {
      "bufferView": 0,
      "type": "VEC3",
      "componentType": 5126,
      "count": 4,
      "min": [
        -1.5,
        77.5,
        0
      ],
      "max": [
        1.5,
        80.5,
        0
      ]
    },
    {
      "bufferView": 1,
      "type": "VEC2",
      "componentType": 5126,
      "count": 4
    },
    {
      "bufferView": 2,
      "type": "VEC3",
      "componentType": 5121,
      "normalized": true,
      "count": 4
    },
    {
      "bufferView": 3,
      "type": "VEC4",
      "componentType": 5121,
      "count": 4
    },
    {
      "bufferView": 4,
      "type": "VEC4",
      "componentType": 5121,
      "normalized": true,
      "count": 4
    },
    {
      "bufferView": 5,
      "type": "SCALAR",
      "byteOffset": 0,
      "componentType": 5123,
      "count": 6
    },
    {
      "bufferView": 6,
      "type": "MAT4",
      "componentType": 5126,
      "count": 1
    },
    {
      "bufferView": 8,
      "type": "SCALAR",
      "componentType": 5126,
      "byteOffset": 0,
      "count": 71,
      "min": [
        0
      ],
      "max": [
        1.1666667461395264
      ]
    },
    {
      "bufferView": 7,
      "type": "VEC3",
      "componentType": 5126,
      "byteOffset": 0,
      "count": 71
    },
    {
      "bufferView": 7,
      "type": "VEC4",
      "componentType": 5126,
      "byteOffset": 852,
      "count": 71
    }
  ],
  "extensionsUsed": [
    "FB_ngon_encoding",
    "KHR_materials_unlit"
  ],
  "meshes": [
    {
      "primitives": [
        {
          "attributes": {
            "POSITION": 0,
            "TEXCOORD_0": 1,
            "COLOR_0": 2,
            "JOINTS_0": 3,
            "WEIGHTS_0": 4
          },
          "material": 0,
          "indices": 5,
          "extensions": {
            "FB_ngon_encoding": {}
          }
        }
      ],
      "name": "kami_mizu"
    }
  ],
  "nodes": [
    {
      "name": "pPlane1",
      "translation": [
        0,
        79,
        0
      ]
    },
    {
      "mesh": 0,
      "skin": 0,
      "name": "kami_mizu",
      "children": [
        0
      ]
    }
  ],
  "skins": [
    {
      "skeleton": 0,
      "joints": [
        0
      ],
      "inverseBindMatrices": 6
    }
  ],
  "scenes": [
    {
      "nodes": [
        1
      ],
      "name": "kami_mizu"
    }
  ],
  "scene": 0,
  "animations": [
    {
      "name": "kami_mizu",
      "samplers": [
        {
          "input": 7,
          "output": 8
        },
        {
          "input": 7,
          "output": 9
        }
      ],
      "channels": [
        {
          "target": {
            "node": 0,
            "path": "translation"
          },
          "sampler": 0
        },
        {
          "target": {
            "node": 0,
            "path": "rotation"
          },
          "sampler": 1
        }
      ]
    }
  ],
  "samplers": [
    {
      "wrapS": 10497,
      "wrapT": 10497,
      "magFilter": 9728,
      "minFilter": 9728
    }
  ],
  "images": [
    {
      "uri": "kami_mizu.png"
    }
  ],
  "textures": [
    {
      "source": 0,
      "sampler": 0
    }
  ],
  "materials": [
    {
      "name": "kami",
      "pbrMetallicRoughness": {
        "baseColorTexture": {
          "index": 0
        },
        "metallicFactor": 0
      },
      "extensions": {
        "KHR_materials_unlit": {}
      },
      "alphaMode": "BLEND",
      "doubleSided": true
    }
  ],
  "buffers": [
    {
      "byteLength": 2476,
      "uri": "kami_mizu.bin"
    }
  ]
}