{
  "asset": {
    "version": "2.0"
  },
  "bufferViews": [
    {
      "buffer": 0,
      "byteLength": 5664,
      "byteOffset": 0
    },
    {
      "buffer": 0,
      "byteLength": 3776,
      "byteOffset": 5664
    },
    {
      "buffer": 0,
      "byteLength": 1888,
      "byteStride": 4,
      "byteOffset": 9440
    },
    {
      "buffer": 0,
      "byteLength": 5664,
      "byteOffset": 11328
    },
    {
      "buffer": 0,
      "byteOffset": 16992,
      "byteStride": 4,
      "byteLength": 1888
    },
    {
      "buffer": 0,
      "byteOffset": 18880,
      "byteStride": 4,
      "byteLength": 1888
    },
    {
      "buffer": 0,
      "byteLength": 1452,
      "byteOffset": 20768
    },
    {
      "buffer": 0,
      "byteLength": 64,
      "byteOffset": 22220
    }
  ],
  "accessors": [
    {
      "bufferView": 0,
      "type": "VEC3",
      "componentType": 5126,
      "count": 472,
      "min": [
        -56,
        1,
        -58
      ],
      "max": [
        63,
        115.2421875,
        59
      ]
    },
    {
      "bufferView": 1,
      "type": "VEC2",
      "componentType": 5126,
      "count": 472
    },
    {
      "bufferView": 2,
      "type": "VEC3",
      "componentType": 5121,
      "normalized": true,
      "count": 472
    },
    {
      "bufferView": 3,
      "type": "VEC3",
      "componentType": 5126,
      "count": 472
    },
    {
      "bufferView": 4,
      "type": "VEC4",
      "componentType": 5121,
      "count": 472
    },
    {
      "bufferView": 5,
      "type": "VEC4",
      "componentType": 5121,
      "normalized": true,
      "count": 472
    },
    {
      "bufferView": 6,
      "type": "SCALAR",
      "byteOffset": 0,
      "componentType": 5123,
      "count": 18
    },
    {
      "bufferView": 6,
      "type": "SCALAR",
      "byteOffset": 36,
      "componentType": 5123,
      "count": 48
    },
    {
      "bufferView": 6,
      "type": "SCALAR",
      "byteOffset": 132,
      "componentType": 5123,
      "count": 192
    },
    {
      "bufferView": 6,
      "type": "SCALAR",
      "byteOffset": 516,
      "componentType": 5123,
      "count": 468
    },
    {
      "bufferView": 7,
      "type": "MAT4",
      "componentType": 5126,
      "count": 1
    }
  ],
  "extensionsUsed": [
    "FB_ngon_encoding",
    "KHR_materials_unlit"
  ],
  "meshes": [
    {
      "primitives": [
        {
          "attributes": {
            "POSITION": 0,
            "TEXCOORD_0": 1,
            "COLOR_0": 2,
            "NORMAL": 3,
            "JOINTS_0": 4,
            "WEIGHTS_0": 5
          },
          "material": 3,
          "indices": 6,
          "extensions": {
            "FB_ngon_encoding": {}
          }
        },
        {
          "attributes": {
            "POSITION": 0,
            "TEXCOORD_0": 1,
            "COLOR_0": 2,
            "NORMAL": 3,
            "JOINTS_0": 4,
            "WEIGHTS_0": 5
          },
          "material": 2,
          "indices": 7,
          "extensions": {
            "FB_ngon_encoding": {}
          }
        },
        {
          "attributes": {
            "POSITION": 0,
            "TEXCOORD_0": 1,
            "COLOR_0": 2,
            "NORMAL": 3,
            "JOINTS_0": 4,
            "WEIGHTS_0": 5
          },
          "material": 0,
          "indices": 8,
          "extensions": {
            "FB_ngon_encoding": {}
          }
        },
        {
          "attributes": {
            "POSITION": 0,
            "TEXCOORD_0": 1,
            "COLOR_0": 2,
            "NORMAL": 3,
            "JOINTS_0": 4,
            "WEIGHTS_0": 5
          },
          "material": 1,
          "indices": 9,
          "extensions": {
            "FB_ngon_encoding": {}
          }
        }
      ],
      "name": "d2_s02"
    }
  ],
  "nodes": [
    {
      "name": "polySurface8"
    },
    {
      "mesh": 0,
      "skin": 0,
      "name": "d2_s02",
      "children": [
        0
      ]
    }
  ],
  "skins": [
    {
      "skeleton": 0,
      "joints": [
        0
      ],
      "inverseBindMatrices": 10
    }
  ],
  "scenes": [
    {
      "nodes": [
        1
      ],
      "name": "d2_s02"
    }
  ],
  "scene": 0,
  "samplers": [
    {
      "wrapS": 10497,
      "wrapT": 10497,
      "magFilter": 9728,
      "minFilter": 9728
    }
  ],
  "images": [
    {
      "uri": "d2_s02_a.png"
    },
    {
      "uri": "d2_s02_b.png"
    },
    {
      "uri": "h_kage.png"
    },
    {
      "uri": "h_mado.png"
    }
  ],
  "textures": [
    {
      "source": 0,
      "sampler": 0
    },
    {
      "source": 1,
      "sampler": 0
    },
    {
      "source": 2,
      "sampler": 0
    },
    {
      "source": 3,
      "sampler": 0
    }
  ],
  "materials": [
    {
      "name": "d2_s02_a",
      "pbrMetallicRoughness": {
        "baseColorTexture": {
          "index": 0
        },
        "metallicFactor": 0
      },
      "extensions": {
        "KHR_materials_unlit": {}
      },
      "alphaMode": "MASK"
    },
    {
      "name": "d2_s02_b",
      "pbrMetallicRoughness": {
        "baseColorTexture": {
          "index": 1
        },
        "metallicFactor": 0
      },
      "extensions": {
        "KHR_materials_unlit": {}
      },
      "alphaMode": "MASK"
    },
    {
      "name": "h_kage",
      "pbrMetallicRoughness": {
        "baseColorTexture": {
          "index": 2
        },
        "metallicFactor": 0,
        "baseColorFactor": [
          1,
          1,
          1,
          0.29032257199287417
        ]
      },
      "extensions": {
        "KHR_materials_unlit": {}
      },
      "alphaMode": "BLEND"
    },
    {
      "name": "h_mado",
      "pbrMetallicRoughness": {
        "baseColorTexture": {
          "index": 3
        },
        "metallicFactor": 0
      },
      "extensions": {
        "KHR_materials_unlit": {}
      }
    }
  ],
  "buffers": [
    {
      "byteLength": 22284,
      "uri": "d2_s02.bin"
    }
  ]
}