{
  "asset": {
    "version": "2.0"
  },
  "bufferViews": [
    {
      "buffer": 0,
      "byteLength": 3768,
      "byteOffset": 0
    },
    {
      "buffer": 0,
      "byteLength": 2512,
      "byteOffset": 3768
    },
    {
      "buffer": 0,
      "byteLength": 1256,
      "byteStride": 4,
      "byteOffset": 6280
    },
    {
      "buffer": 0,
      "byteLength": 3768,
      "byteOffset": 7536
    },
    {
      "buffer": 0,
      "byteOffset": 11304,
      "byteStride": 4,
      "byteLength": 1256
    },
    {
      "buffer": 0,
      "byteOffset": 12560,
      "byteStride": 4,
      "byteLength": 1256
    },
    {
      "buffer": 0,
      "byteLength": 1584,
      "byteOffset": 13816
    },
    {
      "buffer": 0,
      "byteLength": 64,
      "byteOffset": 15400
    }
  ],
  "accessors": [
    {
      "bufferView": 0,
      "type": "VEC3",
      "componentType": 5126,
      "count": 314,
      "min": [
        -9.60009765625,
        -9.5634765625,
        -9.5634765625
      ],
      "max": [
        9.60009765625,
        9.5634765625,
        9.5634765625
      ]
    },
    {
      "bufferView": 1,
      "type": "VEC2",
      "componentType": 5126,
      "count": 314
    },
    {
      "bufferView": 2,
      "type": "VEC3",
      "componentType": 5121,
      "normalized": true,
      "count": 314
    },
    {
      "bufferView": 3,
      "type": "VEC3",
      "componentType": 5126,
      "count": 314
    },
    {
      "bufferView": 4,
      "type": "VEC4",
      "componentType": 5121,
      "count": 314
    },
    {
      "bufferView": 5,
      "type": "VEC4",
      "componentType": 5121,
      "normalized": true,
      "count": 314
    },
    {
      "bufferView": 6,
      "type": "SCALAR",
      "byteOffset": 0,
      "componentType": 5123,
      "count": 792
    },
    {
      "bufferView": 7,
      "type": "MAT4",
      "componentType": 5126,
      "count": 1
    }
  ],
  "extensionsUsed": [
    "FB_ngon_encoding",
    "KHR_materials_unlit"
  ],
  "meshes": [
    {
      "primitives": [
        {
          "attributes": {
            "POSITION": 0,
            "TEXCOORD_0": 1,
            "COLOR_0": 2,
            "NORMAL": 3,
            "JOINTS_0": 4,
            "WEIGHTS_0": 5
          },
          "material": 0,
          "indices": 6,
          "extensions": {
            "FB_ngon_encoding": {}
          }
        }
      ],
      "name": "trade_psel"
    }
  ],
  "nodes": [
    {
      "name": "psel_mb_a"
    },
    {
      "mesh": 0,
      "skin": 0,
      "name": "trade_psel",
      "children": [
        0
      ]
    }
  ],
  "skins": [
    {
      "skeleton": 0,
      "joints": [
        0
      ],
      "inverseBindMatrices": 7
    }
  ],
  "scenes": [
    {
      "nodes": [
        1
      ],
      "name": "trade_psel"
    }
  ],
  "scene": 0,
  "samplers": [
    {
      "wrapS": 10497,
      "wrapT": 10497,
      "magFilter": 9728,
      "minFilter": 9728
    }
  ],
  "images": [
    {
      "uri": "op_mb.png"
    }
  ],
  "textures": [
    {
      "source": 0,
      "sampler": 0
    }
  ],
  "materials": [
    {
      "name": "op_mb",
      "pbrMetallicRoughness": {
        "baseColorTexture": {
          "index": 0
        },
        "metallicFactor": 0
      },
      "extensions": {
        "KHR_materials_unlit": {}
      }
    }
  ],
  "buffers": [
    {
      "byteLength": 15464,
      "uri": "trade_psel.bin"
    }
  ]
}