{
  "asset": {
    "version": "2.0"
  },
  "bufferViews": [
    {
      "buffer": 0,
      "byteLength": 1956,
      "byteOffset": 0
    },
    {
      "buffer": 0,
      "byteLength": 1304,
      "byteOffset": 1956
    },
    {
      "buffer": 0,
      "byteLength": 652,
      "byteStride": 4,
      "byteOffset": 3260
    },
    {
      "buffer": 0,
      "byteOffset": 3912,
      "byteStride": 4,
      "byteLength": 652
    },
    {
      "buffer": 0,
      "byteOffset": 4564,
      "byteStride": 4,
      "byteLength": 652
    },
    {
      "buffer": 0,
      "byteLength": 462,
      "byteOffset": 5216
    },
    {
      "buffer": 0,
      "byteLength": 64,
      "byteOffset": 5680
    }
  ],
  "accessors": [
    {
      "bufferView": 0,
      "type": "VEC3",
      "componentType": 5126,
      "count": 163,
      "min": [
        -240,
        -2,
        -214
      ],
      "max": [
        -96,
        46,
        -112
      ]
    },
    {
      "bufferView": 1,
      "type": "VEC2",
      "componentType": 5126,
      "count": 163
    },
    {
      "bufferView": 2,
      "type": "VEC3",
      "componentType": 5121,
      "normalized": true,
      "count": 163
    },
    {
      "bufferView": 3,
      "type": "VEC4",
      "componentType": 5121,
      "count": 163
    },
    {
      "bufferView": 4,
      "type": "VEC4",
      "componentType": 5121,
      "normalized": true,
      "count": 163
    },
    {
      "bufferView": 5,
      "type": "SCALAR",
      "byteOffset": 0,
      "componentType": 5123,
      "count": 24
    },
    {
      "bufferView": 5,
      "type": "SCALAR",
      "byteOffset": 48,
      "componentType": 5123,
      "count": 30
    },
    {
      "bufferView": 5,
      "type": "SCALAR",
      "byteOffset": 108,
      "componentType": 5123,
      "count": 42
    },
    {
      "bufferView": 5,
      "type": "SCALAR",
      "byteOffset": 192,
      "componentType": 5123,
      "count": 63
    },
    {
      "bufferView": 5,
      "type": "SCALAR",
      "byteOffset": 318,
      "componentType": 5123,
      "count": 72
    },
    {
      "bufferView": 6,
      "type": "MAT4",
      "componentType": 5126,
      "count": 1
    }
  ],
  "extensionsUsed": [
    "FB_ngon_encoding",
    "KHR_materials_unlit"
  ],
  "meshes": [
    {
      "primitives": [
        {
          "attributes": {
            "POSITION": 0,
            "TEXCOORD_0": 1,
            "COLOR_0": 2,
            "JOINTS_0": 3,
            "WEIGHTS_0": 4
          },
          "material": 2,
          "indices": 5,
          "extensions": {
            "FB_ngon_encoding": {}
          }
        },
        {
          "attributes": {
            "POSITION": 0,
            "TEXCOORD_0": 1,
            "COLOR_0": 2,
            "JOINTS_0": 3,
            "WEIGHTS_0": 4
          },
          "material": 3,
          "indices": 6,
          "extensions": {
            "FB_ngon_encoding": {}
          }
        },
        {
          "attributes": {
            "POSITION": 0,
            "TEXCOORD_0": 1,
            "COLOR_0": 2,
            "JOINTS_0": 3,
            "WEIGHTS_0": 4
          },
          "material": 0,
          "indices": 7,
          "extensions": {
            "FB_ngon_encoding": {}
          }
        },
        {
          "attributes": {
            "POSITION": 0,
            "TEXCOORD_0": 1,
            "COLOR_0": 2,
            "JOINTS_0": 3,
            "WEIGHTS_0": 4
          },
          "material": 4,
          "indices": 8,
          "extensions": {
            "FB_ngon_encoding": {}
          }
        },
        {
          "attributes": {
            "POSITION": 0,
            "TEXCOORD_0": 1,
            "COLOR_0": 2,
            "JOINTS_0": 3,
            "WEIGHTS_0": 4
          },
          "material": 1,
          "indices": 9,
          "extensions": {
            "FB_ngon_encoding": {}
          }
        }
      ],
      "name": "m_fmark_00_00c"
    }
  ],
  "nodes": [
    {
      "name": "polySurface2"
    },
    {
      "mesh": 0,
      "skin": 0,
      "name": "m_fmark_00_00c",
      "children": [
        0
      ]
    }
  ],
  "skins": [
    {
      "skeleton": 0,
      "joints": [
        0
      ],
      "inverseBindMatrices": 10
    }
  ],
  "scenes": [
    {
      "nodes": [
        1
      ],
      "name": "m_fmark_00_00c"
    }
  ],
  "scene": 0,
  "samplers": [
    {
      "wrapS": 10497,
      "wrapT": 10497,
      "magFilter": 9728,
      "minFilter": 9728
    }
  ],
  "images": [
    {
      "uri": "fmark_carpet01_1.png"
    },
    {
      "uri": "fmark_carpet01_2.png"
    },
    {
      "uri": "fmark_floor01.png"
    },
    {
      "uri": "fmark_foot01.png"
    },
    {
      "uri": "fmark_wall01.png"
    }
  ],
  "textures": [
    {
      "source": 0,
      "sampler": 0
    },
    {
      "source": 1,
      "sampler": 0
    },
    {
      "source": 2,
      "sampler": 0
    },
    {
      "source": 3,
      "sampler": 0
    },
    {
      "source": 4,
      "sampler": 0
    }
  ],
  "materials": [
    {
      "name": "carpet01_1mat",
      "pbrMetallicRoughness": {
        "baseColorTexture": {
          "index": 0
        },
        "metallicFactor": 0
      },
      "extensions": {
        "KHR_materials_unlit": {}
      }
    },
    {
      "name": "carpet01_2mat",
      "pbrMetallicRoughness": {
        "baseColorTexture": {
          "index": 1
        },
        "metallicFactor": 0
      },
      "extensions": {
        "KHR_materials_unlit": {}
      }
    },
    {
      "name": "floor01_mat",
      "pbrMetallicRoughness": {
        "baseColorTexture": {
          "index": 2
        },
        "metallicFactor": 0
      },
      "extensions": {
        "KHR_materials_unlit": {}
      }
    },
    {
      "name": "lambert8",
      "pbrMetallicRoughness": {
        "baseColorTexture": {
          "index": 3
        },
        "metallicFactor": 0
      },
      "extensions": {
        "KHR_materials_unlit": {}
      }
    },
    {
      "name": "wall01_mat",
      "pbrMetallicRoughness": {
        "baseColorTexture": {
          "index": 4
        },
        "metallicFactor": 0
      },
      "extensions": {
        "KHR_materials_unlit": {}
      }
    }
  ],
  "buffers": [
    {
      "byteLength": 5744,
      "uri": "m_fmark_00_00c.bin"
    }
  ]
}