{
  "asset": {
    "version": "2.0"
  },
  "bufferViews": [
    {
      "buffer": 0,
      "byteLength": 1872,
      "byteOffset": 0
    },
    {
      "buffer": 0,
      "byteLength": 1248,
      "byteOffset": 1872
    },
    {
      "buffer": 0,
      "byteLength": 624,
      "byteStride": 4,
      "byteOffset": 3120
    },
    {
      "buffer": 0,
      "byteLength": 1872,
      "byteOffset": 3744
    },
    {
      "buffer": 0,
      "byteOffset": 5616,
      "byteStride": 4,
      "byteLength": 624
    },
    {
      "buffer": 0,
      "byteOffset": 6240,
      "byteStride": 4,
      "byteLength": 624
    },
    {
      "buffer": 0,
      "byteLength": 864,
      "byteOffset": 6864
    },
    {
      "buffer": 0,
      "byteLength": 576,
      "byteOffset": 7728
    },
    {
      "buffer": 0,
      "byteLength": 34696,
      "byteOffset": 8304
    },
    {
      "buffer": 0,
      "byteOffset": 43000,
      "byteLength": 1444
    }
  ],
  "accessors": [
    {
      "bufferView": 0,
      "type": "VEC3",
      "componentType": 5126,
      "count": 156,
      "min": [
        -128,
        0,
        -256
      ],
      "max": [
        128,
        0,
        256
      ]
    },
    {
      "bufferView": 1,
      "type": "VEC2",
      "componentType": 5126,
      "count": 156
    },
    {
      "bufferView": 2,
      "type": "VEC3",
      "componentType": 5121,
      "normalized": true,
      "count": 156
    },
    {
      "bufferView": 3,
      "type": "VEC3",
      "componentType": 5126,
      "count": 156
    },
    {
      "bufferView": 4,
      "type": "VEC4",
      "componentType": 5121,
      "count": 156
    },
    {
      "bufferView": 5,
      "type": "VEC4",
      "componentType": 5121,
      "normalized": true,
      "count": 156
    },
    {
      "bufferView": 6,
      "type": "SCALAR",
      "byteOffset": 0,
      "componentType": 5123,
      "count": 432
    },
    {
      "bufferView": 7,
      "type": "MAT4",
      "componentType": 5126,
      "count": 9
    },
    {
      "bufferView": 9,
      "type": "SCALAR",
      "componentType": 5126,
      "byteOffset": 0,
      "count": 1,
      "min": [
        0
      ],
      "max": [
        0
      ]
    },
    {
      "bufferView": 8,
      "type": "VEC3",
      "componentType": 5126,
      "byteOffset": 0,
      "count": 1
    },
    {
      "bufferView": 8,
      "type": "VEC3",
      "componentType": 5126,
      "byteOffset": 12,
      "count": 1
    },
    {
      "bufferView": 9,
      "type": "SCALAR",
      "componentType": 5126,
      "byteOffset": 0,
      "count": 361,
      "min": [
        0
      ],
      "max": [
        6.000000476837158
      ]
    },
    {
      "bufferView": 8,
      "type": "VEC3",
      "componentType": 5126,
      "byteOffset": 24,
      "count": 361
    },
    {
      "bufferView": 8,
      "type": "VEC3",
      "componentType": 5126,
      "byteOffset": 4356,
      "count": 361
    },
    {
      "bufferView": 8,
      "type": "VEC3",
      "componentType": 5126,
      "byteOffset": 8688,
      "count": 361
    },
    {
      "bufferView": 8,
      "type": "VEC3",
      "componentType": 5126,
      "byteOffset": 13020,
      "count": 361
    },
    {
      "bufferView": 8,
      "type": "VEC3",
      "componentType": 5126,
      "byteOffset": 17352,
      "count": 361
    },
    {
      "bufferView": 8,
      "type": "VEC4",
      "componentType": 5126,
      "byteOffset": 21684,
      "count": 1
    },
    {
      "bufferView": 8,
      "type": "VEC3",
      "componentType": 5126,
      "byteOffset": 21700,
      "count": 361
    },
    {
      "bufferView": 8,
      "type": "VEC3",
      "componentType": 5126,
      "byteOffset": 26032,
      "count": 361
    },
    {
      "bufferView": 8,
      "type": "VEC3",
      "componentType": 5126,
      "byteOffset": 30364,
      "count": 361
    }
  ],
  "extensionsUsed": [
    "FB_ngon_encoding",
    "KHR_materials_unlit"
  ],
  "meshes": [
    {
      "primitives": [
        {
          "attributes": {
            "POSITION": 0,
            "TEXCOORD_0": 1,
            "COLOR_0": 2,
            "NORMAL": 3,
            "JOINTS_0": 4,
            "WEIGHTS_0": 5
          },
          "material": 0,
          "indices": 6,
          "extensions": {
            "FB_ngon_encoding": {}
          }
        }
      ],
      "name": "aritama"
    }
  ],
  "nodes": [
    {
      "children": [
        1,
        2,
        3,
        4,
        5,
        6,
        7,
        8
      ],
      "name": "joint14",
      "translation": [
        -3.454345703125,
        0,
        5.642822265625
      ]
    },
    {
      "name": "joint12",
      "translation": [
        -50.037353515625,
        0,
        150.1123046875
      ]
    },
    {
      "name": "joint10",
      "translation": [
        -63.28271484375,
        0,
        42.678955078125
      ]
    },
    {
      "name": "joint8",
      "translation": [
        -52.980712890625,
        0,
        -92.716552734375
      ]
    },
    {
      "name": "joint6",
      "translation": [
        -79.47119140625,
        0,
        -214.86669921875
      ]
    },
    {
      "name": "joint7",
      "translation": [
        67.69775390625,
        0,
        -192.791259765625
      ],
      "rotation": [
        0,
        0.9074745048467975,
        0,
        -0.42010715663156669
      ]
    },
    {
      "name": "joint13",
      "translation": [
        70.64111328125,
        0,
        148.640625
      ]
    },
    {
      "name": "joint11",
      "translation": [
        80.94287109375,
        0,
        61.81103515625
      ]
    },
    {
      "name": "joint9",
      "translation": [
        69.16943359375,
        0,
        -75.05615234375
      ]
    },
    {
      "mesh": 0,
      "skin": 0,
      "name": "aritama",
      "children": [
        0
      ]
    }
  ],
  "skins": [
    {
      "skeleton": 0,
      "joints": [
        0,
        1,
        2,
        3,
        4,
        5,
        6,
        7,
        8
      ],
      "inverseBindMatrices": 7
    }
  ],
  "scenes": [
    {
      "nodes": [
        9
      ],
      "name": "aritama"
    }
  ],
  "scene": 0,
  "animations": [
    {
      "name": "aritama",
      "samplers": [
        {
          "input": 8,
          "output": 9
        },
        {
          "input": 8,
          "output": 10
        },
        {
          "input": 11,
          "output": 12
        },
        {
          "input": 11,
          "output": 13
        },
        {
          "input": 11,
          "output": 14
        },
        {
          "input": 11,
          "output": 15
        },
        {
          "input": 11,
          "output": 16
        },
        {
          "input": 8,
          "output": 17
        },
        {
          "input": 11,
          "output": 18
        },
        {
          "input": 11,
          "output": 19
        },
        {
          "input": 11,
          "output": 20
        }
      ],
      "channels": [
        {
          "target": {
            "node": 0,
            "path": "translation"
          },
          "sampler": 0
        },
        {
          "target": {
            "node": 0,
            "path": "scale"
          },
          "sampler": 1
        },
        {
          "target": {
            "node": 1,
            "path": "translation"
          },
          "sampler": 2
        },
        {
          "target": {
            "node": 2,
            "path": "translation"
          },
          "sampler": 3
        },
        {
          "target": {
            "node": 3,
            "path": "translation"
          },
          "sampler": 4
        },
        {
          "target": {
            "node": 4,
            "path": "translation"
          },
          "sampler": 5
        },
        {
          "target": {
            "node": 5,
            "path": "translation"
          },
          "sampler": 6
        },
        {
          "target": {
            "node": 5,
            "path": "rotation"
          },
          "sampler": 7
        },
        {
          "target": {
            "node": 6,
            "path": "translation"
          },
          "sampler": 8
        },
        {
          "target": {
            "node": 7,
            "path": "translation"
          },
          "sampler": 9
        },
        {
          "target": {
            "node": 8,
            "path": "translation"
          },
          "sampler": 10
        }
      ]
    }
  ],
  "samplers": [
    {
      "wrapS": 10497,
      "wrapT": 10497,
      "magFilter": 9728,
      "minFilter": 9728
    }
  ],
  "images": [
    {
      "uri": "nagatama.png"
    }
  ],
  "textures": [
    {
      "source": 0,
      "sampler": 0
    }
  ],
  "materials": [
    {
      "name": "aritama",
      "pbrMetallicRoughness": {
        "baseColorTexture": {
          "index": 0
        },
        "metallicFactor": 0
      },
      "extensions": {
        "KHR_materials_unlit": {}
      },
      "doubleSided": true
    }
  ],
  "buffers": [
    {
      "byteLength": 44444,
      "uri": "aritama.bin"
    }
  ]
}