{
  "asset": {
    "version": "2.0"
  },
  "bufferViews": [
    {
      "buffer": 0,
      "byteLength": 17328,
      "byteOffset": 0
    },
    {
      "buffer": 0,
      "byteLength": 11552,
      "byteOffset": 17328
    },
    {
      "buffer": 0,
      "byteLength": 5776,
      "byteStride": 4,
      "byteOffset": 28880
    },
    {
      "buffer": 0,
      "byteLength": 17328,
      "byteOffset": 34656
    },
    {
      "buffer": 0,
      "byteOffset": 51984,
      "byteStride": 4,
      "byteLength": 5776
    },
    {
      "buffer": 0,
      "byteOffset": 57760,
      "byteStride": 4,
      "byteLength": 5776
    },
    {
      "buffer": 0,
      "byteLength": 4668,
      "byteOffset": 63536
    },
    {
      "buffer": 0,
      "byteLength": 64,
      "byteOffset": 68204
    }
  ],
  "accessors": [
    {
      "bufferView": 0,
      "type": "VEC3",
      "componentType": 5126,
      "count": 1444,
      "min": [
        -256,
        16,
        -257.96875
      ],
      "max": [
        260,
        154.3125,
        256
      ]
    },
    {
      "bufferView": 1,
      "type": "VEC2",
      "componentType": 5126,
      "count": 1444
    },
    {
      "bufferView": 2,
      "type": "VEC3",
      "componentType": 5121,
      "normalized": true,
      "count": 1444
    },
    {
      "bufferView": 3,
      "type": "VEC3",
      "componentType": 5126,
      "count": 1444
    },
    {
      "bufferView": 4,
      "type": "VEC4",
      "componentType": 5121,
      "count": 1444
    },
    {
      "bufferView": 5,
      "type": "VEC4",
      "componentType": 5121,
      "normalized": true,
      "count": 1444
    },
    {
      "bufferView": 6,
      "type": "SCALAR",
      "byteOffset": 0,
      "componentType": 5123,
      "count": 9
    },
    {
      "bufferView": 6,
      "type": "SCALAR",
      "byteOffset": 18,
      "componentType": 5123,
      "count": 63
    },
    {
      "bufferView": 6,
      "type": "SCALAR",
      "byteOffset": 144,
      "componentType": 5123,
      "count": 45
    },
    {
      "bufferView": 6,
      "type": "SCALAR",
      "byteOffset": 234,
      "componentType": 5123,
      "count": 144
    },
    {
      "bufferView": 6,
      "type": "SCALAR",
      "byteOffset": 522,
      "componentType": 5123,
      "count": 348
    },
    {
      "bufferView": 6,
      "type": "SCALAR",
      "byteOffset": 1218,
      "componentType": 5123,
      "count": 348
    },
    {
      "bufferView": 6,
      "type": "SCALAR",
      "byteOffset": 1914,
      "componentType": 5123,
      "count": 657
    },
    {
      "bufferView": 6,
      "type": "SCALAR",
      "byteOffset": 3228,
      "componentType": 5123,
      "count": 720
    },
    {
      "bufferView": 7,
      "type": "MAT4",
      "componentType": 5126,
      "count": 1
    }
  ],
  "extensionsUsed": [
    "FB_ngon_encoding",
    "KHR_materials_unlit"
  ],
  "meshes": [
    {
      "primitives": [
        {
          "attributes": {
            "POSITION": 0,
            "TEXCOORD_0": 1,
            "COLOR_0": 2,
            "NORMAL": 3,
            "JOINTS_0": 4,
            "WEIGHTS_0": 5
          },
          "material": 5,
          "indices": 6,
          "extensions": {
            "FB_ngon_encoding": {}
          }
        },
        {
          "attributes": {
            "POSITION": 0,
            "TEXCOORD_0": 1,
            "COLOR_0": 2,
            "NORMAL": 3,
            "JOINTS_0": 4,
            "WEIGHTS_0": 5
          },
          "material": 4,
          "indices": 7,
          "extensions": {
            "FB_ngon_encoding": {}
          }
        },
        {
          "attributes": {
            "POSITION": 0,
            "TEXCOORD_0": 1,
            "COLOR_0": 2,
            "NORMAL": 3,
            "JOINTS_0": 4,
            "WEIGHTS_0": 5
          },
          "material": 2,
          "indices": 8,
          "extensions": {
            "FB_ngon_encoding": {}
          }
        },
        {
          "attributes": {
            "POSITION": 0,
            "TEXCOORD_0": 1,
            "COLOR_0": 2,
            "NORMAL": 3,
            "JOINTS_0": 4,
            "WEIGHTS_0": 5
          },
          "material": 7,
          "indices": 9,
          "extensions": {
            "FB_ngon_encoding": {}
          }
        },
        {
          "attributes": {
            "POSITION": 0,
            "TEXCOORD_0": 1,
            "COLOR_0": 2,
            "NORMAL": 3,
            "JOINTS_0": 4,
            "WEIGHTS_0": 5
          },
          "material": 0,
          "indices": 10,
          "extensions": {
            "FB_ngon_encoding": {}
          }
        },
        {
          "attributes": {
            "POSITION": 0,
            "TEXCOORD_0": 1,
            "COLOR_0": 2,
            "NORMAL": 3,
            "JOINTS_0": 4,
            "WEIGHTS_0": 5
          },
          "material": 1,
          "indices": 11,
          "extensions": {
            "FB_ngon_encoding": {}
          }
        },
        {
          "attributes": {
            "POSITION": 0,
            "TEXCOORD_0": 1,
            "COLOR_0": 2,
            "NORMAL": 3,
            "JOINTS_0": 4,
            "WEIGHTS_0": 5
          },
          "material": 3,
          "indices": 12,
          "extensions": {
            "FB_ngon_encoding": {}
          }
        },
        {
          "attributes": {
            "POSITION": 0,
            "TEXCOORD_0": 1,
            "COLOR_0": 2,
            "NORMAL": 3,
            "JOINTS_0": 4,
            "WEIGHTS_0": 5
          },
          "material": 6,
          "indices": 13,
          "extensions": {
            "FB_ngon_encoding": {}
          }
        }
      ],
      "name": "map24_21c"
    }
  ],
  "nodes": [
    {
      "name": "polySurface1"
    },
    {
      "mesh": 0,
      "skin": 0,
      "name": "map24_21c",
      "children": [
        0
      ]
    }
  ],
  "skins": [
    {
      "skeleton": 0,
      "joints": [
        0
      ],
      "inverseBindMatrices": 14
    }
  ],
  "scenes": [
    {
      "nodes": [
        1
      ],
      "name": "map24_21c"
    }
  ],
  "scene": 0,
  "samplers": [
    {
      "wrapS": 10497,
      "wrapT": 10497,
      "magFilter": 9728,
      "minFilter": 9728
    }
  ],
  "images": [
    {
      "uri": "conttree2_b.png"
    },
    {
      "uri": "conttree2_t.png"
    },
    {
      "uri": "criff.png"
    },
    {
      "uri": "criffp.png"
    },
    {
      "uri": "criffp2.png"
    },
    {
      "uri": "ngrass.png"
    },
    {
      "uri": "tree2_01.png"
    },
    {
      "uri": "tshadow.png"
    }
  ],
  "textures": [
    {
      "source": 0,
      "sampler": 0
    },
    {
      "source": 1,
      "sampler": 0
    },
    {
      "source": 2,
      "sampler": 0
    },
    {
      "source": 3,
      "sampler": 0
    },
    {
      "source": 4,
      "sampler": 0
    },
    {
      "source": 5,
      "sampler": 0
    },
    {
      "source": 6,
      "sampler": 0
    },
    {
      "source": 7,
      "sampler": 0
    }
  ],
  "materials": [
    {
      "name": "conttree2_b_lm6",
      "pbrMetallicRoughness": {
        "baseColorTexture": {
          "index": 0
        },
        "metallicFactor": 0
      },
      "extensions": {
        "KHR_materials_unlit": {}
      },
      "alphaMode": "MASK"
    },
    {
      "name": "conttree2_t_lm6",
      "pbrMetallicRoughness": {
        "baseColorTexture": {
          "index": 1
        },
        "metallicFactor": 0
      },
      "extensions": {
        "KHR_materials_unlit": {}
      },
      "alphaMode": "MASK"
    },
    {
      "name": "criff_lm51",
      "pbrMetallicRoughness": {
        "baseColorTexture": {
          "index": 2
        },
        "metallicFactor": 0
      },
      "extensions": {
        "KHR_materials_unlit": {}
      }
    },
    {
      "name": "criffp_lm49",
      "pbrMetallicRoughness": {
        "baseColorTexture": {
          "index": 3
        },
        "metallicFactor": 0
      },
      "extensions": {
        "KHR_materials_unlit": {}
      }
    },
    {
      "name": "lambert28",
      "pbrMetallicRoughness": {
        "baseColorTexture": {
          "index": 4
        },
        "metallicFactor": 0
      },
      "extensions": {
        "KHR_materials_unlit": {}
      }
    },
    {
      "name": "ngrass_lm37",
      "pbrMetallicRoughness": {
        "baseColorTexture": {
          "index": 5
        },
        "metallicFactor": 0
      },
      "extensions": {
        "KHR_materials_unlit": {}
      }
    },
    {
      "name": "tree2_01_lm8",
      "pbrMetallicRoughness": {
        "baseColorTexture": {
          "index": 6
        },
        "metallicFactor": 0
      },
      "extensions": {
        "KHR_materials_unlit": {}
      },
      "alphaMode": "MASK"
    },
    {
      "name": "tshadow_lm10",
      "pbrMetallicRoughness": {
        "baseColorTexture": {
          "index": 7
        },
        "metallicFactor": 0
      },
      "extensions": {
        "KHR_materials_unlit": {}
      }
    }
  ],
  "buffers": [
    {
      "byteLength": 68268,
      "uri": "map24_21c.bin"
    }
  ]
}