{
  "asset": {
    "version": "2.0"
  },
  "bufferViews": [
    {
      "buffer": 0,
      "byteLength": 1728,
      "byteOffset": 0
    },
    {
      "buffer": 0,
      "byteLength": 576,
      "byteStride": 4,
      "byteOffset": 1728
    },
    {
      "buffer": 0,
      "byteLength": 1728,
      "byteOffset": 2304
    },
    {
      "buffer": 0,
      "byteOffset": 4032,
      "byteStride": 4,
      "byteLength": 576
    },
    {
      "buffer": 0,
      "byteOffset": 4608,
      "byteStride": 4,
      "byteLength": 576
    },
    {
      "buffer": 0,
      "byteLength": 816,
      "byteOffset": 5184
    },
    {
      "buffer": 0,
      "byteLength": 64,
      "byteOffset": 6000
    }
  ],
  "accessors": [
    {
      "bufferView": 0,
      "type": "VEC3",
      "componentType": 5126,
      "count": 144,
      "min": [
        -79.03515625,
        -2.02734375,
        -80.0625
      ],
      "max": [
        80.40625,
        2.02734375,
        80.0625
      ]
    },
    {
      "bufferView": 1,
      "type": "VEC3",
      "componentType": 5121,
      "normalized": true,
      "count": 144
    },
    {
      "bufferView": 2,
      "type": "VEC3",
      "componentType": 5126,
      "count": 144
    },
    {
      "bufferView": 3,
      "type": "VEC4",
      "componentType": 5121,
      "count": 144
    },
    {
      "bufferView": 4,
      "type": "VEC4",
      "componentType": 5121,
      "normalized": true,
      "count": 144
    },
    {
      "bufferView": 5,
      "type": "SCALAR",
      "byteOffset": 0,
      "componentType": 5123,
      "count": 408
    },
    {
      "bufferView": 6,
      "type": "MAT4",
      "componentType": 5126,
      "count": 1
    }
  ],
  "extensionsUsed": [
    "FB_ngon_encoding",
    "KHR_materials_unlit"
  ],
  "meshes": [
    {
      "primitives": [
        {
          "attributes": {
            "POSITION": 0,
            "COLOR_0": 1,
            "NORMAL": 2,
            "JOINTS_0": 3,
            "WEIGHTS_0": 4
          },
          "material": 0,
          "indices": 5,
          "extensions": {
            "FB_ngon_encoding": {}
          }
        }
      ],
      "name": "ring_m"
    }
  ],
  "nodes": [
    {
      "name": "pTorus2"
    },
    {
      "mesh": 0,
      "skin": 0,
      "name": "ring_m",
      "children": [
        0
      ]
    }
  ],
  "skins": [
    {
      "skeleton": 0,
      "joints": [
        0
      ],
      "inverseBindMatrices": 6
    }
  ],
  "scenes": [
    {
      "nodes": [
        1
      ],
      "name": "ring_m"
    }
  ],
  "scene": 0,
  "materials": [
    {
      "name": "lambert2",
      "extensions": {
        "KHR_materials_unlit": {}
      }
    }
  ],
  "buffers": [
    {
      "byteLength": 6064,
      "uri": "ring_m.bin"
    }
  ]
}