{
  "asset": {
    "version": "2.0"
  },
  "bufferViews": [
    {
      "buffer": 0,
      "byteLength": 3816,
      "byteOffset": 0
    },
    {
      "buffer": 0,
      "byteLength": 2544,
      "byteOffset": 3816
    },
    {
      "buffer": 0,
      "byteLength": 1272,
      "byteStride": 4,
      "byteOffset": 6360
    },
    {
      "buffer": 0,
      "byteLength": 3816,
      "byteOffset": 7632
    },
    {
      "buffer": 0,
      "byteOffset": 11448,
      "byteStride": 4,
      "byteLength": 1272
    },
    {
      "buffer": 0,
      "byteOffset": 12720,
      "byteStride": 4,
      "byteLength": 1272
    },
    {
      "buffer": 0,
      "byteLength": 1056,
      "byteOffset": 13992
    },
    {
      "buffer": 0,
      "byteLength": 64,
      "byteOffset": 15048
    }
  ],
  "accessors": [
    {
      "bufferView": 0,
      "type": "VEC3",
      "componentType": 5126,
      "count": 318,
      "min": [
        -148.4246826171875,
        -161.48080444335938,
        -148.4246826171875
      ],
      "max": [
        148.4246826171875,
        9.721511840820313,
        148.4246826171875
      ]
    },
    {
      "bufferView": 1,
      "type": "VEC2",
      "componentType": 5126,
      "count": 318
    },
    {
      "bufferView": 2,
      "type": "VEC3",
      "componentType": 5121,
      "normalized": true,
      "count": 318
    },
    {
      "bufferView": 3,
      "type": "VEC3",
      "componentType": 5126,
      "count": 318
    },
    {
      "bufferView": 4,
      "type": "VEC4",
      "componentType": 5121,
      "count": 318
    },
    {
      "bufferView": 5,
      "type": "VEC4",
      "componentType": 5121,
      "normalized": true,
      "count": 318
    },
    {
      "bufferView": 6,
      "type": "SCALAR",
      "byteOffset": 0,
      "componentType": 5123,
      "count": 48
    },
    {
      "bufferView": 6,
      "type": "SCALAR",
      "byteOffset": 96,
      "componentType": 5123,
      "count": 144
    },
    {
      "bufferView": 6,
      "type": "SCALAR",
      "byteOffset": 384,
      "componentType": 5123,
      "count": 144
    },
    {
      "bufferView": 6,
      "type": "SCALAR",
      "byteOffset": 672,
      "componentType": 5123,
      "count": 192
    },
    {
      "bufferView": 7,
      "type": "MAT4",
      "componentType": 5126,
      "count": 1
    }
  ],
  "extensionsUsed": [
    "FB_ngon_encoding",
    "KHR_materials_unlit"
  ],
  "meshes": [
    {
      "primitives": [
        {
          "attributes": {
            "POSITION": 0,
            "TEXCOORD_0": 1,
            "COLOR_0": 2,
            "NORMAL": 3,
            "JOINTS_0": 4,
            "WEIGHTS_0": 5
          },
          "material": 3,
          "indices": 6,
          "extensions": {
            "FB_ngon_encoding": {}
          }
        },
        {
          "attributes": {
            "POSITION": 0,
            "TEXCOORD_0": 1,
            "COLOR_0": 2,
            "NORMAL": 3,
            "JOINTS_0": 4,
            "WEIGHTS_0": 5
          },
          "material": 1,
          "indices": 7,
          "extensions": {
            "FB_ngon_encoding": {}
          }
        },
        {
          "attributes": {
            "POSITION": 0,
            "TEXCOORD_0": 1,
            "COLOR_0": 2,
            "NORMAL": 3,
            "JOINTS_0": 4,
            "WEIGHTS_0": 5
          },
          "material": 2,
          "indices": 8,
          "extensions": {
            "FB_ngon_encoding": {}
          }
        },
        {
          "attributes": {
            "POSITION": 0,
            "TEXCOORD_0": 1,
            "COLOR_0": 2,
            "NORMAL": 3,
            "JOINTS_0": 4,
            "WEIGHTS_0": 5
          },
          "material": 0,
          "indices": 9,
          "extensions": {
            "FB_ngon_encoding": {}
          }
        }
      ],
      "name": "maru_stage_2p"
    }
  ],
  "nodes": [
    {
      "name": "polySurface2",
      "translation": [
        0,
        -16,
        0
      ],
      "scale": [
        1.064453125,
        1.064453125,
        1.064453125
      ]
    },
    {
      "mesh": 0,
      "skin": 0,
      "name": "maru_stage_2p",
      "children": [
        0
      ]
    }
  ],
  "skins": [
    {
      "skeleton": 0,
      "joints": [
        0
      ],
      "inverseBindMatrices": 10
    }
  ],
  "scenes": [
    {
      "nodes": [
        1
      ],
      "name": "maru_stage_2p"
    }
  ],
  "scene": 0,
  "samplers": [
    {
      "wrapS": 10497,
      "wrapT": 10497,
      "magFilter": 9728,
      "minFilter": 9728
    }
  ],
  "images": [
    {
      "uri": "maru_stage.png"
    },
    {
      "uri": "maru_stage_1p.png"
    },
    {
      "uri": "maru_stage_2p.png"
    },
    {
      "uri": "maru_stage_m.png"
    }
  ],
  "textures": [
    {
      "source": 0,
      "sampler": 0
    },
    {
      "source": 1,
      "sampler": 0
    },
    {
      "source": 2,
      "sampler": 0
    },
    {
      "source": 3,
      "sampler": 0
    }
  ],
  "materials": [
    {
      "name": "maru_stage",
      "pbrMetallicRoughness": {
        "baseColorTexture": {
          "index": 0
        },
        "metallicFactor": 0
      },
      "extensions": {
        "KHR_materials_unlit": {}
      }
    },
    {
      "name": "maru_stage_1p",
      "pbrMetallicRoughness": {
        "baseColorTexture": {
          "index": 1
        },
        "metallicFactor": 0
      },
      "extensions": {
        "KHR_materials_unlit": {}
      }
    },
    {
      "name": "maru_stage_2p",
      "pbrMetallicRoughness": {
        "baseColorTexture": {
          "index": 2
        },
        "metallicFactor": 0
      },
      "extensions": {
        "KHR_materials_unlit": {}
      }
    },
    {
      "name": "maru_stage_m",
      "pbrMetallicRoughness": {
        "baseColorTexture": {
          "index": 3
        },
        "metallicFactor": 0
      },
      "extensions": {
        "KHR_materials_unlit": {}
      }
    }
  ],
  "buffers": [
    {
      "byteLength": 15112,
      "uri": "maru_stage_2p.bin"
    }
  ]
}