{
  "asset": {
    "version": "2.0"
  },
  "bufferViews": [
    {
      "buffer": 0,
      "byteLength": 13356,
      "byteOffset": 0
    },
    {
      "buffer": 0,
      "byteLength": 8904,
      "byteOffset": 13356
    },
    {
      "buffer": 0,
      "byteLength": 4452,
      "byteStride": 4,
      "byteOffset": 22260
    },
    {
      "buffer": 0,
      "byteOffset": 26712,
      "byteStride": 4,
      "byteLength": 4452
    },
    {
      "buffer": 0,
      "byteOffset": 31164,
      "byteStride": 4,
      "byteLength": 4452
    },
    {
      "buffer": 0,
      "byteLength": 3990,
      "byteOffset": 35616
    },
    {
      "buffer": 0,
      "byteLength": 64,
      "byteOffset": 39608
    }
  ],
  "accessors": [
    {
      "bufferView": 0,
      "type": "VEC3",
      "componentType": 5126,
      "count": 1113,
      "min": [
        -256,
        15,
        -256
      ],
      "max": [
        -16,
        80,
        96
      ]
    },
    {
      "bufferView": 1,
      "type": "VEC2",
      "componentType": 5126,
      "count": 1113
    },
    {
      "bufferView": 2,
      "type": "VEC3",
      "componentType": 5121,
      "normalized": true,
      "count": 1113
    },
    {
      "bufferView": 3,
      "type": "VEC4",
      "componentType": 5121,
      "count": 1113
    },
    {
      "bufferView": 4,
      "type": "VEC4",
      "componentType": 5121,
      "normalized": true,
      "count": 1113
    },
    {
      "bufferView": 5,
      "type": "SCALAR",
      "byteOffset": 0,
      "componentType": 5123,
      "count": 33
    },
    {
      "bufferView": 5,
      "type": "SCALAR",
      "byteOffset": 66,
      "componentType": 5123,
      "count": 54
    },
    {
      "bufferView": 5,
      "type": "SCALAR",
      "byteOffset": 174,
      "componentType": 5123,
      "count": 78
    },
    {
      "bufferView": 5,
      "type": "SCALAR",
      "byteOffset": 330,
      "componentType": 5123,
      "count": 114
    },
    {
      "bufferView": 5,
      "type": "SCALAR",
      "byteOffset": 558,
      "componentType": 5123,
      "count": 126
    },
    {
      "bufferView": 5,
      "type": "SCALAR",
      "byteOffset": 810,
      "componentType": 5123,
      "count": 624
    },
    {
      "bufferView": 5,
      "type": "SCALAR",
      "byteOffset": 2058,
      "componentType": 5123,
      "count": 966
    },
    {
      "bufferView": 6,
      "type": "MAT4",
      "componentType": 5126,
      "count": 1
    }
  ],
  "extensionsUsed": [
    "FB_ngon_encoding",
    "KHR_materials_unlit"
  ],
  "meshes": [
    {
      "primitives": [
        {
          "attributes": {
            "POSITION": 0,
            "TEXCOORD_0": 1,
            "COLOR_0": 2,
            "JOINTS_0": 3,
            "WEIGHTS_0": 4
          },
          "material": 1,
          "indices": 5,
          "extensions": {
            "FB_ngon_encoding": {}
          }
        },
        {
          "attributes": {
            "POSITION": 0,
            "TEXCOORD_0": 1,
            "COLOR_0": 2,
            "JOINTS_0": 3,
            "WEIGHTS_0": 4
          },
          "material": 0,
          "indices": 6,
          "extensions": {
            "FB_ngon_encoding": {}
          }
        },
        {
          "attributes": {
            "POSITION": 0,
            "TEXCOORD_0": 1,
            "COLOR_0": 2,
            "JOINTS_0": 3,
            "WEIGHTS_0": 4
          },
          "material": 3,
          "indices": 7,
          "extensions": {
            "FB_ngon_encoding": {}
          }
        },
        {
          "attributes": {
            "POSITION": 0,
            "TEXCOORD_0": 1,
            "COLOR_0": 2,
            "JOINTS_0": 3,
            "WEIGHTS_0": 4
          },
          "material": 4,
          "indices": 8,
          "extensions": {
            "FB_ngon_encoding": {}
          }
        },
        {
          "attributes": {
            "POSITION": 0,
            "TEXCOORD_0": 1,
            "COLOR_0": 2,
            "JOINTS_0": 3,
            "WEIGHTS_0": 4
          },
          "material": 2,
          "indices": 9,
          "extensions": {
            "FB_ngon_encoding": {}
          }
        },
        {
          "attributes": {
            "POSITION": 0,
            "TEXCOORD_0": 1,
            "COLOR_0": 2,
            "JOINTS_0": 3,
            "WEIGHTS_0": 4
          },
          "material": 5,
          "indices": 10,
          "extensions": {
            "FB_ngon_encoding": {}
          }
        },
        {
          "attributes": {
            "POSITION": 0,
            "TEXCOORD_0": 1,
            "COLOR_0": 2,
            "JOINTS_0": 3,
            "WEIGHTS_0": 4
          },
          "material": 6,
          "indices": 11,
          "extensions": {
            "FB_ngon_encoding": {}
          }
        }
      ],
      "name": "m_dun1603_00_00c"
    }
  ],
  "nodes": [
    {
      "name": "polySurface1"
    },
    {
      "mesh": 0,
      "skin": 0,
      "name": "m_dun1603_00_00c",
      "children": [
        0
      ]
    }
  ],
  "skins": [
    {
      "skeleton": 0,
      "joints": [
        0
      ],
      "inverseBindMatrices": 12
    }
  ],
  "scenes": [
    {
      "nodes": [
        1
      ],
      "name": "m_dun1603_00_00c"
    }
  ],
  "scene": 0,
  "samplers": [
    {
      "wrapS": 10497,
      "wrapT": 10497,
      "magFilter": 9728,
      "minFilter": 9728
    }
  ],
  "images": [
    {
      "uri": "dun_dhole.png"
    },
    {
      "uri": "dun_ent2.png"
    },
    {
      "uri": "dun_floor2.png"
    },
    {
      "uri": "dun_floor.png"
    },
    {
      "uri": "dun_imped.png"
    },
    {
      "uri": "dun_wall_c.png"
    },
    {
      "uri": "dun16_wall_1.png"
    }
  ],
  "textures": [
    {
      "source": 0,
      "sampler": 0
    },
    {
      "source": 1,
      "sampler": 0
    },
    {
      "source": 2,
      "sampler": 0
    },
    {
      "source": 3,
      "sampler": 0
    },
    {
      "source": 4,
      "sampler": 0
    },
    {
      "source": 5,
      "sampler": 0
    },
    {
      "source": 6,
      "sampler": 0
    }
  ],
  "materials": [
    {
      "name": "dun_dhole_lm17",
      "pbrMetallicRoughness": {
        "baseColorTexture": {
          "index": 0
        },
        "metallicFactor": 0
      },
      "extensions": {
        "KHR_materials_unlit": {}
      },
      "alphaMode": "MASK"
    },
    {
      "name": "dun_ent2_lm2",
      "pbrMetallicRoughness": {
        "baseColorTexture": {
          "index": 1
        },
        "metallicFactor": 0
      },
      "extensions": {
        "KHR_materials_unlit": {}
      }
    },
    {
      "name": "dun_floor2_lm18",
      "pbrMetallicRoughness": {
        "baseColorTexture": {
          "index": 2
        },
        "metallicFactor": 0
      },
      "extensions": {
        "KHR_materials_unlit": {}
      }
    },
    {
      "name": "dun_floor_lm25",
      "pbrMetallicRoughness": {
        "baseColorTexture": {
          "index": 3
        },
        "metallicFactor": 0
      },
      "extensions": {
        "KHR_materials_unlit": {}
      }
    },
    {
      "name": "dun_imped_lm11",
      "pbrMetallicRoughness": {
        "baseColorTexture": {
          "index": 4
        },
        "metallicFactor": 0
      },
      "extensions": {
        "KHR_materials_unlit": {}
      },
      "alphaMode": "MASK"
    },
    {
      "name": "dun_wall_c_lm19",
      "pbrMetallicRoughness": {
        "baseColorTexture": {
          "index": 5
        },
        "metallicFactor": 0
      },
      "extensions": {
        "KHR_materials_unlit": {}
      },
      "alphaMode": "MASK"
    },
    {
      "name": "dun_wall_e_lm21",
      "pbrMetallicRoughness": {
        "baseColorTexture": {
          "index": 6
        },
        "metallicFactor": 0
      },
      "extensions": {
        "KHR_materials_unlit": {}
      },
      "alphaMode": "MASK"
    }
  ],
  "buffers": [
    {
      "byteLength": 39672,
      "uri": "m_dun1603_00_00c.bin"
    }
  ]
}