{
  "asset": {
    "version": "2.0"
  },
  "bufferViews": [
    {
      "buffer": 0,
      "byteLength": 12048,
      "byteOffset": 0
    },
    {
      "buffer": 0,
      "byteLength": 8032,
      "byteOffset": 12048
    },
    {
      "buffer": 0,
      "byteLength": 4016,
      "byteStride": 4,
      "byteOffset": 20080
    },
    {
      "buffer": 0,
      "byteOffset": 24096,
      "byteStride": 4,
      "byteLength": 4016
    },
    {
      "buffer": 0,
      "byteOffset": 28112,
      "byteStride": 4,
      "byteLength": 4016
    },
    {
      "buffer": 0,
      "byteLength": 3516,
      "byteOffset": 32128
    },
    {
      "buffer": 0,
      "byteLength": 64,
      "byteOffset": 35644
    }
  ],
  "accessors": [
    {
      "bufferView": 0,
      "type": "VEC3",
      "componentType": 5126,
      "count": 1004,
      "min": [
        -240,
        16,
        -256
      ],
      "max": [
        48,
        64,
        -48
      ]
    },
    {
      "bufferView": 1,
      "type": "VEC2",
      "componentType": 5126,
      "count": 1004
    },
    {
      "bufferView": 2,
      "type": "VEC3",
      "componentType": 5121,
      "normalized": true,
      "count": 1004
    },
    {
      "bufferView": 3,
      "type": "VEC4",
      "componentType": 5121,
      "count": 1004
    },
    {
      "bufferView": 4,
      "type": "VEC4",
      "componentType": 5121,
      "normalized": true,
      "count": 1004
    },
    {
      "bufferView": 5,
      "type": "SCALAR",
      "byteOffset": 0,
      "componentType": 5123,
      "count": 30
    },
    {
      "bufferView": 5,
      "type": "SCALAR",
      "byteOffset": 60,
      "componentType": 5123,
      "count": 126
    },
    {
      "bufferView": 5,
      "type": "SCALAR",
      "byteOffset": 312,
      "componentType": 5123,
      "count": 144
    },
    {
      "bufferView": 5,
      "type": "SCALAR",
      "byteOffset": 600,
      "componentType": 5123,
      "count": 99
    },
    {
      "bufferView": 5,
      "type": "SCALAR",
      "byteOffset": 798,
      "componentType": 5123,
      "count": 108
    },
    {
      "bufferView": 5,
      "type": "SCALAR",
      "byteOffset": 1014,
      "componentType": 5123,
      "count": 180
    },
    {
      "bufferView": 5,
      "type": "SCALAR",
      "byteOffset": 1374,
      "componentType": 5123,
      "count": 99
    },
    {
      "bufferView": 5,
      "type": "SCALAR",
      "byteOffset": 1572,
      "componentType": 5123,
      "count": 216
    },
    {
      "bufferView": 5,
      "type": "SCALAR",
      "byteOffset": 2004,
      "componentType": 5123,
      "count": 162
    },
    {
      "bufferView": 5,
      "type": "SCALAR",
      "byteOffset": 2328,
      "componentType": 5123,
      "count": 594
    },
    {
      "bufferView": 6,
      "type": "MAT4",
      "componentType": 5126,
      "count": 1
    }
  ],
  "extensionsUsed": [
    "FB_ngon_encoding",
    "KHR_materials_unlit"
  ],
  "meshes": [
    {
      "primitives": [
        {
          "attributes": {
            "POSITION": 0,
            "TEXCOORD_0": 1,
            "COLOR_0": 2,
            "JOINTS_0": 3,
            "WEIGHTS_0": 4
          },
          "material": 2,
          "indices": 5,
          "extensions": {
            "FB_ngon_encoding": {}
          }
        },
        {
          "attributes": {
            "POSITION": 0,
            "TEXCOORD_0": 1,
            "COLOR_0": 2,
            "JOINTS_0": 3,
            "WEIGHTS_0": 4
          },
          "material": 7,
          "indices": 6,
          "extensions": {
            "FB_ngon_encoding": {}
          }
        },
        {
          "attributes": {
            "POSITION": 0,
            "TEXCOORD_0": 1,
            "COLOR_0": 2,
            "JOINTS_0": 3,
            "WEIGHTS_0": 4
          },
          "material": 9,
          "indices": 7,
          "extensions": {
            "FB_ngon_encoding": {}
          }
        },
        {
          "attributes": {
            "POSITION": 0,
            "TEXCOORD_0": 1,
            "COLOR_0": 2,
            "JOINTS_0": 3,
            "WEIGHTS_0": 4
          },
          "material": 1,
          "indices": 8,
          "extensions": {
            "FB_ngon_encoding": {}
          }
        },
        {
          "attributes": {
            "POSITION": 0,
            "TEXCOORD_0": 1,
            "COLOR_0": 2,
            "JOINTS_0": 3,
            "WEIGHTS_0": 4
          },
          "material": 3,
          "indices": 9,
          "extensions": {
            "FB_ngon_encoding": {}
          }
        },
        {
          "attributes": {
            "POSITION": 0,
            "TEXCOORD_0": 1,
            "COLOR_0": 2,
            "JOINTS_0": 3,
            "WEIGHTS_0": 4
          },
          "material": 6,
          "indices": 10,
          "extensions": {
            "FB_ngon_encoding": {}
          }
        },
        {
          "attributes": {
            "POSITION": 0,
            "TEXCOORD_0": 1,
            "COLOR_0": 2,
            "JOINTS_0": 3,
            "WEIGHTS_0": 4
          },
          "material": 0,
          "indices": 11,
          "extensions": {
            "FB_ngon_encoding": {}
          }
        },
        {
          "attributes": {
            "POSITION": 0,
            "TEXCOORD_0": 1,
            "COLOR_0": 2,
            "JOINTS_0": 3,
            "WEIGHTS_0": 4
          },
          "material": 8,
          "indices": 12,
          "extensions": {
            "FB_ngon_encoding": {}
          }
        },
        {
          "attributes": {
            "POSITION": 0,
            "TEXCOORD_0": 1,
            "COLOR_0": 2,
            "JOINTS_0": 3,
            "WEIGHTS_0": 4
          },
          "material": 4,
          "indices": 13,
          "extensions": {
            "FB_ngon_encoding": {}
          }
        },
        {
          "attributes": {
            "POSITION": 0,
            "TEXCOORD_0": 1,
            "COLOR_0": 2,
            "JOINTS_0": 3,
            "WEIGHTS_0": 4
          },
          "material": 5,
          "indices": 14,
          "extensions": {
            "FB_ngon_encoding": {}
          }
        }
      ],
      "name": "m_dun2102_00_01c"
    }
  ],
  "nodes": [
    {
      "name": "polySurface11"
    },
    {
      "mesh": 0,
      "skin": 0,
      "name": "m_dun2102_00_01c",
      "children": [
        0
      ]
    }
  ],
  "skins": [
    {
      "skeleton": 0,
      "joints": [
        0
      ],
      "inverseBindMatrices": 15
    }
  ],
  "scenes": [
    {
      "nodes": [
        1
      ],
      "name": "m_dun2102_00_01c"
    }
  ],
  "scene": 0,
  "samplers": [
    {
      "wrapS": 10497,
      "wrapT": 10497,
      "magFilter": 9728,
      "minFilter": 9728
    },
    {
      "wrapS": 33071,
      "wrapT": 33071,
      "magFilter": 9728,
      "minFilter": 9728
    }
  ],
  "images": [
    {
      "uri": "dun_floor2.png"
    },
    {
      "uri": "dun_floor.png"
    },
    {
      "uri": "dun_imped.png"
    },
    {
      "uri": "dun_level.png"
    },
    {
      "uri": "dun_step.png"
    },
    {
      "uri": "dun_wall_c.png"
    },
    {
      "uri": "dun_wall_e.png"
    },
    {
      "uri": "dun_wall_n.png"
    },
    {
      "uri": "dun_wall_s.png"
    },
    {
      "uri": "dun_wall_w.png"
    }
  ],
  "textures": [
    {
      "source": 0,
      "sampler": 0
    },
    {
      "source": 1,
      "sampler": 0
    },
    {
      "source": 2,
      "sampler": 0
    },
    {
      "source": 3,
      "sampler": 1
    },
    {
      "source": 4,
      "sampler": 0
    },
    {
      "source": 5,
      "sampler": 0
    },
    {
      "source": 6,
      "sampler": 0
    },
    {
      "source": 7,
      "sampler": 0
    },
    {
      "source": 8,
      "sampler": 0
    },
    {
      "source": 9,
      "sampler": 0
    }
  ],
  "materials": [
    {
      "name": "dun_floor2_lm211",
      "pbrMetallicRoughness": {
        "baseColorTexture": {
          "index": 0
        },
        "metallicFactor": 0
      },
      "extensions": {
        "KHR_materials_unlit": {}
      }
    },
    {
      "name": "dun_floor_lm647",
      "pbrMetallicRoughness": {
        "baseColorTexture": {
          "index": 1
        },
        "metallicFactor": 0
      },
      "extensions": {
        "KHR_materials_unlit": {}
      }
    },
    {
      "name": "dun_imped_lm137",
      "pbrMetallicRoughness": {
        "baseColorTexture": {
          "index": 2
        },
        "metallicFactor": 0
      },
      "extensions": {
        "KHR_materials_unlit": {}
      },
      "alphaMode": "MASK"
    },
    {
      "name": "dun_level_lm51",
      "pbrMetallicRoughness": {
        "baseColorTexture": {
          "index": 3
        },
        "metallicFactor": 0
      },
      "extensions": {
        "KHR_materials_unlit": {}
      }
    },
    {
      "name": "dun_step_lm21",
      "pbrMetallicRoughness": {
        "baseColorTexture": {
          "index": 4
        },
        "metallicFactor": 0
      },
      "extensions": {
        "KHR_materials_unlit": {}
      }
    },
    {
      "name": "dun_wall_c_lm334",
      "pbrMetallicRoughness": {
        "baseColorTexture": {
          "index": 5
        },
        "metallicFactor": 0
      },
      "extensions": {
        "KHR_materials_unlit": {}
      },
      "alphaMode": "MASK"
    },
    {
      "name": "dun_wall_e_lm182",
      "pbrMetallicRoughness": {
        "baseColorTexture": {
          "index": 6
        },
        "metallicFactor": 0
      },
      "extensions": {
        "KHR_materials_unlit": {}
      }
    },
    {
      "name": "dun_wall_n_lm385",
      "pbrMetallicRoughness": {
        "baseColorTexture": {
          "index": 7
        },
        "metallicFactor": 0
      },
      "extensions": {
        "KHR_materials_unlit": {}
      }
    },
    {
      "name": "dun_wall_s_lm147",
      "pbrMetallicRoughness": {
        "baseColorTexture": {
          "index": 8
        },
        "metallicFactor": 0
      },
      "extensions": {
        "KHR_materials_unlit": {}
      }
    },
    {
      "name": "dun_wall_w_lm171",
      "pbrMetallicRoughness": {
        "baseColorTexture": {
          "index": 9
        },
        "metallicFactor": 0
      },
      "extensions": {
        "KHR_materials_unlit": {}
      }
    }
  ],
  "buffers": [
    {
      "byteLength": 35708,
      "uri": "m_dun2102_00_01c.bin"
    }
  ]
}