{
  "asset": {
    "version": "2.0"
  },
  "bufferViews": [
    {
      "buffer": 0,
      "byteLength": 744,
      "byteOffset": 0
    },
    {
      "buffer": 0,
      "byteLength": 496,
      "byteOffset": 744
    },
    {
      "buffer": 0,
      "byteLength": 248,
      "byteStride": 4,
      "byteOffset": 1240
    },
    {
      "buffer": 0,
      "byteLength": 744,
      "byteOffset": 1488
    },
    {
      "buffer": 0,
      "byteOffset": 2232,
      "byteStride": 4,
      "byteLength": 248
    },
    {
      "buffer": 0,
      "byteOffset": 2480,
      "byteStride": 4,
      "byteLength": 248
    },
    {
      "buffer": 0,
      "byteLength": 288,
      "byteOffset": 2728
    },
    {
      "buffer": 0,
      "byteLength": 64,
      "byteOffset": 3016
    }
  ],
  "accessors": [
    {
      "bufferView": 0,
      "type": "VEC3",
      "componentType": 5126,
      "count": 62,
      "min": [
        -160,
        0,
        -304
      ],
      "max": [
        160,
        0,
        208
      ]
    },
    {
      "bufferView": 1,
      "type": "VEC2",
      "componentType": 5126,
      "count": 62
    },
    {
      "bufferView": 2,
      "type": "VEC3",
      "componentType": 5121,
      "normalized": true,
      "count": 62
    },
    {
      "bufferView": 3,
      "type": "VEC3",
      "componentType": 5126,
      "count": 62
    },
    {
      "bufferView": 4,
      "type": "VEC4",
      "componentType": 5121,
      "count": 62
    },
    {
      "bufferView": 5,
      "type": "VEC4",
      "componentType": 5121,
      "normalized": true,
      "count": 62
    },
    {
      "bufferView": 6,
      "type": "SCALAR",
      "byteOffset": 0,
      "componentType": 5123,
      "count": 144
    },
    {
      "bufferView": 7,
      "type": "MAT4",
      "componentType": 5126,
      "count": 1
    }
  ],
  "extensionsUsed": [
    "FB_ngon_encoding",
    "KHR_materials_unlit"
  ],
  "meshes": [
    {
      "primitives": [
        {
          "attributes": {
            "POSITION": 0,
            "TEXCOORD_0": 1,
            "COLOR_0": 2,
            "NORMAL": 3,
            "JOINTS_0": 4,
            "WEIGHTS_0": 5
          },
          "material": 0,
          "indices": 6,
          "extensions": {
            "FB_ngon_encoding": {}
          }
        }
      ],
      "name": "pmsel_bg"
    }
  ],
  "nodes": [
    {
      "name": "pCube1"
    },
    {
      "mesh": 0,
      "skin": 0,
      "name": "pmsel_bg",
      "children": [
        0
      ]
    }
  ],
  "skins": [
    {
      "skeleton": 0,
      "joints": [
        0
      ],
      "inverseBindMatrices": 7
    }
  ],
  "scenes": [
    {
      "nodes": [
        1
      ],
      "name": "pmsel_bg"
    }
  ],
  "scene": 0,
  "samplers": [
    {
      "wrapS": 33071,
      "wrapT": 33071,
      "magFilter": 9728,
      "minFilter": 9728
    }
  ],
  "images": [
    {
      "uri": "op_grand.png"
    }
  ],
  "textures": [
    {
      "source": 0,
      "sampler": 0
    }
  ],
  "materials": [
    {
      "name": "op_grand",
      "pbrMetallicRoughness": {
        "baseColorTexture": {
          "index": 0
        },
        "metallicFactor": 0
      },
      "extensions": {
        "KHR_materials_unlit": {}
      }
    }
  ],
  "buffers": [
    {
      "byteLength": 3080,
      "uri": "pmsel_bg.bin"
    }
  ]
}