{
  "asset": {
    "version": "2.0"
  },
  "bufferViews": [
    {
      "buffer": 0,
      "byteLength": 6936,
      "byteOffset": 0
    },
    {
      "buffer": 0,
      "byteLength": 4624,
      "byteOffset": 6936
    },
    {
      "buffer": 0,
      "byteLength": 2312,
      "byteStride": 4,
      "byteOffset": 11560
    },
    {
      "buffer": 0,
      "byteLength": 6936,
      "byteOffset": 13872
    },
    {
      "buffer": 0,
      "byteOffset": 20808,
      "byteStride": 4,
      "byteLength": 2312
    },
    {
      "buffer": 0,
      "byteOffset": 23120,
      "byteStride": 4,
      "byteLength": 2312
    },
    {
      "buffer": 0,
      "byteLength": 2052,
      "byteOffset": 25432
    },
    {
      "buffer": 0,
      "byteLength": 256,
      "byteOffset": 27484
    },
    {
      "buffer": 0,
      "byteLength": 7336,
      "byteOffset": 27740
    },
    {
      "buffer": 0,
      "byteOffset": 35076,
      "byteLength": 560
    }
  ],
  "accessors": [
    {
      "bufferView": 0,
      "type": "VEC3",
      "componentType": 5126,
      "count": 578,
      "min": [
        -42,
        0.5078125,
        -41.03125
      ],
      "max": [
        52,
        169.484375,
        47.96875
      ]
    },
    {
      "bufferView": 1,
      "type": "VEC2",
      "componentType": 5126,
      "count": 578
    },
    {
      "bufferView": 2,
      "type": "VEC3",
      "componentType": 5121,
      "normalized": true,
      "count": 578
    },
    {
      "bufferView": 3,
      "type": "VEC3",
      "componentType": 5126,
      "count": 578
    },
    {
      "bufferView": 4,
      "type": "VEC4",
      "componentType": 5121,
      "count": 578
    },
    {
      "bufferView": 5,
      "type": "VEC4",
      "componentType": 5121,
      "normalized": true,
      "count": 578
    },
    {
      "bufferView": 6,
      "type": "SCALAR",
      "byteOffset": 0,
      "componentType": 5123,
      "count": 36
    },
    {
      "bufferView": 6,
      "type": "SCALAR",
      "byteOffset": 72,
      "componentType": 5123,
      "count": 48
    },
    {
      "bufferView": 6,
      "type": "SCALAR",
      "byteOffset": 168,
      "componentType": 5123,
      "count": 132
    },
    {
      "bufferView": 6,
      "type": "SCALAR",
      "byteOffset": 432,
      "componentType": 5123,
      "count": 402
    },
    {
      "bufferView": 6,
      "type": "SCALAR",
      "byteOffset": 1236,
      "componentType": 5123,
      "count": 24
    },
    {
      "bufferView": 6,
      "type": "SCALAR",
      "byteOffset": 1284,
      "componentType": 5123,
      "count": 348
    },
    {
      "bufferView": 6,
      "type": "SCALAR",
      "byteOffset": 1980,
      "componentType": 5123,
      "count": 18
    },
    {
      "bufferView": 6,
      "type": "SCALAR",
      "byteOffset": 2016,
      "componentType": 5123,
      "count": 18
    },
    {
      "bufferView": 7,
      "type": "MAT4",
      "componentType": 5126,
      "count": 4
    },
    {
      "bufferView": 9,
      "type": "SCALAR",
      "componentType": 5126,
      "byteOffset": 0,
      "count": 140,
      "min": [
        0
      ],
      "max": [
        2.316666841506958
      ]
    },
    {
      "bufferView": 8,
      "type": "VEC3",
      "componentType": 5126,
      "byteOffset": 0,
      "count": 140
    },
    {
      "bufferView": 8,
      "type": "VEC4",
      "componentType": 5126,
      "byteOffset": 1680,
      "count": 140
    },
    {
      "bufferView": 9,
      "type": "SCALAR",
      "componentType": 5126,
      "byteOffset": 0,
      "count": 1,
      "min": [
        0
      ],
      "max": [
        0
      ]
    },
    {
      "bufferView": 8,
      "type": "VEC3",
      "componentType": 5126,
      "byteOffset": 3920,
      "count": 1
    },
    {
      "bufferView": 8,
      "type": "VEC4",
      "componentType": 5126,
      "byteOffset": 3932,
      "count": 1
    },
    {
      "bufferView": 8,
      "type": "VEC3",
      "componentType": 5126,
      "byteOffset": 3948,
      "count": 140
    },
    {
      "bufferView": 8,
      "type": "VEC3",
      "componentType": 5126,
      "byteOffset": 5628,
      "count": 1
    },
    {
      "bufferView": 8,
      "type": "VEC4",
      "componentType": 5126,
      "byteOffset": 5640,
      "count": 1
    },
    {
      "bufferView": 8,
      "type": "VEC3",
      "componentType": 5126,
      "byteOffset": 5656,
      "count": 140
    }
  ],
  "extensionsUsed": [
    "FB_ngon_encoding",
    "KHR_materials_unlit"
  ],
  "meshes": [
    {
      "primitives": [
        {
          "attributes": {
            "POSITION": 0,
            "TEXCOORD_0": 1,
            "COLOR_0": 2,
            "NORMAL": 3,
            "JOINTS_0": 4,
            "WEIGHTS_0": 5
          },
          "material": 5,
          "indices": 6,
          "extensions": {
            "FB_ngon_encoding": {}
          }
        },
        {
          "attributes": {
            "POSITION": 0,
            "TEXCOORD_0": 1,
            "COLOR_0": 2,
            "NORMAL": 3,
            "JOINTS_0": 4,
            "WEIGHTS_0": 5
          },
          "material": 4,
          "indices": 7,
          "extensions": {
            "FB_ngon_encoding": {}
          }
        },
        {
          "attributes": {
            "POSITION": 0,
            "TEXCOORD_0": 1,
            "COLOR_0": 2,
            "NORMAL": 3,
            "JOINTS_0": 4,
            "WEIGHTS_0": 5
          },
          "material": 1,
          "indices": 8,
          "extensions": {
            "FB_ngon_encoding": {}
          }
        },
        {
          "attributes": {
            "POSITION": 0,
            "TEXCOORD_0": 1,
            "COLOR_0": 2,
            "NORMAL": 3,
            "JOINTS_0": 4,
            "WEIGHTS_0": 5
          },
          "material": 0,
          "indices": 9,
          "extensions": {
            "FB_ngon_encoding": {}
          }
        },
        {
          "attributes": {
            "POSITION": 0,
            "TEXCOORD_0": 1,
            "COLOR_0": 2,
            "NORMAL": 3,
            "JOINTS_0": 4,
            "WEIGHTS_0": 5
          },
          "material": 1,
          "indices": 10,
          "extensions": {
            "FB_ngon_encoding": {}
          }
        },
        {
          "attributes": {
            "POSITION": 0,
            "TEXCOORD_0": 1,
            "COLOR_0": 2,
            "NORMAL": 3,
            "JOINTS_0": 4,
            "WEIGHTS_0": 5
          },
          "material": 2,
          "indices": 11,
          "extensions": {
            "FB_ngon_encoding": {}
          }
        },
        {
          "attributes": {
            "POSITION": 0,
            "TEXCOORD_0": 1,
            "COLOR_0": 2,
            "NORMAL": 3,
            "JOINTS_0": 4,
            "WEIGHTS_0": 5
          },
          "material": 3,
          "indices": 12,
          "extensions": {
            "FB_ngon_encoding": {}
          }
        },
        {
          "attributes": {
            "POSITION": 0,
            "TEXCOORD_0": 1,
            "COLOR_0": 2,
            "NORMAL": 3,
            "JOINTS_0": 4,
            "WEIGHTS_0": 5
          },
          "material": 3,
          "indices": 13,
          "extensions": {
            "FB_ngon_encoding": {}
          }
        }
      ],
      "name": "c7_s04"
    }
  ],
  "nodes": [
    {
      "children": [
        1,
        2,
        3
      ],
      "name": "c7_s04"
    },
    {
      "name": "balloon"
    },
    {
      "name": "kage1",
      "translation": [
        -14.2109375,
        107.13818359375,
        17.98828125
      ],
      "rotation": [
        -2.441406177240427e-4,
        0,
        0,
        0.9999999701976789
      ]
    },
    {
      "name": "kage2",
      "translation": [
        25.7265625,
        107.13818359375,
        17.97900390625
      ],
      "rotation": [
        -2.441406177240427e-4,
        0,
        0,
        0.9999999701976789
      ]
    },
    {
      "mesh": 0,
      "skin": 0,
      "name": "c7_s04",
      "children": [
        0
      ]
    }
  ],
  "skins": [
    {
      "skeleton": 0,
      "joints": [
        0,
        1,
        2,
        3
      ],
      "inverseBindMatrices": 14
    }
  ],
  "scenes": [
    {
      "nodes": [
        4
      ],
      "name": "c7_s04"
    }
  ],
  "scene": 0,
  "animations": [
    {
      "name": "c7_s04",
      "samplers": [
        {
          "input": 15,
          "output": 16
        },
        {
          "input": 15,
          "output": 17
        },
        {
          "input": 18,
          "output": 19
        },
        {
          "input": 18,
          "output": 20
        },
        {
          "input": 15,
          "output": 21
        },
        {
          "input": 18,
          "output": 22
        },
        {
          "input": 18,
          "output": 23
        },
        {
          "input": 15,
          "output": 24
        }
      ],
      "channels": [
        {
          "target": {
            "node": 1,
            "path": "translation"
          },
          "sampler": 0
        },
        {
          "target": {
            "node": 1,
            "path": "rotation"
          },
          "sampler": 1
        },
        {
          "target": {
            "node": 2,
            "path": "translation"
          },
          "sampler": 2
        },
        {
          "target": {
            "node": 2,
            "path": "rotation"
          },
          "sampler": 3
        },
        {
          "target": {
            "node": 2,
            "path": "scale"
          },
          "sampler": 4
        },
        {
          "target": {
            "node": 3,
            "path": "translation"
          },
          "sampler": 5
        },
        {
          "target": {
            "node": 3,
            "path": "rotation"
          },
          "sampler": 6
        },
        {
          "target": {
            "node": 3,
            "path": "scale"
          },
          "sampler": 7
        }
      ]
    }
  ],
  "samplers": [
    {
      "wrapS": 33071,
      "wrapT": 33071,
      "magFilter": 9728,
      "minFilter": 9728
    },
    {
      "wrapS": 10497,
      "wrapT": 10497,
      "magFilter": 9728,
      "minFilter": 9728
    }
  ],
  "images": [
    {
      "uri": "c7_s04_a.png"
    },
    {
      "uri": "c7_s04_b.png"
    },
    {
      "uri": "c7_s04_c.png"
    },
    {
      "uri": "h_kage.png"
    },
    {
      "uri": "h_mado.png"
    }
  ],
  "textures": [
    {
      "source": 0,
      "sampler": 0
    },
    {
      "source": 1,
      "sampler": 1
    },
    {
      "source": 2,
      "sampler": 1
    },
    {
      "source": 3,
      "sampler": 1
    },
    {
      "source": 4,
      "sampler": 1
    }
  ],
  "materials": [
    {
      "name": "c7_s04_a_lm2",
      "pbrMetallicRoughness": {
        "baseColorTexture": {
          "index": 0
        },
        "metallicFactor": 0
      },
      "extensions": {
        "KHR_materials_unlit": {}
      },
      "alphaMode": "MASK"
    },
    {
      "name": "c7_s04_b_lm3",
      "pbrMetallicRoughness": {
        "baseColorTexture": {
          "index": 1
        },
        "metallicFactor": 0
      },
      "extensions": {
        "KHR_materials_unlit": {}
      }
    },
    {
      "name": "c7_s04_b_lm4",
      "pbrMetallicRoughness": {
        "baseColorTexture": {
          "index": 1
        },
        "metallicFactor": 0
      },
      "extensions": {
        "KHR_materials_unlit": {}
      }
    },
    {
      "name": "c7_s04_c_lm2",
      "pbrMetallicRoughness": {
        "baseColorTexture": {
          "index": 2
        },
        "metallicFactor": 0
      },
      "extensions": {
        "KHR_materials_unlit": {}
      },
      "alphaMode": "BLEND"
    },
    {
      "name": "h_kage_lm2",
      "pbrMetallicRoughness": {
        "baseColorTexture": {
          "index": 3
        },
        "metallicFactor": 0,
        "baseColorFactor": [
          1,
          1,
          1,
          0.29032257199287417
        ]
      },
      "extensions": {
        "KHR_materials_unlit": {}
      },
      "alphaMode": "BLEND"
    },
    {
      "name": "h_mado_lm2",
      "pbrMetallicRoughness": {
        "baseColorTexture": {
          "index": 4
        },
        "metallicFactor": 0
      },
      "extensions": {
        "KHR_materials_unlit": {}
      }
    }
  ],
  "buffers": [
    {
      "byteLength": 35636,
      "uri": "c7_s04.bin"
    }
  ]
}