{
  "asset": {
    "version": "2.0"
  },
  "bufferViews": [
    {
      "buffer": 0,
      "byteLength": 30336,
      "byteOffset": 0
    },
    {
      "buffer": 0,
      "byteLength": 20224,
      "byteOffset": 30336
    },
    {
      "buffer": 0,
      "byteLength": 10112,
      "byteStride": 4,
      "byteOffset": 50560
    },
    {
      "buffer": 0,
      "byteLength": 30336,
      "byteOffset": 60672
    },
    {
      "buffer": 0,
      "byteOffset": 91008,
      "byteStride": 4,
      "byteLength": 10112
    },
    {
      "buffer": 0,
      "byteOffset": 101120,
      "byteStride": 4,
      "byteLength": 10112
    },
    {
      "buffer": 0,
      "byteLength": 8400,
      "byteOffset": 111232
    },
    {
      "buffer": 0,
      "byteLength": 64,
      "byteOffset": 119632
    }
  ],
  "accessors": [
    {
      "bufferView": 0,
      "type": "VEC3",
      "componentType": 5126,
      "count": 2528,
      "min": [
        -260,
        29,
        -257.96875
      ],
      "max": [
        260,
        176,
        256
      ]
    },
    {
      "bufferView": 1,
      "type": "VEC2",
      "componentType": 5126,
      "count": 2528
    },
    {
      "bufferView": 2,
      "type": "VEC3",
      "componentType": 5121,
      "normalized": true,
      "count": 2528
    },
    {
      "bufferView": 3,
      "type": "VEC3",
      "componentType": 5126,
      "count": 2528
    },
    {
      "bufferView": 4,
      "type": "VEC4",
      "componentType": 5121,
      "count": 2528
    },
    {
      "bufferView": 5,
      "type": "VEC4",
      "componentType": 5121,
      "normalized": true,
      "count": 2528
    },
    {
      "bufferView": 6,
      "type": "SCALAR",
      "byteOffset": 0,
      "componentType": 5123,
      "count": 78
    },
    {
      "bufferView": 6,
      "type": "SCALAR",
      "byteOffset": 156,
      "componentType": 5123,
      "count": 102
    },
    {
      "bufferView": 6,
      "type": "SCALAR",
      "byteOffset": 360,
      "componentType": 5123,
      "count": 132
    },
    {
      "bufferView": 6,
      "type": "SCALAR",
      "byteOffset": 624,
      "componentType": 5123,
      "count": 132
    },
    {
      "bufferView": 6,
      "type": "SCALAR",
      "byteOffset": 888,
      "componentType": 5123,
      "count": 156
    },
    {
      "bufferView": 6,
      "type": "SCALAR",
      "byteOffset": 1200,
      "componentType": 5123,
      "count": 108
    },
    {
      "bufferView": 6,
      "type": "SCALAR",
      "byteOffset": 1416,
      "componentType": 5123,
      "count": 327
    },
    {
      "bufferView": 6,
      "type": "SCALAR",
      "byteOffset": 2070,
      "componentType": 5123,
      "count": 1080
    },
    {
      "bufferView": 6,
      "type": "SCALAR",
      "byteOffset": 4230,
      "componentType": 5123,
      "count": 2085
    },
    {
      "bufferView": 7,
      "type": "MAT4",
      "componentType": 5126,
      "count": 1
    }
  ],
  "extensionsUsed": [
    "FB_ngon_encoding",
    "KHR_materials_unlit"
  ],
  "meshes": [
    {
      "primitives": [
        {
          "attributes": {
            "POSITION": 0,
            "TEXCOORD_0": 1,
            "COLOR_0": 2,
            "NORMAL": 3,
            "JOINTS_0": 4,
            "WEIGHTS_0": 5
          },
          "material": 4,
          "indices": 6,
          "extensions": {
            "FB_ngon_encoding": {}
          }
        },
        {
          "attributes": {
            "POSITION": 0,
            "TEXCOORD_0": 1,
            "COLOR_0": 2,
            "NORMAL": 3,
            "JOINTS_0": 4,
            "WEIGHTS_0": 5
          },
          "material": 5,
          "indices": 7,
          "extensions": {
            "FB_ngon_encoding": {}
          }
        },
        {
          "attributes": {
            "POSITION": 0,
            "TEXCOORD_0": 1,
            "COLOR_0": 2,
            "NORMAL": 3,
            "JOINTS_0": 4,
            "WEIGHTS_0": 5
          },
          "material": 0,
          "indices": 8,
          "extensions": {
            "FB_ngon_encoding": {}
          }
        },
        {
          "attributes": {
            "POSITION": 0,
            "TEXCOORD_0": 1,
            "COLOR_0": 2,
            "NORMAL": 3,
            "JOINTS_0": 4,
            "WEIGHTS_0": 5
          },
          "material": 1,
          "indices": 9,
          "extensions": {
            "FB_ngon_encoding": {}
          }
        },
        {
          "attributes": {
            "POSITION": 0,
            "TEXCOORD_0": 1,
            "COLOR_0": 2,
            "NORMAL": 3,
            "JOINTS_0": 4,
            "WEIGHTS_0": 5
          },
          "material": 8,
          "indices": 10,
          "extensions": {
            "FB_ngon_encoding": {}
          }
        },
        {
          "attributes": {
            "POSITION": 0,
            "TEXCOORD_0": 1,
            "COLOR_0": 2,
            "NORMAL": 3,
            "JOINTS_0": 4,
            "WEIGHTS_0": 5
          },
          "material": 2,
          "indices": 11,
          "extensions": {
            "FB_ngon_encoding": {}
          }
        },
        {
          "attributes": {
            "POSITION": 0,
            "TEXCOORD_0": 1,
            "COLOR_0": 2,
            "NORMAL": 3,
            "JOINTS_0": 4,
            "WEIGHTS_0": 5
          },
          "material": 6,
          "indices": 12,
          "extensions": {
            "FB_ngon_encoding": {}
          }
        },
        {
          "attributes": {
            "POSITION": 0,
            "TEXCOORD_0": 1,
            "COLOR_0": 2,
            "NORMAL": 3,
            "JOINTS_0": 4,
            "WEIGHTS_0": 5
          },
          "material": 7,
          "indices": 13,
          "extensions": {
            "FB_ngon_encoding": {}
          }
        },
        {
          "attributes": {
            "POSITION": 0,
            "TEXCOORD_0": 1,
            "COLOR_0": 2,
            "NORMAL": 3,
            "JOINTS_0": 4,
            "WEIGHTS_0": 5
          },
          "material": 3,
          "indices": 14,
          "extensions": {
            "FB_ngon_encoding": {}
          }
        }
      ],
      "name": "map09_12c"
    }
  ],
  "nodes": [
    {
      "name": "polySurface2"
    },
    {
      "mesh": 0,
      "skin": 0,
      "name": "map09_12c",
      "children": [
        0
      ]
    }
  ],
  "skins": [
    {
      "skeleton": 0,
      "joints": [
        0
      ],
      "inverseBindMatrices": 15
    }
  ],
  "scenes": [
    {
      "nodes": [
        1
      ],
      "name": "map09_12c"
    }
  ],
  "scene": 0,
  "samplers": [
    {
      "wrapS": 10497,
      "wrapT": 10497,
      "magFilter": 9728,
      "minFilter": 9728
    }
  ],
  "images": [
    {
      "uri": "conttree2_b.png"
    },
    {
      "uri": "conttree2_t.png"
    },
    {
      "uri": "criff.png"
    },
    {
      "uri": "criffp.png"
    },
    {
      "uri": "nectgr.png"
    },
    {
      "uri": "newstep.png"
    },
    {
      "uri": "ngrass.png"
    },
    {
      "uri": "tree2_01.png"
    },
    {
      "uri": "tshadow.png"
    }
  ],
  "textures": [
    {
      "source": 0,
      "sampler": 0
    },
    {
      "source": 1,
      "sampler": 0
    },
    {
      "source": 2,
      "sampler": 0
    },
    {
      "source": 3,
      "sampler": 0
    },
    {
      "source": 4,
      "sampler": 0
    },
    {
      "source": 5,
      "sampler": 0
    },
    {
      "source": 6,
      "sampler": 0
    },
    {
      "source": 7,
      "sampler": 0
    },
    {
      "source": 8,
      "sampler": 0
    }
  ],
  "materials": [
    {
      "name": "conttree2_b_lm4",
      "pbrMetallicRoughness": {
        "baseColorTexture": {
          "index": 0
        },
        "metallicFactor": 0
      },
      "extensions": {
        "KHR_materials_unlit": {}
      },
      "alphaMode": "MASK"
    },
    {
      "name": "conttree2_t_lm4",
      "pbrMetallicRoughness": {
        "baseColorTexture": {
          "index": 1
        },
        "metallicFactor": 0
      },
      "extensions": {
        "KHR_materials_unlit": {}
      },
      "alphaMode": "MASK"
    },
    {
      "name": "criff_lm51",
      "pbrMetallicRoughness": {
        "baseColorTexture": {
          "index": 2
        },
        "metallicFactor": 0
      },
      "extensions": {
        "KHR_materials_unlit": {}
      }
    },
    {
      "name": "criffp_lm49",
      "pbrMetallicRoughness": {
        "baseColorTexture": {
          "index": 3
        },
        "metallicFactor": 0
      },
      "extensions": {
        "KHR_materials_unlit": {}
      }
    },
    {
      "name": "nectgr_lm55",
      "pbrMetallicRoughness": {
        "baseColorTexture": {
          "index": 4
        },
        "metallicFactor": 0
      },
      "extensions": {
        "KHR_materials_unlit": {}
      },
      "alphaMode": "MASK"
    },
    {
      "name": "newstep_lm27",
      "pbrMetallicRoughness": {
        "baseColorTexture": {
          "index": 5
        },
        "metallicFactor": 0
      },
      "extensions": {
        "KHR_materials_unlit": {}
      }
    },
    {
      "name": "ngrass_lm46",
      "pbrMetallicRoughness": {
        "baseColorTexture": {
          "index": 6
        },
        "metallicFactor": 0
      },
      "extensions": {
        "KHR_materials_unlit": {}
      }
    },
    {
      "name": "tree2_01_lm7",
      "pbrMetallicRoughness": {
        "baseColorTexture": {
          "index": 7
        },
        "metallicFactor": 0
      },
      "extensions": {
        "KHR_materials_unlit": {}
      },
      "alphaMode": "MASK"
    },
    {
      "name": "tshadow_lm2",
      "pbrMetallicRoughness": {
        "baseColorTexture": {
          "index": 8
        },
        "metallicFactor": 0
      },
      "extensions": {
        "KHR_materials_unlit": {}
      }
    }
  ],
  "buffers": [
    {
      "byteLength": 119696,
      "uri": "map09_12c.bin"
    }
  ]
}