{
  "asset": {
    "version": "2.0"
  },
  "bufferViews": [
    {
      "buffer": 0,
      "byteLength": 6528,
      "byteOffset": 0
    },
    {
      "buffer": 0,
      "byteLength": 4352,
      "byteOffset": 6528
    },
    {
      "buffer": 0,
      "byteLength": 2176,
      "byteStride": 4,
      "byteOffset": 10880
    },
    {
      "buffer": 0,
      "byteLength": 6528,
      "byteOffset": 13056
    },
    {
      "buffer": 0,
      "byteOffset": 19584,
      "byteStride": 4,
      "byteLength": 2176
    },
    {
      "buffer": 0,
      "byteOffset": 21760,
      "byteStride": 4,
      "byteLength": 2176
    },
    {
      "buffer": 0,
      "byteLength": 1740,
      "byteOffset": 23936
    },
    {
      "buffer": 0,
      "byteLength": 192,
      "byteOffset": 25676
    },
    {
      "buffer": 0,
      "byteLength": 3920,
      "byteOffset": 25868
    },
    {
      "buffer": 0,
      "byteOffset": 29788,
      "byteLength": 484
    }
  ],
  "accessors": [
    {
      "bufferView": 0,
      "type": "VEC3",
      "componentType": 5126,
      "count": 544,
      "min": [
        -76.48046875,
        2.003236770629883,
        -38
      ],
      "max": [
        74.01347351074219,
        44,
        46
      ]
    },
    {
      "bufferView": 1,
      "type": "VEC2",
      "componentType": 5126,
      "count": 544
    },
    {
      "bufferView": 2,
      "type": "VEC3",
      "componentType": 5121,
      "normalized": true,
      "count": 544
    },
    {
      "bufferView": 3,
      "type": "VEC3",
      "componentType": 5126,
      "count": 544
    },
    {
      "bufferView": 4,
      "type": "VEC4",
      "componentType": 5121,
      "count": 544
    },
    {
      "bufferView": 5,
      "type": "VEC4",
      "componentType": 5121,
      "normalized": true,
      "count": 544
    },
    {
      "bufferView": 6,
      "type": "SCALAR",
      "byteOffset": 0,
      "componentType": 5123,
      "count": 78
    },
    {
      "bufferView": 6,
      "type": "SCALAR",
      "byteOffset": 156,
      "componentType": 5123,
      "count": 72
    },
    {
      "bufferView": 6,
      "type": "SCALAR",
      "byteOffset": 300,
      "componentType": 5123,
      "count": 636
    },
    {
      "bufferView": 6,
      "type": "SCALAR",
      "byteOffset": 1572,
      "componentType": 5123,
      "count": 42
    },
    {
      "bufferView": 6,
      "type": "SCALAR",
      "byteOffset": 1656,
      "componentType": 5123,
      "count": 42
    },
    {
      "bufferView": 7,
      "type": "MAT4",
      "componentType": 5126,
      "count": 3
    },
    {
      "bufferView": 9,
      "type": "SCALAR",
      "componentType": 5126,
      "byteOffset": 0,
      "count": 1,
      "min": [
        0
      ],
      "max": [
        0
      ]
    },
    {
      "bufferView": 8,
      "type": "VEC3",
      "componentType": 5126,
      "byteOffset": 0,
      "count": 1
    },
    {
      "bufferView": 9,
      "type": "SCALAR",
      "componentType": 5126,
      "byteOffset": 0,
      "count": 121,
      "min": [
        0
      ],
      "max": [
        2
      ]
    },
    {
      "bufferView": 8,
      "type": "VEC4",
      "componentType": 5126,
      "byteOffset": 12,
      "count": 121
    },
    {
      "bufferView": 8,
      "type": "VEC3",
      "componentType": 5126,
      "byteOffset": 1948,
      "count": 1
    },
    {
      "bufferView": 8,
      "type": "VEC3",
      "componentType": 5126,
      "byteOffset": 1960,
      "count": 1
    },
    {
      "bufferView": 8,
      "type": "VEC4",
      "componentType": 5126,
      "byteOffset": 1972,
      "count": 121
    },
    {
      "bufferView": 8,
      "type": "VEC3",
      "componentType": 5126,
      "byteOffset": 3908,
      "count": 1
    }
  ],
  "extensionsUsed": [
    "FB_ngon_encoding",
    "KHR_materials_unlit"
  ],
  "meshes": [
    {
      "primitives": [
        {
          "attributes": {
            "POSITION": 0,
            "TEXCOORD_0": 1,
            "COLOR_0": 2,
            "NORMAL": 3,
            "JOINTS_0": 4,
            "WEIGHTS_0": 5
          },
          "material": 3,
          "indices": 6,
          "extensions": {
            "FB_ngon_encoding": {}
          }
        },
        {
          "attributes": {
            "POSITION": 0,
            "TEXCOORD_0": 1,
            "COLOR_0": 2,
            "NORMAL": 3,
            "JOINTS_0": 4,
            "WEIGHTS_0": 5
          },
          "material": 1,
          "indices": 7,
          "extensions": {
            "FB_ngon_encoding": {}
          }
        },
        {
          "attributes": {
            "POSITION": 0,
            "TEXCOORD_0": 1,
            "COLOR_0": 2,
            "NORMAL": 3,
            "JOINTS_0": 4,
            "WEIGHTS_0": 5
          },
          "material": 0,
          "indices": 8,
          "extensions": {
            "FB_ngon_encoding": {}
          }
        },
        {
          "attributes": {
            "POSITION": 0,
            "TEXCOORD_0": 1,
            "COLOR_0": 2,
            "NORMAL": 3,
            "JOINTS_0": 4,
            "WEIGHTS_0": 5
          },
          "material": 2,
          "indices": 9,
          "extensions": {
            "FB_ngon_encoding": {}
          }
        },
        {
          "attributes": {
            "POSITION": 0,
            "TEXCOORD_0": 1,
            "COLOR_0": 2,
            "NORMAL": 3,
            "JOINTS_0": 4,
            "WEIGHTS_0": 5
          },
          "material": 2,
          "indices": 10,
          "extensions": {
            "FB_ngon_encoding": {}
          }
        }
      ],
      "name": "c09_s02"
    }
  ],
  "nodes": [
    {
      "children": [
        1,
        2
      ],
      "name": "c09_s02"
    },
    {
      "name": "c09_s02_1",
      "translation": [
        0,
        8,
        15
      ],
      "scale": [
        3.24609375,
        3.24560546875,
        3.24560546875
      ]
    },
    {
      "name": "c09_s02_2",
      "translation": [
        0,
        8,
        -15
      ],
      "scale": [
        3.24560546875,
        3.24560546875,
        3.24560546875
      ]
    },
    {
      "mesh": 0,
      "skin": 0,
      "name": "c09_s02",
      "children": [
        0
      ]
    }
  ],
  "skins": [
    {
      "skeleton": 0,
      "joints": [
        0,
        1,
        2
      ],
      "inverseBindMatrices": 11
    }
  ],
  "scenes": [
    {
      "nodes": [
        3
      ],
      "name": "c09_s02"
    }
  ],
  "scene": 0,
  "animations": [
    {
      "name": "c09_s02",
      "samplers": [
        {
          "input": 12,
          "output": 13
        },
        {
          "input": 14,
          "output": 15
        },
        {
          "input": 12,
          "output": 16
        },
        {
          "input": 12,
          "output": 17
        },
        {
          "input": 14,
          "output": 18
        },
        {
          "input": 12,
          "output": 19
        }
      ],
      "channels": [
        {
          "target": {
            "node": 1,
            "path": "translation"
          },
          "sampler": 0
        },
        {
          "target": {
            "node": 1,
            "path": "rotation"
          },
          "sampler": 1
        },
        {
          "target": {
            "node": 1,
            "path": "scale"
          },
          "sampler": 2
        },
        {
          "target": {
            "node": 2,
            "path": "translation"
          },
          "sampler": 3
        },
        {
          "target": {
            "node": 2,
            "path": "rotation"
          },
          "sampler": 4
        },
        {
          "target": {
            "node": 2,
            "path": "scale"
          },
          "sampler": 5
        }
      ]
    }
  ],
  "samplers": [
    {
      "wrapS": 10497,
      "wrapT": 10497,
      "magFilter": 9728,
      "minFilter": 9728
    }
  ],
  "images": [
    {
      "uri": "garinko.png"
    },
    {
      "uri": "water.png"
    }
  ],
  "textures": [
    {
      "source": 0,
      "sampler": 0
    },
    {
      "source": 1,
      "sampler": 0
    }
  ],
  "materials": [
    {
      "name": "garinko_lm1",
      "pbrMetallicRoughness": {
        "baseColorTexture": {
          "index": 0
        },
        "metallicFactor": 0
      },
      "extensions": {
        "KHR_materials_unlit": {}
      },
      "alphaMode": "MASK"
    },
    {
      "name": "garinko_lm2",
      "pbrMetallicRoughness": {
        "baseColorTexture": {
          "index": 0
        },
        "metallicFactor": 0
      },
      "extensions": {
        "KHR_materials_unlit": {}
      },
      "alphaMode": "MASK",
      "emissiveFactor": [
        1,
        1,
        1
      ]
    },
    {
      "name": "lambert1",
      "pbrMetallicRoughness": {
        "baseColorTexture": {
          "index": 0
        },
        "metallicFactor": 0
      },
      "extensions": {
        "KHR_materials_unlit": {}
      },
      "alphaMode": "MASK"
    },
    {
      "name": "water_lm2",
      "pbrMetallicRoughness": {
        "baseColorTexture": {
          "index": 1
        },
        "metallicFactor": 0,
        "baseColorFactor": [
          1,
          1,
          1,
          0.7096773982048035
        ]
      },
      "extensions": {
        "KHR_materials_unlit": {}
      },
      "alphaMode": "BLEND"
    }
  ],
  "buffers": [
    {
      "byteLength": 30272,
      "uri": "c09_s02.bin"
    }
  ]
}