{
  "asset": {
    "version": "2.0"
  },
  "bufferViews": [
    {
      "buffer": 0,
      "byteLength": 1680,
      "byteOffset": 0
    },
    {
      "buffer": 0,
      "byteLength": 1120,
      "byteOffset": 1680
    },
    {
      "buffer": 0,
      "byteLength": 560,
      "byteStride": 4,
      "byteOffset": 2800
    },
    {
      "buffer": 0,
      "byteLength": 1680,
      "byteOffset": 3360
    },
    {
      "buffer": 0,
      "byteOffset": 5040,
      "byteStride": 4,
      "byteLength": 560
    },
    {
      "buffer": 0,
      "byteOffset": 5600,
      "byteStride": 4,
      "byteLength": 560
    },
    {
      "buffer": 0,
      "byteLength": 432,
      "byteOffset": 6160
    },
    {
      "buffer": 0,
      "byteLength": 64,
      "byteOffset": 6592
    }
  ],
  "accessors": [
    {
      "bufferView": 0,
      "type": "VEC3",
      "componentType": 5126,
      "count": 140,
      "min": [
        -16,
        0,
        -6.671875
      ],
      "max": [
        16,
        74,
        6.671875
      ]
    },
    {
      "bufferView": 1,
      "type": "VEC2",
      "componentType": 5126,
      "count": 140
    },
    {
      "bufferView": 2,
      "type": "VEC3",
      "componentType": 5121,
      "normalized": true,
      "count": 140
    },
    {
      "bufferView": 3,
      "type": "VEC3",
      "componentType": 5126,
      "count": 140
    },
    {
      "bufferView": 4,
      "type": "VEC4",
      "componentType": 5121,
      "count": 140
    },
    {
      "bufferView": 5,
      "type": "VEC4",
      "componentType": 5121,
      "normalized": true,
      "count": 140
    },
    {
      "bufferView": 6,
      "type": "SCALAR",
      "byteOffset": 0,
      "componentType": 5123,
      "count": 216
    },
    {
      "bufferView": 7,
      "type": "MAT4",
      "componentType": 5126,
      "count": 1
    }
  ],
  "extensionsUsed": [
    "FB_ngon_encoding",
    "KHR_materials_unlit"
  ],
  "meshes": [
    {
      "primitives": [
        {
          "attributes": {
            "POSITION": 0,
            "TEXCOORD_0": 1,
            "COLOR_0": 2,
            "NORMAL": 3,
            "JOINTS_0": 4,
            "WEIGHTS_0": 5
          },
          "material": 0,
          "indices": 6,
          "extensions": {
            "FB_ngon_encoding": {}
          }
        }
      ],
      "name": "fs_kanban"
    }
  ],
  "nodes": [
    {
      "name": "polySurface26"
    },
    {
      "mesh": 0,
      "skin": 0,
      "name": "fs_kanban",
      "children": [
        0
      ]
    }
  ],
  "skins": [
    {
      "skeleton": 0,
      "joints": [
        0
      ],
      "inverseBindMatrices": 7
    }
  ],
  "scenes": [
    {
      "nodes": [
        1
      ],
      "name": "fs_kanban"
    }
  ],
  "scene": 0,
  "samplers": [
    {
      "wrapS": 10497,
      "wrapT": 10497,
      "magFilter": 9728,
      "minFilter": 9728
    }
  ],
  "images": [
    {
      "uri": "fsloof.png"
    }
  ],
  "textures": [
    {
      "source": 0,
      "sampler": 0
    }
  ],
  "materials": [
    {
      "name": "lambert4",
      "pbrMetallicRoughness": {
        "baseColorTexture": {
          "index": 0
        },
        "metallicFactor": 0
      },
      "extensions": {
        "KHR_materials_unlit": {}
      }
    }
  ],
  "buffers": [
    {
      "byteLength": 6656,
      "uri": "fs_kanban.bin"
    }
  ]
}