{
  "asset": {
    "version": "2.0"
  },
  "bufferViews": [
    {
      "buffer": 0,
      "byteLength": 1752,
      "byteOffset": 0
    },
    {
      "buffer": 0,
      "byteLength": 1168,
      "byteOffset": 1752
    },
    {
      "buffer": 0,
      "byteLength": 584,
      "byteStride": 4,
      "byteOffset": 2920
    },
    {
      "buffer": 0,
      "byteLength": 1752,
      "byteOffset": 3504
    },
    {
      "buffer": 0,
      "byteOffset": 5256,
      "byteStride": 4,
      "byteLength": 584
    },
    {
      "buffer": 0,
      "byteOffset": 5840,
      "byteStride": 4,
      "byteLength": 584
    },
    {
      "buffer": 0,
      "byteLength": 672,
      "byteOffset": 6424
    },
    {
      "buffer": 0,
      "byteLength": 64,
      "byteOffset": 7096
    }
  ],
  "accessors": [
    {
      "bufferView": 0,
      "type": "VEC3",
      "componentType": 5126,
      "count": 146,
      "min": [
        -12,
        1.87109375,
        -11.9501953125
      ],
      "max": [
        12,
        25.779296875,
        11.9580078125
      ]
    },
    {
      "bufferView": 1,
      "type": "VEC2",
      "componentType": 5126,
      "count": 146
    },
    {
      "bufferView": 2,
      "type": "VEC3",
      "componentType": 5121,
      "normalized": true,
      "count": 146
    },
    {
      "bufferView": 3,
      "type": "VEC3",
      "componentType": 5126,
      "count": 146
    },
    {
      "bufferView": 4,
      "type": "VEC4",
      "componentType": 5121,
      "count": 146
    },
    {
      "bufferView": 5,
      "type": "VEC4",
      "componentType": 5121,
      "normalized": true,
      "count": 146
    },
    {
      "bufferView": 6,
      "type": "SCALAR",
      "byteOffset": 0,
      "componentType": 5123,
      "count": 336
    },
    {
      "bufferView": 7,
      "type": "MAT4",
      "componentType": 5126,
      "count": 1
    }
  ],
  "extensionsUsed": [
    "FB_ngon_encoding",
    "KHR_materials_unlit"
  ],
  "meshes": [
    {
      "primitives": [
        {
          "attributes": {
            "POSITION": 0,
            "TEXCOORD_0": 1,
            "COLOR_0": 2,
            "NORMAL": 3,
            "JOINTS_0": 4,
            "WEIGHTS_0": 5
          },
          "material": 0,
          "indices": 6,
          "extensions": {
            "FB_ngon_encoding": {}
          }
        }
      ],
      "name": "gym02_stage"
    }
  ],
  "nodes": [
    {
      "name": "pSphere1"
    },
    {
      "mesh": 0,
      "skin": 0,
      "name": "gym02_stage",
      "children": [
        0
      ]
    }
  ],
  "skins": [
    {
      "skeleton": 0,
      "joints": [
        0
      ],
      "inverseBindMatrices": 7
    }
  ],
  "scenes": [
    {
      "nodes": [
        1
      ],
      "name": "gym02_stage"
    }
  ],
  "scene": 0,
  "samplers": [
    {
      "wrapS": 10497,
      "wrapT": 10497,
      "magFilter": 9728,
      "minFilter": 9728
    }
  ],
  "images": [
    {
      "uri": "op_mb.png"
    }
  ],
  "textures": [
    {
      "source": 0,
      "sampler": 0
    }
  ],
  "materials": [
    {
      "name": "op_mb",
      "pbrMetallicRoughness": {
        "baseColorTexture": {
          "index": 0
        },
        "metallicFactor": 0
      },
      "extensions": {
        "KHR_materials_unlit": {}
      }
    }
  ],
  "buffers": [
    {
      "byteLength": 7160,
      "uri": "gym02_stage.bin"
    }
  ]
}