{
  "asset": {
    "version": "2.0"
  },
  "bufferViews": [
    {
      "buffer": 0,
      "byteLength": 144,
      "byteOffset": 0
    },
    {
      "buffer": 0,
      "byteLength": 96,
      "byteOffset": 144
    },
    {
      "buffer": 0,
      "byteLength": 48,
      "byteStride": 4,
      "byteOffset": 240
    },
    {
      "buffer": 0,
      "byteOffset": 288,
      "byteStride": 4,
      "byteLength": 48
    },
    {
      "buffer": 0,
      "byteOffset": 336,
      "byteStride": 4,
      "byteLength": 48
    },
    {
      "buffer": 0,
      "byteLength": 36,
      "byteOffset": 384
    },
    {
      "buffer": 0,
      "byteLength": 256,
      "byteOffset": 420
    },
    {
      "buffer": 0,
      "byteLength": 72024,
      "byteOffset": 676
    },
    {
      "buffer": 0,
      "byteOffset": 72700,
      "byteLength": 6000
    }
  ],
  "accessors": [
    {
      "bufferView": 0,
      "type": "VEC3",
      "componentType": 5126,
      "count": 12,
      "min": [
        -181.01416015625,
        0,
        -181.01416015625
      ],
      "max": [
        181.01416015625,
        10,
        181.01416015625
      ]
    },
    {
      "bufferView": 1,
      "type": "VEC2",
      "componentType": 5126,
      "count": 12
    },
    {
      "bufferView": 2,
      "type": "VEC3",
      "componentType": 5121,
      "normalized": true,
      "count": 12
    },
    {
      "bufferView": 3,
      "type": "VEC4",
      "componentType": 5121,
      "count": 12
    },
    {
      "bufferView": 4,
      "type": "VEC4",
      "componentType": 5121,
      "normalized": true,
      "count": 12
    },
    {
      "bufferView": 5,
      "type": "SCALAR",
      "byteOffset": 0,
      "componentType": 5123,
      "count": 6
    },
    {
      "bufferView": 5,
      "type": "SCALAR",
      "byteOffset": 12,
      "componentType": 5123,
      "count": 6
    },
    {
      "bufferView": 5,
      "type": "SCALAR",
      "byteOffset": 24,
      "componentType": 5123,
      "count": 6
    },
    {
      "bufferView": 6,
      "type": "MAT4",
      "componentType": 5126,
      "count": 4
    },
    {
      "bufferView": 8,
      "type": "SCALAR",
      "componentType": 5126,
      "byteOffset": 0,
      "count": 1,
      "min": [
        0
      ],
      "max": [
        0
      ]
    },
    {
      "bufferView": 7,
      "type": "VEC3",
      "componentType": 5126,
      "byteOffset": 0,
      "count": 1
    },
    {
      "bufferView": 8,
      "type": "SCALAR",
      "componentType": 5126,
      "byteOffset": 0,
      "count": 1500,
      "min": [
        0
      ],
      "max": [
        24.983335494995118
      ]
    },
    {
      "bufferView": 7,
      "type": "VEC4",
      "componentType": 5126,
      "byteOffset": 12,
      "count": 1500
    },
    {
      "bufferView": 7,
      "type": "VEC4",
      "componentType": 5126,
      "byteOffset": 24012,
      "count": 1500
    },
    {
      "bufferView": 7,
      "type": "VEC3",
      "componentType": 5126,
      "byteOffset": 48012,
      "count": 1
    },
    {
      "bufferView": 7,
      "type": "VEC4",
      "componentType": 5126,
      "byteOffset": 48024,
      "count": 1500
    }
  ],
  "extensionsUsed": [
    "FB_ngon_encoding",
    "KHR_materials_unlit"
  ],
  "meshes": [
    {
      "primitives": [
        {
          "attributes": {
            "POSITION": 0,
            "TEXCOORD_0": 1,
            "COLOR_0": 2,
            "JOINTS_0": 3,
            "WEIGHTS_0": 4
          },
          "material": 0,
          "indices": 5,
          "extensions": {
            "FB_ngon_encoding": {}
          }
        },
        {
          "attributes": {
            "POSITION": 0,
            "TEXCOORD_0": 1,
            "COLOR_0": 2,
            "JOINTS_0": 3,
            "WEIGHTS_0": 4
          },
          "material": 1,
          "indices": 6,
          "extensions": {
            "FB_ngon_encoding": {}
          }
        },
        {
          "attributes": {
            "POSITION": 0,
            "TEXCOORD_0": 1,
            "COLOR_0": 2,
            "JOINTS_0": 3,
            "WEIGHTS_0": 4
          },
          "material": 2,
          "indices": 7,
          "extensions": {
            "FB_ngon_encoding": {}
          }
        }
      ],
      "name": "ginga"
    }
  ],
  "nodes": [
    {
      "children": [
        1,
        2,
        3
      ],
      "name": "group1"
    },
    {
      "name": "pPlane1",
      "translation": [
        0,
        10,
        0
      ]
    },
    {
      "name": "pPlane2",
      "rotation": [
        0,
        0.9224256400104725,
        0,
        -0.386174751441974
      ]
    },
    {
      "name": "pPlane3",
      "translation": [
        0,
        5,
        0
      ]
    },
    {
      "mesh": 0,
      "skin": 0,
      "name": "ginga",
      "children": [
        0
      ]
    }
  ],
  "skins": [
    {
      "skeleton": 0,
      "joints": [
        0,
        1,
        2,
        3
      ],
      "inverseBindMatrices": 8
    }
  ],
  "scenes": [
    {
      "nodes": [
        4
      ],
      "name": "ginga"
    }
  ],
  "scene": 0,
  "animations": [
    {
      "name": "ginga",
      "samplers": [
        {
          "input": 9,
          "output": 10
        },
        {
          "input": 11,
          "output": 12
        },
        {
          "input": 11,
          "output": 13
        },
        {
          "input": 9,
          "output": 14
        },
        {
          "input": 11,
          "output": 15
        }
      ],
      "channels": [
        {
          "target": {
            "node": 1,
            "path": "translation"
          },
          "sampler": 0
        },
        {
          "target": {
            "node": 1,
            "path": "rotation"
          },
          "sampler": 1
        },
        {
          "target": {
            "node": 2,
            "path": "rotation"
          },
          "sampler": 2
        },
        {
          "target": {
            "node": 3,
            "path": "translation"
          },
          "sampler": 3
        },
        {
          "target": {
            "node": 3,
            "path": "rotation"
          },
          "sampler": 4
        }
      ]
    }
  ],
  "samplers": [
    {
      "wrapS": 33071,
      "wrapT": 33071,
      "magFilter": 9728,
      "minFilter": 9728
    },
    {
      "wrapS": 33648,
      "wrapT": 33648,
      "magFilter": 9728,
      "minFilter": 9728
    }
  ],
  "images": [
    {
      "uri": "ginga6.png"
    },
    {
      "uri": "star.png"
    }
  ],
  "textures": [
    {
      "source": 0,
      "sampler": 0
    },
    {
      "source": 1,
      "sampler": 1
    }
  ],
  "materials": [
    {
      "name": "lambert2",
      "pbrMetallicRoughness": {
        "baseColorTexture": {
          "index": 0
        },
        "metallicFactor": 0
      },
      "extensions": {
        "KHR_materials_unlit": {}
      },
      "alphaMode": "BLEND",
      "doubleSided": true
    },
    {
      "name": "lambert3",
      "pbrMetallicRoughness": {
        "baseColorTexture": {
          "index": 0
        },
        "metallicFactor": 0
      },
      "extensions": {
        "KHR_materials_unlit": {}
      },
      "alphaMode": "BLEND",
      "doubleSided": true
    },
    {
      "name": "lambert4",
      "pbrMetallicRoughness": {
        "baseColorTexture": {
          "index": 1
        },
        "metallicFactor": 0
      },
      "extensions": {
        "KHR_materials_unlit": {}
      },
      "alphaMode": "MASK",
      "doubleSided": true
    }
  ],
  "buffers": [
    {
      "byteLength": 78700,
      "uri": "ginga.bin"
    }
  ]
}