{
  "asset": {
    "version": "2.0"
  },
  "bufferViews": [
    {
      "buffer": 0,
      "byteLength": 684,
      "byteOffset": 0
    },
    {
      "buffer": 0,
      "byteLength": 456,
      "byteOffset": 684
    },
    {
      "buffer": 0,
      "byteLength": 228,
      "byteStride": 4,
      "byteOffset": 1140
    },
    {
      "buffer": 0,
      "byteOffset": 1368,
      "byteStride": 4,
      "byteLength": 228
    },
    {
      "buffer": 0,
      "byteOffset": 1596,
      "byteStride": 4,
      "byteLength": 228
    },
    {
      "buffer": 0,
      "byteLength": 186,
      "byteOffset": 1824
    },
    {
      "buffer": 0,
      "byteLength": 64,
      "byteOffset": 2012
    }
  ],
  "accessors": [
    {
      "bufferView": 0,
      "type": "VEC3",
      "componentType": 5126,
      "count": 57,
      "min": [
        -30,
        0,
        -1
      ],
      "max": [
        30,
        32,
        1
      ]
    },
    {
      "bufferView": 1,
      "type": "VEC2",
      "componentType": 5126,
      "count": 57
    },
    {
      "bufferView": 2,
      "type": "VEC3",
      "componentType": 5121,
      "normalized": true,
      "count": 57
    },
    {
      "bufferView": 3,
      "type": "VEC4",
      "componentType": 5121,
      "count": 57
    },
    {
      "bufferView": 4,
      "type": "VEC4",
      "componentType": 5121,
      "normalized": true,
      "count": 57
    },
    {
      "bufferView": 5,
      "type": "SCALAR",
      "byteOffset": 0,
      "componentType": 5123,
      "count": 93
    },
    {
      "bufferView": 6,
      "type": "MAT4",
      "componentType": 5126,
      "count": 1
    }
  ],
  "extensionsUsed": [
    "FB_ngon_encoding",
    "KHR_materials_unlit"
  ],
  "meshes": [
    {
      "primitives": [
        {
          "attributes": {
            "POSITION": 0,
            "TEXCOORD_0": 1,
            "COLOR_0": 2,
            "JOINTS_0": 3,
            "WEIGHTS_0": 4
          },
          "material": 0,
          "indices": 5,
          "extensions": {
            "FB_ngon_encoding": {}
          }
        }
      ],
      "name": "gym_wall01"
    }
  ],
  "nodes": [
    {
      "name": "gym_wall01"
    },
    {
      "mesh": 0,
      "skin": 0,
      "name": "gym_wall01",
      "children": [
        0
      ]
    }
  ],
  "skins": [
    {
      "skeleton": 0,
      "joints": [
        0
      ],
      "inverseBindMatrices": 6
    }
  ],
  "scenes": [
    {
      "nodes": [
        1
      ],
      "name": "gym_wall01"
    }
  ],
  "scene": 0,
  "samplers": [
    {
      "wrapS": 33071,
      "wrapT": 33071,
      "magFilter": 9728,
      "minFilter": 9728
    }
  ],
  "images": [
    {
      "uri": "gym07ita.png"
    }
  ],
  "textures": [
    {
      "source": 0,
      "sampler": 0
    }
  ],
  "materials": [
    {
      "name": "toita",
      "pbrMetallicRoughness": {
        "baseColorTexture": {
          "index": 0
        },
        "metallicFactor": 0
      },
      "extensions": {
        "KHR_materials_unlit": {}
      }
    }
  ],
  "buffers": [
    {
      "byteLength": 2076,
      "uri": "gym_wall01.bin"
    }
  ]
}