{
  "asset": {
    "version": "2.0"
  },
  "bufferViews": [
    {
      "buffer": 0,
      "byteLength": 2184,
      "byteOffset": 0
    },
    {
      "buffer": 0,
      "byteLength": 1456,
      "byteOffset": 2184
    },
    {
      "buffer": 0,
      "byteLength": 728,
      "byteStride": 4,
      "byteOffset": 3640
    },
    {
      "buffer": 0,
      "byteLength": 2184,
      "byteOffset": 4368
    },
    {
      "buffer": 0,
      "byteOffset": 6552,
      "byteStride": 4,
      "byteLength": 728
    },
    {
      "buffer": 0,
      "byteOffset": 7280,
      "byteStride": 4,
      "byteLength": 728
    },
    {
      "buffer": 0,
      "byteLength": 720,
      "byteOffset": 8008
    },
    {
      "buffer": 0,
      "byteLength": 192,
      "byteOffset": 8728
    },
    {
      "buffer": 0,
      "byteLength": 372,
      "byteOffset": 8920
    },
    {
      "buffer": 0,
      "byteOffset": 9292,
      "byteLength": 60
    }
  ],
  "accessors": [
    {
      "bufferView": 0,
      "type": "VEC3",
      "componentType": 5126,
      "count": 182,
      "min": [
        -5.465767860412598,
        -0.960258960723877,
        -3.592041015625
      ],
      "max": [
        21.46576690673828,
        58.66015625,
        19.592041015625
      ]
    },
    {
      "bufferView": 1,
      "type": "VEC2",
      "componentType": 5126,
      "count": 182
    },
    {
      "bufferView": 2,
      "type": "VEC3",
      "componentType": 5121,
      "normalized": true,
      "count": 182
    },
    {
      "bufferView": 3,
      "type": "VEC3",
      "componentType": 5126,
      "count": 182
    },
    {
      "bufferView": 4,
      "type": "VEC4",
      "componentType": 5121,
      "count": 182
    },
    {
      "bufferView": 5,
      "type": "VEC4",
      "componentType": 5121,
      "normalized": true,
      "count": 182
    },
    {
      "bufferView": 6,
      "type": "SCALAR",
      "byteOffset": 0,
      "componentType": 5123,
      "count": 36
    },
    {
      "bufferView": 6,
      "type": "SCALAR",
      "byteOffset": 72,
      "componentType": 5123,
      "count": 42
    },
    {
      "bufferView": 6,
      "type": "SCALAR",
      "byteOffset": 156,
      "componentType": 5123,
      "count": 102
    },
    {
      "bufferView": 6,
      "type": "SCALAR",
      "byteOffset": 360,
      "componentType": 5123,
      "count": 180
    },
    {
      "bufferView": 7,
      "type": "MAT4",
      "componentType": 5126,
      "count": 3
    },
    {
      "bufferView": 9,
      "type": "SCALAR",
      "componentType": 5126,
      "byteOffset": 0,
      "count": 1,
      "min": [
        0
      ],
      "max": [
        0
      ]
    },
    {
      "bufferView": 8,
      "type": "VEC3",
      "componentType": 5126,
      "byteOffset": 0,
      "count": 1
    },
    {
      "bufferView": 9,
      "type": "SCALAR",
      "componentType": 5126,
      "byteOffset": 0,
      "count": 15,
      "min": [
        0
      ],
      "max": [
        0.23333334922790528
      ]
    },
    {
      "bufferView": 8,
      "type": "VEC3",
      "componentType": 5126,
      "byteOffset": 12,
      "count": 15
    },
    {
      "bufferView": 8,
      "type": "VEC3",
      "componentType": 5126,
      "byteOffset": 192,
      "count": 15
    }
  ],
  "extensionsUsed": [
    "FB_ngon_encoding",
    "KHR_materials_unlit"
  ],
  "meshes": [
    {
      "primitives": [
        {
          "attributes": {
            "POSITION": 0,
            "TEXCOORD_0": 1,
            "COLOR_0": 2,
            "NORMAL": 3,
            "JOINTS_0": 4,
            "WEIGHTS_0": 5
          },
          "material": 2,
          "indices": 6,
          "extensions": {
            "FB_ngon_encoding": {}
          }
        },
        {
          "attributes": {
            "POSITION": 0,
            "TEXCOORD_0": 1,
            "COLOR_0": 2,
            "NORMAL": 3,
            "JOINTS_0": 4,
            "WEIGHTS_0": 5
          },
          "material": 3,
          "indices": 7,
          "extensions": {
            "FB_ngon_encoding": {}
          }
        },
        {
          "attributes": {
            "POSITION": 0,
            "TEXCOORD_0": 1,
            "COLOR_0": 2,
            "NORMAL": 3,
            "JOINTS_0": 4,
            "WEIGHTS_0": 5
          },
          "material": 0,
          "indices": 8,
          "extensions": {
            "FB_ngon_encoding": {}
          }
        },
        {
          "attributes": {
            "POSITION": 0,
            "TEXCOORD_0": 1,
            "COLOR_0": 2,
            "NORMAL": 3,
            "JOINTS_0": 4,
            "WEIGHTS_0": 5
          },
          "material": 1,
          "indices": 9,
          "extensions": {
            "FB_ngon_encoding": {}
          }
        }
      ],
      "name": "wifi_hanabi"
    }
  ],
  "nodes": [
    {
      "children": [
        1,
        2
      ],
      "name": "group1",
      "translation": [
        8,
        0,
        8
      ]
    },
    {
      "name": "f1",
      "scale": [
        0.61376953125,
        1,
        0.610107421875
      ]
    },
    {
      "name": "f2",
      "scale": [
        1,
        1.494384765625,
        1
      ]
    },
    {
      "mesh": 0,
      "skin": 0,
      "name": "wifi_hanabi",
      "children": [
        0
      ]
    }
  ],
  "skins": [
    {
      "skeleton": 0,
      "joints": [
        0,
        1,
        2
      ],
      "inverseBindMatrices": 10
    }
  ],
  "scenes": [
    {
      "nodes": [
        3
      ],
      "name": "wifi_hanabi"
    }
  ],
  "scene": 0,
  "animations": [
    {
      "name": "wifi_hanabi",
      "samplers": [
        {
          "input": 11,
          "output": 12
        },
        {
          "input": 13,
          "output": 14
        },
        {
          "input": 13,
          "output": 15
        }
      ],
      "channels": [
        {
          "target": {
            "node": 0,
            "path": "translation"
          },
          "sampler": 0
        },
        {
          "target": {
            "node": 1,
            "path": "scale"
          },
          "sampler": 1
        },
        {
          "target": {
            "node": 2,
            "path": "scale"
          },
          "sampler": 2
        }
      ]
    }
  ],
  "samplers": [
    {
      "wrapS": 10497,
      "wrapT": 10497,
      "magFilter": 9728,
      "minFilter": 9728
    }
  ],
  "images": [
    {
      "uri": "wifi_hanabi_2.png"
    }
  ],
  "textures": [
    {
      "source": 0,
      "sampler": 0
    }
  ],
  "materials": [
    {
      "name": "main1",
      "pbrMetallicRoughness": {
        "baseColorTexture": {
          "index": 0
        },
        "metallicFactor": 0
      },
      "extensions": {
        "KHR_materials_unlit": {}
      },
      "alphaMode": "MASK"
    },
    {
      "name": "main2",
      "pbrMetallicRoughness": {
        "baseColorTexture": {
          "index": 0
        },
        "metallicFactor": 0
      },
      "extensions": {
        "KHR_materials_unlit": {}
      },
      "alphaMode": "MASK"
    },
    {
      "name": "main3",
      "pbrMetallicRoughness": {
        "baseColorTexture": {
          "index": 0
        },
        "metallicFactor": 0,
        "baseColorFactor": [
          1,
          1,
          1,
          0.8709677457809448
        ]
      },
      "extensions": {
        "KHR_materials_unlit": {}
      },
      "alphaMode": "BLEND"
    },
    {
      "name": "main4",
      "pbrMetallicRoughness": {
        "baseColorTexture": {
          "index": 0
        },
        "metallicFactor": 0,
        "baseColorFactor": [
          1,
          1,
          1,
          0.6451612710952759
        ]
      },
      "extensions": {
        "KHR_materials_unlit": {}
      },
      "alphaMode": "BLEND"
    }
  ],
  "buffers": [
    {
      "byteLength": 9352,
      "uri": "wifi_hanabi.bin"
    }
  ]
}