{
  "asset": {
    "version": "2.0"
  },
  "bufferViews": [
    {
      "buffer": 0,
      "byteLength": 2184,
      "byteOffset": 0
    },
    {
      "buffer": 0,
      "byteLength": 1456,
      "byteOffset": 2184
    },
    {
      "buffer": 0,
      "byteLength": 728,
      "byteStride": 4,
      "byteOffset": 3640
    },
    {
      "buffer": 0,
      "byteOffset": 4368,
      "byteStride": 4,
      "byteLength": 728
    },
    {
      "buffer": 0,
      "byteOffset": 5096,
      "byteStride": 4,
      "byteLength": 728
    },
    {
      "buffer": 0,
      "byteLength": 708,
      "byteOffset": 5824
    },
    {
      "buffer": 0,
      "byteLength": 64,
      "byteOffset": 6532
    }
  ],
  "accessors": [
    {
      "bufferView": 0,
      "type": "VEC3",
      "componentType": 5126,
      "count": 182,
      "min": [
        -15,
        1,
        -9.12890625
      ],
      "max": [
        17,
        18,
        9
      ]
    },
    {
      "bufferView": 1,
      "type": "VEC2",
      "componentType": 5126,
      "count": 182
    },
    {
      "bufferView": 2,
      "type": "VEC3",
      "componentType": 5121,
      "normalized": true,
      "count": 182
    },
    {
      "bufferView": 3,
      "type": "VEC4",
      "componentType": 5121,
      "count": 182
    },
    {
      "bufferView": 4,
      "type": "VEC4",
      "componentType": 5121,
      "normalized": true,
      "count": 182
    },
    {
      "bufferView": 5,
      "type": "SCALAR",
      "byteOffset": 0,
      "componentType": 5123,
      "count": 24
    },
    {
      "bufferView": 5,
      "type": "SCALAR",
      "byteOffset": 48,
      "componentType": 5123,
      "count": 330
    },
    {
      "bufferView": 6,
      "type": "MAT4",
      "componentType": 5126,
      "count": 1
    }
  ],
  "extensionsUsed": [
    "FB_ngon_encoding",
    "KHR_materials_unlit"
  ],
  "meshes": [
    {
      "primitives": [
        {
          "attributes": {
            "POSITION": 0,
            "TEXCOORD_0": 1,
            "COLOR_0": 2,
            "JOINTS_0": 3,
            "WEIGHTS_0": 4
          },
          "material": 0,
          "indices": 5,
          "extensions": {
            "FB_ngon_encoding": {}
          }
        },
        {
          "attributes": {
            "POSITION": 0,
            "TEXCOORD_0": 1,
            "COLOR_0": 2,
            "JOINTS_0": 3,
            "WEIGHTS_0": 4
          },
          "material": 1,
          "indices": 6,
          "extensions": {
            "FB_ngon_encoding": {}
          }
        }
      ],
      "name": "sofa01_d"
    }
  ],
  "nodes": [
    {
      "name": "polySurface1"
    },
    {
      "mesh": 0,
      "skin": 0,
      "name": "sofa01_d",
      "children": [
        0
      ]
    }
  ],
  "skins": [
    {
      "skeleton": 0,
      "joints": [
        0
      ],
      "inverseBindMatrices": 7
    }
  ],
  "scenes": [
    {
      "nodes": [
        1
      ],
      "name": "sofa01_d"
    }
  ],
  "scene": 0,
  "samplers": [
    {
      "wrapS": 10497,
      "wrapT": 10497,
      "magFilter": 9728,
      "minFilter": 9728
    }
  ],
  "images": [
    {
      "uri": "h_kage.png"
    },
    {
      "uri": "sofa_a.png"
    }
  ],
  "textures": [
    {
      "source": 0,
      "sampler": 0
    },
    {
      "source": 1,
      "sampler": 0
    }
  ],
  "materials": [
    {
      "name": "h_kage",
      "pbrMetallicRoughness": {
        "baseColorTexture": {
          "index": 0
        },
        "metallicFactor": 0,
        "baseColorFactor": [
          1,
          1,
          1,
          0.29032257199287417
        ]
      },
      "extensions": {
        "KHR_materials_unlit": {}
      },
      "alphaMode": "BLEND"
    },
    {
      "name": "sofa_a",
      "pbrMetallicRoughness": {
        "baseColorTexture": {
          "index": 1
        },
        "metallicFactor": 0
      },
      "extensions": {
        "KHR_materials_unlit": {}
      }
    }
  ],
  "buffers": [
    {
      "byteLength": 6596,
      "uri": "sofa01_d.bin"
    }
  ]
}