{
  "asset": {
    "version": "2.0"
  },
  "bufferViews": [
    {
      "buffer": 0,
      "byteLength": 312,
      "byteOffset": 0
    },
    {
      "buffer": 0,
      "byteLength": 208,
      "byteOffset": 312
    },
    {
      "buffer": 0,
      "byteOffset": 520,
      "byteStride": 4,
      "byteLength": 104
    },
    {
      "buffer": 0,
      "byteOffset": 624,
      "byteStride": 4,
      "byteLength": 104
    },
    {
      "buffer": 0,
      "byteLength": 144,
      "byteOffset": 728
    },
    {
      "buffer": 0,
      "byteLength": 64,
      "byteOffset": 872
    }
  ],
  "accessors": [
    {
      "bufferView": 0,
      "type": "VEC3",
      "componentType": 5126,
      "count": 26,
      "min": [
        -16,
        0,
        -16
      ],
      "max": [
        16,
        64,
        16
      ]
    },
    {
      "bufferView": 1,
      "type": "VEC2",
      "componentType": 5126,
      "count": 26
    },
    {
      "bufferView": 2,
      "type": "VEC4",
      "componentType": 5121,
      "count": 26
    },
    {
      "bufferView": 3,
      "type": "VEC4",
      "componentType": 5121,
      "normalized": true,
      "count": 26
    },
    {
      "bufferView": 4,
      "type": "SCALAR",
      "byteOffset": 0,
      "componentType": 5123,
      "count": 72
    },
    {
      "bufferView": 5,
      "type": "MAT4",
      "componentType": 5126,
      "count": 1
    }
  ],
  "extensionsUsed": [
    "FB_ngon_encoding",
    "KHR_materials_unlit"
  ],
  "meshes": [
    {
      "primitives": [
        {
          "attributes": {
            "POSITION": 0,
            "TEXCOORD_0": 1,
            "JOINTS_0": 2,
            "WEIGHTS_0": 3
          },
          "material": 0,
          "indices": 4,
          "extensions": {
            "FB_ngon_encoding": {}
          }
        }
      ],
      "name": "gym_light1"
    }
  ],
  "nodes": [
    {
      "name": "pCylinder1",
      "translation": [
        0,
        32,
        0
      ],
      "scale": [
        16,
        32,
        16
      ]
    },
    {
      "mesh": 0,
      "skin": 0,
      "name": "gym_light1",
      "children": [
        0
      ]
    }
  ],
  "skins": [
    {
      "skeleton": 0,
      "joints": [
        0
      ],
      "inverseBindMatrices": 5
    }
  ],
  "scenes": [
    {
      "nodes": [
        1
      ],
      "name": "gym_light1"
    }
  ],
  "scene": 0,
  "samplers": [
    {
      "wrapS": 10497,
      "wrapT": 10497,
      "magFilter": 9728,
      "minFilter": 9728
    }
  ],
  "images": [
    {
      "uri": "gym_light.png"
    }
  ],
  "textures": [
    {
      "source": 0,
      "sampler": 0
    }
  ],
  "materials": [
    {
      "name": "gym_light_lm1",
      "pbrMetallicRoughness": {
        "baseColorTexture": {
          "index": 0
        },
        "metallicFactor": 0
      },
      "extensions": {
        "KHR_materials_unlit": {}
      },
      "alphaMode": "BLEND",
      "emissiveFactor": [
        0.29032257199287417,
        0.29032257199287417,
        0.29032257199287417
      ],
      "doubleSided": true
    }
  ],
  "buffers": [
    {
      "byteLength": 936,
      "uri": "gym_light1.bin"
    }
  ]
}