{
  "asset": {
    "version": "2.0"
  },
  "bufferViews": [
    {
      "buffer": 0,
      "byteLength": 5100,
      "byteOffset": 0
    },
    {
      "buffer": 0,
      "byteLength": 3400,
      "byteOffset": 5100
    },
    {
      "buffer": 0,
      "byteLength": 1700,
      "byteStride": 4,
      "byteOffset": 8500
    },
    {
      "buffer": 0,
      "byteOffset": 10200,
      "byteStride": 4,
      "byteLength": 1700
    },
    {
      "buffer": 0,
      "byteOffset": 11900,
      "byteStride": 4,
      "byteLength": 1700
    },
    {
      "buffer": 0,
      "byteLength": 1410,
      "byteOffset": 13600
    },
    {
      "buffer": 0,
      "byteLength": 64,
      "byteOffset": 15012
    }
  ],
  "accessors": [
    {
      "bufferView": 0,
      "type": "VEC3",
      "componentType": 5126,
      "count": 425,
      "min": [
        -208,
        -2,
        -214
      ],
      "max": [
        48,
        46,
        -48
      ]
    },
    {
      "bufferView": 1,
      "type": "VEC2",
      "componentType": 5126,
      "count": 425
    },
    {
      "bufferView": 2,
      "type": "VEC3",
      "componentType": 5121,
      "normalized": true,
      "count": 425
    },
    {
      "bufferView": 3,
      "type": "VEC4",
      "componentType": 5121,
      "count": 425
    },
    {
      "bufferView": 4,
      "type": "VEC4",
      "componentType": 5121,
      "normalized": true,
      "count": 425
    },
    {
      "bufferView": 5,
      "type": "SCALAR",
      "byteOffset": 0,
      "componentType": 5123,
      "count": 42
    },
    {
      "bufferView": 5,
      "type": "SCALAR",
      "byteOffset": 84,
      "componentType": 5123,
      "count": 135
    },
    {
      "bufferView": 5,
      "type": "SCALAR",
      "byteOffset": 354,
      "componentType": 5123,
      "count": 198
    },
    {
      "bufferView": 5,
      "type": "SCALAR",
      "byteOffset": 750,
      "componentType": 5123,
      "count": 330
    },
    {
      "bufferView": 6,
      "type": "MAT4",
      "componentType": 5126,
      "count": 1
    }
  ],
  "extensionsUsed": [
    "FB_ngon_encoding",
    "KHR_materials_unlit"
  ],
  "meshes": [
    {
      "primitives": [
        {
          "attributes": {
            "POSITION": 0,
            "TEXCOORD_0": 1,
            "COLOR_0": 2,
            "JOINTS_0": 3,
            "WEIGHTS_0": 4
          },
          "material": 2,
          "indices": 5,
          "extensions": {
            "FB_ngon_encoding": {}
          }
        },
        {
          "attributes": {
            "POSITION": 0,
            "TEXCOORD_0": 1,
            "COLOR_0": 2,
            "JOINTS_0": 3,
            "WEIGHTS_0": 4
          },
          "material": 1,
          "indices": 6,
          "extensions": {
            "FB_ngon_encoding": {}
          }
        },
        {
          "attributes": {
            "POSITION": 0,
            "TEXCOORD_0": 1,
            "COLOR_0": 2,
            "JOINTS_0": 3,
            "WEIGHTS_0": 4
          },
          "material": 0,
          "indices": 7,
          "extensions": {
            "FB_ngon_encoding": {}
          }
        },
        {
          "attributes": {
            "POSITION": 0,
            "TEXCOORD_0": 1,
            "COLOR_0": 2,
            "JOINTS_0": 3,
            "WEIGHTS_0": 4
          },
          "material": 3,
          "indices": 8,
          "extensions": {
            "FB_ngon_encoding": {}
          }
        }
      ],
      "name": "m_buil05_00_00c"
    }
  ],
  "nodes": [
    {
      "name": "polySurface46"
    },
    {
      "mesh": 0,
      "skin": 0,
      "name": "m_buil05_00_00c",
      "children": [
        0
      ]
    }
  ],
  "skins": [
    {
      "skeleton": 0,
      "joints": [
        0
      ],
      "inverseBindMatrices": 9
    }
  ],
  "scenes": [
    {
      "nodes": [
        1
      ],
      "name": "m_buil05_00_00c"
    }
  ],
  "scene": 0,
  "samplers": [
    {
      "wrapS": 10497,
      "wrapT": 10497,
      "magFilter": 9728,
      "minFilter": 9728
    }
  ],
  "images": [
    {
      "uri": "floor_b01.png"
    },
    {
      "uri": "floor_b02.png"
    },
    {
      "uri": "shikii_b01.png"
    },
    {
      "uri": "wall_b01.png"
    }
  ],
  "textures": [
    {
      "source": 0,
      "sampler": 0
    },
    {
      "source": 1,
      "sampler": 0
    },
    {
      "source": 2,
      "sampler": 0
    },
    {
      "source": 3,
      "sampler": 0
    }
  ],
  "materials": [
    {
      "name": "floor_b01mat",
      "pbrMetallicRoughness": {
        "baseColorTexture": {
          "index": 0
        },
        "metallicFactor": 0
      },
      "extensions": {
        "KHR_materials_unlit": {}
      }
    },
    {
      "name": "floor_b02mat",
      "pbrMetallicRoughness": {
        "baseColorTexture": {
          "index": 1
        },
        "metallicFactor": 0
      },
      "extensions": {
        "KHR_materials_unlit": {}
      }
    },
    {
      "name": "shikii_b01mat",
      "pbrMetallicRoughness": {
        "baseColorTexture": {
          "index": 2
        },
        "metallicFactor": 0
      },
      "extensions": {
        "KHR_materials_unlit": {}
      }
    },
    {
      "name": "wall_b01mat",
      "pbrMetallicRoughness": {
        "baseColorTexture": {
          "index": 3
        },
        "metallicFactor": 0
      },
      "extensions": {
        "KHR_materials_unlit": {}
      }
    }
  ],
  "buffers": [
    {
      "byteLength": 15076,
      "uri": "m_buil05_00_00c.bin"
    }
  ]
}