{
  "asset": {
    "version": "2.0"
  },
  "bufferViews": [
    {
      "buffer": 0,
      "byteLength": 2688,
      "byteOffset": 0
    },
    {
      "buffer": 0,
      "byteLength": 1792,
      "byteOffset": 2688
    },
    {
      "buffer": 0,
      "byteLength": 896,
      "byteStride": 4,
      "byteOffset": 4480
    },
    {
      "buffer": 0,
      "byteLength": 2688,
      "byteOffset": 5376
    },
    {
      "buffer": 0,
      "byteOffset": 8064,
      "byteStride": 4,
      "byteLength": 896
    },
    {
      "buffer": 0,
      "byteOffset": 8960,
      "byteStride": 4,
      "byteLength": 896
    },
    {
      "buffer": 0,
      "byteLength": 804,
      "byteOffset": 9856
    },
    {
      "buffer": 0,
      "byteLength": 64,
      "byteOffset": 10660
    }
  ],
  "accessors": [
    {
      "bufferView": 0,
      "type": "VEC3",
      "componentType": 5126,
      "count": 224,
      "min": [
        -33.76171875,
        1,
        -18.265625
      ],
      "max": [
        33.76171875,
        62.626953125,
        18.265625
      ]
    },
    {
      "bufferView": 1,
      "type": "VEC2",
      "componentType": 5126,
      "count": 224
    },
    {
      "bufferView": 2,
      "type": "VEC3",
      "componentType": 5121,
      "normalized": true,
      "count": 224
    },
    {
      "bufferView": 3,
      "type": "VEC3",
      "componentType": 5126,
      "count": 224
    },
    {
      "bufferView": 4,
      "type": "VEC4",
      "componentType": 5121,
      "count": 224
    },
    {
      "bufferView": 5,
      "type": "VEC4",
      "componentType": 5121,
      "normalized": true,
      "count": 224
    },
    {
      "bufferView": 6,
      "type": "SCALAR",
      "byteOffset": 0,
      "componentType": 5123,
      "count": 6
    },
    {
      "bufferView": 6,
      "type": "SCALAR",
      "byteOffset": 12,
      "componentType": 5123,
      "count": 396
    },
    {
      "bufferView": 7,
      "type": "MAT4",
      "componentType": 5126,
      "count": 1
    }
  ],
  "extensionsUsed": [
    "FB_ngon_encoding",
    "KHR_materials_unlit"
  ],
  "meshes": [
    {
      "primitives": [
        {
          "attributes": {
            "POSITION": 0,
            "TEXCOORD_0": 1,
            "COLOR_0": 2,
            "NORMAL": 3,
            "JOINTS_0": 4,
            "WEIGHTS_0": 5
          },
          "material": 0,
          "indices": 6,
          "extensions": {
            "FB_ngon_encoding": {}
          }
        },
        {
          "attributes": {
            "POSITION": 0,
            "TEXCOORD_0": 1,
            "COLOR_0": 2,
            "NORMAL": 3,
            "JOINTS_0": 4,
            "WEIGHTS_0": 5
          },
          "material": 1,
          "indices": 7,
          "extensions": {
            "FB_ngon_encoding": {}
          }
        }
      ],
      "name": "c1_h01b"
    }
  ],
  "nodes": [
    {
      "name": "polySurface31"
    },
    {
      "mesh": 0,
      "skin": 0,
      "name": "c1_h01b",
      "children": [
        0
      ]
    }
  ],
  "skins": [
    {
      "skeleton": 0,
      "joints": [
        0
      ],
      "inverseBindMatrices": 8
    }
  ],
  "scenes": [
    {
      "nodes": [
        1
      ],
      "name": "c1_h01b"
    }
  ],
  "scene": 0,
  "samplers": [
    {
      "wrapS": 10497,
      "wrapT": 10497,
      "magFilter": 9728,
      "minFilter": 9728
    }
  ],
  "images": [
    {
      "uri": "c1_h01_1.png"
    }
  ],
  "textures": [
    {
      "source": 0,
      "sampler": 0
    }
  ],
  "materials": [
    {
      "name": "Light",
      "extensions": {
        "KHR_materials_unlit": {}
      }
    },
    {
      "name": "c1_h01_1",
      "pbrMetallicRoughness": {
        "baseColorTexture": {
          "index": 0
        },
        "metallicFactor": 0
      },
      "extensions": {
        "KHR_materials_unlit": {}
      },
      "alphaMode": "MASK"
    }
  ],
  "buffers": [
    {
      "byteLength": 10724,
      "uri": "c1_h01b.bin"
    }
  ]
}