{
  "asset": {
    "version": "2.0"
  },
  "bufferViews": [
    {
      "buffer": 0,
      "byteLength": 13512,
      "byteOffset": 0
    },
    {
      "buffer": 0,
      "byteLength": 9008,
      "byteOffset": 13512
    },
    {
      "buffer": 0,
      "byteLength": 4504,
      "byteStride": 4,
      "byteOffset": 22520
    },
    {
      "buffer": 0,
      "byteLength": 13512,
      "byteOffset": 27024
    },
    {
      "buffer": 0,
      "byteOffset": 40536,
      "byteStride": 4,
      "byteLength": 4504
    },
    {
      "buffer": 0,
      "byteOffset": 45040,
      "byteStride": 4,
      "byteLength": 4504
    },
    {
      "buffer": 0,
      "byteLength": 3492,
      "byteOffset": 49544
    },
    {
      "buffer": 0,
      "byteLength": 192,
      "byteOffset": 53036
    },
    {
      "buffer": 0,
      "byteLength": 1468,
      "byteOffset": 53228
    },
    {
      "buffer": 0,
      "byteOffset": 54696,
      "byteLength": 364
    }
  ],
  "accessors": [
    {
      "bufferView": 0,
      "type": "VEC3",
      "componentType": 5126,
      "count": 1126,
      "min": [
        -1.30859375,
        0,
        1.49609375
      ],
      "max": [
        49.30859375,
        81.953125,
        46.78125
      ]
    },
    {
      "bufferView": 1,
      "type": "VEC2",
      "componentType": 5126,
      "count": 1126
    },
    {
      "bufferView": 2,
      "type": "VEC3",
      "componentType": 5121,
      "normalized": true,
      "count": 1126
    },
    {
      "bufferView": 3,
      "type": "VEC3",
      "componentType": 5126,
      "count": 1126
    },
    {
      "bufferView": 4,
      "type": "VEC4",
      "componentType": 5121,
      "count": 1126
    },
    {
      "bufferView": 5,
      "type": "VEC4",
      "componentType": 5121,
      "normalized": true,
      "count": 1126
    },
    {
      "bufferView": 6,
      "type": "SCALAR",
      "byteOffset": 0,
      "componentType": 5123,
      "count": 24
    },
    {
      "bufferView": 6,
      "type": "SCALAR",
      "byteOffset": 48,
      "componentType": 5123,
      "count": 852
    },
    {
      "bufferView": 6,
      "type": "SCALAR",
      "byteOffset": 1752,
      "componentType": 5123,
      "count": 114
    },
    {
      "bufferView": 6,
      "type": "SCALAR",
      "byteOffset": 1980,
      "componentType": 5123,
      "count": 213
    },
    {
      "bufferView": 6,
      "type": "SCALAR",
      "byteOffset": 2406,
      "componentType": 5123,
      "count": 543
    },
    {
      "bufferView": 7,
      "type": "MAT4",
      "componentType": 5126,
      "count": 3
    },
    {
      "bufferView": 9,
      "type": "SCALAR",
      "componentType": 5126,
      "byteOffset": 0,
      "count": 1,
      "min": [
        0
      ],
      "max": [
        0
      ]
    },
    {
      "bufferView": 8,
      "type": "VEC3",
      "componentType": 5126,
      "byteOffset": 0,
      "count": 1
    },
    {
      "bufferView": 9,
      "type": "SCALAR",
      "componentType": 5126,
      "byteOffset": 0,
      "count": 91,
      "min": [
        0
      ],
      "max": [
        1.5000001192092896
      ]
    },
    {
      "bufferView": 8,
      "type": "VEC4",
      "componentType": 5126,
      "byteOffset": 12,
      "count": 91
    }
  ],
  "extensionsUsed": [
    "FB_ngon_encoding",
    "KHR_materials_unlit"
  ],
  "meshes": [
    {
      "primitives": [
        {
          "attributes": {
            "POSITION": 0,
            "TEXCOORD_0": 1,
            "COLOR_0": 2,
            "NORMAL": 3,
            "JOINTS_0": 4,
            "WEIGHTS_0": 5
          },
          "material": 0,
          "indices": 6,
          "extensions": {
            "FB_ngon_encoding": {}
          }
        },
        {
          "attributes": {
            "POSITION": 0,
            "TEXCOORD_0": 1,
            "COLOR_0": 2,
            "NORMAL": 3,
            "JOINTS_0": 4,
            "WEIGHTS_0": 5
          },
          "material": 1,
          "indices": 7,
          "extensions": {
            "FB_ngon_encoding": {}
          }
        },
        {
          "attributes": {
            "POSITION": 0,
            "TEXCOORD_0": 1,
            "COLOR_0": 2,
            "NORMAL": 3,
            "JOINTS_0": 4,
            "WEIGHTS_0": 5
          },
          "material": 4,
          "indices": 8,
          "extensions": {
            "FB_ngon_encoding": {}
          }
        },
        {
          "attributes": {
            "POSITION": 0,
            "TEXCOORD_0": 1,
            "COLOR_0": 2,
            "NORMAL": 3,
            "JOINTS_0": 4,
            "WEIGHTS_0": 5
          },
          "material": 3,
          "indices": 9,
          "extensions": {
            "FB_ngon_encoding": {}
          }
        },
        {
          "attributes": {
            "POSITION": 0,
            "TEXCOORD_0": 1,
            "COLOR_0": 2,
            "NORMAL": 3,
            "JOINTS_0": 4,
            "WEIGHTS_0": 5
          },
          "material": 2,
          "indices": 10,
          "extensions": {
            "FB_ngon_encoding": {}
          }
        }
      ],
      "name": "wifi_game2"
    }
  ],
  "nodes": [
    {
      "children": [
        1,
        2
      ],
      "name": "world_root"
    },
    {
      "name": "gameki"
    },
    {
      "name": "poke",
      "translation": [
        24,
        0,
        24
      ]
    },
    {
      "mesh": 0,
      "skin": 0,
      "name": "wifi_game2",
      "children": [
        0
      ]
    }
  ],
  "skins": [
    {
      "skeleton": 0,
      "joints": [
        0,
        1,
        2
      ],
      "inverseBindMatrices": 11
    }
  ],
  "scenes": [
    {
      "nodes": [
        3
      ],
      "name": "wifi_game2"
    }
  ],
  "scene": 0,
  "animations": [
    {
      "name": "wifi_game2",
      "samplers": [
        {
          "input": 12,
          "output": 13
        },
        {
          "input": 14,
          "output": 15
        }
      ],
      "channels": [
        {
          "target": {
            "node": 2,
            "path": "translation"
          },
          "sampler": 0
        },
        {
          "target": {
            "node": 2,
            "path": "rotation"
          },
          "sampler": 1
        }
      ]
    }
  ],
  "samplers": [
    {
      "wrapS": 10497,
      "wrapT": 10497,
      "magFilter": 9728,
      "minFilter": 9728
    }
  ],
  "images": [
    {
      "uri": "gameki_gamen_0.png"
    },
    {
      "uri": "minigameki.png"
    },
    {
      "uri": "manene_blue.png"
    },
    {
      "uri": "manene_eye.png"
    },
    {
      "uri": "manene_red.png"
    }
  ],
  "textures": [
    {
      "source": 0,
      "sampler": 0
    },
    {
      "source": 1,
      "sampler": 0
    },
    {
      "source": 2,
      "sampler": 0
    },
    {
      "source": 3,
      "sampler": 0
    },
    {
      "source": 4,
      "sampler": 0
    }
  ],
  "materials": [
    {
      "name": "gamen",
      "pbrMetallicRoughness": {
        "baseColorTexture": {
          "index": 0
        },
        "metallicFactor": 0
      },
      "extensions": {
        "KHR_materials_unlit": {}
      }
    },
    {
      "name": "main",
      "pbrMetallicRoughness": {
        "baseColorTexture": {
          "index": 1
        },
        "metallicFactor": 0
      },
      "extensions": {
        "KHR_materials_unlit": {}
      },
      "alphaMode": "MASK"
    },
    {
      "name": "manene1",
      "pbrMetallicRoughness": {
        "baseColorTexture": {
          "index": 2
        },
        "metallicFactor": 0
      },
      "extensions": {
        "KHR_materials_unlit": {}
      }
    },
    {
      "name": "manene2",
      "pbrMetallicRoughness": {
        "baseColorTexture": {
          "index": 3
        },
        "metallicFactor": 0
      },
      "extensions": {
        "KHR_materials_unlit": {}
      }
    },
    {
      "name": "manene3",
      "pbrMetallicRoughness": {
        "baseColorTexture": {
          "index": 4
        },
        "metallicFactor": 0
      },
      "extensions": {
        "KHR_materials_unlit": {}
      }
    }
  ],
  "buffers": [
    {
      "byteLength": 55060,
      "uri": "wifi_game2.bin"
    }
  ]
}