{
  "asset": {
    "version": "2.0"
  },
  "bufferViews": [
    {
      "buffer": 0,
      "byteLength": 240,
      "byteOffset": 0
    },
    {
      "buffer": 0,
      "byteLength": 160,
      "byteOffset": 240
    },
    {
      "buffer": 0,
      "byteLength": 80,
      "byteStride": 4,
      "byteOffset": 400
    },
    {
      "buffer": 0,
      "byteLength": 240,
      "byteOffset": 480
    },
    {
      "buffer": 0,
      "byteOffset": 720,
      "byteStride": 4,
      "byteLength": 80
    },
    {
      "buffer": 0,
      "byteOffset": 800,
      "byteStride": 4,
      "byteLength": 80
    },
    {
      "buffer": 0,
      "byteLength": 60,
      "byteOffset": 880
    },
    {
      "buffer": 0,
      "byteLength": 320,
      "byteOffset": 940
    },
    {
      "buffer": 0,
      "byteLength": 15432,
      "byteOffset": 1260
    },
    {
      "buffer": 0,
      "byteOffset": 16692,
      "byteLength": 960
    }
  ],
  "accessors": [
    {
      "bufferView": 0,
      "type": "VEC3",
      "componentType": 5126,
      "count": 20,
      "min": [
        -62.400390625,
        2,
        -60.400390625
      ],
      "max": [
        62.400390625,
        10,
        64.400390625
      ]
    },
    {
      "bufferView": 1,
      "type": "VEC2",
      "componentType": 5126,
      "count": 20
    },
    {
      "bufferView": 2,
      "type": "VEC3",
      "componentType": 5121,
      "normalized": true,
      "count": 20
    },
    {
      "bufferView": 3,
      "type": "VEC3",
      "componentType": 5126,
      "count": 20
    },
    {
      "bufferView": 4,
      "type": "VEC4",
      "componentType": 5121,
      "count": 20
    },
    {
      "bufferView": 5,
      "type": "VEC4",
      "componentType": 5121,
      "normalized": true,
      "count": 20
    },
    {
      "bufferView": 6,
      "type": "SCALAR",
      "byteOffset": 0,
      "componentType": 5123,
      "count": 6
    },
    {
      "bufferView": 6,
      "type": "SCALAR",
      "byteOffset": 12,
      "componentType": 5123,
      "count": 6
    },
    {
      "bufferView": 6,
      "type": "SCALAR",
      "byteOffset": 24,
      "componentType": 5123,
      "count": 6
    },
    {
      "bufferView": 6,
      "type": "SCALAR",
      "byteOffset": 36,
      "componentType": 5123,
      "count": 6
    },
    {
      "bufferView": 6,
      "type": "SCALAR",
      "byteOffset": 48,
      "componentType": 5123,
      "count": 6
    },
    {
      "bufferView": 7,
      "type": "MAT4",
      "componentType": 5126,
      "count": 5
    },
    {
      "bufferView": 9,
      "type": "SCALAR",
      "componentType": 5126,
      "byteOffset": 0,
      "count": 1,
      "min": [
        0
      ],
      "max": [
        0
      ]
    },
    {
      "bufferView": 8,
      "type": "VEC3",
      "componentType": 5126,
      "byteOffset": 0,
      "count": 1
    },
    {
      "bufferView": 8,
      "type": "VEC3",
      "componentType": 5126,
      "byteOffset": 12,
      "count": 1
    },
    {
      "bufferView": 9,
      "type": "SCALAR",
      "componentType": 5126,
      "byteOffset": 0,
      "count": 240,
      "min": [
        0
      ],
      "max": [
        3.9833335876464845
      ]
    },
    {
      "bufferView": 8,
      "type": "VEC4",
      "componentType": 5126,
      "byteOffset": 24,
      "count": 240
    },
    {
      "bufferView": 8,
      "type": "VEC3",
      "componentType": 5126,
      "byteOffset": 3864,
      "count": 1
    },
    {
      "bufferView": 8,
      "type": "VEC4",
      "componentType": 5126,
      "byteOffset": 3876,
      "count": 240
    },
    {
      "bufferView": 8,
      "type": "VEC3",
      "componentType": 5126,
      "byteOffset": 7716,
      "count": 1
    },
    {
      "bufferView": 8,
      "type": "VEC4",
      "componentType": 5126,
      "byteOffset": 7728,
      "count": 240
    },
    {
      "bufferView": 8,
      "type": "VEC3",
      "componentType": 5126,
      "byteOffset": 11568,
      "count": 1
    },
    {
      "bufferView": 8,
      "type": "VEC3",
      "componentType": 5126,
      "byteOffset": 11580,
      "count": 1
    },
    {
      "bufferView": 8,
      "type": "VEC4",
      "componentType": 5126,
      "byteOffset": 11592,
      "count": 240
    }
  ],
  "extensionsUsed": [
    "FB_ngon_encoding",
    "KHR_materials_unlit"
  ],
  "meshes": [
    {
      "primitives": [
        {
          "attributes": {
            "POSITION": 0,
            "TEXCOORD_0": 1,
            "COLOR_0": 2,
            "NORMAL": 3,
            "JOINTS_0": 4,
            "WEIGHTS_0": 5
          },
          "material": 2,
          "indices": 6,
          "extensions": {
            "FB_ngon_encoding": {}
          }
        },
        {
          "attributes": {
            "POSITION": 0,
            "TEXCOORD_0": 1,
            "COLOR_0": 2,
            "NORMAL": 3,
            "JOINTS_0": 4,
            "WEIGHTS_0": 5
          },
          "material": 4,
          "indices": 7,
          "extensions": {
            "FB_ngon_encoding": {}
          }
        },
        {
          "attributes": {
            "POSITION": 0,
            "TEXCOORD_0": 1,
            "COLOR_0": 2,
            "NORMAL": 3,
            "JOINTS_0": 4,
            "WEIGHTS_0": 5
          },
          "material": 3,
          "indices": 8,
          "extensions": {
            "FB_ngon_encoding": {}
          }
        },
        {
          "attributes": {
            "POSITION": 0,
            "TEXCOORD_0": 1,
            "COLOR_0": 2,
            "NORMAL": 3,
            "JOINTS_0": 4,
            "WEIGHTS_0": 5
          },
          "material": 1,
          "indices": 9,
          "extensions": {
            "FB_ngon_encoding": {}
          }
        },
        {
          "attributes": {
            "POSITION": 0,
            "TEXCOORD_0": 1,
            "COLOR_0": 2,
            "NORMAL": 3,
            "JOINTS_0": 4,
            "WEIGHTS_0": 5
          },
          "material": 0,
          "indices": 10,
          "extensions": {
            "FB_ngon_encoding": {}
          }
        }
      ],
      "name": "d5_ana_pl"
    }
  ],
  "nodes": [
    {
      "children": [
        1,
        2,
        3,
        4
      ],
      "name": "d5_ana_pl",
      "translation": [
        0,
        8,
        14
      ]
    },
    {
      "name": "d5_ana_pl_1",
      "translation": [
        0,
        -6,
        -12
      ]
    },
    {
      "name": "d5_ana_pl_2",
      "translation": [
        0,
        -4,
        -12
      ]
    },
    {
      "name": "d5_ana_pl_3",
      "translation": [
        0,
        -2,
        -3
      ],
      "scale": [
        0.89990234375,
        0.89990234375,
        0.89990234375
      ]
    },
    {
      "name": "d5_ana_pl_4",
      "translation": [
        0,
        2,
        4
      ]
    },
    {
      "mesh": 0,
      "skin": 0,
      "name": "d5_ana_pl",
      "children": [
        0
      ]
    }
  ],
  "skins": [
    {
      "skeleton": 0,
      "joints": [
        0,
        1,
        2,
        3,
        4
      ],
      "inverseBindMatrices": 11
    }
  ],
  "scenes": [
    {
      "nodes": [
        5
      ],
      "name": "d5_ana_pl"
    }
  ],
  "scene": 0,
  "animations": [
    {
      "name": "d5_ana_pl",
      "samplers": [
        {
          "input": 12,
          "output": 13
        },
        {
          "input": 12,
          "output": 14
        },
        {
          "input": 15,
          "output": 16
        },
        {
          "input": 12,
          "output": 17
        },
        {
          "input": 15,
          "output": 18
        },
        {
          "input": 12,
          "output": 19
        },
        {
          "input": 15,
          "output": 20
        },
        {
          "input": 12,
          "output": 21
        },
        {
          "input": 12,
          "output": 22
        },
        {
          "input": 15,
          "output": 23
        }
      ],
      "channels": [
        {
          "target": {
            "node": 0,
            "path": "translation"
          },
          "sampler": 0
        },
        {
          "target": {
            "node": 1,
            "path": "translation"
          },
          "sampler": 1
        },
        {
          "target": {
            "node": 1,
            "path": "rotation"
          },
          "sampler": 2
        },
        {
          "target": {
            "node": 2,
            "path": "translation"
          },
          "sampler": 3
        },
        {
          "target": {
            "node": 2,
            "path": "rotation"
          },
          "sampler": 4
        },
        {
          "target": {
            "node": 3,
            "path": "translation"
          },
          "sampler": 5
        },
        {
          "target": {
            "node": 3,
            "path": "rotation"
          },
          "sampler": 6
        },
        {
          "target": {
            "node": 3,
            "path": "scale"
          },
          "sampler": 7
        },
        {
          "target": {
            "node": 4,
            "path": "translation"
          },
          "sampler": 8
        },
        {
          "target": {
            "node": 4,
            "path": "rotation"
          },
          "sampler": 9
        }
      ]
    }
  ],
  "samplers": [
    {
      "wrapS": 10497,
      "wrapT": 10497,
      "magFilter": 9728,
      "minFilter": 9728
    }
  ],
  "images": [
    {
      "uri": "g_demo_ana1.png"
    },
    {
      "uri": "g_demo_ana2.png"
    },
    {
      "uri": "g_demo_ana3.png"
    },
    {
      "uri": "g_demo_ana4.png"
    }
  ],
  "textures": [
    {
      "source": 0,
      "sampler": 0
    },
    {
      "source": 1,
      "sampler": 0
    },
    {
      "source": 2,
      "sampler": 0
    },
    {
      "source": 3,
      "sampler": 0
    }
  ],
  "materials": [
    {
      "name": "g_demo_ana1_lm1",
      "pbrMetallicRoughness": {
        "baseColorTexture": {
          "index": 0
        },
        "metallicFactor": 0
      },
      "extensions": {
        "KHR_materials_unlit": {}
      },
      "alphaMode": "BLEND"
    },
    {
      "name": "g_demo_ana2_lm1",
      "pbrMetallicRoughness": {
        "baseColorTexture": {
          "index": 1
        },
        "metallicFactor": 0
      },
      "extensions": {
        "KHR_materials_unlit": {}
      },
      "alphaMode": "BLEND"
    },
    {
      "name": "g_demo_ana3_lm1",
      "pbrMetallicRoughness": {
        "baseColorTexture": {
          "index": 2
        },
        "metallicFactor": 0
      },
      "extensions": {
        "KHR_materials_unlit": {}
      }
    },
    {
      "name": "g_demo_kage1_lm6",
      "pbrMetallicRoughness": {
        "baseColorTexture": {
          "index": 3
        },
        "metallicFactor": 0
      },
      "extensions": {
        "KHR_materials_unlit": {}
      },
      "alphaMode": "BLEND"
    },
    {
      "name": "lambert14",
      "pbrMetallicRoughness": {
        "baseColorTexture": {
          "index": 3
        },
        "metallicFactor": 0
      },
      "extensions": {
        "KHR_materials_unlit": {}
      },
      "alphaMode": "BLEND"
    }
  ],
  "buffers": [
    {
      "byteLength": 17652,
      "uri": "d5_ana_pl.bin"
    }
  ]
}