{
  "asset": {
    "version": "2.0"
  },
  "bufferViews": [
    {
      "buffer": 0,
      "byteLength": 672,
      "byteOffset": 0
    },
    {
      "buffer": 0,
      "byteLength": 448,
      "byteOffset": 672
    },
    {
      "buffer": 0,
      "byteLength": 224,
      "byteStride": 4,
      "byteOffset": 1120
    },
    {
      "buffer": 0,
      "byteOffset": 1344,
      "byteStride": 4,
      "byteLength": 224
    },
    {
      "buffer": 0,
      "byteOffset": 1568,
      "byteStride": 4,
      "byteLength": 224
    },
    {
      "buffer": 0,
      "byteLength": 168,
      "byteOffset": 1792
    },
    {
      "buffer": 0,
      "byteLength": 448,
      "byteOffset": 1960
    }
  ],
  "accessors": [
    {
      "bufferView": 0,
      "type": "VEC3",
      "componentType": 5126,
      "count": 56,
      "min": [
        -240,
        -2,
        -214
      ],
      "max": [
        -32,
        46,
        -64
      ]
    },
    {
      "bufferView": 1,
      "type": "VEC2",
      "componentType": 5126,
      "count": 56
    },
    {
      "bufferView": 2,
      "type": "VEC3",
      "componentType": 5121,
      "normalized": true,
      "count": 56
    },
    {
      "bufferView": 3,
      "type": "VEC4",
      "componentType": 5121,
      "count": 56
    },
    {
      "bufferView": 4,
      "type": "VEC4",
      "componentType": 5121,
      "normalized": true,
      "count": 56
    },
    {
      "bufferView": 5,
      "type": "SCALAR",
      "byteOffset": 0,
      "componentType": 5123,
      "count": 6
    },
    {
      "bufferView": 5,
      "type": "SCALAR",
      "byteOffset": 12,
      "componentType": 5123,
      "count": 6
    },
    {
      "bufferView": 5,
      "type": "SCALAR",
      "byteOffset": 24,
      "componentType": 5123,
      "count": 6
    },
    {
      "bufferView": 5,
      "type": "SCALAR",
      "byteOffset": 36,
      "componentType": 5123,
      "count": 6
    },
    {
      "bufferView": 5,
      "type": "SCALAR",
      "byteOffset": 48,
      "componentType": 5123,
      "count": 12
    },
    {
      "bufferView": 5,
      "type": "SCALAR",
      "byteOffset": 72,
      "componentType": 5123,
      "count": 18
    },
    {
      "bufferView": 5,
      "type": "SCALAR",
      "byteOffset": 108,
      "componentType": 5123,
      "count": 6
    },
    {
      "bufferView": 5,
      "type": "SCALAR",
      "byteOffset": 120,
      "componentType": 5123,
      "count": 6
    },
    {
      "bufferView": 5,
      "type": "SCALAR",
      "byteOffset": 132,
      "componentType": 5123,
      "count": 6
    },
    {
      "bufferView": 5,
      "type": "SCALAR",
      "byteOffset": 144,
      "componentType": 5123,
      "count": 6
    },
    {
      "bufferView": 5,
      "type": "SCALAR",
      "byteOffset": 156,
      "componentType": 5123,
      "count": 6
    },
    {
      "bufferView": 6,
      "type": "MAT4",
      "componentType": 5126,
      "count": 7
    }
  ],
  "extensionsUsed": [
    "FB_ngon_encoding",
    "KHR_materials_unlit"
  ],
  "meshes": [
    {
      "primitives": [
        {
          "attributes": {
            "POSITION": 0,
            "TEXCOORD_0": 1,
            "COLOR_0": 2,
            "JOINTS_0": 3,
            "WEIGHTS_0": 4
          },
          "material": 7,
          "indices": 5,
          "extensions": {
            "FB_ngon_encoding": {}
          }
        },
        {
          "attributes": {
            "POSITION": 0,
            "TEXCOORD_0": 1,
            "COLOR_0": 2,
            "JOINTS_0": 3,
            "WEIGHTS_0": 4
          },
          "material": 7,
          "indices": 6,
          "extensions": {
            "FB_ngon_encoding": {}
          }
        },
        {
          "attributes": {
            "POSITION": 0,
            "TEXCOORD_0": 1,
            "COLOR_0": 2,
            "JOINTS_0": 3,
            "WEIGHTS_0": 4
          },
          "material": 7,
          "indices": 7,
          "extensions": {
            "FB_ngon_encoding": {}
          }
        },
        {
          "attributes": {
            "POSITION": 0,
            "TEXCOORD_0": 1,
            "COLOR_0": 2,
            "JOINTS_0": 3,
            "WEIGHTS_0": 4
          },
          "material": 7,
          "indices": 8,
          "extensions": {
            "FB_ngon_encoding": {}
          }
        },
        {
          "attributes": {
            "POSITION": 0,
            "TEXCOORD_0": 1,
            "COLOR_0": 2,
            "JOINTS_0": 3,
            "WEIGHTS_0": 4
          },
          "material": 1,
          "indices": 9,
          "extensions": {
            "FB_ngon_encoding": {}
          }
        },
        {
          "attributes": {
            "POSITION": 0,
            "TEXCOORD_0": 1,
            "COLOR_0": 2,
            "JOINTS_0": 3,
            "WEIGHTS_0": 4
          },
          "material": 0,
          "indices": 10,
          "extensions": {
            "FB_ngon_encoding": {}
          }
        },
        {
          "attributes": {
            "POSITION": 0,
            "TEXCOORD_0": 1,
            "COLOR_0": 2,
            "JOINTS_0": 3,
            "WEIGHTS_0": 4
          },
          "material": 2,
          "indices": 11,
          "extensions": {
            "FB_ngon_encoding": {}
          }
        },
        {
          "attributes": {
            "POSITION": 0,
            "TEXCOORD_0": 1,
            "COLOR_0": 2,
            "JOINTS_0": 3,
            "WEIGHTS_0": 4
          },
          "material": 3,
          "indices": 12,
          "extensions": {
            "FB_ngon_encoding": {}
          }
        },
        {
          "attributes": {
            "POSITION": 0,
            "TEXCOORD_0": 1,
            "COLOR_0": 2,
            "JOINTS_0": 3,
            "WEIGHTS_0": 4
          },
          "material": 4,
          "indices": 13,
          "extensions": {
            "FB_ngon_encoding": {}
          }
        },
        {
          "attributes": {
            "POSITION": 0,
            "TEXCOORD_0": 1,
            "COLOR_0": 2,
            "JOINTS_0": 3,
            "WEIGHTS_0": 4
          },
          "material": 5,
          "indices": 14,
          "extensions": {
            "FB_ngon_encoding": {}
          }
        },
        {
          "attributes": {
            "POSITION": 0,
            "TEXCOORD_0": 1,
            "COLOR_0": 2,
            "JOINTS_0": 3,
            "WEIGHTS_0": 4
          },
          "material": 6,
          "indices": 15,
          "extensions": {
            "FB_ngon_encoding": {}
          }
        }
      ],
      "name": "m_ajito06_00_00c"
    }
  ],
  "nodes": [
    {
      "children": [
        1,
        2,
        3,
        4,
        5,
        6
      ],
      "name": "world_root"
    },
    {
      "name": "pPlane67",
      "translation": [
        -56,
        1,
        -88
      ]
    },
    {
      "name": "pPlane68",
      "translation": [
        -56,
        1,
        -120
      ]
    },
    {
      "name": "pPlane69",
      "translation": [
        -88,
        1,
        -120
      ]
    },
    {
      "name": "pPlane70",
      "translation": [
        -88,
        1,
        -88
      ]
    },
    {
      "name": "polySurface74"
    },
    {
      "name": "polySurface75"
    },
    {
      "mesh": 0,
      "skin": 0,
      "name": "m_ajito06_00_00c",
      "children": [
        0
      ]
    }
  ],
  "skins": [
    {
      "skeleton": 0,
      "joints": [
        0,
        1,
        2,
        3,
        4,
        5,
        6
      ],
      "inverseBindMatrices": 16
    }
  ],
  "scenes": [
    {
      "nodes": [
        7
      ],
      "name": "m_ajito06_00_00c"
    }
  ],
  "scene": 0,
  "samplers": [
    {
      "wrapS": 10497,
      "wrapT": 10497,
      "magFilter": 9728,
      "minFilter": 9728
    }
  ],
  "images": [
    {
      "uri": "m_dun26_16.png"
    },
    {
      "uri": "m_dun26_38.png"
    },
    {
      "uri": "m_dun26_rtm1.png"
    },
    {
      "uri": "m_dun26_rtm2.png"
    },
    {
      "uri": "m_dun26_rtm3.png"
    },
    {
      "uri": "m_dun26_rtm4.png"
    },
    {
      "uri": "m_dun26_rtm5.png"
    },
    {
      "uri": "ch_g.png"
    }
  ],
  "textures": [
    {
      "source": 0,
      "sampler": 0
    },
    {
      "source": 1,
      "sampler": 0
    },
    {
      "source": 2,
      "sampler": 0
    },
    {
      "source": 3,
      "sampler": 0
    },
    {
      "source": 4,
      "sampler": 0
    },
    {
      "source": 5,
      "sampler": 0
    },
    {
      "source": 6,
      "sampler": 0
    },
    {
      "source": 7,
      "sampler": 0
    }
  ],
  "materials": [
    {
      "name": "lambert14",
      "pbrMetallicRoughness": {
        "baseColorTexture": {
          "index": 0
        },
        "metallicFactor": 0
      },
      "extensions": {
        "KHR_materials_unlit": {}
      }
    },
    {
      "name": "lambert16",
      "pbrMetallicRoughness": {
        "baseColorTexture": {
          "index": 1
        },
        "metallicFactor": 0
      },
      "extensions": {
        "KHR_materials_unlit": {}
      }
    },
    {
      "name": "lambert17",
      "pbrMetallicRoughness": {
        "baseColorTexture": {
          "index": 2
        },
        "metallicFactor": 0
      },
      "extensions": {
        "KHR_materials_unlit": {}
      },
      "alphaMode": "MASK"
    },
    {
      "name": "lambert18",
      "pbrMetallicRoughness": {
        "baseColorTexture": {
          "index": 3
        },
        "metallicFactor": 0
      },
      "extensions": {
        "KHR_materials_unlit": {}
      },
      "alphaMode": "MASK"
    },
    {
      "name": "lambert19",
      "pbrMetallicRoughness": {
        "baseColorTexture": {
          "index": 4
        },
        "metallicFactor": 0
      },
      "extensions": {
        "KHR_materials_unlit": {}
      },
      "alphaMode": "MASK"
    },
    {
      "name": "lambert20",
      "pbrMetallicRoughness": {
        "baseColorTexture": {
          "index": 5
        },
        "metallicFactor": 0
      },
      "extensions": {
        "KHR_materials_unlit": {}
      },
      "alphaMode": "MASK"
    },
    {
      "name": "lambert21",
      "pbrMetallicRoughness": {
        "baseColorTexture": {
          "index": 6
        },
        "metallicFactor": 0
      },
      "extensions": {
        "KHR_materials_unlit": {}
      },
      "alphaMode": "MASK"
    },
    {
      "name": "pasted__ch_l01",
      "pbrMetallicRoughness": {
        "baseColorTexture": {
          "index": 7
        },
        "metallicFactor": 0
      },
      "extensions": {
        "KHR_materials_unlit": {}
      },
      "alphaMode": "MASK"
    }
  ],
  "buffers": [
    {
      "byteLength": 2408,
      "uri": "m_ajito06_00_00c.bin"
    }
  ]
}