{
  "asset": {
    "version": "2.0"
  },
  "bufferViews": [
    {
      "buffer": 0,
      "byteLength": 9792,
      "byteOffset": 0
    },
    {
      "buffer": 0,
      "byteLength": 6528,
      "byteOffset": 9792
    },
    {
      "buffer": 0,
      "byteLength": 3264,
      "byteStride": 4,
      "byteOffset": 16320
    },
    {
      "buffer": 0,
      "byteLength": 9792,
      "byteOffset": 19584
    },
    {
      "buffer": 0,
      "byteOffset": 29376,
      "byteStride": 4,
      "byteLength": 3264
    },
    {
      "buffer": 0,
      "byteOffset": 32640,
      "byteStride": 4,
      "byteLength": 3264
    },
    {
      "buffer": 0,
      "byteLength": 4608,
      "byteOffset": 35904
    },
    {
      "buffer": 0,
      "byteLength": 576,
      "byteOffset": 40512
    },
    {
      "buffer": 0,
      "byteLength": 2880,
      "byteOffset": 41088
    },
    {
      "buffer": 0,
      "byteOffset": 43968,
      "byteLength": 924
    }
  ],
  "accessors": [
    {
      "bufferView": 0,
      "type": "VEC3",
      "componentType": 5126,
      "count": 816,
      "min": [
        -216.1583251953125,
        19.3681640625,
        -216.1583251953125
      ],
      "max": [
        216.1583251953125,
        205.4013671875,
        216.1583251953125
      ]
    },
    {
      "bufferView": 1,
      "type": "VEC2",
      "componentType": 5126,
      "count": 816
    },
    {
      "bufferView": 2,
      "type": "VEC3",
      "componentType": 5121,
      "normalized": true,
      "count": 816
    },
    {
      "bufferView": 3,
      "type": "VEC3",
      "componentType": 5126,
      "count": 816
    },
    {
      "bufferView": 4,
      "type": "VEC4",
      "componentType": 5121,
      "count": 816
    },
    {
      "bufferView": 5,
      "type": "VEC4",
      "componentType": 5121,
      "normalized": true,
      "count": 816
    },
    {
      "bufferView": 6,
      "type": "SCALAR",
      "byteOffset": 0,
      "componentType": 5123,
      "count": 288
    },
    {
      "bufferView": 6,
      "type": "SCALAR",
      "byteOffset": 576,
      "componentType": 5123,
      "count": 288
    },
    {
      "bufferView": 6,
      "type": "SCALAR",
      "byteOffset": 1152,
      "componentType": 5123,
      "count": 288
    },
    {
      "bufferView": 6,
      "type": "SCALAR",
      "byteOffset": 1728,
      "componentType": 5123,
      "count": 288
    },
    {
      "bufferView": 6,
      "type": "SCALAR",
      "byteOffset": 2304,
      "componentType": 5123,
      "count": 288
    },
    {
      "bufferView": 6,
      "type": "SCALAR",
      "byteOffset": 2880,
      "componentType": 5123,
      "count": 288
    },
    {
      "bufferView": 6,
      "type": "SCALAR",
      "byteOffset": 3456,
      "componentType": 5123,
      "count": 288
    },
    {
      "bufferView": 6,
      "type": "SCALAR",
      "byteOffset": 4032,
      "componentType": 5123,
      "count": 288
    },
    {
      "bufferView": 7,
      "type": "MAT4",
      "componentType": 5126,
      "count": 9
    },
    {
      "bufferView": 9,
      "type": "SCALAR",
      "componentType": 5126,
      "byteOffset": 0,
      "count": 1,
      "min": [
        0
      ],
      "max": [
        0
      ]
    },
    {
      "bufferView": 8,
      "type": "VEC3",
      "componentType": 5126,
      "byteOffset": 0,
      "count": 1
    },
    {
      "bufferView": 9,
      "type": "SCALAR",
      "componentType": 5126,
      "byteOffset": 0,
      "count": 231,
      "min": [
        0
      ],
      "max": [
        3.8333334922790529
      ]
    },
    {
      "bufferView": 8,
      "type": "VEC3",
      "componentType": 5126,
      "byteOffset": 12,
      "count": 231
    },
    {
      "bufferView": 8,
      "type": "VEC3",
      "componentType": 5126,
      "byteOffset": 2784,
      "count": 1
    },
    {
      "bufferView": 8,
      "type": "VEC3",
      "componentType": 5126,
      "byteOffset": 2796,
      "count": 1
    },
    {
      "bufferView": 8,
      "type": "VEC3",
      "componentType": 5126,
      "byteOffset": 2808,
      "count": 1
    },
    {
      "bufferView": 8,
      "type": "VEC3",
      "componentType": 5126,
      "byteOffset": 2820,
      "count": 1
    },
    {
      "bufferView": 8,
      "type": "VEC3",
      "componentType": 5126,
      "byteOffset": 2832,
      "count": 1
    },
    {
      "bufferView": 8,
      "type": "VEC3",
      "componentType": 5126,
      "byteOffset": 2844,
      "count": 1
    },
    {
      "bufferView": 8,
      "type": "VEC3",
      "componentType": 5126,
      "byteOffset": 2856,
      "count": 1
    },
    {
      "bufferView": 8,
      "type": "VEC3",
      "componentType": 5126,
      "byteOffset": 2868,
      "count": 1
    }
  ],
  "extensionsUsed": [
    "FB_ngon_encoding",
    "KHR_materials_unlit"
  ],
  "meshes": [
    {
      "primitives": [
        {
          "attributes": {
            "POSITION": 0,
            "TEXCOORD_0": 1,
            "COLOR_0": 2,
            "NORMAL": 3,
            "JOINTS_0": 4,
            "WEIGHTS_0": 5
          },
          "material": 0,
          "indices": 6,
          "extensions": {
            "FB_ngon_encoding": {}
          }
        },
        {
          "attributes": {
            "POSITION": 0,
            "TEXCOORD_0": 1,
            "COLOR_0": 2,
            "NORMAL": 3,
            "JOINTS_0": 4,
            "WEIGHTS_0": 5
          },
          "material": 1,
          "indices": 7,
          "extensions": {
            "FB_ngon_encoding": {}
          }
        },
        {
          "attributes": {
            "POSITION": 0,
            "TEXCOORD_0": 1,
            "COLOR_0": 2,
            "NORMAL": 3,
            "JOINTS_0": 4,
            "WEIGHTS_0": 5
          },
          "material": 0,
          "indices": 8,
          "extensions": {
            "FB_ngon_encoding": {}
          }
        },
        {
          "attributes": {
            "POSITION": 0,
            "TEXCOORD_0": 1,
            "COLOR_0": 2,
            "NORMAL": 3,
            "JOINTS_0": 4,
            "WEIGHTS_0": 5
          },
          "material": 1,
          "indices": 9,
          "extensions": {
            "FB_ngon_encoding": {}
          }
        },
        {
          "attributes": {
            "POSITION": 0,
            "TEXCOORD_0": 1,
            "COLOR_0": 2,
            "NORMAL": 3,
            "JOINTS_0": 4,
            "WEIGHTS_0": 5
          },
          "material": 0,
          "indices": 10,
          "extensions": {
            "FB_ngon_encoding": {}
          }
        },
        {
          "attributes": {
            "POSITION": 0,
            "TEXCOORD_0": 1,
            "COLOR_0": 2,
            "NORMAL": 3,
            "JOINTS_0": 4,
            "WEIGHTS_0": 5
          },
          "material": 1,
          "indices": 11,
          "extensions": {
            "FB_ngon_encoding": {}
          }
        },
        {
          "attributes": {
            "POSITION": 0,
            "TEXCOORD_0": 1,
            "COLOR_0": 2,
            "NORMAL": 3,
            "JOINTS_0": 4,
            "WEIGHTS_0": 5
          },
          "material": 0,
          "indices": 12,
          "extensions": {
            "FB_ngon_encoding": {}
          }
        },
        {
          "attributes": {
            "POSITION": 0,
            "TEXCOORD_0": 1,
            "COLOR_0": 2,
            "NORMAL": 3,
            "JOINTS_0": 4,
            "WEIGHTS_0": 5
          },
          "material": 1,
          "indices": 13,
          "extensions": {
            "FB_ngon_encoding": {}
          }
        }
      ],
      "name": "ari_start"
    }
  ],
  "nodes": [
    {
      "children": [
        1,
        2,
        3,
        4,
        5,
        6,
        7,
        8
      ],
      "name": "group1",
      "translation": [
        0,
        -6,
        0
      ],
      "scale": [
        0.736328125,
        2.114013671875,
        0.736328125
      ]
    },
    {
      "name": "polySurface1",
      "translation": [
        0,
        50,
        0
      ]
    },
    {
      "name": "polySurface1_1",
      "translation": [
        0,
        50,
        0
      ]
    },
    {
      "name": "polySurface3",
      "translation": [
        0,
        50,
        0
      ]
    },
    {
      "name": "polySurface3_1",
      "translation": [
        0,
        50,
        0
      ]
    },
    {
      "name": "polySurface5",
      "translation": [
        0,
        50,
        0
      ]
    },
    {
      "name": "polySurface5_1",
      "translation": [
        0,
        50,
        0
      ]
    },
    {
      "name": "polySurface6",
      "translation": [
        0,
        50,
        0
      ]
    },
    {
      "name": "polySurface6_1",
      "translation": [
        0,
        50,
        0
      ]
    },
    {
      "mesh": 0,
      "skin": 0,
      "name": "ari_start",
      "children": [
        0
      ]
    }
  ],
  "skins": [
    {
      "skeleton": 0,
      "joints": [
        0,
        1,
        2,
        3,
        4,
        5,
        6,
        7,
        8
      ],
      "inverseBindMatrices": 14
    }
  ],
  "scenes": [
    {
      "nodes": [
        9
      ],
      "name": "ari_start"
    }
  ],
  "scene": 0,
  "animations": [
    {
      "name": "ari_start",
      "samplers": [
        {
          "input": 15,
          "output": 16
        },
        {
          "input": 17,
          "output": 18
        },
        {
          "input": 15,
          "output": 19
        },
        {
          "input": 15,
          "output": 20
        },
        {
          "input": 15,
          "output": 21
        },
        {
          "input": 15,
          "output": 22
        },
        {
          "input": 15,
          "output": 23
        },
        {
          "input": 15,
          "output": 24
        },
        {
          "input": 15,
          "output": 25
        },
        {
          "input": 15,
          "output": 26
        }
      ],
      "channels": [
        {
          "target": {
            "node": 0,
            "path": "translation"
          },
          "sampler": 0
        },
        {
          "target": {
            "node": 0,
            "path": "scale"
          },
          "sampler": 1
        },
        {
          "target": {
            "node": 1,
            "path": "translation"
          },
          "sampler": 2
        },
        {
          "target": {
            "node": 2,
            "path": "translation"
          },
          "sampler": 3
        },
        {
          "target": {
            "node": 3,
            "path": "translation"
          },
          "sampler": 4
        },
        {
          "target": {
            "node": 4,
            "path": "translation"
          },
          "sampler": 5
        },
        {
          "target": {
            "node": 5,
            "path": "translation"
          },
          "sampler": 6
        },
        {
          "target": {
            "node": 6,
            "path": "translation"
          },
          "sampler": 7
        },
        {
          "target": {
            "node": 7,
            "path": "translation"
          },
          "sampler": 8
        },
        {
          "target": {
            "node": 8,
            "path": "translation"
          },
          "sampler": 9
        }
      ]
    }
  ],
  "samplers": [
    {
      "wrapS": 10497,
      "wrapT": 10497,
      "magFilter": 9728,
      "minFilter": 9728
    },
    {
      "wrapS": 10497,
      "wrapT": 33071,
      "magFilter": 9728,
      "minFilter": 9728
    }
  ],
  "images": [
    {
      "uri": "nagastart2.png"
    },
    {
      "uri": "nagastart1.png"
    }
  ],
  "textures": [
    {
      "source": 0,
      "sampler": 0
    },
    {
      "source": 1,
      "sampler": 1
    }
  ],
  "materials": [
    {
      "name": "lambert2",
      "pbrMetallicRoughness": {
        "baseColorTexture": {
          "index": 0
        },
        "metallicFactor": 0,
        "baseColorFactor": [
          1,
          1,
          1,
          0.4838709533214569
        ]
      },
      "extensions": {
        "KHR_materials_unlit": {}
      },
      "alphaMode": "BLEND",
      "doubleSided": true
    },
    {
      "name": "lambert3",
      "pbrMetallicRoughness": {
        "baseColorTexture": {
          "index": 1
        },
        "metallicFactor": 0,
        "baseColorFactor": [
          1,
          1,
          1,
          0.4838709533214569
        ]
      },
      "extensions": {
        "KHR_materials_unlit": {}
      },
      "alphaMode": "BLEND",
      "doubleSided": true
    }
  ],
  "buffers": [
    {
      "byteLength": 44892,
      "uri": "ari_start.bin"
    }
  ]
}