{
  "asset": {
    "version": "2.0"
  },
  "bufferViews": [
    {
      "buffer": 0,
      "byteLength": 3912,
      "byteOffset": 0
    },
    {
      "buffer": 0,
      "byteLength": 2608,
      "byteOffset": 3912
    },
    {
      "buffer": 0,
      "byteLength": 1304,
      "byteStride": 4,
      "byteOffset": 6520
    },
    {
      "buffer": 0,
      "byteOffset": 7824,
      "byteStride": 4,
      "byteLength": 1304
    },
    {
      "buffer": 0,
      "byteOffset": 9128,
      "byteStride": 4,
      "byteLength": 1304
    },
    {
      "buffer": 0,
      "byteLength": 1056,
      "byteOffset": 10432
    },
    {
      "buffer": 0,
      "byteLength": 64,
      "byteOffset": 11488
    }
  ],
  "accessors": [
    {
      "bufferView": 0,
      "type": "VEC3",
      "componentType": 5126,
      "count": 326,
      "min": [
        -240,
        -11,
        -214
      ],
      "max": [
        240,
        5,
        192
      ]
    },
    {
      "bufferView": 1,
      "type": "VEC2",
      "componentType": 5126,
      "count": 326
    },
    {
      "bufferView": 2,
      "type": "VEC3",
      "componentType": 5121,
      "normalized": true,
      "count": 326
    },
    {
      "bufferView": 3,
      "type": "VEC4",
      "componentType": 5121,
      "count": 326
    },
    {
      "bufferView": 4,
      "type": "VEC4",
      "componentType": 5121,
      "normalized": true,
      "count": 326
    },
    {
      "bufferView": 5,
      "type": "SCALAR",
      "byteOffset": 0,
      "componentType": 5123,
      "count": 24
    },
    {
      "bufferView": 5,
      "type": "SCALAR",
      "byteOffset": 48,
      "componentType": 5123,
      "count": 42
    },
    {
      "bufferView": 5,
      "type": "SCALAR",
      "byteOffset": 132,
      "componentType": 5123,
      "count": 24
    },
    {
      "bufferView": 5,
      "type": "SCALAR",
      "byteOffset": 180,
      "componentType": 5123,
      "count": 72
    },
    {
      "bufferView": 5,
      "type": "SCALAR",
      "byteOffset": 324,
      "componentType": 5123,
      "count": 96
    },
    {
      "bufferView": 5,
      "type": "SCALAR",
      "byteOffset": 516,
      "componentType": 5123,
      "count": 126
    },
    {
      "bufferView": 5,
      "type": "SCALAR",
      "byteOffset": 768,
      "componentType": 5123,
      "count": 144
    },
    {
      "bufferView": 6,
      "type": "MAT4",
      "componentType": 5126,
      "count": 1
    }
  ],
  "extensionsUsed": [
    "FB_ngon_encoding",
    "KHR_materials_unlit"
  ],
  "meshes": [
    {
      "primitives": [
        {
          "attributes": {
            "POSITION": 0,
            "TEXCOORD_0": 1,
            "COLOR_0": 2,
            "JOINTS_0": 3,
            "WEIGHTS_0": 4
          },
          "material": 3,
          "indices": 5,
          "extensions": {
            "FB_ngon_encoding": {}
          }
        },
        {
          "attributes": {
            "POSITION": 0,
            "TEXCOORD_0": 1,
            "COLOR_0": 2,
            "JOINTS_0": 3,
            "WEIGHTS_0": 4
          },
          "material": 4,
          "indices": 6,
          "extensions": {
            "FB_ngon_encoding": {}
          }
        },
        {
          "attributes": {
            "POSITION": 0,
            "TEXCOORD_0": 1,
            "COLOR_0": 2,
            "JOINTS_0": 3,
            "WEIGHTS_0": 4
          },
          "material": 1,
          "indices": 7,
          "extensions": {
            "FB_ngon_encoding": {}
          }
        },
        {
          "attributes": {
            "POSITION": 0,
            "TEXCOORD_0": 1,
            "COLOR_0": 2,
            "JOINTS_0": 3,
            "WEIGHTS_0": 4
          },
          "material": 6,
          "indices": 8,
          "extensions": {
            "FB_ngon_encoding": {}
          }
        },
        {
          "attributes": {
            "POSITION": 0,
            "TEXCOORD_0": 1,
            "COLOR_0": 2,
            "JOINTS_0": 3,
            "WEIGHTS_0": 4
          },
          "material": 2,
          "indices": 9,
          "extensions": {
            "FB_ngon_encoding": {}
          }
        },
        {
          "attributes": {
            "POSITION": 0,
            "TEXCOORD_0": 1,
            "COLOR_0": 2,
            "JOINTS_0": 3,
            "WEIGHTS_0": 4
          },
          "material": 0,
          "indices": 10,
          "extensions": {
            "FB_ngon_encoding": {}
          }
        },
        {
          "attributes": {
            "POSITION": 0,
            "TEXCOORD_0": 1,
            "COLOR_0": 2,
            "JOINTS_0": 3,
            "WEIGHTS_0": 4
          },
          "material": 5,
          "indices": 11,
          "extensions": {
            "FB_ngon_encoding": {}
          }
        }
      ],
      "name": "gym02_4f"
    }
  ],
  "nodes": [
    {
      "name": "polySurface124"
    },
    {
      "mesh": 0,
      "skin": 0,
      "name": "gym02_4f",
      "children": [
        0
      ]
    }
  ],
  "skins": [
    {
      "skeleton": 0,
      "joints": [
        0
      ],
      "inverseBindMatrices": 12
    }
  ],
  "scenes": [
    {
      "nodes": [
        1
      ],
      "name": "gym02_4f"
    }
  ],
  "scene": 0,
  "samplers": [
    {
      "wrapS": 10497,
      "wrapT": 10497,
      "magFilter": 9728,
      "minFilter": 9728
    }
  ],
  "images": [
    {
      "uri": "gym02_floor.png"
    },
    {
      "uri": "gyml_base.png"
    },
    {
      "uri": "gyml_base_b.png"
    },
    {
      "uri": "gym02_slit.png"
    },
    {
      "uri": "gym02_slit2.png"
    },
    {
      "uri": "gym02_Plate.png"
    },
    {
      "uri": "gym02_shaft.png"
    }
  ],
  "textures": [
    {
      "source": 0,
      "sampler": 0
    },
    {
      "source": 1,
      "sampler": 0
    },
    {
      "source": 2,
      "sampler": 0
    },
    {
      "source": 3,
      "sampler": 0
    },
    {
      "source": 4,
      "sampler": 0
    },
    {
      "source": 5,
      "sampler": 0
    },
    {
      "source": 6,
      "sampler": 0
    }
  ],
  "materials": [
    {
      "name": "firstFloor1",
      "pbrMetallicRoughness": {
        "baseColorTexture": {
          "index": 0
        },
        "metallicFactor": 0
      },
      "extensions": {
        "KHR_materials_unlit": {}
      }
    },
    {
      "name": "gyml_base",
      "pbrMetallicRoughness": {
        "baseColorTexture": {
          "index": 1
        },
        "metallicFactor": 0
      },
      "extensions": {
        "KHR_materials_unlit": {}
      }
    },
    {
      "name": "gyml_base_b",
      "pbrMetallicRoughness": {
        "baseColorTexture": {
          "index": 2
        },
        "metallicFactor": 0
      },
      "extensions": {
        "KHR_materials_unlit": {}
      }
    },
    {
      "name": "lambert15",
      "pbrMetallicRoughness": {
        "baseColorTexture": {
          "index": 3
        },
        "metallicFactor": 0
      },
      "extensions": {
        "KHR_materials_unlit": {}
      }
    },
    {
      "name": "lambert16",
      "pbrMetallicRoughness": {
        "baseColorTexture": {
          "index": 4
        },
        "metallicFactor": 0
      },
      "extensions": {
        "KHR_materials_unlit": {}
      }
    },
    {
      "name": "lambert6",
      "pbrMetallicRoughness": {
        "baseColorTexture": {
          "index": 5
        },
        "metallicFactor": 0
      },
      "extensions": {
        "KHR_materials_unlit": {}
      }
    },
    {
      "name": "lambert7",
      "pbrMetallicRoughness": {
        "baseColorTexture": {
          "index": 6
        },
        "metallicFactor": 0
      },
      "extensions": {
        "KHR_materials_unlit": {}
      }
    }
  ],
  "buffers": [
    {
      "byteLength": 11552,
      "uri": "gym02_4f.bin"
    }
  ]
}