{
  "asset": {
    "version": "2.0"
  },
  "bufferViews": [
    {
      "buffer": 0,
      "byteLength": 4980,
      "byteOffset": 0
    },
    {
      "buffer": 0,
      "byteLength": 3320,
      "byteOffset": 4980
    },
    {
      "buffer": 0,
      "byteLength": 1660,
      "byteStride": 4,
      "byteOffset": 8300
    },
    {
      "buffer": 0,
      "byteOffset": 9960,
      "byteStride": 4,
      "byteLength": 1660
    },
    {
      "buffer": 0,
      "byteOffset": 11620,
      "byteStride": 4,
      "byteLength": 1660
    },
    {
      "buffer": 0,
      "byteLength": 1470,
      "byteOffset": 13280
    },
    {
      "buffer": 0,
      "byteLength": 64,
      "byteOffset": 14752
    }
  ],
  "accessors": [
    {
      "bufferView": 0,
      "type": "VEC3",
      "componentType": 5126,
      "count": 415,
      "min": [
        -208,
        -2,
        -214
      ],
      "max": [
        48,
        46,
        -48
      ]
    },
    {
      "bufferView": 1,
      "type": "VEC2",
      "componentType": 5126,
      "count": 415
    },
    {
      "bufferView": 2,
      "type": "VEC3",
      "componentType": 5121,
      "normalized": true,
      "count": 415
    },
    {
      "bufferView": 3,
      "type": "VEC4",
      "componentType": 5121,
      "count": 415
    },
    {
      "bufferView": 4,
      "type": "VEC4",
      "componentType": 5121,
      "normalized": true,
      "count": 415
    },
    {
      "bufferView": 5,
      "type": "SCALAR",
      "byteOffset": 0,
      "componentType": 5123,
      "count": 324
    },
    {
      "bufferView": 5,
      "type": "SCALAR",
      "byteOffset": 648,
      "componentType": 5123,
      "count": 411
    },
    {
      "bufferView": 6,
      "type": "MAT4",
      "componentType": 5126,
      "count": 1
    }
  ],
  "extensionsUsed": [
    "FB_ngon_encoding",
    "KHR_materials_unlit"
  ],
  "meshes": [
    {
      "primitives": [
        {
          "attributes": {
            "POSITION": 0,
            "TEXCOORD_0": 1,
            "COLOR_0": 2,
            "JOINTS_0": 3,
            "WEIGHTS_0": 4
          },
          "material": 1,
          "indices": 5,
          "extensions": {
            "FB_ngon_encoding": {}
          }
        },
        {
          "attributes": {
            "POSITION": 0,
            "TEXCOORD_0": 1,
            "COLOR_0": 2,
            "JOINTS_0": 3,
            "WEIGHTS_0": 4
          },
          "material": 0,
          "indices": 6,
          "extensions": {
            "FB_ngon_encoding": {}
          }
        }
      ],
      "name": "m_buil03_00_00c"
    }
  ],
  "nodes": [
    {
      "name": "polySurface44"
    },
    {
      "mesh": 0,
      "skin": 0,
      "name": "m_buil03_00_00c",
      "children": [
        0
      ]
    }
  ],
  "skins": [
    {
      "skeleton": 0,
      "joints": [
        0
      ],
      "inverseBindMatrices": 7
    }
  ],
  "scenes": [
    {
      "nodes": [
        1
      ],
      "name": "m_buil03_00_00c"
    }
  ],
  "scene": 0,
  "samplers": [
    {
      "wrapS": 10497,
      "wrapT": 10497,
      "magFilter": 9728,
      "minFilter": 9728
    }
  ],
  "images": [
    {
      "uri": "floor_b01.png"
    },
    {
      "uri": "wall_b01.png"
    }
  ],
  "textures": [
    {
      "source": 0,
      "sampler": 0
    },
    {
      "source": 1,
      "sampler": 0
    }
  ],
  "materials": [
    {
      "name": "floor_b01mat",
      "pbrMetallicRoughness": {
        "baseColorTexture": {
          "index": 0
        },
        "metallicFactor": 0
      },
      "extensions": {
        "KHR_materials_unlit": {}
      }
    },
    {
      "name": "wall_b01mat",
      "pbrMetallicRoughness": {
        "baseColorTexture": {
          "index": 1
        },
        "metallicFactor": 0
      },
      "extensions": {
        "KHR_materials_unlit": {}
      }
    }
  ],
  "buffers": [
    {
      "byteLength": 14816,
      "uri": "m_buil03_00_00c.bin"
    }
  ]
}