{
  "asset": {
    "version": "2.0"
  },
  "bufferViews": [
    {
      "buffer": 0,
      "byteLength": 8808,
      "byteOffset": 0
    },
    {
      "buffer": 0,
      "byteLength": 5872,
      "byteOffset": 8808
    },
    {
      "buffer": 0,
      "byteLength": 2936,
      "byteStride": 4,
      "byteOffset": 14680
    },
    {
      "buffer": 0,
      "byteLength": 8808,
      "byteOffset": 17616
    },
    {
      "buffer": 0,
      "byteOffset": 26424,
      "byteStride": 4,
      "byteLength": 2936
    },
    {
      "buffer": 0,
      "byteOffset": 29360,
      "byteStride": 4,
      "byteLength": 2936
    },
    {
      "buffer": 0,
      "byteLength": 2580,
      "byteOffset": 32296
    },
    {
      "buffer": 0,
      "byteLength": 64,
      "byteOffset": 34876
    }
  ],
  "accessors": [
    {
      "bufferView": 0,
      "type": "VEC3",
      "componentType": 5126,
      "count": 734,
      "min": [
        -240,
        -2,
        -214
      ],
      "max": [
        80,
        46,
        -48
      ]
    },
    {
      "bufferView": 1,
      "type": "VEC2",
      "componentType": 5126,
      "count": 734
    },
    {
      "bufferView": 2,
      "type": "VEC3",
      "componentType": 5121,
      "normalized": true,
      "count": 734
    },
    {
      "bufferView": 3,
      "type": "VEC3",
      "componentType": 5126,
      "count": 734
    },
    {
      "bufferView": 4,
      "type": "VEC4",
      "componentType": 5121,
      "count": 734
    },
    {
      "bufferView": 5,
      "type": "VEC4",
      "componentType": 5121,
      "normalized": true,
      "count": 734
    },
    {
      "bufferView": 6,
      "type": "SCALAR",
      "byteOffset": 0,
      "componentType": 5123,
      "count": 6
    },
    {
      "bufferView": 6,
      "type": "SCALAR",
      "byteOffset": 12,
      "componentType": 5123,
      "count": 12
    },
    {
      "bufferView": 6,
      "type": "SCALAR",
      "byteOffset": 36,
      "componentType": 5123,
      "count": 30
    },
    {
      "bufferView": 6,
      "type": "SCALAR",
      "byteOffset": 96,
      "componentType": 5123,
      "count": 36
    },
    {
      "bufferView": 6,
      "type": "SCALAR",
      "byteOffset": 168,
      "componentType": 5123,
      "count": 36
    },
    {
      "bufferView": 6,
      "type": "SCALAR",
      "byteOffset": 240,
      "componentType": 5123,
      "count": 48
    },
    {
      "bufferView": 6,
      "type": "SCALAR",
      "byteOffset": 336,
      "componentType": 5123,
      "count": 60
    },
    {
      "bufferView": 6,
      "type": "SCALAR",
      "byteOffset": 456,
      "componentType": 5123,
      "count": 78
    },
    {
      "bufferView": 6,
      "type": "SCALAR",
      "byteOffset": 612,
      "componentType": 5123,
      "count": 114
    },
    {
      "bufferView": 6,
      "type": "SCALAR",
      "byteOffset": 840,
      "componentType": 5123,
      "count": 99
    },
    {
      "bufferView": 6,
      "type": "SCALAR",
      "byteOffset": 1038,
      "componentType": 5123,
      "count": 144
    },
    {
      "bufferView": 6,
      "type": "SCALAR",
      "byteOffset": 1326,
      "componentType": 5123,
      "count": 138
    },
    {
      "bufferView": 6,
      "type": "SCALAR",
      "byteOffset": 1602,
      "componentType": 5123,
      "count": 264
    },
    {
      "bufferView": 6,
      "type": "SCALAR",
      "byteOffset": 2130,
      "componentType": 5123,
      "count": 225
    },
    {
      "bufferView": 7,
      "type": "MAT4",
      "componentType": 5126,
      "count": 1
    }
  ],
  "extensionsUsed": [
    "FB_ngon_encoding",
    "KHR_materials_unlit"
  ],
  "meshes": [
    {
      "primitives": [
        {
          "attributes": {
            "POSITION": 0,
            "TEXCOORD_0": 1,
            "COLOR_0": 2,
            "NORMAL": 3,
            "JOINTS_0": 4,
            "WEIGHTS_0": 5
          },
          "material": 8,
          "indices": 6,
          "extensions": {
            "FB_ngon_encoding": {}
          }
        },
        {
          "attributes": {
            "POSITION": 0,
            "TEXCOORD_0": 1,
            "COLOR_0": 2,
            "NORMAL": 3,
            "JOINTS_0": 4,
            "WEIGHTS_0": 5
          },
          "material": 13,
          "indices": 7,
          "extensions": {
            "FB_ngon_encoding": {}
          }
        },
        {
          "attributes": {
            "POSITION": 0,
            "TEXCOORD_0": 1,
            "COLOR_0": 2,
            "NORMAL": 3,
            "JOINTS_0": 4,
            "WEIGHTS_0": 5
          },
          "material": 7,
          "indices": 8,
          "extensions": {
            "FB_ngon_encoding": {}
          }
        },
        {
          "attributes": {
            "POSITION": 0,
            "TEXCOORD_0": 1,
            "COLOR_0": 2,
            "NORMAL": 3,
            "JOINTS_0": 4,
            "WEIGHTS_0": 5
          },
          "material": 4,
          "indices": 9,
          "extensions": {
            "FB_ngon_encoding": {}
          }
        },
        {
          "attributes": {
            "POSITION": 0,
            "TEXCOORD_0": 1,
            "COLOR_0": 2,
            "NORMAL": 3,
            "JOINTS_0": 4,
            "WEIGHTS_0": 5
          },
          "material": 6,
          "indices": 10,
          "extensions": {
            "FB_ngon_encoding": {}
          }
        },
        {
          "attributes": {
            "POSITION": 0,
            "TEXCOORD_0": 1,
            "COLOR_0": 2,
            "NORMAL": 3,
            "JOINTS_0": 4,
            "WEIGHTS_0": 5
          },
          "material": 11,
          "indices": 11,
          "extensions": {
            "FB_ngon_encoding": {}
          }
        },
        {
          "attributes": {
            "POSITION": 0,
            "TEXCOORD_0": 1,
            "COLOR_0": 2,
            "NORMAL": 3,
            "JOINTS_0": 4,
            "WEIGHTS_0": 5
          },
          "material": 2,
          "indices": 12,
          "extensions": {
            "FB_ngon_encoding": {}
          }
        },
        {
          "attributes": {
            "POSITION": 0,
            "TEXCOORD_0": 1,
            "COLOR_0": 2,
            "NORMAL": 3,
            "JOINTS_0": 4,
            "WEIGHTS_0": 5
          },
          "material": 1,
          "indices": 13,
          "extensions": {
            "FB_ngon_encoding": {}
          }
        },
        {
          "attributes": {
            "POSITION": 0,
            "TEXCOORD_0": 1,
            "COLOR_0": 2,
            "NORMAL": 3,
            "JOINTS_0": 4,
            "WEIGHTS_0": 5
          },
          "material": 5,
          "indices": 14,
          "extensions": {
            "FB_ngon_encoding": {}
          }
        },
        {
          "attributes": {
            "POSITION": 0,
            "TEXCOORD_0": 1,
            "COLOR_0": 2,
            "NORMAL": 3,
            "JOINTS_0": 4,
            "WEIGHTS_0": 5
          },
          "material": 12,
          "indices": 15,
          "extensions": {
            "FB_ngon_encoding": {}
          }
        },
        {
          "attributes": {
            "POSITION": 0,
            "TEXCOORD_0": 1,
            "COLOR_0": 2,
            "NORMAL": 3,
            "JOINTS_0": 4,
            "WEIGHTS_0": 5
          },
          "material": 3,
          "indices": 16,
          "extensions": {
            "FB_ngon_encoding": {}
          }
        },
        {
          "attributes": {
            "POSITION": 0,
            "TEXCOORD_0": 1,
            "COLOR_0": 2,
            "NORMAL": 3,
            "JOINTS_0": 4,
            "WEIGHTS_0": 5
          },
          "material": 9,
          "indices": 17,
          "extensions": {
            "FB_ngon_encoding": {}
          }
        },
        {
          "attributes": {
            "POSITION": 0,
            "TEXCOORD_0": 1,
            "COLOR_0": 2,
            "NORMAL": 3,
            "JOINTS_0": 4,
            "WEIGHTS_0": 5
          },
          "material": 0,
          "indices": 18,
          "extensions": {
            "FB_ngon_encoding": {}
          }
        },
        {
          "attributes": {
            "POSITION": 0,
            "TEXCOORD_0": 1,
            "COLOR_0": 2,
            "NORMAL": 3,
            "JOINTS_0": 4,
            "WEIGHTS_0": 5
          },
          "material": 10,
          "indices": 19,
          "extensions": {
            "FB_ngon_encoding": {}
          }
        }
      ],
      "name": "m_depart02_00_00"
    }
  ],
  "nodes": [
    {
      "name": "polySurface69"
    },
    {
      "mesh": 0,
      "skin": 0,
      "name": "m_depart02_00_00",
      "children": [
        0
      ]
    }
  ],
  "skins": [
    {
      "skeleton": 0,
      "joints": [
        0
      ],
      "inverseBindMatrices": 20
    }
  ],
  "scenes": [
    {
      "nodes": [
        1
      ],
      "name": "m_depart02_00_00"
    }
  ],
  "scene": 0,
  "samplers": [
    {
      "wrapS": 10497,
      "wrapT": 10497,
      "magFilter": 9728,
      "minFilter": 9728
    }
  ],
  "images": [
    {
      "uri": "fs_room7.png"
    },
    {
      "uri": "fs_room8.png"
    },
    {
      "uri": "fs_room9.png"
    },
    {
      "uri": "fs_rooma.png"
    },
    {
      "uri": "fs_roomb.png"
    },
    {
      "uri": "fs_roomc.png"
    },
    {
      "uri": "m_depanel02.png"
    },
    {
      "uri": "m_depart01_02.png"
    },
    {
      "uri": "m_depart02_01.png"
    },
    {
      "uri": "m_depanel03gray.png"
    },
    {
      "uri": "ele_b01.png"
    }
  ],
  "textures": [
    {
      "source": 0,
      "sampler": 0
    },
    {
      "source": 1,
      "sampler": 0
    },
    {
      "source": 2,
      "sampler": 0
    },
    {
      "source": 3,
      "sampler": 0
    },
    {
      "source": 4,
      "sampler": 0
    },
    {
      "source": 5,
      "sampler": 0
    },
    {
      "source": 6,
      "sampler": 0
    },
    {
      "source": 7,
      "sampler": 0
    },
    {
      "source": 8,
      "sampler": 0
    },
    {
      "source": 9,
      "sampler": 0
    },
    {
      "source": 10,
      "sampler": 0
    }
  ],
  "materials": [
    {
      "name": "a001",
      "pbrMetallicRoughness": {
        "baseColorTexture": {
          "index": 0
        },
        "metallicFactor": 0
      },
      "extensions": {
        "KHR_materials_unlit": {}
      }
    },
    {
      "name": "a002",
      "pbrMetallicRoughness": {
        "baseColorTexture": {
          "index": 1
        },
        "metallicFactor": 0
      },
      "extensions": {
        "KHR_materials_unlit": {}
      }
    },
    {
      "name": "a003",
      "pbrMetallicRoughness": {
        "baseColorTexture": {
          "index": 2
        },
        "metallicFactor": 0
      },
      "extensions": {
        "KHR_materials_unlit": {}
      },
      "alphaMode": "BLEND"
    },
    {
      "name": "a004",
      "pbrMetallicRoughness": {
        "baseColorTexture": {
          "index": 3
        },
        "metallicFactor": 0
      },
      "extensions": {
        "KHR_materials_unlit": {}
      }
    },
    {
      "name": "a005",
      "pbrMetallicRoughness": {
        "baseColorTexture": {
          "index": 3
        },
        "metallicFactor": 0
      },
      "extensions": {
        "KHR_materials_unlit": {}
      }
    },
    {
      "name": "a006",
      "pbrMetallicRoughness": {
        "baseColorTexture": {
          "index": 4
        },
        "metallicFactor": 0
      },
      "extensions": {
        "KHR_materials_unlit": {}
      }
    },
    {
      "name": "a007",
      "pbrMetallicRoughness": {
        "baseColorTexture": {
          "index": 4
        },
        "metallicFactor": 0
      },
      "extensions": {
        "KHR_materials_unlit": {}
      }
    },
    {
      "name": "a008",
      "pbrMetallicRoughness": {
        "baseColorTexture": {
          "index": 5
        },
        "metallicFactor": 0
      },
      "extensions": {
        "KHR_materials_unlit": {}
      }
    },
    {
      "name": "d001",
      "pbrMetallicRoughness": {
        "baseColorTexture": {
          "index": 6
        },
        "metallicFactor": 0
      },
      "extensions": {
        "KHR_materials_unlit": {}
      }
    },
    {
      "name": "d002",
      "pbrMetallicRoughness": {
        "baseColorTexture": {
          "index": 7
        },
        "metallicFactor": 0
      },
      "extensions": {
        "KHR_materials_unlit": {}
      }
    },
    {
      "name": "d003",
      "pbrMetallicRoughness": {
        "baseColorTexture": {
          "index": 8
        },
        "metallicFactor": 0
      },
      "extensions": {
        "KHR_materials_unlit": {}
      }
    },
    {
      "name": "depagray01",
      "pbrMetallicRoughness": {
        "baseColorTexture": {
          "index": 9
        },
        "metallicFactor": 0
      },
      "extensions": {
        "KHR_materials_unlit": {}
      }
    },
    {
      "name": "ele_b01_lm25",
      "pbrMetallicRoughness": {
        "baseColorTexture": {
          "index": 10
        },
        "metallicFactor": 0
      },
      "extensions": {
        "KHR_materials_unlit": {}
      }
    },
    {
      "name": "lambert1",
      "extensions": {
        "KHR_materials_unlit": {}
      }
    }
  ],
  "buffers": [
    {
      "byteLength": 34940,
      "uri": "m_depart02_00_00.bin"
    }
  ]
}