{
  "asset": {
    "version": "2.0"
  },
  "bufferViews": [
    {
      "buffer": 0,
      "byteLength": 12276,
      "byteOffset": 0
    },
    {
      "buffer": 0,
      "byteLength": 8184,
      "byteOffset": 12276
    },
    {
      "buffer": 0,
      "byteLength": 4092,
      "byteStride": 4,
      "byteOffset": 20460
    },
    {
      "buffer": 0,
      "byteOffset": 24552,
      "byteStride": 4,
      "byteLength": 4092
    },
    {
      "buffer": 0,
      "byteOffset": 28644,
      "byteStride": 4,
      "byteLength": 4092
    },
    {
      "buffer": 0,
      "byteLength": 3726,
      "byteOffset": 32736
    },
    {
      "buffer": 0,
      "byteLength": 64,
      "byteOffset": 36464
    }
  ],
  "accessors": [
    {
      "bufferView": 0,
      "type": "VEC3",
      "componentType": 5126,
      "count": 1023,
      "min": [
        -256,
        -2,
        -256
      ],
      "max": [
        256.015625,
        58,
        256
      ]
    },
    {
      "bufferView": 1,
      "type": "VEC2",
      "componentType": 5126,
      "count": 1023
    },
    {
      "bufferView": 2,
      "type": "VEC3",
      "componentType": 5121,
      "normalized": true,
      "count": 1023
    },
    {
      "bufferView": 3,
      "type": "VEC4",
      "componentType": 5121,
      "count": 1023
    },
    {
      "bufferView": 4,
      "type": "VEC4",
      "componentType": 5121,
      "normalized": true,
      "count": 1023
    },
    {
      "bufferView": 5,
      "type": "SCALAR",
      "byteOffset": 0,
      "componentType": 5123,
      "count": 321
    },
    {
      "bufferView": 5,
      "type": "SCALAR",
      "byteOffset": 642,
      "componentType": 5123,
      "count": 384
    },
    {
      "bufferView": 5,
      "type": "SCALAR",
      "byteOffset": 1410,
      "componentType": 5123,
      "count": 576
    },
    {
      "bufferView": 5,
      "type": "SCALAR",
      "byteOffset": 2562,
      "componentType": 5123,
      "count": 582
    },
    {
      "bufferView": 6,
      "type": "MAT4",
      "componentType": 5126,
      "count": 1
    }
  ],
  "extensionsUsed": [
    "FB_ngon_encoding",
    "KHR_materials_unlit"
  ],
  "meshes": [
    {
      "primitives": [
        {
          "attributes": {
            "POSITION": 0,
            "TEXCOORD_0": 1,
            "COLOR_0": 2,
            "JOINTS_0": 3,
            "WEIGHTS_0": 4
          },
          "material": 1,
          "indices": 5,
          "extensions": {
            "FB_ngon_encoding": {}
          }
        },
        {
          "attributes": {
            "POSITION": 0,
            "TEXCOORD_0": 1,
            "COLOR_0": 2,
            "JOINTS_0": 3,
            "WEIGHTS_0": 4
          },
          "material": 0,
          "indices": 6,
          "extensions": {
            "FB_ngon_encoding": {}
          }
        },
        {
          "attributes": {
            "POSITION": 0,
            "TEXCOORD_0": 1,
            "COLOR_0": 2,
            "JOINTS_0": 3,
            "WEIGHTS_0": 4
          },
          "material": 2,
          "indices": 7,
          "extensions": {
            "FB_ngon_encoding": {}
          }
        },
        {
          "attributes": {
            "POSITION": 0,
            "TEXCOORD_0": 1,
            "COLOR_0": 2,
            "JOINTS_0": 3,
            "WEIGHTS_0": 4
          },
          "material": 3,
          "indices": 8,
          "extensions": {
            "FB_ngon_encoding": {}
          }
        }
      ],
      "name": "ugmap01c"
    }
  ],
  "nodes": [
    {
      "name": "polySurface137"
    },
    {
      "mesh": 0,
      "skin": 0,
      "name": "ugmap01c",
      "children": [
        0
      ]
    }
  ],
  "skins": [
    {
      "skeleton": 0,
      "joints": [
        0
      ],
      "inverseBindMatrices": 9
    }
  ],
  "scenes": [
    {
      "nodes": [
        1
      ],
      "name": "ugmap01c"
    }
  ],
  "scene": 0,
  "samplers": [
    {
      "wrapS": 10497,
      "wrapT": 10497,
      "magFilter": 9728,
      "minFilter": 9728
    }
  ],
  "images": [
    {
      "uri": "ug_wall_stem.png"
    },
    {
      "uri": "ug_floor.png"
    },
    {
      "uri": "ug_wall_stem2.png"
    },
    {
      "uri": "ug_map_wall.png"
    }
  ],
  "textures": [
    {
      "source": 0,
      "sampler": 0
    },
    {
      "source": 1,
      "sampler": 0
    },
    {
      "source": 2,
      "sampler": 0
    },
    {
      "source": 3,
      "sampler": 0
    }
  ],
  "materials": [
    {
      "name": "pasted__ug_map_s",
      "pbrMetallicRoughness": {
        "baseColorTexture": {
          "index": 0
        },
        "metallicFactor": 0
      },
      "extensions": {
        "KHR_materials_unlit": {}
      },
      "emissiveFactor": [
        0.19354838132858277,
        0.19354838132858277,
        0.19354838132858277
      ]
    },
    {
      "name": "ug_map_ground",
      "pbrMetallicRoughness": {
        "baseColorTexture": {
          "index": 1
        },
        "metallicFactor": 0
      },
      "extensions": {
        "KHR_materials_unlit": {}
      }
    },
    {
      "name": "ug_map_stem",
      "pbrMetallicRoughness": {
        "baseColorTexture": {
          "index": 2
        },
        "metallicFactor": 0
      },
      "extensions": {
        "KHR_materials_unlit": {}
      },
      "emissiveFactor": [
        0.19354838132858277,
        0.19354838132858277,
        0.19354838132858277
      ]
    },
    {
      "name": "ug_map_wall",
      "pbrMetallicRoughness": {
        "baseColorTexture": {
          "index": 3
        },
        "metallicFactor": 0
      },
      "extensions": {
        "KHR_materials_unlit": {}
      }
    }
  ],
  "buffers": [
    {
      "byteLength": 36528,
      "uri": "ugmap01c.bin"
    }
  ]
}