{
  "asset": {
    "version": "2.0"
  },
  "bufferViews": [
    {
      "buffer": 0,
      "byteLength": 28584,
      "byteOffset": 0
    },
    {
      "buffer": 0,
      "byteLength": 19056,
      "byteOffset": 28584
    },
    {
      "buffer": 0,
      "byteLength": 9528,
      "byteStride": 4,
      "byteOffset": 47640
    },
    {
      "buffer": 0,
      "byteLength": 28584,
      "byteOffset": 57168
    },
    {
      "buffer": 0,
      "byteOffset": 85752,
      "byteStride": 4,
      "byteLength": 9528
    },
    {
      "buffer": 0,
      "byteOffset": 95280,
      "byteStride": 4,
      "byteLength": 9528
    },
    {
      "buffer": 0,
      "byteLength": 7740,
      "byteOffset": 104808
    },
    {
      "buffer": 0,
      "byteLength": 64,
      "byteOffset": 112548
    }
  ],
  "accessors": [
    {
      "bufferView": 0,
      "type": "VEC3",
      "componentType": 5126,
      "count": 2382,
      "min": [
        -256,
        0,
        -273.921875
      ],
      "max": [
        256,
        106.3125,
        272
      ]
    },
    {
      "bufferView": 1,
      "type": "VEC2",
      "componentType": 5126,
      "count": 2382
    },
    {
      "bufferView": 2,
      "type": "VEC3",
      "componentType": 5121,
      "normalized": true,
      "count": 2382
    },
    {
      "bufferView": 3,
      "type": "VEC3",
      "componentType": 5126,
      "count": 2382
    },
    {
      "bufferView": 4,
      "type": "VEC4",
      "componentType": 5121,
      "count": 2382
    },
    {
      "bufferView": 5,
      "type": "VEC4",
      "componentType": 5121,
      "normalized": true,
      "count": 2382
    },
    {
      "bufferView": 6,
      "type": "SCALAR",
      "byteOffset": 0,
      "componentType": 5123,
      "count": 6
    },
    {
      "bufferView": 6,
      "type": "SCALAR",
      "byteOffset": 12,
      "componentType": 5123,
      "count": 12
    },
    {
      "bufferView": 6,
      "type": "SCALAR",
      "byteOffset": 36,
      "componentType": 5123,
      "count": 18
    },
    {
      "bufferView": 6,
      "type": "SCALAR",
      "byteOffset": 72,
      "componentType": 5123,
      "count": 66
    },
    {
      "bufferView": 6,
      "type": "SCALAR",
      "byteOffset": 204,
      "componentType": 5123,
      "count": 60
    },
    {
      "bufferView": 6,
      "type": "SCALAR",
      "byteOffset": 324,
      "componentType": 5123,
      "count": 66
    },
    {
      "bufferView": 6,
      "type": "SCALAR",
      "byteOffset": 456,
      "componentType": 5123,
      "count": 72
    },
    {
      "bufferView": 6,
      "type": "SCALAR",
      "byteOffset": 600,
      "componentType": 5123,
      "count": 96
    },
    {
      "bufferView": 6,
      "type": "SCALAR",
      "byteOffset": 792,
      "componentType": 5123,
      "count": 96
    },
    {
      "bufferView": 6,
      "type": "SCALAR",
      "byteOffset": 984,
      "componentType": 5123,
      "count": 156
    },
    {
      "bufferView": 6,
      "type": "SCALAR",
      "byteOffset": 1296,
      "componentType": 5123,
      "count": 162
    },
    {
      "bufferView": 6,
      "type": "SCALAR",
      "byteOffset": 1620,
      "componentType": 5123,
      "count": 177
    },
    {
      "bufferView": 6,
      "type": "SCALAR",
      "byteOffset": 1974,
      "componentType": 5123,
      "count": 276
    },
    {
      "bufferView": 6,
      "type": "SCALAR",
      "byteOffset": 2526,
      "componentType": 5123,
      "count": 372
    },
    {
      "bufferView": 6,
      "type": "SCALAR",
      "byteOffset": 3270,
      "componentType": 5123,
      "count": 816
    },
    {
      "bufferView": 6,
      "type": "SCALAR",
      "byteOffset": 4902,
      "componentType": 5123,
      "count": 1281
    },
    {
      "bufferView": 6,
      "type": "SCALAR",
      "byteOffset": 7464,
      "componentType": 5123,
      "count": 18
    },
    {
      "bufferView": 6,
      "type": "SCALAR",
      "byteOffset": 7500,
      "componentType": 5123,
      "count": 120
    },
    {
      "bufferView": 7,
      "type": "MAT4",
      "componentType": 5126,
      "count": 1
    }
  ],
  "extensionsUsed": [
    "FB_ngon_encoding",
    "KHR_materials_unlit"
  ],
  "meshes": [
    {
      "primitives": [
        {
          "attributes": {
            "POSITION": 0,
            "TEXCOORD_0": 1,
            "COLOR_0": 2,
            "NORMAL": 3,
            "JOINTS_0": 4,
            "WEIGHTS_0": 5
          },
          "material": 14,
          "indices": 6,
          "extensions": {
            "FB_ngon_encoding": {}
          }
        },
        {
          "attributes": {
            "POSITION": 0,
            "TEXCOORD_0": 1,
            "COLOR_0": 2,
            "NORMAL": 3,
            "JOINTS_0": 4,
            "WEIGHTS_0": 5
          },
          "material": 7,
          "indices": 7,
          "extensions": {
            "FB_ngon_encoding": {}
          }
        },
        {
          "attributes": {
            "POSITION": 0,
            "TEXCOORD_0": 1,
            "COLOR_0": 2,
            "NORMAL": 3,
            "JOINTS_0": 4,
            "WEIGHTS_0": 5
          },
          "material": 8,
          "indices": 8,
          "extensions": {
            "FB_ngon_encoding": {}
          }
        },
        {
          "attributes": {
            "POSITION": 0,
            "TEXCOORD_0": 1,
            "COLOR_0": 2,
            "NORMAL": 3,
            "JOINTS_0": 4,
            "WEIGHTS_0": 5
          },
          "material": 0,
          "indices": 9,
          "extensions": {
            "FB_ngon_encoding": {}
          }
        },
        {
          "attributes": {
            "POSITION": 0,
            "TEXCOORD_0": 1,
            "COLOR_0": 2,
            "NORMAL": 3,
            "JOINTS_0": 4,
            "WEIGHTS_0": 5
          },
          "material": 6,
          "indices": 10,
          "extensions": {
            "FB_ngon_encoding": {}
          }
        },
        {
          "attributes": {
            "POSITION": 0,
            "TEXCOORD_0": 1,
            "COLOR_0": 2,
            "NORMAL": 3,
            "JOINTS_0": 4,
            "WEIGHTS_0": 5
          },
          "material": 17,
          "indices": 11,
          "extensions": {
            "FB_ngon_encoding": {}
          }
        },
        {
          "attributes": {
            "POSITION": 0,
            "TEXCOORD_0": 1,
            "COLOR_0": 2,
            "NORMAL": 3,
            "JOINTS_0": 4,
            "WEIGHTS_0": 5
          },
          "material": 4,
          "indices": 12,
          "extensions": {
            "FB_ngon_encoding": {}
          }
        },
        {
          "attributes": {
            "POSITION": 0,
            "TEXCOORD_0": 1,
            "COLOR_0": 2,
            "NORMAL": 3,
            "JOINTS_0": 4,
            "WEIGHTS_0": 5
          },
          "material": 1,
          "indices": 13,
          "extensions": {
            "FB_ngon_encoding": {}
          }
        },
        {
          "attributes": {
            "POSITION": 0,
            "TEXCOORD_0": 1,
            "COLOR_0": 2,
            "NORMAL": 3,
            "JOINTS_0": 4,
            "WEIGHTS_0": 5
          },
          "material": 2,
          "indices": 14,
          "extensions": {
            "FB_ngon_encoding": {}
          }
        },
        {
          "attributes": {
            "POSITION": 0,
            "TEXCOORD_0": 1,
            "COLOR_0": 2,
            "NORMAL": 3,
            "JOINTS_0": 4,
            "WEIGHTS_0": 5
          },
          "material": 9,
          "indices": 15,
          "extensions": {
            "FB_ngon_encoding": {}
          }
        },
        {
          "attributes": {
            "POSITION": 0,
            "TEXCOORD_0": 1,
            "COLOR_0": 2,
            "NORMAL": 3,
            "JOINTS_0": 4,
            "WEIGHTS_0": 5
          },
          "material": 15,
          "indices": 16,
          "extensions": {
            "FB_ngon_encoding": {}
          }
        },
        {
          "attributes": {
            "POSITION": 0,
            "TEXCOORD_0": 1,
            "COLOR_0": 2,
            "NORMAL": 3,
            "JOINTS_0": 4,
            "WEIGHTS_0": 5
          },
          "material": 11,
          "indices": 17,
          "extensions": {
            "FB_ngon_encoding": {}
          }
        },
        {
          "attributes": {
            "POSITION": 0,
            "TEXCOORD_0": 1,
            "COLOR_0": 2,
            "NORMAL": 3,
            "JOINTS_0": 4,
            "WEIGHTS_0": 5
          },
          "material": 3,
          "indices": 18,
          "extensions": {
            "FB_ngon_encoding": {}
          }
        },
        {
          "attributes": {
            "POSITION": 0,
            "TEXCOORD_0": 1,
            "COLOR_0": 2,
            "NORMAL": 3,
            "JOINTS_0": 4,
            "WEIGHTS_0": 5
          },
          "material": 10,
          "indices": 19,
          "extensions": {
            "FB_ngon_encoding": {}
          }
        },
        {
          "attributes": {
            "POSITION": 0,
            "TEXCOORD_0": 1,
            "COLOR_0": 2,
            "NORMAL": 3,
            "JOINTS_0": 4,
            "WEIGHTS_0": 5
          },
          "material": 16,
          "indices": 20,
          "extensions": {
            "FB_ngon_encoding": {}
          }
        },
        {
          "attributes": {
            "POSITION": 0,
            "TEXCOORD_0": 1,
            "COLOR_0": 2,
            "NORMAL": 3,
            "JOINTS_0": 4,
            "WEIGHTS_0": 5
          },
          "material": 5,
          "indices": 21,
          "extensions": {
            "FB_ngon_encoding": {}
          }
        },
        {
          "attributes": {
            "POSITION": 0,
            "TEXCOORD_0": 1,
            "COLOR_0": 2,
            "NORMAL": 3,
            "JOINTS_0": 4,
            "WEIGHTS_0": 5
          },
          "material": 12,
          "indices": 22,
          "extensions": {
            "FB_ngon_encoding": {}
          }
        },
        {
          "attributes": {
            "POSITION": 0,
            "TEXCOORD_0": 1,
            "COLOR_0": 2,
            "NORMAL": 3,
            "JOINTS_0": 4,
            "WEIGHTS_0": 5
          },
          "material": 13,
          "indices": 23,
          "extensions": {
            "FB_ngon_encoding": {}
          }
        }
      ],
      "name": "map07_23c"
    }
  ],
  "nodes": [
    {
      "name": "polySurface3"
    },
    {
      "mesh": 0,
      "skin": 0,
      "name": "map07_23c",
      "children": [
        0
      ]
    }
  ],
  "skins": [
    {
      "skeleton": 0,
      "joints": [
        0
      ],
      "inverseBindMatrices": 24
    }
  ],
  "scenes": [
    {
      "nodes": [
        1
      ],
      "name": "map07_23c"
    }
  ],
  "scene": 0,
  "samplers": [
    {
      "wrapS": 10497,
      "wrapT": 10497,
      "magFilter": 9728,
      "minFilter": 9728
    }
  ],
  "images": [
    {
      "uri": "allpeak.png"
    },
    {
      "uri": "conttree_b.png"
    },
    {
      "uri": "conttree_t.png"
    },
    {
      "uri": "criff.png"
    },
    {
      "uri": "criffp2.png"
    },
    {
      "uri": "criffp.png"
    },
    {
      "uri": "dhole.png"
    },
    {
      "uri": "lake.png"
    },
    {
      "uri": "lakep_1.png"
    },
    {
      "uri": "nectgr.png"
    },
    {
      "uri": "newstep.png"
    },
    {
      "uri": "ngrass.png"
    },
    {
      "uri": "nsand.png"
    },
    {
      "uri": "nsandp.png"
    },
    {
      "uri": "puddle_b.png"
    },
    {
      "uri": "seaside3.png"
    },
    {
      "uri": "tree01.png"
    },
    {
      "uri": "tshadow.png"
    }
  ],
  "textures": [
    {
      "source": 0,
      "sampler": 0
    },
    {
      "source": 1,
      "sampler": 0
    },
    {
      "source": 2,
      "sampler": 0
    },
    {
      "source": 3,
      "sampler": 0
    },
    {
      "source": 4,
      "sampler": 0
    },
    {
      "source": 5,
      "sampler": 0
    },
    {
      "source": 6,
      "sampler": 0
    },
    {
      "source": 7,
      "sampler": 0
    },
    {
      "source": 8,
      "sampler": 0
    },
    {
      "source": 9,
      "sampler": 0
    },
    {
      "source": 10,
      "sampler": 0
    },
    {
      "source": 11,
      "sampler": 0
    },
    {
      "source": 12,
      "sampler": 0
    },
    {
      "source": 13,
      "sampler": 0
    },
    {
      "source": 14,
      "sampler": 0
    },
    {
      "source": 15,
      "sampler": 0
    },
    {
      "source": 16,
      "sampler": 0
    },
    {
      "source": 17,
      "sampler": 0
    }
  ],
  "materials": [
    {
      "name": "allpeak_lm37",
      "pbrMetallicRoughness": {
        "baseColorTexture": {
          "index": 0
        },
        "metallicFactor": 0
      },
      "extensions": {
        "KHR_materials_unlit": {}
      },
      "alphaMode": "MASK"
    },
    {
      "name": "conttree_b_lm20",
      "pbrMetallicRoughness": {
        "baseColorTexture": {
          "index": 1
        },
        "metallicFactor": 0
      },
      "extensions": {
        "KHR_materials_unlit": {}
      },
      "alphaMode": "MASK"
    },
    {
      "name": "conttree_t_lm20",
      "pbrMetallicRoughness": {
        "baseColorTexture": {
          "index": 2
        },
        "metallicFactor": 0
      },
      "extensions": {
        "KHR_materials_unlit": {}
      },
      "alphaMode": "MASK"
    },
    {
      "name": "criff_lm54",
      "pbrMetallicRoughness": {
        "baseColorTexture": {
          "index": 3
        },
        "metallicFactor": 0
      },
      "extensions": {
        "KHR_materials_unlit": {}
      }
    },
    {
      "name": "criffp2_lm1",
      "pbrMetallicRoughness": {
        "baseColorTexture": {
          "index": 4
        },
        "metallicFactor": 0
      },
      "extensions": {
        "KHR_materials_unlit": {}
      }
    },
    {
      "name": "criffp_lm52",
      "pbrMetallicRoughness": {
        "baseColorTexture": {
          "index": 5
        },
        "metallicFactor": 0
      },
      "extensions": {
        "KHR_materials_unlit": {}
      }
    },
    {
      "name": "dhole_lm27",
      "pbrMetallicRoughness": {
        "baseColorTexture": {
          "index": 6
        },
        "metallicFactor": 0
      },
      "extensions": {
        "KHR_materials_unlit": {}
      },
      "alphaMode": "MASK"
    },
    {
      "name": "lake_lm43",
      "pbrMetallicRoughness": {
        "baseColorTexture": {
          "index": 7
        },
        "metallicFactor": 0
      },
      "extensions": {
        "KHR_materials_unlit": {}
      }
    },
    {
      "name": "lakep_lm8",
      "pbrMetallicRoughness": {
        "baseColorTexture": {
          "index": 8
        },
        "metallicFactor": 0
      },
      "extensions": {
        "KHR_materials_unlit": {}
      },
      "alphaMode": "BLEND"
    },
    {
      "name": "nectgr_lm59",
      "pbrMetallicRoughness": {
        "baseColorTexture": {
          "index": 9
        },
        "metallicFactor": 0
      },
      "extensions": {
        "KHR_materials_unlit": {}
      },
      "alphaMode": "MASK"
    },
    {
      "name": "newstep_lm31",
      "pbrMetallicRoughness": {
        "baseColorTexture": {
          "index": 10
        },
        "metallicFactor": 0
      },
      "extensions": {
        "KHR_materials_unlit": {}
      }
    },
    {
      "name": "ngrass_lm47",
      "pbrMetallicRoughness": {
        "baseColorTexture": {
          "index": 11
        },
        "metallicFactor": 0
      },
      "extensions": {
        "KHR_materials_unlit": {}
      }
    },
    {
      "name": "nsand_lm53",
      "pbrMetallicRoughness": {
        "baseColorTexture": {
          "index": 12
        },
        "metallicFactor": 0
      },
      "extensions": {
        "KHR_materials_unlit": {}
      },
      "alphaMode": "MASK"
    },
    {
      "name": "nsandp_lm71",
      "pbrMetallicRoughness": {
        "baseColorTexture": {
          "index": 13
        },
        "metallicFactor": 0
      },
      "extensions": {
        "KHR_materials_unlit": {}
      }
    },
    {
      "name": "puddle_b_lm15",
      "pbrMetallicRoughness": {
        "baseColorTexture": {
          "index": 14
        },
        "metallicFactor": 0
      },
      "extensions": {
        "KHR_materials_unlit": {}
      }
    },
    {
      "name": "seaside3_lm56",
      "pbrMetallicRoughness": {
        "baseColorTexture": {
          "index": 15
        },
        "metallicFactor": 0
      },
      "extensions": {
        "KHR_materials_unlit": {}
      },
      "alphaMode": "MASK"
    },
    {
      "name": "tree01_lm49",
      "pbrMetallicRoughness": {
        "baseColorTexture": {
          "index": 16
        },
        "metallicFactor": 0
      },
      "extensions": {
        "KHR_materials_unlit": {}
      },
      "alphaMode": "MASK"
    },
    {
      "name": "tshadow_lm13",
      "pbrMetallicRoughness": {
        "baseColorTexture": {
          "index": 17
        },
        "metallicFactor": 0
      },
      "extensions": {
        "KHR_materials_unlit": {}
      }
    }
  ],
  "buffers": [
    {
      "byteLength": 112612,
      "uri": "map07_23c.bin"
    }
  ]
}