{
  "asset": {
    "version": "2.0"
  },
  "bufferViews": [
    {
      "buffer": 0,
      "byteLength": 48,
      "byteOffset": 0
    },
    {
      "buffer": 0,
      "byteLength": 32,
      "byteOffset": 48
    },
    {
      "buffer": 0,
      "byteLength": 16,
      "byteStride": 4,
      "byteOffset": 80
    },
    {
      "buffer": 0,
      "byteLength": 48,
      "byteOffset": 96
    },
    {
      "buffer": 0,
      "byteOffset": 144,
      "byteStride": 4,
      "byteLength": 16
    },
    {
      "buffer": 0,
      "byteOffset": 160,
      "byteStride": 4,
      "byteLength": 16
    },
    {
      "buffer": 0,
      "byteLength": 12,
      "byteOffset": 176
    },
    {
      "buffer": 0,
      "byteLength": 64,
      "byteOffset": 188
    },
    {
      "buffer": 0,
      "byteLength": 156,
      "byteOffset": 252
    },
    {
      "buffer": 0,
      "byteOffset": 408,
      "byteLength": 48
    }
  ],
  "accessors": [
    {
      "bufferView": 0,
      "type": "VEC3",
      "componentType": 5126,
      "count": 4,
      "min": [
        -9.12890625,
        6.87109375,
        0
      ],
      "max": [
        9.12890625,
        25.12890625,
        0
      ]
    },
    {
      "bufferView": 1,
      "type": "VEC2",
      "componentType": 5126,
      "count": 4
    },
    {
      "bufferView": 2,
      "type": "VEC3",
      "componentType": 5121,
      "normalized": true,
      "count": 4
    },
    {
      "bufferView": 3,
      "type": "VEC3",
      "componentType": 5126,
      "count": 4
    },
    {
      "bufferView": 4,
      "type": "VEC4",
      "componentType": 5121,
      "count": 4
    },
    {
      "bufferView": 5,
      "type": "VEC4",
      "componentType": 5121,
      "normalized": true,
      "count": 4
    },
    {
      "bufferView": 6,
      "type": "SCALAR",
      "byteOffset": 0,
      "componentType": 5123,
      "count": 6
    },
    {
      "bufferView": 7,
      "type": "MAT4",
      "componentType": 5126,
      "count": 1
    },
    {
      "bufferView": 9,
      "type": "SCALAR",
      "componentType": 5126,
      "byteOffset": 0,
      "count": 1,
      "min": [
        0
      ],
      "max": [
        0
      ]
    },
    {
      "bufferView": 8,
      "type": "VEC3",
      "componentType": 5126,
      "byteOffset": 0,
      "count": 1
    },
    {
      "bufferView": 9,
      "type": "SCALAR",
      "componentType": 5126,
      "byteOffset": 0,
      "count": 12,
      "min": [
        0
      ],
      "max": [
        0.18333333730697633
      ]
    },
    {
      "bufferView": 8,
      "type": "VEC3",
      "componentType": 5126,
      "byteOffset": 12,
      "count": 12
    }
  ],
  "extensionsUsed": [
    "FB_ngon_encoding",
    "KHR_materials_unlit"
  ],
  "meshes": [
    {
      "primitives": [
        {
          "attributes": {
            "POSITION": 0,
            "TEXCOORD_0": 1,
            "COLOR_0": 2,
            "NORMAL": 3,
            "JOINTS_0": 4,
            "WEIGHTS_0": 5
          },
          "material": 0,
          "indices": 6,
          "extensions": {
            "FB_ngon_encoding": {}
          }
        }
      ],
      "name": "d33_wave_obj"
    }
  ],
  "nodes": [
    {
      "name": "pPlane1",
      "translation": [
        0,
        16,
        0
      ],
      "scale": [
        0.570556640625,
        0.570556640625,
        0.570556640625
      ]
    },
    {
      "mesh": 0,
      "skin": 0,
      "name": "d33_wave_obj",
      "children": [
        0
      ]
    }
  ],
  "skins": [
    {
      "skeleton": 0,
      "joints": [
        0
      ],
      "inverseBindMatrices": 7
    }
  ],
  "scenes": [
    {
      "nodes": [
        1
      ],
      "name": "d33_wave_obj"
    }
  ],
  "scene": 0,
  "animations": [
    {
      "name": "d33_wave_obj",
      "samplers": [
        {
          "input": 8,
          "output": 9
        },
        {
          "input": 10,
          "output": 11
        }
      ],
      "channels": [
        {
          "target": {
            "node": 0,
            "path": "translation"
          },
          "sampler": 0
        },
        {
          "target": {
            "node": 0,
            "path": "scale"
          },
          "sampler": 1
        }
      ]
    }
  ],
  "samplers": [
    {
      "wrapS": 33648,
      "wrapT": 33648,
      "magFilter": 9728,
      "minFilter": 9728
    }
  ],
  "images": [
    {
      "uri": "d22_wave_1.png"
    }
  ],
  "textures": [
    {
      "source": 0,
      "sampler": 0
    }
  ],
  "materials": [
    {
      "name": "file1Material",
      "pbrMetallicRoughness": {
        "baseColorTexture": {
          "index": 0
        },
        "metallicFactor": 0
      },
      "extensions": {
        "KHR_materials_unlit": {}
      },
      "alphaMode": "MASK"
    }
  ],
  "buffers": [
    {
      "byteLength": 456,
      "uri": "d33_wave_obj.bin"
    }
  ]
}