{
  "asset": {
    "version": "2.0"
  },
  "bufferViews": [
    {
      "buffer": 0,
      "byteLength": 6780,
      "byteOffset": 0
    },
    {
      "buffer": 0,
      "byteLength": 4520,
      "byteOffset": 6780
    },
    {
      "buffer": 0,
      "byteLength": 2260,
      "byteStride": 4,
      "byteOffset": 11300
    },
    {
      "buffer": 0,
      "byteLength": 6780,
      "byteOffset": 13560
    },
    {
      "buffer": 0,
      "byteOffset": 20340,
      "byteStride": 4,
      "byteLength": 2260
    },
    {
      "buffer": 0,
      "byteOffset": 22600,
      "byteStride": 4,
      "byteLength": 2260
    },
    {
      "buffer": 0,
      "byteLength": 1830,
      "byteOffset": 24860
    },
    {
      "buffer": 0,
      "byteLength": 64,
      "byteOffset": 26692
    }
  ],
  "accessors": [
    {
      "bufferView": 0,
      "type": "VEC3",
      "componentType": 5126,
      "count": 565,
      "min": [
        -240,
        -11,
        -214
      ],
      "max": [
        240,
        9,
        192
      ]
    },
    {
      "bufferView": 1,
      "type": "VEC2",
      "componentType": 5126,
      "count": 565
    },
    {
      "bufferView": 2,
      "type": "VEC3",
      "componentType": 5121,
      "normalized": true,
      "count": 565
    },
    {
      "bufferView": 3,
      "type": "VEC3",
      "componentType": 5126,
      "count": 565
    },
    {
      "bufferView": 4,
      "type": "VEC4",
      "componentType": 5121,
      "count": 565
    },
    {
      "bufferView": 5,
      "type": "VEC4",
      "componentType": 5121,
      "normalized": true,
      "count": 565
    },
    {
      "bufferView": 6,
      "type": "SCALAR",
      "byteOffset": 0,
      "componentType": 5123,
      "count": 48
    },
    {
      "bufferView": 6,
      "type": "SCALAR",
      "byteOffset": 96,
      "componentType": 5123,
      "count": 60
    },
    {
      "bufferView": 6,
      "type": "SCALAR",
      "byteOffset": 216,
      "componentType": 5123,
      "count": 174
    },
    {
      "bufferView": 6,
      "type": "SCALAR",
      "byteOffset": 564,
      "componentType": 5123,
      "count": 177
    },
    {
      "bufferView": 6,
      "type": "SCALAR",
      "byteOffset": 918,
      "componentType": 5123,
      "count": 204
    },
    {
      "bufferView": 6,
      "type": "SCALAR",
      "byteOffset": 1326,
      "componentType": 5123,
      "count": 252
    },
    {
      "bufferView": 7,
      "type": "MAT4",
      "componentType": 5126,
      "count": 1
    }
  ],
  "extensionsUsed": [
    "FB_ngon_encoding",
    "KHR_materials_unlit"
  ],
  "meshes": [
    {
      "primitives": [
        {
          "attributes": {
            "POSITION": 0,
            "TEXCOORD_0": 1,
            "COLOR_0": 2,
            "NORMAL": 3,
            "JOINTS_0": 4,
            "WEIGHTS_0": 5
          },
          "material": 1,
          "indices": 6,
          "extensions": {
            "FB_ngon_encoding": {}
          }
        },
        {
          "attributes": {
            "POSITION": 0,
            "TEXCOORD_0": 1,
            "COLOR_0": 2,
            "NORMAL": 3,
            "JOINTS_0": 4,
            "WEIGHTS_0": 5
          },
          "material": 3,
          "indices": 7,
          "extensions": {
            "FB_ngon_encoding": {}
          }
        },
        {
          "attributes": {
            "POSITION": 0,
            "TEXCOORD_0": 1,
            "COLOR_0": 2,
            "NORMAL": 3,
            "JOINTS_0": 4,
            "WEIGHTS_0": 5
          },
          "material": 5,
          "indices": 8,
          "extensions": {
            "FB_ngon_encoding": {}
          }
        },
        {
          "attributes": {
            "POSITION": 0,
            "TEXCOORD_0": 1,
            "COLOR_0": 2,
            "NORMAL": 3,
            "JOINTS_0": 4,
            "WEIGHTS_0": 5
          },
          "material": 0,
          "indices": 9,
          "extensions": {
            "FB_ngon_encoding": {}
          }
        },
        {
          "attributes": {
            "POSITION": 0,
            "TEXCOORD_0": 1,
            "COLOR_0": 2,
            "NORMAL": 3,
            "JOINTS_0": 4,
            "WEIGHTS_0": 5
          },
          "material": 2,
          "indices": 10,
          "extensions": {
            "FB_ngon_encoding": {}
          }
        },
        {
          "attributes": {
            "POSITION": 0,
            "TEXCOORD_0": 1,
            "COLOR_0": 2,
            "NORMAL": 3,
            "JOINTS_0": 4,
            "WEIGHTS_0": 5
          },
          "material": 4,
          "indices": 11,
          "extensions": {
            "FB_ngon_encoding": {}
          }
        }
      ],
      "name": "gym02_3f"
    }
  ],
  "nodes": [
    {
      "name": "polySurface147"
    },
    {
      "mesh": 0,
      "skin": 0,
      "name": "gym02_3f",
      "children": [
        0
      ]
    }
  ],
  "skins": [
    {
      "skeleton": 0,
      "joints": [
        0
      ],
      "inverseBindMatrices": 12
    }
  ],
  "scenes": [
    {
      "nodes": [
        1
      ],
      "name": "gym02_3f"
    }
  ],
  "scene": 0,
  "samplers": [
    {
      "wrapS": 10497,
      "wrapT": 10497,
      "magFilter": 9728,
      "minFilter": 9728
    }
  ],
  "images": [
    {
      "uri": "gym02_floor.png"
    },
    {
      "uri": "gym02tetsu16.png"
    },
    {
      "uri": "gym02_slit2.png"
    },
    {
      "uri": "gym02_Plate.png"
    },
    {
      "uri": "gym02_shaft.png"
    }
  ],
  "textures": [
    {
      "source": 0,
      "sampler": 0
    },
    {
      "source": 1,
      "sampler": 0
    },
    {
      "source": 2,
      "sampler": 0
    },
    {
      "source": 3,
      "sampler": 0
    },
    {
      "source": 4,
      "sampler": 0
    }
  ],
  "materials": [
    {
      "name": "firstFloor1",
      "pbrMetallicRoughness": {
        "baseColorTexture": {
          "index": 0
        },
        "metallicFactor": 0
      },
      "extensions": {
        "KHR_materials_unlit": {}
      }
    },
    {
      "name": "lambert11",
      "pbrMetallicRoughness": {
        "baseColorFactor": [
          1,
          1,
          1,
          0.3870967626571655
        ]
      },
      "extensions": {
        "KHR_materials_unlit": {}
      },
      "alphaMode": "BLEND"
    },
    {
      "name": "lambert13",
      "pbrMetallicRoughness": {
        "baseColorTexture": {
          "index": 1
        },
        "metallicFactor": 0
      },
      "extensions": {
        "KHR_materials_unlit": {}
      }
    },
    {
      "name": "lambert16",
      "pbrMetallicRoughness": {
        "baseColorTexture": {
          "index": 2
        },
        "metallicFactor": 0
      },
      "extensions": {
        "KHR_materials_unlit": {}
      }
    },
    {
      "name": "lambert6",
      "pbrMetallicRoughness": {
        "baseColorTexture": {
          "index": 3
        },
        "metallicFactor": 0
      },
      "extensions": {
        "KHR_materials_unlit": {}
      }
    },
    {
      "name": "lambert7",
      "pbrMetallicRoughness": {
        "baseColorTexture": {
          "index": 4
        },
        "metallicFactor": 0
      },
      "extensions": {
        "KHR_materials_unlit": {}
      }
    }
  ],
  "buffers": [
    {
      "byteLength": 26756,
      "uri": "gym02_3f.bin"
    }
  ]
}